<svg width="672" height="300" viewBox="0 0 672 300" fill="none" xmlns="http://www.w3.org/2000/svg">
<path d="M556.192 58.3465C556.718 58.5165 557.281 58.2284 557.451 57.703L560.223 49.1403C560.393 48.6149 560.105 48.051 559.579 47.881C559.054 47.7109 558.49 47.999 558.32 48.5245L555.857 56.1357L548.245 53.6723C547.72 53.5023 547.156 53.7904 546.986 54.3158C546.816 54.8413 547.104 55.4051 547.629 55.5751L556.192 58.3465ZM112.063 226.743C123.987 258.816 137.976 276.61 153.762 283.32C169.608 290.055 186.91 285.484 205.064 273.742C223.225 261.996 242.447 242.946 262.288 220.295C282.138 197.635 302.665 171.301 323.418 144.951C344.181 118.589 365.173 92.2061 385.983 69.3978C406.8 46.5817 427.384 27.3991 447.319 15.4C467.251 3.40237 486.397 -1.33594 504.438 4.47466C522.499 10.292 539.728 26.7696 555.61 57.8501L557.39 56.9401C541.4 25.6454 523.84 8.62283 505.051 2.57097C486.24 -3.48768 466.474 1.53564 446.288 13.6864C426.104 25.8357 405.364 45.1881 384.505 68.0498C363.64 90.9192 342.606 117.357 321.847 143.713C301.079 170.082 280.59 196.366 260.784 218.977C240.969 241.597 221.896 260.473 203.978 272.063C186.052 283.657 169.491 287.832 154.544 281.479C139.539 275.101 125.807 257.974 113.937 226.046L112.063 226.743Z" fill="#68B0F3"/>
<g filter="url(#filter0_bdddd_4662_11451)">
<rect x="22" y="61" width="188" height="163.858" rx="8" fill="white"/>
<path d="M46.8452 97.1818H47.6861L49.6634 102.011H49.7315L51.7088 97.1818H52.5497V103H51.8906V98.5795H51.8338L50.0156 103H49.3793L47.5611 98.5795H47.5043V103H46.8452V97.1818Z" fill="#949494"/>
<path d="M68.6168 97.8068V97.1818H72.9805V97.8068H71.1509V103H70.4464V97.8068H68.6168Z" fill="#949494"/>
<path d="M92.0778 103L90.4869 97.1818H91.2028L92.4187 101.92H92.4755L93.7141 97.1818H94.5096L95.7482 101.92H95.805L97.021 97.1818H97.7369L96.146 103H95.4187L94.1346 98.3636H94.0891L92.805 103H92.0778Z" fill="#949494"/>
<path d="M112.793 97.8068V97.1818H117.156V97.8068H115.327V103H114.622V97.8068H112.793Z" fill="#949494"/>
<path d="M110.896 71.5286H112.02V76.8257C112.02 77.3048 111.925 77.7146 111.735 78.0551C111.548 78.3956 111.284 78.6559 110.944 78.8358C110.603 79.0134 110.204 79.1021 109.747 79.1021C109.326 79.1021 108.948 79.0255 108.612 78.8723C108.279 78.7191 108.015 78.4966 107.821 78.2047C107.629 77.9104 107.533 77.5529 107.533 77.1321H108.653C108.653 77.3389 108.7 77.5176 108.795 77.6684C108.892 77.8192 109.025 77.9372 109.193 78.0223C109.363 78.105 109.557 78.1463 109.776 78.1463C110.015 78.1463 110.216 78.0965 110.382 77.9968C110.55 77.8946 110.677 77.745 110.765 77.548C110.852 77.351 110.896 77.1103 110.896 76.8257V71.5286ZM115.204 79.124C114.849 79.124 114.528 79.0584 114.241 78.927C113.954 78.7933 113.726 78.5999 113.558 78.347C113.393 78.094 113.31 77.7839 113.31 77.4167C113.31 77.1005 113.371 76.8403 113.493 76.636C113.614 76.4317 113.779 76.27 113.985 76.1508C114.192 76.0316 114.423 75.9416 114.678 75.8808C114.934 75.82 115.194 75.7738 115.459 75.7422C115.795 75.7033 116.067 75.6717 116.276 75.6473C116.486 75.6206 116.638 75.578 116.732 75.5197C116.827 75.4613 116.875 75.3664 116.875 75.2351V75.2096C116.875 74.891 116.785 74.6441 116.605 74.469C116.427 74.2939 116.162 74.2063 115.809 74.2063C115.442 74.2063 115.153 74.2878 114.941 74.4507C114.732 74.6113 114.587 74.79 114.507 74.987L113.482 74.7535C113.603 74.413 113.781 74.1382 114.014 73.9291C114.25 73.7175 114.522 73.5642 114.828 73.4694C115.134 73.3721 115.457 73.3235 115.795 73.3235C116.019 73.3235 116.256 73.3502 116.506 73.4037C116.759 73.4548 116.995 73.5496 117.214 73.6883C117.435 73.8269 117.616 74.0251 117.758 74.2829C117.899 74.5383 117.969 74.8703 117.969 75.2789V79H116.904V78.2339H116.86C116.79 78.3749 116.684 78.5136 116.543 78.6498C116.402 78.786 116.22 78.8991 115.999 78.9891C115.778 79.079 115.513 79.124 115.204 79.124ZM115.441 78.2485C115.743 78.2485 116 78.1889 116.214 78.0697C116.431 77.9505 116.595 77.7949 116.707 77.6028C116.821 77.4082 116.878 77.2002 116.878 76.9789V76.2566C116.839 76.2955 116.764 76.332 116.652 76.366C116.543 76.3976 116.417 76.4256 116.276 76.4499C116.135 76.4718 115.998 76.4925 115.864 76.512C115.73 76.529 115.618 76.5436 115.528 76.5557C115.317 76.5825 115.124 76.6275 114.948 76.6907C114.776 76.7539 114.637 76.8452 114.533 76.9643C114.43 77.0811 114.379 77.2367 114.379 77.4313C114.379 77.7013 114.479 77.9056 114.678 78.0442C114.878 78.1804 115.132 78.2485 115.441 78.2485ZM120.513 75.6729V79H119.422V73.3964H120.469V74.3085H120.538C120.667 74.0117 120.869 73.7734 121.144 73.5934C121.421 73.4134 121.77 73.3235 122.191 73.3235C122.573 73.3235 122.907 73.4037 123.194 73.5642C123.481 73.7223 123.704 73.9582 123.862 74.272C124.02 74.5857 124.099 74.9736 124.099 75.4357V79H123.008V75.5671C123.008 75.1609 122.902 74.8435 122.691 74.6149C122.479 74.3839 122.188 74.2683 121.819 74.2683C121.566 74.2683 121.341 74.3231 121.144 74.4325C120.949 74.5419 120.795 74.7025 120.681 74.9141C120.569 75.1232 120.513 75.3762 120.513 75.6729Z" fill="black"/>
<path d="M135.197 103V97.1818H138.685V97.8068H135.901V99.7727H138.424V100.398H135.901V103H135.197Z" fill="#949494"/>
<path d="M160.464 98.6364C160.43 98.3485 160.292 98.125 160.05 97.9659C159.807 97.8068 159.51 97.7273 159.158 97.7273C158.9 97.7273 158.675 97.7689 158.482 97.8523C158.29 97.9356 158.141 98.0502 158.033 98.196C157.927 98.3419 157.874 98.5076 157.874 98.6932C157.874 98.8485 157.911 98.982 157.984 99.0938C158.06 99.2036 158.157 99.2955 158.274 99.3693C158.392 99.4413 158.515 99.5009 158.643 99.5483C158.772 99.5937 158.891 99.6307 158.999 99.6591L159.589 99.8182C159.741 99.858 159.91 99.9129 160.095 99.983C160.283 100.053 160.462 100.149 160.632 100.27C160.804 100.389 160.946 100.543 161.058 100.73C161.17 100.918 161.226 101.148 161.226 101.42C161.226 101.735 161.143 102.019 160.979 102.273C160.816 102.527 160.577 102.728 160.263 102.878C159.95 103.027 159.571 103.102 159.124 103.102C158.707 103.102 158.346 103.035 158.041 102.901C157.738 102.766 157.5 102.579 157.325 102.338C157.153 102.098 157.055 101.818 157.033 101.5H157.76C157.779 101.72 157.853 101.902 157.982 102.045C158.112 102.187 158.277 102.294 158.476 102.364C158.677 102.432 158.893 102.466 159.124 102.466C159.393 102.466 159.634 102.422 159.848 102.335C160.062 102.246 160.232 102.123 160.357 101.966C160.482 101.807 160.544 101.621 160.544 101.409C160.544 101.216 160.49 101.059 160.382 100.938C160.274 100.816 160.132 100.718 159.956 100.642C159.78 100.566 159.589 100.5 159.385 100.443L158.669 100.239C158.214 100.108 157.855 99.9214 157.589 99.679C157.324 99.4366 157.192 99.1193 157.192 98.7273C157.192 98.4015 157.28 98.1174 157.456 97.875C157.634 97.6307 157.873 97.4413 158.172 97.3068C158.473 97.1705 158.809 97.1023 159.18 97.1023C159.555 97.1023 159.889 97.1695 160.18 97.304C160.472 97.4366 160.703 97.6184 160.874 97.8494C161.046 98.0805 161.137 98.3428 161.146 98.6364H160.464Z" fill="#949494"/>
<path d="M182.554 98.6364C182.52 98.3485 182.382 98.125 182.14 97.9659C181.897 97.8068 181.6 97.7273 181.248 97.7273C180.99 97.7273 180.765 97.7689 180.571 97.8523C180.38 97.9356 180.23 98.0502 180.123 98.196C180.016 98.3419 179.963 98.5076 179.963 98.6932C179.963 98.8485 180 98.982 180.074 99.0938C180.15 99.2036 180.247 99.2955 180.364 99.3693C180.481 99.4413 180.605 99.5009 180.733 99.5483C180.862 99.5937 180.98 99.6307 181.088 99.6591L181.679 99.8182C181.831 99.858 181.999 99.9129 182.185 99.983C182.373 100.053 182.551 100.149 182.722 100.27C182.894 100.389 183.036 100.543 183.148 100.73C183.26 100.918 183.316 101.148 183.316 101.42C183.316 101.735 183.233 102.019 183.069 102.273C182.906 102.527 182.667 102.728 182.353 102.878C182.04 103.027 181.66 103.102 181.213 103.102C180.797 103.102 180.436 103.035 180.131 102.901C179.828 102.766 179.589 102.579 179.415 102.338C179.243 102.098 179.145 101.818 179.123 101.5H179.85C179.869 101.72 179.943 101.902 180.071 102.045C180.202 102.187 180.367 102.294 180.566 102.364C180.766 102.432 180.982 102.466 181.213 102.466C181.482 102.466 181.724 102.422 181.938 102.335C182.152 102.246 182.321 102.123 182.446 101.966C182.571 101.807 182.634 101.621 182.634 101.409C182.634 101.216 182.58 101.059 182.472 100.938C182.364 100.816 182.222 100.718 182.046 100.642C181.87 100.566 181.679 100.5 181.475 100.443L180.759 100.239C180.304 100.108 179.944 99.9214 179.679 99.679C179.414 99.4366 179.282 99.1193 179.282 98.7273C179.282 98.4015 179.37 98.1174 179.546 97.875C179.724 97.6307 179.962 97.4413 180.262 97.3068C180.563 97.1705 180.899 97.1023 181.27 97.1023C181.645 97.1023 181.979 97.1695 182.27 97.304C182.562 97.4366 182.793 97.6184 182.963 97.8494C183.136 98.0805 183.227 98.3428 183.236 98.6364H182.554Z" fill="#949494"/>
<circle cx="50.623" cy="139.59" r="4.62295" fill="#EBEBEB"/>
<circle cx="50.623" cy="159.109" r="4.62295" fill="#EBEBEB"/>
<circle cx="50.7636" cy="178.629" r="4.62295" fill="#EBEBEB"/>
<circle cx="50.7636" cy="198.148" r="4.62295" fill="#EBEBEB"/>
<circle cx="72.6229" cy="139.59" r="4.62295" fill="#EBEBEB"/>
<circle cx="72.6229" cy="159.109" r="4.62295" fill="#EBEBEB"/>
<circle cx="72.3378" cy="178.629" r="4.62295" fill="#EBEBEB"/>
<circle cx="72.3378" cy="198.148" r="4.62295" fill="#EBEBEB"/>
<circle cx="93.6229" cy="139.59" r="4.62295" fill="#EBEBEB"/>
<circle cx="93.6229" cy="159.109" r="4.62295" fill="#EBEBEB"/>
<circle cx="93.912" cy="178.629" r="4.62295" fill="#EBEBEB"/>
<circle cx="93.912" cy="198.148" r="4.62295" fill="#EBEBEB"/>
<circle cx="115.486" cy="139.59" r="4.62295" fill="#EBEBEB"/>
<circle cx="115.486" cy="159.109" r="4.62295" fill="#EBEBEB"/>
<circle cx="115.486" cy="178.629" r="4.62295" fill="#EBEBEB"/>
<circle cx="115.486" cy="198.148" r="4.62295" fill="#EBEBEB"/>
<circle cx="137.06" cy="120.072" r="4.62295" fill="#EBEBEB"/>
<circle cx="115.623" cy="120.072" r="4.62295" fill="#EBEBEB"/>
<circle cx="93.6229" cy="120.072" r="4.62295" fill="#EBEBEB"/>
<circle cx="72.6229" cy="120.072" r="4.62295" fill="#EBEBEB"/>
<circle cx="137.06" cy="139.59" r="4.62295" fill="#EBEBEB"/>
<circle cx="137.06" cy="159.109" r="4.62295" fill="#EBEBEB"/>
<circle cx="137.06" cy="178.629" r="4.62295" fill="#EBEBEB"/>
<circle cx="158.635" cy="120.07" r="4.62295" fill="#EBEBEB"/>
<circle cx="158.635" cy="139.59" r="4.62295" fill="#EBEBEB"/>
<circle cx="158.623" cy="159.109" r="4.62295" fill="#EBEBEB"/>
<circle cx="158.623" cy="178.629" r="4.62295" fill="#EBEBEB"/>
<circle cx="180.209" cy="120.07" r="4.62295" fill="#EBEBEB"/>
<circle cx="180.209" cy="139.59" r="4.62295" fill="#EBEBEB"/>
<circle cx="180.623" cy="159.109" r="4.62295" fill="#EBEBEB"/>
<circle cx="180.623" cy="178.629" r="4.62295" fill="#EBEBEB"/>
</g>
<g filter="url(#filter1_bdddd_4662_11451)">
<rect x="242" y="61" width="188" height="163.858" rx="8" fill="white"/>
<path d="M266.845 97.1818H267.686L269.663 102.011H269.732L271.709 97.1818H272.55V103H271.891V98.5795H271.834L270.016 103H269.379L267.561 98.5795H267.504V103H266.845V97.1818Z" fill="#949494"/>
<path d="M288.617 97.8068V97.1818H292.98V97.8068H291.151V103H290.446V97.8068H288.617Z" fill="#949494"/>
<path d="M312.078 103L310.487 97.1818H311.203L312.419 101.92H312.475L313.714 97.1818H314.51L315.748 101.92H315.805L317.021 97.1818H317.737L316.146 103H315.419L314.135 98.3636H314.089L312.805 103H312.078Z" fill="#949494"/>
<path d="M332.793 97.8068V97.1818H337.156V97.8068H335.327V103H334.622V97.8068H332.793Z" fill="#949494"/>
<path d="M328.287 79V71.5286H332.92V72.499H329.414V74.7754H332.588V75.7422H329.414V79H328.287ZM336.222 79.1131C335.67 79.1131 335.195 78.9951 334.796 78.7592C334.399 78.5209 334.093 78.1865 333.877 77.756C333.662 77.3231 333.555 76.816 333.555 76.2347C333.555 75.6607 333.662 75.1548 333.877 74.7171C334.093 74.2793 334.395 73.9376 334.781 73.6919C335.17 73.4463 335.625 73.3235 336.146 73.3235C336.462 73.3235 336.768 73.3758 337.065 73.4803C337.362 73.5849 337.628 73.7491 337.864 73.9728C338.1 74.1966 338.286 74.4872 338.422 74.8447C338.558 75.1998 338.626 75.6315 338.626 76.1398V76.5265H334.172V75.7094H337.558C337.558 75.4224 337.499 75.1682 337.382 74.9469C337.266 74.7231 337.101 74.5468 336.89 74.4179C336.681 74.289 336.435 74.2246 336.153 74.2246C335.847 74.2246 335.579 74.3 335.35 74.4507C335.124 74.5991 334.949 74.7937 334.825 75.0344C334.703 75.2728 334.643 75.5318 334.643 75.8115V76.4499C334.643 76.8245 334.708 77.1431 334.84 77.4058C334.973 77.6684 335.159 77.8691 335.398 78.0077C335.636 78.1439 335.915 78.212 336.233 78.212C336.44 78.212 336.628 78.1828 336.799 78.1244C336.969 78.0636 337.116 77.9737 337.24 77.8545C337.364 77.7353 337.459 77.5882 337.525 77.413L338.557 77.5991C338.474 77.9031 338.326 78.1694 338.112 78.3981C337.9 78.6242 337.634 78.8006 337.313 78.927C336.994 79.0511 336.631 79.1131 336.222 79.1131ZM339.924 79V71.5286H341.015V74.3048H341.081C341.144 74.1881 341.235 74.0531 341.354 73.8999C341.474 73.7466 341.639 73.6129 341.85 73.4986C342.062 73.3818 342.342 73.3235 342.69 73.3235C343.142 73.3235 343.546 73.4378 343.901 73.6664C344.256 73.895 344.534 74.2246 344.736 74.655C344.94 75.0855 345.043 75.6036 345.043 76.2092C345.043 76.8148 344.942 77.334 344.74 77.7669C344.538 78.1974 344.261 78.5294 343.908 78.7629C343.555 78.9939 343.153 79.1094 342.701 79.1094C342.36 79.1094 342.082 79.0523 341.865 78.938C341.651 78.8237 341.483 78.6899 341.362 78.5367C341.24 78.3835 341.146 78.2473 341.081 78.1281H340.99V79H339.924ZM340.993 76.1982C340.993 76.5922 341.05 76.9376 341.165 77.2343C341.279 77.531 341.444 77.7633 341.661 77.9311C341.877 78.0965 342.142 78.1792 342.456 78.1792C342.782 78.1792 343.054 78.0928 343.273 77.9201C343.492 77.745 343.658 77.5079 343.769 77.2088C343.884 76.9096 343.941 76.5728 343.941 76.1982C343.941 75.8285 343.885 75.4965 343.773 75.2023C343.664 74.908 343.498 74.6757 343.277 74.5055C343.058 74.3352 342.784 74.2501 342.456 74.2501C342.14 74.2501 341.872 74.3316 341.653 74.4945C341.437 74.6575 341.273 74.8849 341.161 75.1767C341.049 75.4686 340.993 75.8091 340.993 76.1982Z" fill="black"/>
<path d="M355.197 103V97.1818H358.685V97.8068H355.901V99.7727H358.424V100.398H355.901V103H355.197Z" fill="#949494"/>
<path d="M380.464 98.6364C380.43 98.3485 380.292 98.125 380.05 97.9659C379.807 97.8068 379.51 97.7273 379.158 97.7273C378.9 97.7273 378.675 97.7689 378.482 97.8523C378.29 97.9356 378.141 98.0502 378.033 98.196C377.927 98.3419 377.874 98.5076 377.874 98.6932C377.874 98.8485 377.911 98.982 377.984 99.0938C378.06 99.2036 378.157 99.2955 378.274 99.3693C378.392 99.4413 378.515 99.5009 378.643 99.5483C378.772 99.5937 378.891 99.6307 378.999 99.6591L379.589 99.8182C379.741 99.858 379.91 99.9129 380.095 99.983C380.283 100.053 380.462 100.149 380.632 100.27C380.804 100.389 380.946 100.543 381.058 100.73C381.17 100.918 381.226 101.148 381.226 101.42C381.226 101.735 381.143 102.019 380.979 102.273C380.816 102.527 380.577 102.728 380.263 102.878C379.95 103.027 379.571 103.102 379.124 103.102C378.707 103.102 378.346 103.035 378.041 102.901C377.738 102.766 377.5 102.579 377.325 102.338C377.153 102.098 377.055 101.818 377.033 101.5H377.76C377.779 101.72 377.853 101.902 377.982 102.045C378.112 102.187 378.277 102.294 378.476 102.364C378.677 102.432 378.893 102.466 379.124 102.466C379.393 102.466 379.634 102.422 379.848 102.335C380.062 102.246 380.232 102.123 380.357 101.966C380.482 101.807 380.544 101.621 380.544 101.409C380.544 101.216 380.49 101.059 380.382 100.938C380.274 100.816 380.132 100.718 379.956 100.642C379.78 100.566 379.589 100.5 379.385 100.443L378.669 100.239C378.214 100.108 377.855 99.9214 377.589 99.679C377.324 99.4366 377.192 99.1193 377.192 98.7273C377.192 98.4015 377.28 98.1174 377.456 97.875C377.634 97.6307 377.873 97.4413 378.172 97.3068C378.473 97.1705 378.809 97.1023 379.18 97.1023C379.555 97.1023 379.889 97.1695 380.18 97.304C380.472 97.4366 380.703 97.6184 380.874 97.8494C381.046 98.0805 381.137 98.3428 381.146 98.6364H380.464Z" fill="#949494"/>
<path d="M402.554 98.6364C402.52 98.3485 402.382 98.125 402.14 97.9659C401.897 97.8068 401.6 97.7273 401.248 97.7273C400.99 97.7273 400.765 97.7689 400.571 97.8523C400.38 97.9356 400.23 98.0502 400.123 98.196C400.016 98.3419 399.963 98.5076 399.963 98.6932C399.963 98.8485 400 98.982 400.074 99.0938C400.15 99.2036 400.247 99.2955 400.364 99.3693C400.481 99.4413 400.605 99.5009 400.733 99.5483C400.862 99.5937 400.98 99.6307 401.088 99.6591L401.679 99.8182C401.831 99.858 401.999 99.9129 402.185 99.983C402.373 100.053 402.551 100.149 402.722 100.27C402.894 100.389 403.036 100.543 403.148 100.73C403.26 100.918 403.316 101.148 403.316 101.42C403.316 101.735 403.233 102.019 403.069 102.273C402.906 102.527 402.667 102.728 402.353 102.878C402.04 103.027 401.66 103.102 401.213 103.102C400.797 103.102 400.436 103.035 400.131 102.901C399.828 102.766 399.589 102.579 399.415 102.338C399.243 102.098 399.145 101.818 399.123 101.5H399.85C399.869 101.72 399.943 101.902 400.071 102.045C400.202 102.187 400.367 102.294 400.566 102.364C400.766 102.432 400.982 102.466 401.213 102.466C401.482 102.466 401.724 102.422 401.938 102.335C402.152 102.246 402.321 102.123 402.446 101.966C402.571 101.807 402.634 101.621 402.634 101.409C402.634 101.216 402.58 101.059 402.472 100.938C402.364 100.816 402.222 100.718 402.046 100.642C401.87 100.566 401.679 100.5 401.475 100.443L400.759 100.239C400.304 100.108 399.944 99.9214 399.679 99.679C399.414 99.4366 399.282 99.1193 399.282 98.7273C399.282 98.4015 399.37 98.1174 399.546 97.875C399.724 97.6307 399.962 97.4413 400.262 97.3068C400.563 97.1705 400.899 97.1023 401.27 97.1023C401.645 97.1023 401.979 97.1695 402.27 97.304C402.562 97.4366 402.793 97.6184 402.963 97.8494C403.136 98.0805 403.227 98.3428 403.236 98.6364H402.554Z" fill="#949494"/>
<circle cx="270.623" cy="139.59" r="4.62295" fill="#EBEBEB"/>
<circle cx="270.623" cy="159.109" r="4.62295" fill="#EBEBEB"/>
<circle cx="270.764" cy="178.629" r="4.62295" fill="#EBEBEB"/>
<circle cx="270.764" cy="198.148" r="4.62295" fill="#EBEBEB"/>
<circle cx="292.623" cy="139.59" r="4.62295" fill="#EBEBEB"/>
<circle cx="292.623" cy="159.109" r="4.62295" fill="#EBEBEB"/>
<circle cx="292.338" cy="178.629" r="4.62295" fill="#EBEBEB"/>
<circle cx="292.338" cy="198.148" r="4.62295" fill="#EBEBEB"/>
<circle cx="313.623" cy="139.59" r="4.62295" fill="#EBEBEB"/>
<circle cx="313.623" cy="159.109" r="4.62295" fill="#EBEBEB"/>
<circle cx="313.912" cy="178.629" r="4.62295" fill="#EBEBEB"/>
<circle cx="313.912" cy="198.148" r="4.62295" fill="#EBEBEB"/>
<circle cx="335.486" cy="139.59" r="4.62295" fill="#EBEBEB"/>
<circle cx="335.486" cy="159.109" r="4.62295" fill="#EBEBEB"/>
<circle cx="335.486" cy="178.629" r="4.62295" fill="#EBEBEB"/>
<circle cx="335.486" cy="198.148" r="4.62295" fill="#EBEBEB"/>
<circle cx="357.06" cy="120.072" r="4.62295" fill="#EBEBEB"/>
<circle cx="357.06" cy="139.59" r="4.62295" fill="#EBEBEB"/>
<circle cx="357.06" cy="159.109" r="4.62295" fill="#EBEBEB"/>
<circle cx="357.06" cy="178.629" r="4.62295" fill="#EBEBEB"/>
<circle cx="378.635" cy="120.07" r="4.62295" fill="#EBEBEB"/>
<circle cx="378.635" cy="139.59" r="4.62295" fill="#EBEBEB"/>
<circle cx="378.623" cy="159.109" r="4.62295" fill="#EBEBEB"/>
<circle cx="378.623" cy="178.629" r="4.62295" fill="#EBEBEB"/>
<circle cx="400.209" cy="120.07" r="4.62295" fill="#EBEBEB"/>
<circle cx="400.209" cy="139.59" r="4.62295" fill="#EBEBEB"/>
<circle cx="400.623" cy="159.109" r="4.62295" fill="#EBEBEB"/>
<circle cx="400.623" cy="178.629" r="4.62295" fill="#EBEBEB"/>
</g>
<g filter="url(#filter2_bdddd_4662_11451)">
<rect x="462" y="61" width="188" height="163.858" rx="8" fill="white"/>
<path d="M486.845 97.1818H487.686L489.663 102.011H489.732L491.709 97.1818H492.55V103H491.891V98.5795H491.834L490.016 103H489.379L487.561 98.5795H487.504V103H486.845V97.1818Z" fill="#949494"/>
<path d="M508.617 97.8068V97.1818H512.98V97.8068H511.151V103H510.446V97.8068H508.617Z" fill="#949494"/>
<path d="M532.078 103L530.487 97.1818H531.203L532.419 101.92H532.475L533.714 97.1818H534.51L535.748 101.92H535.805L537.021 97.1818H537.737L536.146 103H535.419L534.135 98.3636H534.089L532.805 103H532.078Z" fill="#949494"/>
<path d="M552.793 97.8068V97.1818H557.156V97.8068H555.327V103H554.622V97.8068H552.793Z" fill="#949494"/>
<path d="M547.315 71.5286H548.683L551.062 77.3364H551.149L553.528 71.5286H554.896V79H553.823V73.5934H553.754L551.551 78.9891H550.66L548.457 73.5898H548.388V79H547.315V71.5286ZM558.078 79.124C557.723 79.124 557.402 79.0584 557.115 78.927C556.828 78.7933 556.601 78.5999 556.433 78.347C556.267 78.094 556.185 77.7839 556.185 77.4167C556.185 77.1005 556.245 76.8403 556.367 76.636C556.489 76.4317 556.653 76.27 556.86 76.1508C557.066 76.0316 557.297 75.9416 557.553 75.8808C557.808 75.82 558.068 75.7738 558.333 75.7422C558.669 75.7033 558.941 75.6717 559.151 75.6473C559.36 75.6206 559.512 75.578 559.607 75.5197C559.702 75.4613 559.749 75.3664 559.749 75.2351V75.2096C559.749 74.891 559.659 74.6441 559.479 74.469C559.301 74.2939 559.036 74.2063 558.684 74.2063C558.316 74.2063 558.027 74.2878 557.815 74.4507C557.606 74.6113 557.462 74.79 557.381 74.987L556.356 74.7535C556.478 74.413 556.655 74.1382 556.889 73.9291C557.125 73.7175 557.396 73.5642 557.702 73.4694C558.009 73.3721 558.331 73.3235 558.669 73.3235C558.893 73.3235 559.13 73.3502 559.38 73.4037C559.633 73.4548 559.869 73.5496 560.088 73.6883C560.31 73.8269 560.491 74.0251 560.632 74.2829C560.773 74.5383 560.843 74.8703 560.843 75.2789V79H559.778V78.2339H559.734C559.664 78.3749 559.558 78.5136 559.417 78.6498C559.276 78.786 559.095 78.8991 558.873 78.9891C558.652 79.079 558.387 79.124 558.078 79.124ZM558.315 78.2485C558.617 78.2485 558.875 78.1889 559.089 78.0697C559.305 77.9505 559.469 77.7949 559.581 77.6028C559.695 77.4082 559.753 77.2002 559.753 76.9789V76.2566C559.714 76.2955 559.638 76.332 559.526 76.366C559.417 76.3976 559.292 76.4256 559.151 76.4499C559.01 76.4718 558.872 76.4925 558.738 76.512C558.605 76.529 558.493 76.5436 558.403 76.5557C558.191 76.5825 557.998 76.6275 557.823 76.6907C557.65 76.7539 557.511 76.8452 557.407 76.9643C557.305 77.0811 557.254 77.2367 557.254 77.4313C557.254 77.7013 557.353 77.9056 557.553 78.0442C557.752 78.1804 558.006 78.2485 558.315 78.2485ZM562.296 79V73.3964H563.351V74.2866H563.409C563.511 73.985 563.691 73.7479 563.949 73.5752C564.209 73.4001 564.503 73.3125 564.832 73.3125C564.9 73.3125 564.98 73.3149 565.073 73.3198C565.167 73.3247 565.242 73.3308 565.295 73.3381V74.3814C565.251 74.3693 565.173 74.3559 565.062 74.3413C564.95 74.3243 564.838 74.3158 564.726 74.3158C564.468 74.3158 564.238 74.3705 564.036 74.4799C563.837 74.5869 563.679 74.7365 563.562 74.9287C563.445 75.1184 563.387 75.3348 563.387 75.578V79H562.296Z" fill="black"/>
<path d="M575.197 103V97.1818H578.685V97.8068H575.901V99.7727H578.424V100.398H575.901V103H575.197Z" fill="#949494"/>
<path d="M600.464 98.6364C600.43 98.3485 600.292 98.125 600.05 97.9659C599.807 97.8068 599.51 97.7273 599.158 97.7273C598.9 97.7273 598.675 97.7689 598.482 97.8523C598.29 97.9356 598.141 98.0502 598.033 98.196C597.927 98.3419 597.874 98.5076 597.874 98.6932C597.874 98.8485 597.911 98.982 597.984 99.0938C598.06 99.2036 598.157 99.2955 598.274 99.3693C598.392 99.4413 598.515 99.5009 598.643 99.5483C598.772 99.5937 598.891 99.6307 598.999 99.6591L599.589 99.8182C599.741 99.858 599.91 99.9129 600.095 99.983C600.283 100.053 600.462 100.149 600.632 100.27C600.804 100.389 600.946 100.543 601.058 100.73C601.17 100.918 601.226 101.148 601.226 101.42C601.226 101.735 601.143 102.019 600.979 102.273C600.816 102.527 600.577 102.728 600.263 102.878C599.95 103.027 599.571 103.102 599.124 103.102C598.707 103.102 598.346 103.035 598.041 102.901C597.738 102.766 597.5 102.579 597.325 102.338C597.153 102.098 597.055 101.818 597.033 101.5H597.76C597.779 101.72 597.853 101.902 597.982 102.045C598.112 102.187 598.277 102.294 598.476 102.364C598.677 102.432 598.893 102.466 599.124 102.466C599.393 102.466 599.634 102.422 599.848 102.335C600.062 102.246 600.232 102.123 600.357 101.966C600.482 101.807 600.544 101.621 600.544 101.409C600.544 101.216 600.49 101.059 600.382 100.938C600.274 100.816 600.132 100.718 599.956 100.642C599.78 100.566 599.589 100.5 599.385 100.443L598.669 100.239C598.214 100.108 597.855 99.9214 597.589 99.679C597.324 99.4366 597.192 99.1193 597.192 98.7273C597.192 98.4015 597.28 98.1174 597.456 97.875C597.634 97.6307 597.873 97.4413 598.172 97.3068C598.473 97.1705 598.809 97.1023 599.18 97.1023C599.555 97.1023 599.889 97.1695 600.18 97.304C600.472 97.4366 600.703 97.6184 600.874 97.8494C601.046 98.0805 601.137 98.3428 601.146 98.6364H600.464Z" fill="#949494"/>
<path d="M622.554 98.6364C622.52 98.3485 622.382 98.125 622.14 97.9659C621.897 97.8068 621.6 97.7273 621.248 97.7273C620.99 97.7273 620.765 97.7689 620.571 97.8523C620.38 97.9356 620.23 98.0502 620.123 98.196C620.016 98.3419 619.963 98.5076 619.963 98.6932C619.963 98.8485 620 98.982 620.074 99.0938C620.15 99.2036 620.247 99.2955 620.364 99.3693C620.481 99.4413 620.605 99.5009 620.733 99.5483C620.862 99.5937 620.98 99.6307 621.088 99.6591L621.679 99.8182C621.831 99.858 621.999 99.9129 622.185 99.983C622.373 100.053 622.551 100.149 622.722 100.27C622.894 100.389 623.036 100.543 623.148 100.73C623.26 100.918 623.316 101.148 623.316 101.42C623.316 101.735 623.233 102.019 623.069 102.273C622.906 102.527 622.667 102.728 622.353 102.878C622.04 103.027 621.66 103.102 621.213 103.102C620.797 103.102 620.436 103.035 620.131 102.901C619.828 102.766 619.589 102.579 619.415 102.338C619.243 102.098 619.145 101.818 619.123 101.5H619.85C619.869 101.72 619.943 101.902 620.071 102.045C620.202 102.187 620.367 102.294 620.566 102.364C620.766 102.432 620.982 102.466 621.213 102.466C621.482 102.466 621.724 102.422 621.938 102.335C622.152 102.246 622.321 102.123 622.446 101.966C622.571 101.807 622.634 101.621 622.634 101.409C622.634 101.216 622.58 101.059 622.472 100.938C622.364 100.816 622.222 100.718 622.046 100.642C621.87 100.566 621.679 100.5 621.475 100.443L620.759 100.239C620.304 100.108 619.944 99.9214 619.679 99.679C619.414 99.4366 619.282 99.1193 619.282 98.7273C619.282 98.4015 619.37 98.1174 619.546 97.875C619.724 97.6307 619.962 97.4413 620.262 97.3068C620.563 97.1705 620.899 97.1023 621.27 97.1023C621.645 97.1023 621.979 97.1695 622.27 97.304C622.562 97.4366 622.793 97.6184 622.963 97.8494C623.136 98.0805 623.227 98.3428 623.236 98.6364H622.554Z" fill="#949494"/>
<circle cx="490.623" cy="139.59" r="4.62295" fill="#EBEBEB"/>
<circle cx="490.623" cy="159.109" r="4.62295" fill="#EBEBEB"/>
<circle cx="490.764" cy="178.629" r="4.62295" fill="#EBEBEB"/>
<circle cx="490.764" cy="198.148" r="4.62295" fill="#EBEBEB"/>
<circle cx="512.623" cy="139.59" r="4.62295" fill="#EBEBEB"/>
<circle cx="512.623" cy="159.109" r="4.62295" fill="#EBEBEB"/>
<circle cx="512.338" cy="178.629" r="4.62295" fill="#EBEBEB"/>
<circle cx="512.338" cy="198.148" r="4.62295" fill="#EBEBEB"/>
<circle cx="533.623" cy="139.59" r="4.62295" fill="#EBEBEB"/>
<circle cx="533.623" cy="159.109" r="4.62295" fill="#EBEBEB"/>
<circle cx="533.912" cy="178.629" r="4.62295" fill="#EBEBEB"/>
<circle cx="533.912" cy="198.148" r="4.62295" fill="#EBEBEB"/>
<circle cx="555.486" cy="139.59" r="4.62295" fill="#EBEBEB"/>
<circle cx="555.486" cy="159.109" r="4.62295" fill="#EBEBEB"/>
<circle cx="555.486" cy="178.629" r="4.62295" fill="#EBEBEB"/>
<circle cx="555.486" cy="198.148" r="4.62295" fill="#EBEBEB"/>
<circle cx="577.06" cy="120.072" r="4.62295" fill="#2B8CFE"/>
<circle cx="577.06" cy="139.59" r="4.62295" fill="#EBEBEB"/>
<circle cx="577.06" cy="159.109" r="4.62295" fill="#EBEBEB"/>
<circle cx="577.06" cy="178.629" r="4.62295" fill="#EBEBEB"/>
<circle cx="577.06" cy="198.146" r="4.62295" fill="#EBEBEB"/>
<circle cx="598.623" cy="198.146" r="4.62295" fill="#EBEBEB"/>
<circle cx="620.623" cy="198.146" r="4.62295" fill="#EBEBEB"/>
<circle cx="598.635" cy="120.07" r="4.62295" fill="#EBEBEB"/>
<circle cx="598.635" cy="139.59" r="4.62295" fill="#EBEBEB"/>
<circle cx="598.623" cy="159.109" r="4.62295" fill="#EBEBEB"/>
<circle cx="598.623" cy="178.629" r="4.62295" fill="#EBEBEB"/>
<circle cx="620.209" cy="120.07" r="4.62295" fill="#EBEBEB"/>
<circle cx="620.209" cy="139.59" r="4.62295" fill="#EBEBEB"/>
<circle cx="620.623" cy="159.109" r="4.62295" fill="#EBEBEB"/>
<circle cx="620.623" cy="178.629" r="4.62295" fill="#EBEBEB"/>
</g>
<defs>
<filter id="filter0_bdddd_4662_11451" x="0.426229" y="48" width="231.148" height="251.852" filterUnits="userSpaceOnUse" color-interpolation-filters="sRGB">
<feFlood flood-opacity="0" result="BackgroundImageFix"/>
<feGaussianBlur in="BackgroundImageFix" stdDeviation="6.5"/>
<feComposite in2="SourceAlpha" operator="in" result="effect1_backgroundBlur_4662_11451"/>
<feColorMatrix in="SourceAlpha" type="matrix" values="0 0 0 0 0 0 0 0 0 0 0 0 0 0 0 0 0 0 127 0" result="hardAlpha"/>
<feOffset dy="3.08197"/>
<feGaussianBlur stdDeviation="3.59563"/>
<feColorMatrix type="matrix" values="0 0 0 0 0 0 0 0 0 0 0 0 0 0 0 0 0 0 0.1 0"/>
<feBlend mode="normal" in2="effect1_backgroundBlur_4662_11451" result="effect2_dropShadow_4662_11451"/>
<feColorMatrix in="SourceAlpha" type="matrix" values="0 0 0 0 0 0 0 0 0 0 0 0 0 0 0 0 0 0 127 0" result="hardAlpha"/>
<feOffset dy="13.3552"/>
<feGaussianBlur stdDeviation="6.6776"/>
<feColorMatrix type="matrix" values="0 0 0 0 0 0 0 0 0 0 0 0 0 0 0 0 0 0 0.09 0"/>
<feBlend mode="normal" in2="effect2_dropShadow_4662_11451" result="effect3_dropShadow_4662_11451"/>
<feColorMatrix in="SourceAlpha" type="matrix" values="0 0 0 0 0 0 0 0 0 0 0 0 0 0 0 0 0 0 127 0" result="hardAlpha"/>
<feOffset dy="29.7924"/>
<feGaussianBlur stdDeviation="8.98907"/>
<feColorMatrix type="matrix" values="0 0 0 0 0 0 0 0 0 0 0 0 0 0 0 0 0 0 0.05 0"/>
<feBlend mode="normal" in2="effect3_dropShadow_4662_11451" result="effect4_dropShadow_4662_11451"/>
<feColorMatrix in="SourceAlpha" type="matrix" values="0 0 0 0 0 0 0 0 0 0 0 0 0 0 0 0 0 0 127 0" result="hardAlpha"/>
<feOffset dy="53.4208"/>
<feGaussianBlur stdDeviation="10.7869"/>
<feColorMatrix type="matrix" values="0 0 0 0 0 0 0 0 0 0 0 0 0 0 0 0 0 0 0.01 0"/>
<feBlend mode="normal" in2="effect4_dropShadow_4662_11451" result="effect5_dropShadow_4662_11451"/>
<feBlend mode="normal" in="SourceGraphic" in2="effect5_dropShadow_4662_11451" result="shape"/>
</filter>
<filter id="filter1_bdddd_4662_11451" x="220.426" y="48" width="231.148" height="251.852" filterUnits="userSpaceOnUse" color-interpolation-filters="sRGB">
<feFlood flood-opacity="0" result="BackgroundImageFix"/>
<feGaussianBlur in="BackgroundImageFix" stdDeviation="6.5"/>
<feComposite in2="SourceAlpha" operator="in" result="effect1_backgroundBlur_4662_11451"/>
<feColorMatrix in="SourceAlpha" type="matrix" values="0 0 0 0 0 0 0 0 0 0 0 0 0 0 0 0 0 0 127 0" result="hardAlpha"/>
<feOffset dy="3.08197"/>
<feGaussianBlur stdDeviation="3.59563"/>
<feColorMatrix type="matrix" values="0 0 0 0 0 0 0 0 0 0 0 0 0 0 0 0 0 0 0.1 0"/>
<feBlend mode="normal" in2="effect1_backgroundBlur_4662_11451" result="effect2_dropShadow_4662_11451"/>
<feColorMatrix in="SourceAlpha" type="matrix" values="0 0 0 0 0 0 0 0 0 0 0 0 0 0 0 0 0 0 127 0" result="hardAlpha"/>
<feOffset dy="13.3552"/>
<feGaussianBlur stdDeviation="6.6776"/>
<feColorMatrix type="matrix" values="0 0 0 0 0 0 0 0 0 0 0 0 0 0 0 0 0 0 0.09 0"/>
<feBlend mode="normal" in2="effect2_dropShadow_4662_11451" result="effect3_dropShadow_4662_11451"/>
<feColorMatrix in="SourceAlpha" type="matrix" values="0 0 0 0 0 0 0 0 0 0 0 0 0 0 0 0 0 0 127 0" result="hardAlpha"/>
<feOffset dy="29.7924"/>
<feGaussianBlur stdDeviation="8.98907"/>
<feColorMatrix type="matrix" values="0 0 0 0 0 0 0 0 0 0 0 0 0 0 0 0 0 0 0.05 0"/>
<feBlend mode="normal" in2="effect3_dropShadow_4662_11451" result="effect4_dropShadow_4662_11451"/>
<feColorMatrix in="SourceAlpha" type="matrix" values="0 0 0 0 0 0 0 0 0 0 0 0 0 0 0 0 0 0 127 0" result="hardAlpha"/>
<feOffset dy="53.4208"/>
<feGaussianBlur stdDeviation="10.7869"/>
<feColorMatrix type="matrix" values="0 0 0 0 0 0 0 0 0 0 0 0 0 0 0 0 0 0 0.01 0"/>
<feBlend mode="normal" in2="effect4_dropShadow_4662_11451" result="effect5_dropShadow_4662_11451"/>
<feBlend mode="normal" in="SourceGraphic" in2="effect5_dropShadow_4662_11451" result="shape"/>
</filter>
<filter id="filter2_bdddd_4662_11451" x="440.426" y="48" width="231.148" height="251.852" filterUnits="userSpaceOnUse" color-interpolation-filters="sRGB">
<feFlood flood-opacity="0" result="BackgroundImageFix"/>
<feGaussianBlur in="BackgroundImageFix" stdDeviation="6.5"/>
<feComposite in2="SourceAlpha" operator="in" result="effect1_backgroundBlur_4662_11451"/>
<feColorMatrix in="SourceAlpha" type="matrix" values="0 0 0 0 0 0 0 0 0 0 0 0 0 0 0 0 0 0 127 0" result="hardAlpha"/>
<feOffset dy="3.08197"/>
<feGaussianBlur stdDeviation="3.59563"/>
<feColorMatrix type="matrix" values="0 0 0 0 0 0 0 0 0 0 0 0 0 0 0 0 0 0 0.1 0"/>
<feBlend mode="normal" in2="effect1_backgroundBlur_4662_11451" result="effect2_dropShadow_4662_11451"/>
<feColorMatrix in="SourceAlpha" type="matrix" values="0 0 0 0 0 0 0 0 0 0 0 0 0 0 0 0 0 0 127 0" result="hardAlpha"/>
<feOffset dy="13.3552"/>
<feGaussianBlur stdDeviation="6.6776"/>
<feColorMatrix type="matrix" values="0 0 0 0 0 0 0 0 0 0 0 0 0 0 0 0 0 0 0.09 0"/>
<feBlend mode="normal" in2="effect2_dropShadow_4662_11451" result="effect3_dropShadow_4662_11451"/>
<feColorMatrix in="SourceAlpha" type="matrix" values="0 0 0 0 0 0 0 0 0 0 0 0 0 0 0 0 0 0 127 0" result="hardAlpha"/>
<feOffset dy="29.7924"/>
<feGaussianBlur stdDeviation="8.98907"/>
<feColorMatrix type="matrix" values="0 0 0 0 0 0 0 0 0 0 0 0 0 0 0 0 0 0 0.05 0"/>
<feBlend mode="normal" in2="effect3_dropShadow_4662_11451" result="effect4_dropShadow_4662_11451"/>
<feColorMatrix in="SourceAlpha" type="matrix" values="0 0 0 0 0 0 0 0 0 0 0 0 0 0 0 0 0 0 127 0" result="hardAlpha"/>
<feOffset dy="53.4208"/>
<feGaussianBlur stdDeviation="10.7869"/>
<feColorMatrix type="matrix" values="0 0 0 0 0 0 0 0 0 0 0 0 0 0 0 0 0 0 0.01 0"/>
<feBlend mode="normal" in2="effect4_dropShadow_4662_11451" result="effect5_dropShadow_4662_11451"/>
<feBlend mode="normal" in="SourceGraphic" in2="effect5_dropShadow_4662_11451" result="shape"/>
</filter>
</defs>
</svg>
