<svg width="360" height="244" viewBox="0 0 360 244" fill="none" xmlns="http://www.w3.org/2000/svg">
<path d="M44.1328 15.0004V3.364H48.8049C49.6633 3.364 50.3793 3.49089 50.9529 3.74468C51.5265 3.99847 51.9575 4.35074 52.2462 4.8015C52.535 5.24847 52.6793 5.76362 52.6793 6.34695C52.6793 6.8015 52.5881 7.20112 52.4058 7.54581C52.2234 7.88672 51.9727 8.16703 51.6537 8.38672C51.3384 8.60263 50.9775 8.75604 50.5711 8.84695V8.96059C51.0155 8.97953 51.4315 9.10453 51.8189 9.33559C52.2102 9.56665 52.5273 9.89051 52.7704 10.3072C53.0135 10.7201 53.135 11.2125 53.135 11.7845C53.135 12.4019 52.9812 12.9531 52.6735 13.4379C52.3697 13.919 51.9195 14.2996 51.3232 14.5799C50.7268 14.8602 49.9919 15.0004 49.1183 15.0004H44.1328ZM46.5999 12.989H48.6112C49.2987 12.989 49.8001 12.8584 50.1153 12.597C50.4306 12.3318 50.5882 11.9796 50.5882 11.5402C50.5882 11.2182 50.5103 10.9341 50.3546 10.6879C50.1989 10.4417 49.9766 10.2485 49.6879 10.1084C49.4031 9.96816 49.0631 9.89809 48.6681 9.89809H46.5999V12.989ZM46.5999 8.23331H48.4288C48.7669 8.23331 49.0669 8.1746 49.329 8.05718C49.5949 7.93597 49.8039 7.76551 49.9558 7.54581C50.1115 7.32612 50.1893 7.06286 50.1893 6.75604C50.1893 6.33559 50.0393 5.99657 49.7393 5.739C49.443 5.48142 49.0214 5.35263 48.4744 5.35263H46.5999V8.23331ZM57.122 3.364V15.0004H54.6948V3.364H57.122ZM61.5618 15.1652C61.0035 15.1652 60.5059 15.0686 60.0691 14.8754C59.6323 14.6784 59.2866 14.3887 59.0321 14.0061C58.7814 13.6197 58.6561 13.1387 58.6561 12.5629C58.6561 12.0781 58.7453 11.6709 58.9239 11.3413C59.1024 11.0118 59.3455 10.7466 59.6531 10.5459C59.9609 10.3451 60.3102 10.1936 60.7015 10.0913C61.0965 9.989 61.5106 9.91703 61.9436 9.87536C62.4526 9.82233 62.8628 9.77309 63.1743 9.72763C63.4858 9.67839 63.7118 9.60642 63.8523 9.51172C63.9929 9.41703 64.0632 9.27688 64.0632 9.09127V9.05718C64.0632 8.69733 63.9492 8.41892 63.7213 8.22195C63.4972 8.02498 63.1781 7.9265 62.7641 7.9265C62.3273 7.9265 61.9797 8.02309 61.7214 8.21627C61.4632 8.40566 61.2922 8.6443 61.2086 8.93218L58.9637 8.75036C59.0777 8.22006 59.3018 7.76172 59.6361 7.37536C59.9703 6.98521 60.4014 6.68597 60.9295 6.47763C61.4612 6.26551 62.0766 6.15945 62.7755 6.15945C63.2616 6.15945 63.7269 6.21627 64.1714 6.32991C64.6196 6.44354 65.0165 6.61968 65.3622 6.85831C65.7117 7.09695 65.987 7.40377 66.1884 7.77877C66.3896 8.14998 66.4903 8.59506 66.4903 9.114V15.0004H64.1885V13.7902H64.1201C63.9795 14.0629 63.7915 14.3034 63.5561 14.5118C63.3205 14.7163 63.0375 14.8773 62.7071 14.9947C62.3766 15.1084 61.9949 15.1652 61.5618 15.1652ZM62.257 13.4947C62.6141 13.4947 62.9293 13.4246 63.2028 13.2845C63.4762 13.1406 63.6909 12.9474 63.8467 12.7049C64.0024 12.4625 64.0802 12.1879 64.0802 11.8811V10.9549C64.0043 11.0042 63.8998 11.0496 63.7669 11.0913C63.6377 11.1292 63.4915 11.1652 63.3281 11.1993C63.1648 11.2296 63.0015 11.258 62.8382 11.2845C62.6748 11.3072 62.5267 11.3281 62.3937 11.347C62.1088 11.3887 61.8601 11.4549 61.6474 11.5459C61.4347 11.6368 61.2694 11.7599 61.1517 11.9152C61.0339 12.0667 60.975 12.2561 60.975 12.4834C60.975 12.8129 61.0946 13.0648 61.334 13.239C61.5771 13.4095 61.8847 13.4947 62.257 13.4947ZM72.3275 15.1709C71.4311 15.1709 70.6601 14.9815 70.0143 14.6027C69.3724 14.2201 68.8786 13.6898 68.533 13.0118C68.191 12.3337 68.0202 11.5534 68.0202 10.6709C68.0202 9.77688 68.1929 8.99278 68.5386 8.31854C68.8881 7.64051 69.3838 7.1121 70.0257 6.73331C70.6676 6.35074 71.4311 6.15945 72.3162 6.15945C73.0796 6.15945 73.7482 6.29771 74.3218 6.57422C74.8953 6.85074 75.3492 7.239 75.6835 7.739C76.0178 8.239 76.202 8.82612 76.2362 9.50036H73.9457C73.8811 9.06475 73.7102 8.71437 73.4329 8.44922C73.1594 8.18028 72.8004 8.04581 72.356 8.04581C71.98 8.04581 71.6515 8.14809 71.3704 8.35263C71.0931 8.55339 70.8766 8.84695 70.7209 9.23331C70.5651 9.61968 70.4872 10.0875 70.4872 10.6368C70.4872 11.1936 70.5632 11.6671 70.7151 12.0572C70.8709 12.4474 71.0893 12.7447 71.3704 12.9493C71.6515 13.1538 71.98 13.2561 72.356 13.2561C72.6334 13.2561 72.8822 13.1993 73.1025 13.0856C73.3266 12.972 73.5108 12.8072 73.6551 12.5913C73.8032 12.3716 73.9001 12.1084 73.9457 11.8015H76.2362C76.1982 12.4682 76.0159 13.0553 75.6892 13.5629C75.3663 14.0667 74.92 14.4606 74.3502 14.7447C73.7805 15.0288 73.1063 15.1709 72.3275 15.1709ZM79.9895 12.489L79.9951 9.58559H80.3484L83.1517 6.27309H85.9378L82.1717 10.6595H81.5962L79.9895 12.489ZM77.7902 15.0004V3.364H80.2173V15.0004H77.7902ZM83.2599 15.0004L80.6845 11.1993L82.3027 9.489L86.1031 15.0004H83.2599ZM95.4971 6.27309V8.09127H90.2268V6.27309H95.4971ZM91.4233 4.18218H93.8504V12.3186C93.8504 12.5421 93.8846 12.7163 93.953 12.8413C94.0214 12.9625 94.1164 13.0477 94.2379 13.097C94.3632 13.1462 94.5075 13.1709 94.6709 13.1709C94.7848 13.1709 94.8988 13.1614 95.0127 13.1424C95.1267 13.1197 95.2141 13.1027 95.2749 13.0913L95.6565 14.8924C95.535 14.9303 95.3641 14.9739 95.1438 15.0231C94.9235 15.0762 94.6557 15.1084 94.3404 15.1197C93.7555 15.1424 93.2426 15.0648 92.8021 14.8868C92.3652 14.7087 92.0252 14.4322 91.7822 14.0572C91.5391 13.6822 91.4195 13.2087 91.4233 12.6368V4.18218ZM100.972 15.1709C100.072 15.1709 99.2973 14.989 98.6478 14.6254C98.0021 14.258 97.5045 13.739 97.1551 13.0686C96.8056 12.3943 96.6308 11.597 96.6308 10.6765C96.6308 9.77877 96.8056 8.99089 97.1551 8.31286C97.5045 7.63483 97.9964 7.10642 98.6308 6.72763C99.2689 6.34884 100.017 6.15945 100.876 6.15945C101.453 6.15945 101.99 6.25225 102.489 6.43786C102.99 6.61968 103.426 6.8943 103.798 7.26172C104.174 7.62915 104.467 8.09127 104.676 8.64809C104.885 9.20112 104.989 9.84884 104.989 10.5913V11.2561H97.5994V9.75604H102.704C102.704 9.40756 102.629 9.09884 102.476 8.82991C102.325 8.56097 102.113 8.35074 101.844 8.19922C101.578 8.04392 101.269 7.96627 100.915 7.96627C100.547 7.96627 100.22 8.0515 99.9355 8.22195C99.6544 8.38862 99.4341 8.614 99.2746 8.89809C99.115 9.17839 99.0334 9.49089 99.0296 9.83559V11.2618C99.0296 11.6936 99.1093 12.0667 99.2689 12.3811C99.4322 12.6955 99.6621 12.9379 99.9583 13.1084C100.255 13.2788 100.606 13.364 101.012 13.364C101.282 13.364 101.529 13.3262 101.753 13.2504C101.977 13.1746 102.169 13.061 102.328 12.9095C102.489 12.758 102.61 12.5724 102.693 12.3527L104.938 12.5004C104.824 13.0383 104.59 13.508 104.237 13.9095C103.887 14.3072 103.436 14.6178 102.882 14.8413C102.33 15.061 101.694 15.1709 100.972 15.1709ZM109.069 15.1652C108.51 15.1652 108.013 15.0686 107.576 14.8754C107.139 14.6784 106.793 14.3887 106.539 14.0061C106.288 13.6197 106.163 13.1387 106.163 12.5629C106.163 12.0781 106.252 11.6709 106.43 11.3413C106.609 11.0118 106.853 10.7466 107.16 10.5459C107.467 10.3451 107.817 10.1936 108.208 10.0913C108.603 9.989 109.018 9.91703 109.451 9.87536C109.959 9.82233 110.369 9.77309 110.681 9.72763C110.993 9.67839 111.219 9.60642 111.359 9.51172C111.5 9.41703 111.57 9.27688 111.57 9.09127V9.05718C111.57 8.69733 111.456 8.41892 111.228 8.22195C111.004 8.02498 110.685 7.9265 110.271 7.9265C109.834 7.9265 109.487 8.02309 109.228 8.21627C108.971 8.40566 108.799 8.6443 108.716 8.93218L106.471 8.75036C106.585 8.22006 106.809 7.76172 107.143 7.37536C107.477 6.98521 107.909 6.68597 108.436 6.47763C108.969 6.26551 109.583 6.15945 110.282 6.15945C110.769 6.15945 111.234 6.21627 111.678 6.32991C112.126 6.44354 112.523 6.61968 112.869 6.85831C113.218 7.09695 113.494 7.40377 113.696 7.77877C113.896 8.14998 113.997 8.59506 113.997 9.114V15.0004H111.695V13.7902H111.627C111.487 14.0629 111.299 14.3034 111.063 14.5118C110.828 14.7163 110.545 14.8773 110.214 14.9947C109.884 15.1084 109.502 15.1652 109.069 15.1652ZM109.764 13.4947C110.121 13.4947 110.437 13.4246 110.709 13.2845C110.983 13.1406 111.198 12.9474 111.353 12.7049C111.51 12.4625 111.587 12.1879 111.587 11.8811V10.9549C111.512 11.0042 111.406 11.0496 111.274 11.0913C111.145 11.1292 110.998 11.1652 110.835 11.1993C110.672 11.2296 110.509 11.258 110.345 11.2845C110.182 11.3072 110.033 11.3281 109.901 11.347C109.616 11.3887 109.367 11.4549 109.154 11.5459C108.941 11.6368 108.776 11.7599 108.659 11.9152C108.541 12.0667 108.482 12.2561 108.482 12.4834C108.482 12.8129 108.601 13.0648 108.841 13.239C109.084 13.4095 109.392 13.4947 109.764 13.4947ZM126.875 8.76172L124.653 8.89809C124.615 8.70869 124.534 8.53824 124.408 8.38672C124.283 8.23142 124.118 8.10831 123.913 8.01741C123.711 7.92271 123.47 7.87536 123.189 7.87536C122.813 7.87536 122.496 7.95491 122.237 8.114C121.98 8.2693 121.85 8.47763 121.85 8.739C121.85 8.94733 121.934 9.12347 122.101 9.26741C122.267 9.41134 122.554 9.52688 122.961 9.614L124.545 9.93218C125.396 10.1065 126.03 10.3868 126.448 10.7731C126.866 11.1595 127.075 11.6671 127.075 12.2959C127.075 12.8678 126.905 13.3697 126.567 13.8015C126.233 14.2334 125.774 14.5705 125.189 14.8129C124.608 15.0515 123.937 15.1709 123.178 15.1709C122.019 15.1709 121.096 14.9303 120.408 14.4493C119.724 13.9644 119.324 13.3053 119.206 12.472L121.594 12.347C121.666 12.6993 121.84 12.9682 122.118 13.1538C122.395 13.3356 122.751 13.4265 123.183 13.4265C123.609 13.4265 123.95 13.3451 124.209 13.1822C124.471 13.0156 124.604 12.8015 124.608 12.5402C124.604 12.3205 124.511 12.1406 124.328 12.0004C124.147 11.8565 123.865 11.7466 123.485 11.6709L121.97 11.3697C121.115 11.1993 120.478 10.9038 120.061 10.4834C119.647 10.0629 119.44 9.52688 119.44 8.87536C119.44 8.31475 119.592 7.8318 119.896 7.4265C120.204 7.02119 120.635 6.70869 121.189 6.489C121.748 6.2693 122.401 6.15945 123.149 6.15945C124.255 6.15945 125.124 6.39241 125.759 6.85831C126.397 7.32422 126.769 7.95869 126.875 8.76172ZM132.557 15.1709C131.673 15.1709 130.907 14.9834 130.262 14.6084C129.619 14.2296 129.123 13.7031 128.775 13.0288C128.425 12.3508 128.25 11.5648 128.25 10.6709C128.25 9.7693 128.425 8.98142 128.775 8.30718C129.123 7.62915 129.619 7.10263 130.262 6.72763C130.907 6.34884 131.673 6.15945 132.557 6.15945C133.442 6.15945 134.206 6.34884 134.847 6.72763C135.493 7.10263 135.992 7.62915 136.341 8.30718C136.691 8.98142 136.865 9.7693 136.865 10.6709C136.865 11.5648 136.691 12.3508 136.341 13.0288C135.992 13.7031 135.493 14.2296 134.847 14.6084C134.206 14.9834 133.442 15.1709 132.557 15.1709ZM132.569 13.2959C132.971 13.2959 133.307 13.1822 133.577 12.9549C133.847 12.7239 134.05 12.4095 134.187 12.0118C134.327 11.614 134.398 11.1614 134.398 10.6538C134.398 10.1462 134.327 9.69354 134.187 9.29581C134.05 8.89809 133.847 8.58369 133.577 8.35263C133.307 8.12157 132.971 8.00604 132.569 8.00604C132.162 8.00604 131.82 8.12157 131.543 8.35263C131.269 8.58369 131.063 8.89809 130.922 9.29581C130.785 9.69354 130.717 10.1462 130.717 10.6538C130.717 11.1614 130.785 11.614 130.922 12.0118C131.063 12.4095 131.269 12.7239 131.543 12.9549C131.82 13.1822 132.162 13.2959 132.569 13.2959ZM140.87 3.364V15.0004H138.443V3.364H140.87ZM146.039 15.1424C145.375 15.1424 144.773 14.972 144.233 14.6311C143.698 14.2864 143.272 13.7807 142.957 13.114C142.645 12.4436 142.49 11.6216 142.49 10.6481C142.49 9.64809 142.651 8.81665 142.974 8.15377C143.297 7.4871 143.726 6.989 144.262 6.65945C144.801 6.32612 145.392 6.15945 146.033 6.15945C146.524 6.15945 146.932 6.24278 147.259 6.40945C147.589 6.57233 147.856 6.77688 148.056 7.02309C148.262 7.26551 148.417 7.50415 148.523 7.739H148.598V3.364H151.019V15.0004H148.626V13.6027H148.523C148.41 13.8451 148.249 14.0856 148.039 14.3243C147.834 14.5591 147.567 14.7542 147.236 14.9095C146.909 15.0648 146.511 15.1424 146.039 15.1424ZM146.809 13.2163C147.2 13.2163 147.531 13.1102 147.8 12.8981C148.073 12.6822 148.283 12.3811 148.427 11.9947C148.575 11.6084 148.649 11.1557 148.649 10.6368C148.649 10.1178 148.577 9.66703 148.432 9.28445C148.288 8.90187 148.079 8.60642 147.805 8.39809C147.533 8.18975 147.2 8.08559 146.809 8.08559C146.41 8.08559 146.074 8.19354 145.8 8.40945C145.527 8.62536 145.319 8.9246 145.179 9.30718C145.039 9.68975 144.969 10.133 144.969 10.6368C144.969 11.1443 145.039 11.5932 145.179 11.9834C145.323 12.3697 145.53 12.6727 145.8 12.8924C146.074 13.1084 146.41 13.2163 146.809 13.2163ZM156.728 15.0004V6.27309H159.155V15.0004H156.728ZM157.948 5.14809C157.587 5.14809 157.277 5.02877 157.019 4.79013C156.764 4.54771 156.637 4.25794 156.637 3.92081C156.637 3.58748 156.764 3.3015 157.019 3.06286C157.277 2.82044 157.587 2.69922 157.948 2.69922C158.309 2.69922 158.616 2.82044 158.87 3.06286C159.129 3.3015 159.258 3.58748 159.258 3.92081C159.258 4.25794 159.129 4.54771 158.87 4.79013C158.616 5.02877 158.309 5.14809 157.948 5.14809ZM163.527 9.95491V15.0004H161.099V6.27309H163.413V7.81286H163.515C163.71 7.30528 164.034 6.90377 164.49 6.60831C164.946 6.30907 165.499 6.15945 166.148 6.15945C166.756 6.15945 167.285 6.29203 167.738 6.55718C168.189 6.82233 168.541 7.20112 168.792 7.69354C169.042 8.18218 169.168 8.76551 169.168 9.44354V15.0004H166.74V9.87536C166.744 9.34127 166.608 8.9246 166.33 8.62536C166.053 8.32233 165.671 8.17081 165.185 8.17081C164.859 8.17081 164.57 8.24089 164.319 8.38104C164.072 8.52119 163.878 8.72574 163.738 8.99468C163.601 9.25983 163.531 9.57991 163.527 9.95491ZM174.839 15.0004V3.364H177.267V7.739H177.34C177.447 7.50415 177.601 7.26551 177.803 7.02309C178.007 6.77688 178.273 6.57233 178.6 6.40945C178.931 6.24278 179.341 6.15945 179.83 6.15945C180.469 6.15945 181.058 6.32612 181.597 6.65945C182.137 6.989 182.568 7.4871 182.891 8.15377C183.213 8.81665 183.374 9.64809 183.374 10.6481C183.374 11.6216 183.217 12.4436 182.902 13.114C182.59 13.7807 182.165 14.2864 181.625 14.6311C181.09 14.972 180.49 15.1424 179.825 15.1424C179.354 15.1424 178.953 15.0648 178.623 14.9095C178.296 14.7542 178.028 14.5591 177.82 14.3243C177.61 14.0856 177.451 13.8451 177.34 13.6027H177.232V15.0004H174.839ZM177.215 10.6368C177.215 11.1557 177.287 11.6084 177.432 11.9947C177.576 12.3811 177.786 12.6822 178.058 12.8981C178.332 13.1102 178.665 13.2163 179.056 13.2163C179.451 13.2163 179.785 13.1084 180.059 12.8924C180.332 12.6727 180.539 12.3697 180.68 11.9834C180.824 11.5932 180.896 11.1443 180.896 10.6368C180.896 10.133 180.826 9.68975 180.686 9.30718C180.545 8.9246 180.338 8.62536 180.064 8.40945C179.791 8.19354 179.454 8.08559 179.056 8.08559C178.661 8.08559 178.326 8.18975 178.053 8.39809C177.784 8.60642 177.576 8.90187 177.432 9.28445C177.287 9.66703 177.215 10.1178 177.215 10.6368ZM190.606 11.2845V6.27309H193.034V15.0004H190.704V13.4152H190.612C190.415 13.9265 190.086 14.3375 189.627 14.6481C189.17 14.9587 188.614 15.114 187.957 15.114C187.372 15.114 186.857 14.9815 186.413 14.7163C185.968 14.4512 185.621 14.0743 185.371 13.5856C185.123 13.097 184.998 12.5118 184.995 11.8299V6.27309H187.421V11.3981C187.425 11.9133 187.564 12.3205 187.838 12.6197C188.11 12.919 188.477 13.0686 188.937 13.0686C189.229 13.0686 189.503 13.0023 189.758 12.8697C190.012 12.7334 190.217 12.5326 190.373 12.2674C190.532 12.0023 190.61 11.6746 190.606 11.2845ZM197.402 3.364V15.0004H194.975V3.364H197.402ZM201.546 12.489L201.552 9.58559H201.905L204.708 6.27309H207.494L203.728 10.6595H203.152L201.546 12.489ZM199.347 15.0004V3.364H201.773V15.0004H199.347ZM204.817 15.0004L202.241 11.1993L203.859 9.489L207.66 15.0004H204.817ZM214.894 15.1652C214.335 15.1652 213.838 15.0686 213.402 14.8754C212.964 14.6784 212.618 14.3887 212.365 14.0061C212.114 13.6197 211.989 13.1387 211.989 12.5629C211.989 12.0781 212.078 11.6709 212.256 11.3413C212.435 11.0118 212.678 10.7466 212.985 10.5459C213.293 10.3451 213.642 10.1936 214.033 10.0913C214.428 9.989 214.843 9.91703 215.276 9.87536C215.785 9.82233 216.195 9.77309 216.506 9.72763C216.818 9.67839 217.044 9.60642 217.184 9.51172C217.326 9.41703 217.396 9.27688 217.396 9.09127V9.05718C217.396 8.69733 217.281 8.41892 217.054 8.22195C216.829 8.02498 216.51 7.9265 216.096 7.9265C215.66 7.9265 215.312 8.02309 215.053 8.21627C214.795 8.40566 214.624 8.6443 214.541 8.93218L212.296 8.75036C212.41 8.22006 212.634 7.76172 212.968 7.37536C213.302 6.98521 213.734 6.68597 214.262 6.47763C214.793 6.26551 215.409 6.15945 216.108 6.15945C216.593 6.15945 217.059 6.21627 217.504 6.32991C217.952 6.44354 218.348 6.61968 218.694 6.85831C219.044 7.09695 219.319 7.40377 219.521 7.77877C219.722 8.14998 219.822 8.59506 219.822 9.114V15.0004H217.521V13.7902H217.452C217.311 14.0629 217.124 14.3034 216.888 14.5118C216.653 14.7163 216.37 14.8773 216.039 14.9947C215.709 15.1084 215.327 15.1652 214.894 15.1652ZM215.589 13.4947C215.947 13.4947 216.262 13.4246 216.535 13.2845C216.808 13.1406 217.023 12.9474 217.179 12.7049C217.335 12.4625 217.413 12.1879 217.413 11.8811V10.9549C217.337 11.0042 217.232 11.0496 217.099 11.0913C216.969 11.1292 216.824 11.1652 216.661 11.1993C216.497 11.2296 216.334 11.258 216.17 11.2845C216.007 11.3072 215.858 11.3281 215.726 11.347C215.441 11.3887 215.193 11.4549 214.98 11.5459C214.766 11.6368 214.602 11.7599 214.484 11.9152C214.366 12.0667 214.307 12.2561 214.307 12.4834C214.307 12.8129 214.426 13.0648 214.666 13.239C214.909 13.4095 215.217 13.4947 215.589 13.4947ZM228.987 8.76172L226.765 8.89809C226.727 8.70869 226.645 8.53824 226.52 8.38672C226.395 8.23142 226.229 8.10831 226.025 8.01741C225.823 7.92271 225.581 7.87536 225.301 7.87536C224.925 7.87536 224.608 7.95491 224.349 8.114C224.091 8.2693 223.962 8.47763 223.962 8.739C223.962 8.94733 224.045 9.12347 224.213 9.26741C224.38 9.41134 224.667 9.52688 225.073 9.614L226.656 9.93218C227.508 10.1065 228.142 10.3868 228.56 10.7731C228.978 11.1595 229.186 11.6671 229.186 12.2959C229.186 12.8678 229.018 13.3697 228.679 13.8015C228.345 14.2334 227.886 14.5705 227.3 14.8129C226.72 15.0515 226.049 15.1709 225.29 15.1709C224.13 15.1709 223.208 14.9303 222.52 14.4493C221.837 13.9644 221.436 13.3053 221.319 12.472L223.705 12.347C223.777 12.6993 223.952 12.9682 224.23 13.1538C224.506 13.3356 224.862 13.4265 225.295 13.4265C225.721 13.4265 226.063 13.3451 226.32 13.1822C226.583 13.0156 226.716 12.8015 226.72 12.5402C226.716 12.3205 226.622 12.1406 226.44 12.0004C226.258 11.8565 225.977 11.7466 225.597 11.6709L224.081 11.3697C223.227 11.1993 222.59 10.9038 222.173 10.4834C221.759 10.0629 221.552 9.52688 221.552 8.87536C221.552 8.31475 221.704 7.8318 222.007 7.4265C222.315 7.02119 222.747 6.70869 223.301 6.489C223.86 6.2693 224.512 6.15945 225.261 6.15945C226.367 6.15945 227.236 6.39241 227.871 6.85831C228.509 7.32422 228.881 7.95869 228.987 8.76172ZM239.083 6.27309V8.09127H233.813V6.27309H239.083ZM235.01 4.18218H237.436V12.3186C237.436 12.5421 237.471 12.7163 237.54 12.8413C237.608 12.9625 237.703 13.0477 237.824 13.097C237.95 13.1462 238.094 13.1709 238.258 13.1709C238.371 13.1709 238.485 13.1614 238.6 13.1424C238.713 13.1197 238.8 13.1027 238.861 13.0913L239.243 14.8924C239.121 14.9303 238.951 14.9739 238.73 15.0231C238.509 15.0762 238.242 15.1084 237.927 15.1197C237.342 15.1424 236.829 15.0648 236.388 14.8868C235.951 14.7087 235.611 14.4322 235.369 14.0572C235.125 13.6822 235.006 13.2087 235.01 12.6368V4.18218ZM244.559 15.1709C243.659 15.1709 242.883 14.989 242.234 14.6254C241.589 14.258 241.091 13.739 240.742 13.0686C240.392 12.3943 240.217 11.597 240.217 10.6765C240.217 9.77877 240.392 8.99089 240.742 8.31286C241.091 7.63483 241.583 7.10642 242.217 6.72763C242.855 6.34884 243.603 6.15945 244.462 6.15945C245.039 6.15945 245.577 6.25225 246.074 6.43786C246.576 6.61968 247.013 6.8943 247.385 7.26172C247.761 7.62915 248.054 8.09127 248.262 8.64809C248.471 9.20112 248.575 9.84884 248.575 10.5913V11.2561H241.186V9.75604H246.291C246.291 9.40756 246.215 9.09884 246.063 8.82991C245.911 8.56097 245.7 8.35074 245.431 8.19922C245.165 8.04392 244.855 7.96627 244.502 7.96627C244.133 7.96627 243.807 8.0515 243.522 8.22195C243.24 8.38862 243.021 8.614 242.861 8.89809C242.701 9.17839 242.62 9.49089 242.616 9.83559V11.2618C242.616 11.6936 242.696 12.0667 242.855 12.3811C243.019 12.6955 243.249 12.9379 243.544 13.1084C243.841 13.2788 244.192 13.364 244.598 13.364C244.868 13.364 245.116 13.3262 245.339 13.2504C245.564 13.1746 245.755 13.061 245.915 12.9095C246.074 12.758 246.196 12.5724 246.28 12.3527L248.524 12.5004C248.411 13.0383 248.177 13.508 247.823 13.9095C247.474 14.3072 247.022 14.6178 246.467 14.8413C245.917 15.061 245.28 15.1709 244.559 15.1709ZM252.656 15.1652C252.097 15.1652 251.6 15.0686 251.162 14.8754C250.725 14.6784 250.38 14.3887 250.126 14.0061C249.875 13.6197 249.75 13.1387 249.75 12.5629C249.75 12.0781 249.839 11.6709 250.017 11.3413C250.196 11.0118 250.438 10.7466 250.746 10.5459C251.054 10.3451 251.403 10.1936 251.795 10.0913C252.19 9.989 252.603 9.91703 253.037 9.87536C253.546 9.82233 253.956 9.77309 254.267 9.72763C254.579 9.67839 254.805 9.60642 254.946 9.51172C255.086 9.41703 255.157 9.27688 255.157 9.09127V9.05718C255.157 8.69733 255.042 8.41892 254.815 8.22195C254.59 8.02498 254.271 7.9265 253.857 7.9265C253.421 7.9265 253.073 8.02309 252.815 8.21627C252.556 8.40566 252.386 8.6443 252.302 8.93218L250.057 8.75036C250.171 8.22006 250.395 7.76172 250.729 7.37536C251.063 6.98521 251.494 6.68597 252.023 6.47763C252.554 6.26551 253.17 6.15945 253.869 6.15945C254.355 6.15945 254.821 6.21627 255.265 6.32991C255.713 6.44354 256.11 6.61968 256.455 6.85831C256.805 7.09695 257.08 7.40377 257.281 7.77877C257.483 8.14998 257.583 8.59506 257.583 9.114V15.0004H255.282V13.7902H255.214C255.073 14.0629 254.885 14.3034 254.649 14.5118C254.413 14.7163 254.131 14.8773 253.801 14.9947C253.47 15.1084 253.088 15.1652 252.656 15.1652ZM253.351 13.4947C253.708 13.4947 254.022 13.4246 254.296 13.2845C254.57 13.1406 254.785 12.9474 254.94 12.7049C255.095 12.4625 255.174 12.1879 255.174 11.8811V10.9549C255.097 11.0042 254.993 11.0496 254.86 11.0913C254.731 11.1292 254.585 11.1652 254.422 11.1993C254.258 11.2296 254.095 11.258 253.931 11.2845C253.768 11.3072 253.62 11.3281 253.487 11.347C253.202 11.3887 252.953 11.4549 252.741 11.5459C252.528 11.6368 252.363 11.7599 252.244 11.9152C252.127 12.0667 252.068 12.2561 252.068 12.4834C252.068 12.8129 252.188 13.0648 252.427 13.239C252.671 13.4095 252.979 13.4947 253.351 13.4947ZM265.608 3.364V15.0004H263.18V3.364H265.608ZM271.54 15.1709C270.64 15.1709 269.864 14.989 269.216 14.6254C268.57 14.258 268.072 13.739 267.722 13.0686C267.374 12.3943 267.198 11.597 267.198 10.6765C267.198 9.77877 267.374 8.99089 267.722 8.31286C268.072 7.63483 268.564 7.10642 269.199 6.72763C269.836 6.34884 270.584 6.15945 271.443 6.15945C272.02 6.15945 272.558 6.25225 273.055 6.43786C273.557 6.61968 273.994 6.8943 274.366 7.26172C274.742 7.62915 275.035 8.09127 275.243 8.64809C275.452 9.20112 275.557 9.84884 275.557 10.5913V11.2561H268.167V9.75604H273.272C273.272 9.40756 273.196 9.09884 273.044 8.82991C272.892 8.56097 272.681 8.35074 272.412 8.19922C272.146 8.04392 271.836 7.96627 271.483 7.96627C271.115 7.96627 270.788 8.0515 270.503 8.22195C270.222 8.38862 270.002 8.614 269.842 8.89809C269.683 9.17839 269.601 9.49089 269.597 9.83559V11.2618C269.597 11.6936 269.677 12.0667 269.836 12.3811C270 12.6955 270.229 12.9379 270.526 13.1084C270.822 13.2788 271.173 13.364 271.58 13.364C271.85 13.364 272.097 13.3262 272.32 13.2504C272.545 13.1746 272.736 13.061 272.896 12.9095C273.055 12.758 273.178 12.5724 273.261 12.3527L275.505 12.5004C275.392 13.0383 275.158 13.508 274.805 13.9095C274.455 14.3072 274.003 14.6178 273.448 14.8413C272.898 15.061 272.262 15.1709 271.54 15.1709ZM279.637 15.1652C279.078 15.1652 278.581 15.0686 278.143 14.8754C277.707 14.6784 277.361 14.3887 277.107 14.0061C276.856 13.6197 276.731 13.1387 276.731 12.5629C276.731 12.0781 276.82 11.6709 276.998 11.3413C277.177 11.0118 277.42 10.7466 277.727 10.5459C278.035 10.3451 278.385 10.1936 278.776 10.0913C279.171 9.989 279.585 9.91703 280.018 9.87536C280.527 9.82233 280.937 9.77309 281.249 9.72763C281.56 9.67839 281.787 9.60642 281.927 9.51172C282.067 9.41703 282.138 9.27688 282.138 9.09127V9.05718C282.138 8.69733 282.023 8.41892 281.796 8.22195C281.572 8.02498 281.253 7.9265 280.839 7.9265C280.402 7.9265 280.054 8.02309 279.796 8.21627C279.537 8.40566 279.367 8.6443 279.284 8.93218L277.038 8.75036C277.153 8.22006 277.376 7.76172 277.71 7.37536C278.045 6.98521 278.476 6.68597 279.004 6.47763C279.535 6.26551 280.151 6.15945 280.85 6.15945C281.336 6.15945 281.802 6.21627 282.246 6.32991C282.694 6.44354 283.091 6.61968 283.437 6.85831C283.786 7.09695 284.062 7.40377 284.262 7.77877C284.464 8.14998 284.565 8.59506 284.565 9.114V15.0004H282.263V13.7902H282.195C282.054 14.0629 281.866 14.3034 281.63 14.5118C281.395 14.7163 281.112 14.8773 280.782 14.9947C280.451 15.1084 280.07 15.1652 279.637 15.1652ZM280.331 13.4947C280.688 13.4947 281.003 13.4246 281.277 13.2845C281.551 13.1406 281.766 12.9474 281.921 12.7049C282.077 12.4625 282.155 12.1879 282.155 11.8811V10.9549C282.078 11.0042 281.974 11.0496 281.842 11.0913C281.712 11.1292 281.566 11.1652 281.402 11.1993C281.239 11.2296 281.076 11.258 280.913 11.2845C280.75 11.3072 280.601 11.3281 280.468 11.347C280.183 11.3887 279.934 11.4549 279.722 11.5459C279.509 11.6368 279.344 11.7599 279.226 11.9152C279.108 12.0667 279.05 12.2561 279.05 12.4834C279.05 12.8129 279.169 13.0648 279.409 13.239C279.652 13.4095 279.959 13.4947 280.331 13.4947ZM294.293 6.27309L291.234 15.0004H288.499L285.44 6.27309H288.004L289.821 12.5174H289.912L291.724 6.27309H294.293ZM299.242 15.1709C298.342 15.1709 297.566 14.989 296.918 14.6254C296.272 14.258 295.774 13.739 295.424 13.0686C295.075 12.3943 294.9 11.597 294.9 10.6765C294.9 9.77877 295.075 8.99089 295.424 8.31286C295.774 7.63483 296.266 7.10642 296.901 6.72763C297.538 6.34884 298.286 6.15945 299.145 6.15945C299.722 6.15945 300.26 6.25225 300.757 6.43786C301.259 6.61968 301.696 6.8943 302.068 7.26172C302.444 7.62915 302.737 8.09127 302.945 8.64809C303.154 9.20112 303.259 9.84884 303.259 10.5913V11.2561H295.869V9.75604H300.974C300.974 9.40756 300.898 9.09884 300.746 8.82991C300.594 8.56097 300.383 8.35074 300.113 8.19922C299.848 8.04392 299.538 7.96627 299.185 7.96627C298.817 7.96627 298.49 8.0515 298.205 8.22195C297.924 8.38862 297.704 8.614 297.544 8.89809C297.385 9.17839 297.303 9.49089 297.299 9.83559V11.2618C297.299 11.6936 297.379 12.0667 297.538 12.3811C297.702 12.6955 297.931 12.9379 298.228 13.1084C298.524 13.2788 298.875 13.364 299.282 13.364C299.552 13.364 299.799 13.3262 300.022 13.2504C300.247 13.1746 300.438 13.061 300.598 12.9095C300.757 12.758 300.88 12.5724 300.963 12.3527L303.207 12.5004C303.094 13.0383 302.86 13.508 302.507 13.9095C302.157 14.3072 301.705 14.6178 301.15 14.8413C300.6 15.061 299.964 15.1709 299.242 15.1709ZM312.125 8.76172L309.903 8.89809C309.865 8.70869 309.782 8.53824 309.657 8.38672C309.532 8.23142 309.367 8.10831 309.162 8.01741C308.96 7.92271 308.719 7.87536 308.438 7.87536C308.062 7.87536 307.745 7.95491 307.487 8.114C307.228 8.2693 307.099 8.47763 307.099 8.739C307.099 8.94733 307.182 9.12347 307.35 9.26741C307.517 9.41134 307.804 9.52688 308.21 9.614L309.794 9.93218C310.645 10.1065 311.279 10.3868 311.697 10.7731C312.115 11.1595 312.323 11.6671 312.323 12.2959C312.323 12.8678 312.155 13.3697 311.817 13.8015C311.482 14.2334 311.023 14.5705 310.438 14.8129C309.857 15.0515 309.187 15.1709 308.427 15.1709C307.268 15.1709 306.345 14.9303 305.658 14.4493C304.974 13.9644 304.573 13.3053 304.456 12.472L306.842 12.347C306.914 12.6993 307.09 12.9682 307.367 13.1538C307.644 13.3356 307.999 13.4265 308.433 13.4265C308.858 13.4265 309.2 13.3451 309.457 13.1822C309.72 13.0156 309.853 12.8015 309.857 12.5402C309.853 12.3205 309.76 12.1406 309.578 12.0004C309.395 11.8565 309.114 11.7466 308.734 11.6709L307.218 11.3697C306.364 11.1993 305.728 10.9038 305.31 10.4834C304.896 10.0629 304.689 9.52688 304.689 8.87536C304.689 8.31475 304.841 7.8318 305.144 7.4265C305.452 7.02119 305.883 6.70869 306.438 6.489C306.997 6.2693 307.649 6.15945 308.398 6.15945C309.504 6.15945 310.373 6.39241 311.008 6.85831C311.645 7.32422 312.018 7.95869 312.125 8.76172Z" fill="black"/>
<path d="M8.1029 219.999H7.04314C6.98046 219.695 6.87078 219.428 6.7141 219.198C6.56026 218.968 6.37224 218.775 6.15003 218.618C5.93067 218.459 5.68709 218.34 5.41931 218.26C5.15151 218.181 4.87233 218.141 4.58175 218.141C4.05187 218.141 3.57185 218.275 3.14167 218.542C2.71435 218.809 2.37392 219.202 2.12037 219.722C1.86968 220.242 1.74433 220.88 1.74433 221.635C1.74433 222.391 1.86968 223.029 2.12037 223.549C2.37392 224.069 2.71435 224.462 3.14167 224.729C3.57185 224.996 4.05187 225.13 4.58175 225.13C4.87233 225.13 5.15151 225.09 5.41931 225.01C5.68709 224.931 5.93067 224.813 6.15003 224.657C6.37224 224.498 6.56026 224.303 6.7141 224.073C6.87078 223.84 6.98046 223.573 7.04314 223.272H8.1029C8.02313 223.718 7.87784 224.117 7.66703 224.469C7.45622 224.821 7.19413 225.121 6.88076 225.368C6.56739 225.613 6.21555 225.799 5.82527 225.927C5.43783 226.054 5.02332 226.118 4.58175 226.118C3.83536 226.118 3.17158 225.937 2.59043 225.573C2.00927 225.209 1.55204 224.692 1.21872 224.022C0.885406 223.351 0.71875 222.556 0.71875 221.635C0.71875 220.715 0.885406 219.919 1.21872 219.249C1.55204 218.579 2.00927 218.061 2.59043 217.698C3.17158 217.334 3.83536 217.152 4.58175 217.152C5.02332 217.152 5.43783 217.216 5.82527 217.344C6.21555 217.472 6.56739 217.66 6.88076 217.907C7.19413 218.151 7.45622 218.449 7.66703 218.802C7.87784 219.151 8.02313 219.55 8.1029 219.999ZM10.8075 222.061V225.999H9.79898V217.272H10.8075V220.476H10.8929C11.0467 220.138 11.2776 219.87 11.5852 219.671C11.8957 219.469 12.3088 219.368 12.8245 219.368C13.2717 219.368 13.6634 219.458 13.9995 219.637C14.3358 219.813 14.5964 220.084 14.7816 220.451C14.9696 220.814 15.0636 221.277 15.0636 221.84V225.999H14.0551V221.908C14.0551 221.388 13.9198 220.986 13.6492 220.702C13.3814 220.415 13.0096 220.272 12.5339 220.272C12.2034 220.272 11.9071 220.341 11.645 220.481C11.3858 220.62 11.1807 220.823 11.0297 221.09C10.8816 221.357 10.8075 221.681 10.8075 222.061ZM18.9604 226.152C18.5445 226.152 18.167 226.074 17.828 225.918C17.489 225.759 17.2198 225.53 17.0203 225.232C16.821 224.931 16.7212 224.567 16.7212 224.141C16.7212 223.766 16.7953 223.462 16.9434 223.229C17.0916 222.993 17.2896 222.809 17.5375 222.675C17.7852 222.542 18.0588 222.442 18.3579 222.377C18.6599 222.309 18.9632 222.255 19.2681 222.215C19.6669 222.164 19.9903 222.125 20.2382 222.1C20.4889 222.071 20.6712 222.025 20.7851 221.959C20.9019 221.894 20.9603 221.78 20.9603 221.618V221.584C20.9603 221.164 20.8449 220.837 20.6142 220.604C20.3863 220.371 20.0401 220.255 19.5757 220.255C19.0943 220.255 18.7168 220.36 18.4434 220.57C18.1699 220.78 17.9776 221.005 17.8665 221.243L16.9092 220.902C17.0802 220.505 17.3081 220.195 17.593 219.973C17.8807 219.749 18.1941 219.593 18.5331 219.505C18.875 219.414 19.2111 219.368 19.5415 219.368C19.7524 219.368 19.9946 219.394 20.268 219.445C20.5443 219.493 20.8108 219.594 21.0672 219.748C21.3264 219.901 21.5415 220.133 21.7124 220.442C21.8833 220.752 21.9688 221.167 21.9688 221.687V225.999H20.9603V225.113H20.909C20.8406 225.255 20.7267 225.407 20.5672 225.569C20.4076 225.731 20.1953 225.868 19.9304 225.982C19.6655 226.096 19.3422 226.152 18.9604 226.152ZM19.1142 225.249C19.513 225.249 19.8493 225.171 20.1227 225.015C20.3991 224.858 20.607 224.657 20.7467 224.41C20.8891 224.162 20.9603 223.902 20.9603 223.63V222.709C20.9175 222.76 20.8236 222.807 20.6783 222.85C20.5358 222.89 20.3706 222.925 20.1826 222.956C19.9974 222.985 19.8165 223.01 19.6399 223.033C19.4661 223.053 19.325 223.07 19.2168 223.084C18.9547 223.118 18.7097 223.174 18.4818 223.25C18.2568 223.324 18.0744 223.436 17.9349 223.587C17.7981 223.735 17.7297 223.936 17.7297 224.192C17.7297 224.542 17.8594 224.806 18.1186 224.985C18.3807 225.161 18.7125 225.249 19.1142 225.249ZM23.9298 228.454V219.454H24.9041V220.493H25.0238C25.0979 220.38 25.2003 220.235 25.3314 220.059C25.4653 219.88 25.6562 219.721 25.904 219.581C26.1547 219.439 26.4937 219.368 26.921 219.368C27.4738 219.368 27.9609 219.506 28.3825 219.782C28.8042 220.057 29.1332 220.448 29.3696 220.954C29.6061 221.459 29.7243 222.056 29.7243 222.743C29.7243 223.437 29.6061 224.037 29.3696 224.546C29.1332 225.052 28.8056 225.444 28.3868 225.722C27.968 225.998 27.4851 226.135 26.9382 226.135C26.5165 226.135 26.179 226.066 25.9254 225.927C25.6719 225.785 25.4767 225.624 25.3399 225.445C25.2033 225.263 25.0979 225.113 25.0238 224.993H24.9383V228.454H23.9298ZM24.9212 222.726C24.9212 223.221 24.9939 223.657 25.1392 224.035C25.2844 224.41 25.4967 224.704 25.7758 224.917C26.055 225.127 26.3969 225.232 26.8014 225.232C27.2231 225.232 27.5748 225.121 27.8569 224.9C28.1418 224.675 28.3554 224.374 28.4979 223.996C28.6432 223.615 28.7158 223.192 28.7158 222.726C28.7158 222.266 28.6446 221.851 28.5021 221.482C28.3625 221.11 28.1503 220.816 27.8655 220.6C27.5835 220.381 27.2288 220.272 26.8014 220.272C26.3912 220.272 26.0465 220.375 25.7673 220.583C25.4881 220.787 25.2773 221.074 25.1349 221.444C24.9924 221.81 24.9212 222.238 24.9212 222.726ZM34.2376 219.454V220.306H30.836V219.454H34.2376ZM31.8275 217.885H32.8359V224.124C32.8359 224.408 32.8772 224.621 32.9598 224.763C33.0453 224.902 33.1535 224.996 33.2846 225.044C33.4185 225.09 33.5595 225.113 33.7077 225.113C33.8188 225.113 33.9099 225.107 33.9811 225.096C34.0523 225.081 34.1093 225.07 34.152 225.061L34.3572 225.965C34.2888 225.99 34.1933 226.016 34.0709 226.042C33.9483 226.07 33.7931 226.084 33.6051 226.084C33.3202 226.084 33.041 226.023 32.7676 225.901C32.4969 225.779 32.2718 225.593 32.0924 225.343C31.9157 225.093 31.8275 224.777 31.8275 224.397V217.885ZM38.5563 226.135C37.9239 226.135 37.3783 225.996 36.9197 225.718C36.4638 225.437 36.1121 225.044 35.8642 224.542C35.6192 224.036 35.4967 223.448 35.4967 222.777C35.4967 222.107 35.6192 221.516 35.8642 221.005C36.1121 220.49 36.4567 220.09 36.8983 219.803C37.3427 219.513 37.8612 219.368 38.4538 219.368C38.7956 219.368 39.1331 219.425 39.4665 219.539C39.7998 219.652 40.1032 219.837 40.3767 220.093C40.6502 220.346 40.8682 220.681 41.0305 221.098C41.1929 221.516 41.2741 222.03 41.2741 222.641V223.067H36.2145V222.198H40.2485C40.2485 221.829 40.1744 221.499 40.0263 221.209C39.881 220.919 39.673 220.691 39.4024 220.523C39.1347 220.356 38.8184 220.272 38.4538 220.272C38.052 220.272 37.7045 220.371 37.4111 220.57C37.1205 220.766 36.8968 221.022 36.7402 221.337C36.5835 221.652 36.5051 221.99 36.5051 222.351V222.931C36.5051 223.425 36.5906 223.844 36.7616 224.188C36.9353 224.529 37.176 224.789 37.4838 224.968C37.7914 225.144 38.1489 225.232 38.5563 225.232C38.8213 225.232 39.0605 225.195 39.2742 225.121C39.4907 225.044 39.6774 224.931 39.834 224.78C39.9907 224.627 40.1118 224.436 40.1972 224.209L41.1715 224.482C41.0689 224.811 40.8966 225.101 40.6545 225.351C40.4123 225.598 40.1132 225.792 39.7571 225.931C39.401 226.067 39.0007 226.135 38.5563 226.135ZM42.9285 225.999V219.454H43.9028V220.442H43.9712C44.0908 220.118 44.3073 219.856 44.6207 219.654C44.9341 219.452 45.2873 219.351 45.6804 219.351C45.7545 219.351 45.8471 219.353 45.9582 219.356C46.0693 219.358 46.1534 219.363 46.2104 219.368V220.391C46.1762 220.383 46.0978 220.37 45.9754 220.353C45.8557 220.333 45.7289 220.323 45.595 220.323C45.2759 220.323 44.991 220.39 44.7403 220.523C44.4925 220.654 44.296 220.836 44.1507 221.069C44.0082 221.299 43.937 221.561 43.937 221.857V225.999H42.9285Z" fill="black"/>
<path d="M97.3281 226V217.273H98.3879V221.159H103.054V217.273H104.114V226H103.054V222.097H98.3879V226H97.3281ZM108.972 226.136C108.339 226.136 107.793 225.997 107.334 225.719C106.879 225.438 106.527 225.045 106.279 224.543C106.035 224.037 105.911 223.449 105.911 222.778C105.911 222.108 106.035 221.517 106.279 221.006C106.527 220.491 106.872 220.091 107.313 219.804C107.757 219.514 108.276 219.369 108.868 219.369C109.21 219.369 109.548 219.426 109.881 219.54C110.215 219.653 110.518 219.838 110.792 220.094C111.065 220.347 111.283 220.682 111.446 221.099C111.608 221.517 111.689 222.031 111.689 222.642V223.068H106.629V222.199H110.663C110.663 221.83 110.589 221.5 110.441 221.21C110.296 220.92 110.088 220.692 109.817 220.524C109.549 220.357 109.233 220.273 108.868 220.273C108.467 220.273 108.119 220.372 107.826 220.571C107.536 220.767 107.312 221.023 107.156 221.338C106.998 221.653 106.92 221.991 106.92 222.352V222.932C106.92 223.426 107.005 223.845 107.177 224.189C107.35 224.53 107.591 224.79 107.899 224.969C108.207 225.145 108.564 225.233 108.972 225.233C109.236 225.233 109.475 225.196 109.689 225.122C109.905 225.045 110.092 224.932 110.249 224.781C110.406 224.628 110.527 224.437 110.612 224.21L111.587 224.483C111.484 224.812 111.311 225.102 111.069 225.352C110.827 225.599 110.528 225.793 110.172 225.932C109.816 226.068 109.416 226.136 108.972 226.136ZM115.275 226.153C114.859 226.153 114.482 226.075 114.143 225.919C113.803 225.76 113.534 225.531 113.335 225.233C113.135 224.932 113.036 224.568 113.036 224.142C113.036 223.767 113.11 223.463 113.258 223.23C113.406 222.994 113.605 222.81 113.852 222.676C114.1 222.543 114.374 222.443 114.673 222.378C114.974 222.31 115.278 222.256 115.583 222.216C115.981 222.165 116.305 222.126 116.553 222.101C116.803 222.072 116.986 222.026 117.099 221.96C117.217 221.895 117.275 221.781 117.275 221.619V221.585C117.275 221.165 117.159 220.838 116.929 220.605C116.701 220.372 116.354 220.256 115.89 220.256C115.409 220.256 115.032 220.361 114.758 220.571C114.484 220.781 114.292 221.006 114.181 221.244L113.223 220.903C113.395 220.506 113.623 220.196 113.907 219.974C114.195 219.75 114.509 219.594 114.848 219.506C115.19 219.415 115.526 219.369 115.856 219.369C116.067 219.369 116.309 219.395 116.583 219.446C116.859 219.494 117.125 219.595 117.382 219.749C117.641 219.902 117.856 220.134 118.027 220.443C118.198 220.753 118.284 221.168 118.284 221.688V226H117.275V225.114H117.224C117.155 225.256 117.041 225.408 116.882 225.57C116.722 225.732 116.51 225.869 116.245 225.983C115.98 226.097 115.656 226.153 115.275 226.153ZM115.429 225.25C115.828 225.25 116.164 225.172 116.437 225.016C116.713 224.859 116.922 224.658 117.061 224.411C117.204 224.163 117.275 223.903 117.275 223.631V222.71C117.232 222.761 117.138 222.808 116.993 222.851C116.851 222.891 116.685 222.926 116.498 222.957C116.312 222.986 116.131 223.011 115.954 223.034C115.781 223.054 115.639 223.071 115.531 223.085C115.269 223.119 115.024 223.175 114.797 223.251C114.571 223.325 114.389 223.437 114.249 223.588C114.113 223.736 114.045 223.937 114.045 224.193C114.045 224.543 114.174 224.807 114.433 224.986C114.696 225.162 115.027 225.25 115.429 225.25ZM122.723 226.136C122.175 226.136 121.693 225.999 121.274 225.723C120.856 225.445 120.528 225.053 120.291 224.547C120.054 224.038 119.937 223.438 119.937 222.744C119.937 222.057 120.054 221.46 120.291 220.955C120.528 220.449 120.857 220.058 121.279 219.783C121.7 219.507 122.187 219.369 122.74 219.369C123.167 219.369 123.505 219.44 123.753 219.582C124.003 219.722 124.194 219.881 124.325 220.06C124.459 220.236 124.563 220.381 124.637 220.494H124.722V217.273H125.731V226H124.757V224.994H124.637C124.563 225.114 124.458 225.264 124.321 225.446C124.184 225.625 123.989 225.786 123.736 225.928C123.482 226.067 123.144 226.136 122.723 226.136ZM122.859 225.233C123.264 225.233 123.606 225.128 123.885 224.918C124.164 224.705 124.376 224.411 124.522 224.036C124.667 223.658 124.739 223.222 124.739 222.727C124.739 222.239 124.668 221.811 124.526 221.445C124.383 221.075 124.173 220.788 123.894 220.584C123.614 220.376 123.269 220.273 122.859 220.273C122.432 220.273 122.076 220.382 121.791 220.601C121.509 220.817 121.297 221.111 121.155 221.483C121.015 221.852 120.945 222.267 120.945 222.727C120.945 223.193 121.016 223.616 121.159 223.997C121.304 224.375 121.518 224.676 121.799 224.901C122.085 225.122 122.438 225.233 122.859 225.233ZM127.838 226V219.455H128.847V226H127.838ZM128.352 218.364C128.155 218.364 127.985 218.297 127.843 218.163C127.704 218.03 127.634 217.869 127.634 217.682C127.634 217.494 127.704 217.334 127.843 217.2C127.985 217.067 128.155 217 128.352 217C128.548 217 128.716 217.067 128.856 217.2C128.998 217.334 129.07 217.494 129.07 217.682C129.07 217.869 128.998 218.03 128.856 218.163C128.716 218.297 128.548 218.364 128.352 218.364ZM131.823 222.062V226H130.814V219.455H131.789V220.477H131.874C132.028 220.145 132.261 219.878 132.575 219.676C132.888 219.472 133.293 219.369 133.789 219.369C134.233 219.369 134.622 219.46 134.955 219.642C135.289 219.821 135.547 220.094 135.733 220.46C135.919 220.824 136.011 221.284 136.011 221.841V226H135.002V221.909C135.002 221.395 134.869 220.994 134.601 220.707C134.333 220.418 133.965 220.273 133.498 220.273C133.176 220.273 132.888 220.342 132.634 220.482C132.384 220.621 132.186 220.824 132.041 221.091C131.895 221.358 131.823 221.682 131.823 222.062ZM140.624 228.591C140.136 228.591 139.717 228.528 139.367 228.403C139.016 228.281 138.724 228.119 138.491 227.918C138.26 227.719 138.077 227.506 137.94 227.278L138.743 226.716C138.835 226.835 138.95 226.972 139.089 227.125C139.229 227.281 139.419 227.416 139.662 227.53C139.907 227.646 140.227 227.705 140.624 227.705C141.153 227.705 141.59 227.577 141.935 227.321C142.28 227.065 142.453 226.665 142.453 226.119V224.79H142.366C142.292 224.909 142.187 225.057 142.051 225.233C141.916 225.406 141.723 225.561 141.469 225.697C141.218 225.831 140.879 225.898 140.452 225.898C139.923 225.898 139.446 225.773 139.025 225.523C138.606 225.273 138.274 224.909 138.029 224.432C137.788 223.955 137.666 223.375 137.666 222.693C137.666 222.023 137.785 221.439 138.021 220.942C138.257 220.442 138.586 220.055 139.008 219.783C139.429 219.507 139.917 219.369 140.469 219.369C140.896 219.369 141.236 219.44 141.487 219.582C141.74 219.722 141.934 219.881 142.068 220.06C142.204 220.236 142.31 220.381 142.383 220.494H142.487V219.455H143.46V226.188C143.46 226.75 143.332 227.207 143.076 227.56C142.823 227.915 142.481 228.175 142.051 228.339C141.623 228.507 141.147 228.591 140.624 228.591ZM140.589 224.994C140.994 224.994 141.336 224.902 141.614 224.717C141.894 224.533 142.106 224.267 142.251 223.92C142.397 223.574 142.47 223.159 142.47 222.676C142.47 222.205 142.399 221.788 142.256 221.428C142.114 221.067 141.902 220.784 141.623 220.58C141.344 220.375 141 220.273 140.589 220.273C140.161 220.273 139.805 220.381 139.521 220.597C139.239 220.812 139.026 221.102 138.884 221.466C138.744 221.83 138.675 222.233 138.675 222.676C138.675 223.131 138.746 223.533 138.889 223.882C139.033 224.229 139.248 224.501 139.53 224.7C139.814 224.896 140.167 224.994 140.589 224.994Z" fill="black"/>
<path d="M212.773 226V217.273H215.731C216.417 217.273 216.978 217.396 217.414 217.643C217.853 217.888 218.177 218.219 218.388 218.636C218.599 219.054 218.704 219.52 218.704 220.034C218.704 220.548 218.599 221.016 218.388 221.436C218.18 221.857 217.859 222.192 217.422 222.442C216.986 222.689 216.429 222.812 215.748 222.812H213.628V221.875H215.714C216.183 221.875 216.561 221.794 216.846 221.632C217.131 221.47 217.337 221.251 217.465 220.976C217.596 220.697 217.662 220.384 217.662 220.034C217.662 219.685 217.596 219.372 217.465 219.097C217.337 218.821 217.129 218.605 216.842 218.449C216.554 218.29 216.172 218.21 215.696 218.21H213.833V226H212.773ZM220.396 226V219.455H221.369V220.443H221.438C221.558 220.119 221.774 219.857 222.087 219.655C222.401 219.453 222.754 219.352 223.147 219.352C223.221 219.352 223.314 219.354 223.425 219.357C223.536 219.359 223.62 219.364 223.677 219.369V220.392C223.643 220.384 223.564 220.371 223.442 220.354C223.323 220.334 223.195 220.324 223.062 220.324C222.742 220.324 222.457 220.391 222.207 220.524C221.959 220.655 221.762 220.837 221.617 221.07C221.475 221.3 221.403 221.562 221.403 221.858V226H220.396ZM227.459 226.136C226.867 226.136 226.347 225.996 225.9 225.714C225.456 225.433 225.108 225.04 224.857 224.534C224.609 224.028 224.485 223.437 224.485 222.761C224.485 222.08 224.609 221.484 224.857 220.976C225.108 220.467 225.456 220.072 225.9 219.791C226.347 219.51 226.867 219.369 227.459 219.369C228.052 219.369 228.57 219.51 229.015 219.791C229.462 220.072 229.81 220.467 230.057 220.976C230.308 221.484 230.433 222.08 230.433 222.761C230.433 223.437 230.308 224.028 230.057 224.534C229.81 225.04 229.462 225.433 229.015 225.714C228.57 225.996 228.052 226.136 227.459 226.136ZM227.459 225.233C227.909 225.233 228.279 225.118 228.57 224.888C228.861 224.658 229.076 224.355 229.216 223.98C229.355 223.605 229.425 223.199 229.425 222.761C229.425 222.324 229.355 221.916 229.216 221.538C229.076 221.161 228.861 220.855 228.57 220.622C228.279 220.389 227.909 220.273 227.459 220.273C227.009 220.273 226.639 220.389 226.348 220.622C226.058 220.855 225.843 221.161 225.703 221.538C225.564 221.916 225.494 222.324 225.494 222.761C225.494 223.199 225.564 223.605 225.703 223.98C225.843 224.355 226.058 224.658 226.348 224.888C226.639 225.118 227.009 225.233 227.459 225.233ZM234.572 226.136C234.024 226.136 233.542 225.999 233.123 225.723C232.705 225.445 232.377 225.053 232.14 224.547C231.904 224.038 231.785 223.438 231.785 222.744C231.785 222.057 231.904 221.46 232.14 220.955C232.377 220.449 232.706 220.058 233.128 219.783C233.549 219.507 234.036 219.369 234.589 219.369C235.016 219.369 235.354 219.44 235.602 219.582C235.853 219.722 236.043 219.881 236.174 220.06C236.308 220.236 236.412 220.381 236.486 220.494H236.572V217.273H237.58V226H236.606V224.994H236.486C236.412 225.114 236.307 225.264 236.17 225.446C236.033 225.625 235.839 225.786 235.585 225.928C235.331 226.067 234.993 226.136 234.572 226.136ZM234.708 225.233C235.113 225.233 235.455 225.128 235.734 224.918C236.013 224.705 236.226 224.411 236.371 224.036C236.516 223.658 236.589 223.222 236.589 222.727C236.589 222.239 236.517 221.811 236.375 221.445C236.233 221.075 236.022 220.788 235.743 220.584C235.463 220.376 235.118 220.273 234.708 220.273C234.281 220.273 233.925 220.382 233.64 220.601C233.359 220.817 233.146 221.111 233.004 221.483C232.864 221.852 232.794 222.267 232.794 222.727C232.794 223.193 232.865 223.616 233.008 223.997C233.153 224.375 233.367 224.676 233.648 224.901C233.934 225.122 234.287 225.233 234.708 225.233ZM243.824 223.324V219.455H244.832V226H243.824V224.892H243.755C243.602 225.224 243.362 225.507 243.037 225.74C242.713 225.97 242.302 226.085 241.807 226.085C241.397 226.085 241.032 225.996 240.713 225.817C240.394 225.635 240.143 225.362 239.961 224.999C239.778 224.632 239.687 224.17 239.687 223.614V219.455H240.696V223.545C240.696 224.023 240.83 224.403 241.098 224.688C241.369 224.972 241.713 225.114 242.132 225.114C242.383 225.114 242.637 225.05 242.897 224.922C243.159 224.794 243.378 224.598 243.555 224.334C243.734 224.07 243.824 223.733 243.824 223.324ZM249.466 226.136C248.852 226.136 248.321 225.991 247.877 225.702C247.433 225.412 247.091 225.013 246.851 224.504C246.612 223.996 246.492 223.415 246.492 222.761C246.492 222.097 246.614 221.51 246.86 221.001C247.108 220.49 247.453 220.091 247.894 219.804C248.338 219.514 248.857 219.369 249.449 219.369C249.911 219.369 250.327 219.455 250.697 219.625C251.068 219.795 251.371 220.034 251.607 220.341C251.844 220.648 251.99 221.006 252.048 221.415H251.039C250.963 221.116 250.791 220.852 250.526 220.622C250.265 220.389 249.911 220.273 249.466 220.273C249.073 220.273 248.728 220.375 248.432 220.58C248.139 220.781 247.91 221.067 247.745 221.436C247.582 221.803 247.501 222.233 247.501 222.727C247.501 223.233 247.58 223.673 247.741 224.048C247.903 224.423 248.131 224.714 248.423 224.922C248.72 225.129 249.067 225.233 249.466 225.233C249.729 225.233 249.967 225.188 250.18 225.097C250.394 225.006 250.574 224.875 250.723 224.705C250.871 224.534 250.977 224.33 251.039 224.091H252.048C251.99 224.477 251.85 224.825 251.624 225.135C251.403 225.442 251.108 225.686 250.74 225.868C250.375 226.047 249.951 226.136 249.466 226.136ZM256.497 219.455V220.307H253.095V219.455H256.497ZM254.086 217.886H255.095V224.125C255.095 224.409 255.136 224.622 255.219 224.764C255.305 224.903 255.413 224.997 255.544 225.045C255.678 225.091 255.819 225.114 255.966 225.114C256.078 225.114 256.169 225.108 256.24 225.097C256.311 225.082 256.369 225.071 256.412 225.062L256.616 225.966C256.548 225.991 256.453 226.017 256.33 226.043C256.207 226.071 256.053 226.085 255.864 226.085C255.579 226.085 255.301 226.024 255.027 225.902C254.756 225.78 254.531 225.594 254.352 225.344C254.174 225.094 254.086 224.778 254.086 224.398V217.886ZM228.869 235H227.81C227.747 234.696 227.638 234.429 227.481 234.199C227.327 233.969 227.139 233.776 226.917 233.619C226.697 233.46 226.453 233.341 226.186 233.261C225.918 233.182 225.639 233.142 225.348 233.142C224.819 233.142 224.339 233.276 223.908 233.543C223.481 233.81 223.14 234.203 222.888 234.723C222.637 235.243 222.511 235.881 222.511 236.636C222.511 237.392 222.637 238.03 222.888 238.55C223.14 239.07 223.481 239.463 223.908 239.73C224.339 239.997 224.819 240.131 225.348 240.131C225.639 240.131 225.918 240.091 226.186 240.011C226.453 239.932 226.697 239.814 226.917 239.658C227.139 239.499 227.327 239.304 227.481 239.074C227.638 238.841 227.747 238.574 227.81 238.273H228.869C228.79 238.719 228.645 239.118 228.434 239.47C228.223 239.822 227.961 240.122 227.648 240.369C227.334 240.614 226.982 240.8 226.592 240.928C226.205 241.055 225.79 241.119 225.348 241.119C224.602 241.119 223.938 240.938 223.357 240.574C222.776 240.21 222.319 239.693 221.985 239.023C221.652 238.352 221.486 237.557 221.486 236.636C221.486 235.716 221.652 234.92 221.985 234.25C222.319 233.58 222.776 233.062 223.357 232.699C223.938 232.335 224.602 232.153 225.348 232.153C225.79 232.153 226.205 232.217 226.592 232.345C226.982 232.473 227.334 232.661 227.648 232.908C227.961 233.152 228.223 233.45 228.434 233.803C228.645 234.152 228.79 234.551 228.869 235ZM233.232 241.136C232.64 241.136 232.12 240.996 231.673 240.714C231.228 240.433 230.881 240.04 230.63 239.534C230.382 239.028 230.258 238.437 230.258 237.761C230.258 237.08 230.382 236.484 230.63 235.976C230.881 235.467 231.228 235.072 231.673 234.791C232.12 234.51 232.64 234.369 233.232 234.369C233.825 234.369 234.343 234.51 234.788 234.791C235.235 235.072 235.583 235.467 235.83 235.976C236.081 236.484 236.207 237.08 236.207 237.761C236.207 238.437 236.081 239.028 235.83 239.534C235.583 240.04 235.235 240.433 234.788 240.714C234.343 240.996 233.825 241.136 233.232 241.136ZM233.232 240.233C233.683 240.233 234.053 240.118 234.343 239.888C234.634 239.658 234.849 239.355 234.988 238.98C235.129 238.605 235.198 238.199 235.198 237.761C235.198 237.324 235.129 236.916 234.988 236.538C234.849 236.161 234.634 235.855 234.343 235.622C234.053 235.389 233.683 235.273 233.232 235.273C232.782 235.273 232.412 235.389 232.121 235.622C231.83 235.855 231.616 236.161 231.476 236.538C231.336 236.916 231.267 237.324 231.267 237.761C231.267 238.199 231.336 238.605 231.476 238.98C231.616 239.355 231.83 239.658 232.121 239.888C232.412 240.118 232.782 240.233 233.232 240.233ZM240.345 241.136C239.797 241.136 239.315 240.999 238.896 240.723C238.477 240.445 238.15 240.053 237.913 239.547C237.677 239.038 237.558 238.438 237.558 237.744C237.558 237.057 237.677 236.46 237.913 235.955C238.15 235.449 238.479 235.058 238.9 234.783C239.322 234.507 239.81 234.369 240.362 234.369C240.789 234.369 241.126 234.44 241.375 234.582C241.626 234.722 241.816 234.881 241.947 235.06C242.081 235.236 242.185 235.381 242.259 235.494H242.345V232.273H243.353V241H242.379V239.994H242.259C242.185 240.114 242.08 240.264 241.942 240.446C241.806 240.625 241.611 240.786 241.358 240.928C241.104 241.067 240.766 241.136 240.345 241.136ZM240.481 240.233C240.886 240.233 241.227 240.128 241.507 239.918C241.786 239.705 241.999 239.411 242.144 239.036C242.289 238.658 242.362 238.222 242.362 237.727C242.362 237.239 242.29 236.811 242.148 236.445C242.006 236.075 241.795 235.788 241.515 235.584C241.236 235.376 240.892 235.273 240.481 235.273C240.054 235.273 239.698 235.382 239.413 235.601C239.131 235.817 238.919 236.111 238.777 236.483C238.636 236.852 238.567 237.267 238.567 237.727C238.567 238.193 238.638 238.616 238.781 238.997C238.926 239.375 239.14 239.676 239.421 239.901C239.706 240.122 240.06 240.233 240.481 240.233ZM248.212 241.136C247.58 241.136 247.035 240.997 246.575 240.719C246.12 240.438 245.768 240.045 245.52 239.543C245.275 239.037 245.152 238.449 245.152 237.778C245.152 237.108 245.275 236.517 245.52 236.006C245.768 235.491 246.113 235.091 246.554 234.804C246.999 234.514 247.517 234.369 248.11 234.369C248.452 234.369 248.789 234.426 249.122 234.54C249.456 234.653 249.759 234.838 250.033 235.094C250.307 235.347 250.524 235.682 250.687 236.099C250.849 236.517 250.93 237.031 250.93 237.642V238.068H245.87V237.199H249.905C249.905 236.83 249.83 236.5 249.682 236.21C249.537 235.92 249.329 235.692 249.058 235.524C248.79 235.357 248.475 235.273 248.11 235.273C247.708 235.273 247.361 235.372 247.067 235.571C246.777 235.767 246.553 236.023 246.396 236.338C246.239 236.653 246.161 236.991 246.161 237.352V237.932C246.161 238.426 246.246 238.845 246.418 239.189C246.591 239.53 246.832 239.79 247.14 239.969C247.448 240.145 247.805 240.233 248.212 240.233C248.478 240.233 248.716 240.196 248.93 240.122C249.146 240.045 249.333 239.932 249.49 239.781C249.647 239.628 249.768 239.437 249.853 239.21L250.827 239.483C250.725 239.812 250.552 240.102 250.311 240.352C250.068 240.599 249.769 240.793 249.413 240.932C249.057 241.068 248.657 241.136 248.212 241.136Z" fill="black"/>
<path d="M310.43 217.272H311.695L314.669 224.516H314.772L317.746 217.272H319.011V225.999H318.02V219.368H317.934L315.199 225.999H314.242L311.507 219.368H311.421V225.999H310.43V217.272ZM323.786 226.135C323.193 226.135 322.674 225.995 322.226 225.713C321.781 225.432 321.434 225.039 321.184 224.533C320.936 224.027 320.812 223.436 320.812 222.76C320.812 222.079 320.936 221.483 321.184 220.975C321.434 220.466 321.781 220.071 322.226 219.79C322.674 219.509 323.193 219.368 323.786 219.368C324.378 219.368 324.897 219.509 325.341 219.79C325.788 220.071 326.136 220.466 326.384 220.975C326.635 221.483 326.76 222.079 326.76 222.76C326.76 223.436 326.635 224.027 326.384 224.533C326.136 225.039 325.788 225.432 325.341 225.713C324.897 225.995 324.378 226.135 323.786 226.135ZM323.786 225.232C324.236 225.232 324.606 225.117 324.897 224.887C325.188 224.657 325.402 224.354 325.542 223.979C325.682 223.604 325.751 223.198 325.751 222.76C325.751 222.323 325.682 221.915 325.542 221.537C325.402 221.16 325.188 220.854 324.897 220.621C324.606 220.388 324.236 220.272 323.786 220.272C323.336 220.272 322.966 220.388 322.675 220.621C322.384 220.854 322.169 221.16 322.029 221.537C321.89 221.915 321.82 222.323 321.82 222.76C321.82 223.198 321.89 223.604 322.029 223.979C322.169 224.354 322.384 224.657 322.675 224.887C322.966 225.117 323.336 225.232 323.786 225.232ZM330.899 226.135C330.351 226.135 329.869 225.998 329.449 225.722C329.03 225.444 328.703 225.052 328.467 224.546C328.23 224.037 328.112 223.437 328.112 222.743C328.112 222.056 328.23 221.459 328.467 220.954C328.703 220.448 329.032 220.057 329.454 219.782C329.876 219.506 330.362 219.368 330.916 219.368C331.343 219.368 331.68 219.439 331.928 219.581C332.179 219.721 332.37 219.88 332.501 220.059C332.634 220.235 332.739 220.38 332.813 220.493H332.898V217.272H333.907V225.999H332.932V224.993H332.813C332.739 225.113 332.633 225.263 332.496 225.445C332.36 225.624 332.164 225.785 331.911 225.927C331.658 226.066 331.32 226.135 330.899 226.135ZM331.035 225.232C331.439 225.232 331.781 225.127 332.061 224.917C332.34 224.704 332.552 224.41 332.698 224.035C332.842 223.657 332.915 223.221 332.915 222.726C332.915 222.238 332.844 221.81 332.702 221.444C332.559 221.074 332.349 220.787 332.069 220.583C331.79 220.375 331.445 220.272 331.035 220.272C330.608 220.272 330.252 220.381 329.967 220.6C329.684 220.816 329.473 221.11 329.33 221.482C329.19 221.851 329.121 222.266 329.121 222.726C329.121 223.192 329.192 223.615 329.334 223.996C329.48 224.374 329.693 224.675 329.975 224.9C330.26 225.121 330.613 225.232 331.035 225.232ZM338.765 226.135C338.134 226.135 337.588 225.996 337.129 225.718C336.674 225.437 336.322 225.044 336.074 224.542C335.828 224.036 335.706 223.448 335.706 222.777C335.706 222.107 335.828 221.516 336.074 221.005C336.322 220.49 336.667 220.09 337.108 219.803C337.552 219.513 338.07 219.368 338.663 219.368C339.005 219.368 339.343 219.425 339.676 219.539C340.009 219.652 340.313 219.837 340.586 220.093C340.859 220.346 341.078 220.681 341.24 221.098C341.403 221.516 341.484 222.03 341.484 222.641V223.067H336.424V222.198H340.458C340.458 221.829 340.384 221.499 340.235 221.209C340.09 220.919 339.882 220.691 339.612 220.523C339.344 220.356 339.028 220.272 338.663 220.272C338.262 220.272 337.914 220.371 337.62 220.57C337.33 220.766 337.107 221.022 336.949 221.337C336.793 221.652 336.715 221.99 336.715 222.351V222.931C336.715 223.425 336.8 223.844 336.971 224.188C337.145 224.529 337.386 224.789 337.693 224.968C338.001 225.144 338.358 225.232 338.765 225.232C339.031 225.232 339.27 225.195 339.483 225.121C339.7 225.044 339.886 224.931 340.044 224.78C340.2 224.627 340.322 224.436 340.407 224.209L341.381 224.482C341.278 224.811 341.106 225.101 340.864 225.351C340.622 225.598 340.323 225.792 339.967 225.931C339.611 226.067 339.211 226.135 338.765 226.135ZM349.31 226.135C348.717 226.135 348.197 225.995 347.749 225.713C347.305 225.432 346.957 225.039 346.706 224.533C346.459 224.027 346.335 223.436 346.335 222.76C346.335 222.079 346.459 221.483 346.706 220.975C346.957 220.466 347.305 220.071 347.749 219.79C348.197 219.509 348.717 219.368 349.31 219.368C349.901 219.368 350.421 219.509 350.865 219.79C351.312 220.071 351.659 220.466 351.907 220.975C352.158 221.483 352.283 222.079 352.283 222.76C352.283 223.436 352.158 224.027 351.907 224.533C351.659 225.039 351.312 225.432 350.865 225.713C350.421 225.995 349.901 226.135 349.31 226.135ZM349.31 225.232C349.759 225.232 350.13 225.117 350.421 224.887C350.711 224.657 350.926 224.354 351.066 223.979C351.205 223.604 351.275 223.198 351.275 222.76C351.275 222.323 351.205 221.915 351.066 221.537C350.926 221.16 350.711 220.854 350.421 220.621C350.13 220.388 349.759 220.272 349.31 220.272C348.859 220.272 348.488 220.388 348.199 220.621C347.908 220.854 347.692 221.16 347.553 221.537C347.413 221.915 347.343 222.323 347.343 222.76C347.343 223.198 347.413 223.604 347.553 223.979C347.692 224.354 347.908 224.657 348.199 224.887C348.488 225.117 348.859 225.232 349.31 225.232ZM356.866 219.454V220.306H353.328V219.454H356.866ZM354.388 225.999V218.55C354.388 218.175 354.476 217.863 354.653 217.613C354.829 217.363 355.059 217.175 355.34 217.05C355.622 216.925 355.92 216.863 356.234 216.863C356.482 216.863 356.684 216.883 356.841 216.922C356.997 216.962 357.114 216.999 357.191 217.033L356.901 217.902C356.849 217.885 356.777 217.864 356.686 217.838C356.598 217.813 356.482 217.8 356.336 217.8C356.003 217.8 355.763 217.884 355.614 218.052C355.469 218.219 355.397 218.465 355.397 218.789V225.999H354.388ZM323.729 234.454C323.677 234.022 323.469 233.687 323.105 233.448C322.74 233.209 322.293 233.09 321.763 233.09C321.375 233.09 321.036 233.152 320.745 233.277C320.458 233.402 320.233 233.574 320.07 233.793C319.911 234.012 319.831 234.26 319.831 234.539C319.831 234.772 319.887 234.972 319.998 235.14C320.112 235.304 320.257 235.442 320.433 235.553C320.61 235.661 320.795 235.75 320.989 235.821C321.183 235.89 321.361 235.945 321.523 235.988L322.412 236.226C322.641 236.286 322.893 236.368 323.173 236.473C323.455 236.579 323.724 236.722 323.98 236.904C324.24 237.083 324.454 237.313 324.621 237.594C324.79 237.875 324.874 238.221 324.874 238.63C324.874 239.101 324.749 239.527 324.502 239.908C324.257 240.289 323.898 240.591 323.425 240.816C322.954 241.04 322.384 241.152 321.711 241.152C321.084 241.152 320.542 241.052 320.083 240.85C319.627 240.648 319.268 240.367 319.006 240.006C318.747 239.645 318.6 239.226 318.566 238.749H319.66C319.688 239.079 319.8 239.351 319.993 239.567C320.19 239.78 320.437 239.939 320.737 240.044C321.039 240.147 321.364 240.198 321.711 240.198C322.116 240.198 322.479 240.133 322.801 240.002C323.123 239.868 323.378 239.684 323.566 239.448C323.754 239.209 323.848 238.931 323.848 238.613C323.848 238.323 323.767 238.087 323.604 237.905C323.442 237.723 323.228 237.576 322.963 237.462C322.699 237.348 322.412 237.249 322.104 237.164L321.028 236.857C320.344 236.661 319.803 236.381 319.404 236.017C319.006 235.654 318.806 235.178 318.806 234.59C318.806 234.101 318.938 233.675 319.203 233.311C319.471 232.945 319.83 232.661 320.28 232.459C320.733 232.255 321.239 232.152 321.797 232.152C322.361 232.152 322.862 232.253 323.301 232.455C323.74 232.654 324.088 232.927 324.343 233.273C324.603 233.62 324.739 234.013 324.753 234.454H323.729ZM328.531 241.152C328.115 241.152 327.738 241.074 327.399 240.918C327.06 240.759 326.79 240.53 326.591 240.232C326.392 239.931 326.292 239.567 326.292 239.141C326.292 238.766 326.366 238.462 326.514 238.229C326.662 237.993 326.86 237.809 327.108 237.675C327.356 237.542 327.629 237.442 327.928 237.377C328.23 237.309 328.534 237.255 328.839 237.215C329.238 237.164 329.561 237.125 329.808 237.1C330.059 237.071 330.242 237.025 330.356 236.959C330.472 236.894 330.531 236.78 330.531 236.618V236.584C330.531 236.164 330.415 235.837 330.185 235.604C329.957 235.371 329.611 235.255 329.147 235.255C328.665 235.255 328.287 235.36 328.014 235.57C327.741 235.78 327.548 236.005 327.437 236.243L326.48 235.902C326.651 235.505 326.878 235.195 327.163 234.973C327.451 234.749 327.765 234.593 328.104 234.505C328.446 234.414 328.782 234.368 329.113 234.368C329.323 234.368 329.565 234.394 329.839 234.445C330.115 234.493 330.381 234.594 330.638 234.748C330.897 234.901 331.112 235.133 331.283 235.442C331.454 235.752 331.539 236.167 331.539 236.687V240.999H330.531V240.113H330.479C330.411 240.255 330.297 240.407 330.137 240.569C329.978 240.731 329.766 240.868 329.501 240.982C329.236 241.096 328.913 241.152 328.531 241.152ZM328.685 240.249C329.083 240.249 329.419 240.171 329.693 240.015C329.97 239.858 330.178 239.657 330.317 239.41C330.459 239.162 330.531 238.902 330.531 238.63V237.709C330.488 237.76 330.394 237.807 330.249 237.85C330.106 237.89 329.941 237.925 329.753 237.956C329.568 237.985 329.387 238.01 329.211 238.033C329.036 238.053 328.896 238.07 328.788 238.084C328.525 238.118 328.28 238.174 328.053 238.25C327.827 238.324 327.645 238.436 327.505 238.587C327.369 238.735 327.301 238.936 327.301 239.192C327.301 239.542 327.43 239.806 327.69 239.985C327.951 240.161 328.283 240.249 328.685 240.249ZM334.509 232.272V240.999H333.501V232.272H334.509ZM339.229 241.135C338.596 241.135 338.05 240.996 337.592 240.718C337.136 240.437 336.784 240.044 336.536 239.542C336.292 239.036 336.169 238.448 336.169 237.777C336.169 237.107 336.292 236.516 336.536 236.005C336.784 235.49 337.129 235.09 337.57 234.803C338.014 234.513 338.533 234.368 339.125 234.368C339.467 234.368 339.805 234.425 340.138 234.539C340.472 234.652 340.775 234.837 341.049 235.093C341.322 235.346 341.54 235.681 341.703 236.098C341.865 236.516 341.946 237.03 341.946 237.641V238.067H336.886V237.198H340.92C340.92 236.829 340.846 236.499 340.699 236.209C340.553 235.919 340.345 235.691 340.074 235.523C339.806 235.356 339.49 235.272 339.125 235.272C338.724 235.272 338.376 235.371 338.083 235.57C337.793 235.766 337.569 236.022 337.413 236.337C337.255 236.652 337.177 236.99 337.177 237.351V237.931C337.177 238.425 337.262 238.844 337.434 239.188C337.607 239.529 337.848 239.789 338.156 239.968C338.464 240.144 338.821 240.232 339.229 240.232C339.493 240.232 339.733 240.195 339.947 240.121C340.162 240.044 340.35 239.931 340.506 239.78C340.663 239.627 340.784 239.436 340.869 239.209L341.844 239.482C341.741 239.811 341.568 240.101 341.327 240.351C341.085 240.598 340.785 240.792 340.429 240.931C340.073 241.067 339.673 241.135 339.229 241.135ZM348.25 235.919L347.344 236.175C347.287 236.025 347.203 235.878 347.092 235.736C346.983 235.591 346.836 235.472 346.647 235.378C346.46 235.285 346.219 235.238 345.925 235.238C345.523 235.238 345.189 235.33 344.92 235.515C344.656 235.696 344.523 235.928 344.523 236.209C344.523 236.459 344.615 236.657 344.797 236.802C344.98 236.946 345.264 237.067 345.652 237.164L346.626 237.402C347.213 237.544 347.65 237.762 347.938 238.054C348.226 238.344 348.369 238.718 348.369 239.175C348.369 239.55 348.261 239.885 348.045 240.181C347.831 240.476 347.532 240.709 347.148 240.88C346.763 241.05 346.315 241.135 345.806 241.135C345.136 241.135 344.582 240.99 344.143 240.701C343.704 240.411 343.426 239.988 343.31 239.431L344.268 239.192C344.358 239.544 344.53 239.809 344.784 239.985C345.041 240.161 345.376 240.249 345.789 240.249C346.258 240.249 346.631 240.15 346.908 239.951C347.187 239.749 347.327 239.508 347.327 239.226C347.327 238.999 347.247 238.809 347.088 238.655C346.928 238.499 346.683 238.383 346.352 238.306L345.258 238.05C344.658 237.908 344.216 237.688 343.934 237.39C343.655 237.088 343.516 236.712 343.516 236.26C343.516 235.891 343.619 235.564 343.827 235.28C344.038 234.996 344.324 234.773 344.686 234.611C345.051 234.449 345.464 234.368 345.925 234.368C346.575 234.368 347.084 234.51 347.455 234.794C347.829 235.079 348.093 235.454 348.25 235.919Z" fill="black"/>
<path d="M178.142 90.3536C178.339 90.5488 178.656 90.5488 178.852 90.3536L182.043 87.1716C182.239 86.9763 182.239 86.6597 182.043 86.4645C181.846 86.2692 181.53 86.2692 181.333 86.4645L178.497 89.2929L175.661 86.4645C175.465 86.2692 175.148 86.2692 174.951 86.4645C174.756 86.6597 174.756 86.9763 174.951 87.1716L178.142 90.3536ZM177.996 26V90H178.999V26H177.996Z" fill="black"/>
<path d="M196.548 42H159.445V68H196.548V42Z" fill="white"/>
<path d="M166.422 59.0009V50.2736H167.743V54.0662H172.105V50.2736H173.429V59.0009H172.105V55.1955H167.743V59.0009H166.422ZM180.126 52.5662C180.081 52.1628 179.892 51.8503 179.561 51.6287C179.231 51.4043 178.815 51.2921 178.314 51.2921C177.955 51.2921 177.645 51.3489 177.382 51.4625C177.121 51.5733 176.917 51.7268 176.772 51.9228C176.629 52.116 176.558 52.3361 176.558 52.5833C176.558 52.7907 176.606 52.9696 176.703 53.1202C176.803 53.2708 176.932 53.3972 177.092 53.4995C177.254 53.5989 177.428 53.6827 177.613 53.7509C177.798 53.8162 177.977 53.8702 178.147 53.9128L179.002 54.1344C179.282 54.2026 179.567 54.2949 179.861 54.4114C180.154 54.5279 180.427 54.6813 180.677 54.8716C180.928 55.062 181.13 55.2978 181.284 55.579C181.441 55.8603 181.519 56.1969 181.519 56.589C181.519 57.0833 181.39 57.5222 181.135 57.9057C180.881 58.2893 180.512 58.5918 180.028 58.8134C179.546 59.035 178.964 59.1458 178.28 59.1458C177.625 59.1458 177.057 59.0421 176.579 58.8347C176.101 58.6273 175.726 58.3333 175.455 57.9526C175.184 57.5691 175.035 57.1145 175.007 56.589H176.331C176.356 56.9043 176.46 57.1671 176.639 57.3773C176.822 57.5847 177.053 57.7395 177.335 57.8418C177.62 57.9412 177.933 57.991 178.272 57.991C178.645 57.991 178.977 57.9327 179.267 57.8162C179.56 57.6969 179.791 57.5321 179.959 57.3219C180.127 57.1089 180.211 56.8603 180.211 56.5762C180.211 56.3177 180.137 56.106 179.99 55.9412C179.844 55.7765 179.646 55.6401 179.395 55.5321C179.147 55.4242 178.866 55.329 178.554 55.2466L177.52 54.9654C176.819 54.775 176.263 54.4952 175.853 54.1259C175.445 53.7566 175.241 53.2679 175.241 52.66C175.241 52.1571 175.379 51.7182 175.652 51.3432C175.925 50.9682 176.295 50.677 176.763 50.4697C177.23 50.2594 177.757 50.1543 178.344 50.1543C178.937 50.1543 179.459 50.258 179.912 50.4654C180.368 50.6728 180.727 50.9583 180.989 51.3219C181.251 51.6827 181.388 52.0975 181.399 52.5662H180.126ZM190.161 50.2736V59.0009H188.947L184.498 52.6003H184.417V59.0009H183.097V50.2736H184.319L188.772 56.6827H188.853V50.2736H190.161Z" fill="black"/>
<path d="M118.827 115.24C117.54 115.24 116.442 114.89 115.537 114.191C114.63 113.487 113.939 112.467 113.46 111.132C112.981 109.791 112.742 108.171 112.742 106.274C112.742 104.387 112.981 102.777 113.46 101.441C113.945 100.1 114.639 99.0773 115.545 98.3728C116.457 97.6625 117.551 97.3074 118.827 97.3074C120.104 97.3074 121.195 97.6625 122.1 98.3728C123.012 99.0773 123.707 100.1 124.186 101.441C124.67 102.777 124.912 104.387 124.912 106.274C124.912 108.171 124.673 109.791 124.194 111.132C123.716 112.467 123.024 113.487 122.117 114.191C121.212 114.89 120.115 115.24 118.827 115.24ZM118.827 113.365C120.104 113.365 121.094 112.751 121.801 111.524C122.507 110.296 122.861 108.546 122.861 106.274C122.861 104.762 122.699 103.475 122.374 102.413C122.055 101.35 121.594 100.541 120.989 99.9836C120.391 99.4267 119.67 99.1483 118.827 99.1483C117.563 99.1483 116.574 99.7705 115.862 101.015C115.149 102.254 114.793 104.007 114.793 106.274C114.793 107.785 114.952 109.069 115.272 110.126C115.591 111.183 116.049 111.987 116.648 112.538C117.252 113.089 117.978 113.365 118.827 113.365ZM133.732 97.3074C134.45 97.3131 135.167 97.4495 135.885 97.7165C136.603 97.9836 137.259 98.4267 137.852 99.0461C138.445 99.6597 138.92 100.498 139.279 101.561C139.638 102.623 139.817 103.956 139.817 105.558C139.817 107.109 139.669 108.487 139.373 109.691C139.082 110.89 138.66 111.902 138.108 112.725C137.561 113.549 136.894 114.174 136.108 114.6C135.328 115.027 134.444 115.24 133.459 115.24C132.479 115.24 131.604 115.046 130.834 114.66C130.071 114.268 129.445 113.725 128.954 113.032C128.47 112.333 128.16 111.524 128.023 110.603H130.108C130.297 111.404 130.67 112.066 131.228 112.589C131.792 113.106 132.535 113.365 133.459 113.365C134.809 113.365 135.874 112.777 136.655 111.6C137.442 110.424 137.835 108.762 137.835 106.615H137.698C137.379 107.092 137 107.504 136.561 107.85C136.122 108.197 135.635 108.464 135.099 108.652C134.564 108.839 133.994 108.933 133.391 108.933C132.388 108.933 131.467 108.686 130.63 108.191C129.798 107.691 129.132 107.007 128.63 106.137C128.134 105.262 127.886 104.262 127.886 103.137C127.886 102.069 128.126 101.092 128.604 100.206C129.089 99.3131 129.766 98.6029 130.638 98.0745C131.515 97.5461 132.547 97.2904 133.732 97.3074ZM133.732 99.1824C133.014 99.1824 132.368 99.3614 131.792 99.7194C131.223 100.072 130.769 100.549 130.433 101.152C130.102 101.748 129.938 102.41 129.938 103.137C129.938 103.865 130.097 104.527 130.416 105.123C130.741 105.714 131.182 106.186 131.741 106.538C132.305 106.885 132.946 107.058 133.663 107.058C134.205 107.058 134.709 106.953 135.177 106.742C135.644 106.527 136.051 106.234 136.399 105.865C136.752 105.49 137.029 105.066 137.227 104.595C137.427 104.117 137.527 103.62 137.527 103.103C137.527 102.421 137.362 101.782 137.031 101.186C136.707 100.589 136.257 100.106 135.681 99.7364C135.111 99.3671 134.462 99.1824 133.732 99.1824Z" fill="black"/>
<path d="M141.396 123H111.312V125H141.396V123Z" fill="black"/>
<path d="M153.929 115.239C152.641 115.239 151.544 114.889 150.639 114.19C149.732 113.486 149.04 112.466 148.562 111.131C148.082 109.79 147.844 108.17 147.844 106.273C147.844 104.386 148.082 102.776 148.562 101.44C149.046 100.099 149.741 99.0765 150.647 98.372C151.558 97.6617 152.652 97.3066 153.929 97.3066C155.205 97.3066 156.296 97.6617 157.202 98.372C158.113 99.0765 158.808 100.099 159.288 101.44C159.772 102.776 160.014 104.386 160.014 106.273C160.014 108.17 159.775 109.79 159.296 111.131C158.817 112.466 158.125 113.486 157.219 114.19C156.313 114.889 155.216 115.239 153.929 115.239ZM153.929 113.364C155.205 113.364 156.196 112.75 156.903 111.523C157.609 110.295 157.963 108.545 157.963 106.273C157.963 104.761 157.8 103.474 157.476 102.412C157.157 101.349 156.695 100.54 156.091 99.9828C155.493 99.4259 154.772 99.1475 153.929 99.1475C152.664 99.1475 151.675 99.7697 150.963 101.014C150.25 102.253 149.894 104.006 149.894 106.273C149.894 107.784 150.054 109.068 150.374 110.125C150.693 111.182 151.151 111.986 151.75 112.537C152.353 113.088 153.079 113.364 153.929 113.364ZM163.262 115V113.466L169.039 107.159C169.716 106.42 170.275 105.778 170.714 105.233C171.152 104.682 171.477 104.165 171.688 103.682C171.905 103.193 172.013 102.682 172.013 102.148C172.013 101.534 171.864 101.003 171.569 100.554C171.278 100.105 170.879 99.7583 170.372 99.514C169.865 99.2697 169.295 99.1475 168.663 99.1475C167.991 99.1475 167.404 99.2867 166.903 99.5651C166.406 99.8379 166.022 100.222 165.748 100.716C165.481 101.21 165.346 101.79 165.346 102.455H163.33C163.33 101.432 163.566 100.534 164.039 99.7612C164.512 98.9884 165.156 98.3862 165.971 97.9543C166.791 97.5225 167.711 97.3066 168.731 97.3066C169.757 97.3066 170.665 97.5225 171.457 97.9543C172.25 98.3862 172.87 98.9685 173.321 99.7015C173.771 100.435 173.995 101.25 173.995 102.148C173.995 102.79 173.879 103.418 173.645 104.031C173.418 104.639 173.019 105.318 172.449 106.068C171.885 106.812 171.101 107.722 170.099 108.795L166.168 112.989V113.125H174.303V115H163.262Z" fill="black"/>
<path d="M176.49 123H146.406V125H176.49V123Z" fill="black"/>
<path d="M182.906 111.42V109.682L190.598 97.5453H191.863V100.239H191.008L185.197 109.409V109.545H195.554V111.42H182.906ZM191.145 115V110.892V110.082V97.5453H193.162V115H191.145ZM204.466 115.239C203.179 115.239 202.083 114.889 201.176 114.19C200.27 113.486 199.578 112.466 199.099 111.131C198.621 109.79 198.381 108.17 198.381 106.273C198.381 104.386 198.621 102.776 199.099 101.44C199.584 100.099 200.279 99.0765 201.185 98.372C202.097 97.6617 203.191 97.3066 204.466 97.3066C205.743 97.3066 206.834 97.6617 207.74 98.372C208.652 99.0765 209.347 100.099 209.825 101.44C210.309 102.776 210.552 104.386 210.552 106.273C210.552 108.17 210.312 109.79 209.834 111.131C209.355 112.466 208.663 113.486 207.757 114.19C206.851 114.889 205.755 115.239 204.466 115.239ZM204.466 113.364C205.743 113.364 206.734 112.75 207.44 111.523C208.147 110.295 208.5 108.545 208.5 106.273C208.5 104.761 208.338 103.474 208.013 102.412C207.694 101.349 207.233 100.54 206.629 99.9828C206.03 99.4259 205.309 99.1475 204.466 99.1475C203.202 99.1475 202.213 99.7697 201.501 101.014C200.789 102.253 200.433 104.006 200.433 106.273C200.433 107.784 200.592 109.068 200.911 110.125C201.23 111.182 201.689 111.986 202.287 112.537C202.891 113.088 203.618 113.364 204.466 113.364Z" fill="black"/>
<path d="M212.591 123H182.508V125H212.591V123Z" fill="black"/>
<path d="M218.414 115V113.466L224.191 107.159C224.869 106.42 225.428 105.778 225.867 105.233C226.305 104.682 226.63 104.165 226.84 103.682C227.057 103.193 227.165 102.682 227.165 102.148C227.165 101.534 227.017 101.003 226.721 100.554C226.43 100.105 226.031 99.7583 225.525 99.514C225.017 99.2697 224.448 99.1475 223.815 99.1475C223.143 99.1475 222.557 99.2867 222.055 99.5651C221.559 99.8379 221.175 100.222 220.901 100.716C220.633 101.21 220.499 101.79 220.499 102.455H218.482C218.482 101.432 218.719 100.534 219.191 99.7612C219.665 98.9884 220.308 98.3862 221.124 97.9543C221.944 97.5225 222.863 97.3066 223.883 97.3066C224.909 97.3066 225.818 97.5225 226.61 97.9543C227.402 98.3862 228.023 98.9685 228.473 99.7015C228.923 100.435 229.148 101.25 229.148 102.148C229.148 102.79 229.032 103.418 228.798 104.031C228.57 104.639 228.171 105.318 227.602 106.068C227.037 106.812 226.254 107.722 225.251 108.795L221.32 112.989V113.125H229.456V115H218.414ZM238.694 115.239C237.407 115.239 236.31 114.889 235.404 114.19C234.499 113.486 233.806 112.466 233.327 111.131C232.849 109.79 232.609 108.17 232.609 106.273C232.609 104.386 232.849 102.776 233.327 101.44C233.812 100.099 234.507 99.0765 235.413 98.372C236.325 97.6617 237.419 97.3066 238.694 97.3066C239.971 97.3066 241.062 97.6617 241.967 98.372C242.88 99.0765 243.575 100.099 244.053 101.44C244.538 102.776 244.779 104.386 244.779 106.273C244.779 108.17 244.541 109.79 244.062 111.131C243.583 112.466 242.891 113.486 241.985 114.19C241.079 114.889 239.982 115.239 238.694 115.239ZM238.694 113.364C239.971 113.364 240.963 112.75 241.669 111.523C242.376 110.295 242.729 108.545 242.729 106.273C242.729 104.761 242.566 103.474 242.241 102.412C241.922 101.349 241.461 100.54 240.857 99.9828C240.259 99.4259 239.538 99.1475 238.694 99.1475C237.43 99.1475 236.441 99.7697 235.729 101.014C235.017 102.253 234.661 104.006 234.661 106.273C234.661 107.784 234.821 109.068 235.14 110.125C235.458 111.182 235.917 111.986 236.515 112.537C237.119 113.088 237.846 113.364 238.694 113.364Z" fill="black"/>
<path d="M246.685 123H216.602V125H246.685V123Z" fill="black"/>
<path d="M196.547 130.5V141.5L236.658 194.5V211" stroke="#A5A5A5"/>
<path d="M231.641 130V140.5L334.426 194V210.5" stroke="#A5A5A5"/>
<path d="M161.447 130V141L121.336 194.5V210.5" stroke="#A5A5A5"/>
<path d="M126.854 130.5V140.5L24.5703 193.5V211" stroke="#A5A5A5"/>
<path d="M121.334 213C122.441 213 123.339 212.105 123.339 211C123.339 209.895 122.441 209 121.334 209C120.226 209 119.328 209.895 119.328 211C119.328 212.105 120.226 213 121.334 213Z" fill="#A5A5A5"/>
<path d="M236.654 213C237.762 213 238.66 212.105 238.66 211C238.66 209.895 237.762 209 236.654 209C235.546 209 234.648 209.895 234.648 211C234.648 212.105 235.546 213 236.654 213Z" fill="#A5A5A5"/>
<path d="M334.427 213C335.535 213 336.433 212.105 336.433 211C336.433 209.895 335.535 209 334.427 209C333.32 209 332.422 209.895 332.422 211C332.422 212.105 333.32 213 334.427 213Z" fill="#A5A5A5"/>
<path d="M24.5681 213C25.6757 213 26.5736 212.105 26.5736 211C26.5736 209.895 25.6757 209 24.5681 209C23.4604 209 22.5625 209.895 22.5625 211C22.5625 212.105 23.4604 213 24.5681 213Z" fill="#A5A5A5"/>
</svg>
