<svg width="132" height="145" viewBox="0 0 132 145" fill="none" xmlns="http://www.w3.org/2000/svg">
<path d="M47.668 21.135V21.786H46.373V26H45.575V21.786H44.273V21.135H47.668ZM49.2742 22.703C49.3908 22.507 49.5448 22.3553 49.7362 22.248C49.9322 22.136 50.1632 22.08 50.4292 22.08V22.906H50.2262C49.9135 22.906 49.6755 22.9853 49.5122 23.144C49.3535 23.3027 49.2742 23.578 49.2742 23.97V26H48.4762V22.143H49.2742V22.703ZM50.8967 24.054C50.8967 23.6667 50.976 23.3237 51.1347 23.025C51.298 22.7263 51.5174 22.4953 51.7927 22.332C52.0727 22.164 52.3807 22.08 52.7167 22.08C53.02 22.08 53.2837 22.1407 53.5077 22.262C53.7364 22.3787 53.9184 22.5257 54.0537 22.703V22.143H54.8587V26H54.0537V25.426C53.9184 25.608 53.734 25.7597 53.5007 25.881C53.2674 26.0023 53.0014 26.063 52.7027 26.063C52.3714 26.063 52.068 25.979 51.7927 25.811C51.5174 25.6383 51.298 25.4003 51.1347 25.097C50.976 24.789 50.8967 24.4413 50.8967 24.054ZM54.0537 24.068C54.0537 23.802 53.9977 23.571 53.8857 23.375C53.7784 23.179 53.636 23.0297 53.4587 22.927C53.2814 22.8243 53.09 22.773 52.8847 22.773C52.6794 22.773 52.488 22.8243 52.3107 22.927C52.1334 23.025 51.9887 23.172 51.8767 23.368C51.7694 23.5593 51.7157 23.788 51.7157 24.054C51.7157 24.32 51.7694 24.5533 51.8767 24.754C51.9887 24.9547 52.1334 25.1087 52.3107 25.216C52.4927 25.3187 52.684 25.37 52.8847 25.37C53.09 25.37 53.2814 25.3187 53.4587 25.216C53.636 25.1133 53.7784 24.964 53.8857 24.768C53.9977 24.5673 54.0537 24.334 54.0537 24.068ZM55.6408 24.068C55.6408 23.6713 55.7202 23.3237 55.8788 23.025C56.0422 22.7217 56.2662 22.4883 56.5508 22.325C56.8355 22.1617 57.1622 22.08 57.5308 22.08C57.9975 22.08 58.3825 22.192 58.6858 22.416C58.9938 22.6353 59.2015 22.9503 59.3088 23.361H58.4478C58.3778 23.1697 58.2658 23.0203 58.1118 22.913C57.9578 22.8057 57.7642 22.752 57.5308 22.752C57.2042 22.752 56.9428 22.8687 56.7468 23.102C56.5555 23.3307 56.4598 23.6527 56.4598 24.068C56.4598 24.4833 56.5555 24.8077 56.7468 25.041C56.9428 25.2743 57.2042 25.391 57.5308 25.391C57.9928 25.391 58.2985 25.188 58.4478 24.782H59.3088C59.1968 25.174 58.9868 25.4867 58.6788 25.72C58.3708 25.9487 57.9882 26.063 57.5308 26.063C57.1622 26.063 56.8355 25.9813 56.5508 25.818C56.2662 25.65 56.0422 25.4167 55.8788 25.118C55.7202 24.8147 55.6408 24.4647 55.6408 24.068ZM61.6301 24.075L63.4081 26H62.3301L60.9021 24.341V26H60.1041V20.82H60.9021V23.83L62.3021 22.143H63.4081L61.6301 24.075ZM66.5964 21.135V26H65.7984V21.135H66.5964ZM69.5901 22.08C69.8935 22.08 70.1641 22.143 70.4021 22.269C70.6448 22.395 70.8338 22.5817 70.9691 22.829C71.1045 23.0763 71.1721 23.375 71.1721 23.725V26H70.3811V23.844C70.3811 23.4987 70.2948 23.235 70.1221 23.053C69.9495 22.8663 69.7138 22.773 69.4151 22.773C69.1165 22.773 68.8785 22.8663 68.7011 23.053C68.5285 23.235 68.4421 23.4987 68.4421 23.844V26H67.6441V22.143H68.4421V22.584C68.5728 22.4253 68.7385 22.3017 68.9391 22.213C69.1445 22.1243 69.3615 22.08 69.5901 22.08ZM71.924 24.054C71.924 23.6667 72.0034 23.3237 72.162 23.025C72.3254 22.7263 72.5447 22.4953 72.82 22.332C73.1 22.164 73.4104 22.08 73.751 22.08C74.003 22.08 74.2504 22.136 74.493 22.248C74.7404 22.3553 74.9364 22.5 75.081 22.682V20.82H75.886V26H75.081V25.419C74.9504 25.6057 74.7684 25.7597 74.535 25.881C74.3064 26.0023 74.0427 26.063 73.744 26.063C73.408 26.063 73.1 25.979 72.82 25.811C72.5447 25.6383 72.3254 25.4003 72.162 25.097C72.0034 24.789 71.924 24.4413 71.924 24.054ZM75.081 24.068C75.081 23.802 75.025 23.571 74.913 23.375C74.8057 23.179 74.6634 23.0297 74.486 22.927C74.3087 22.8243 74.1174 22.773 73.912 22.773C73.7067 22.773 73.5154 22.8243 73.338 22.927C73.1607 23.025 73.016 23.172 72.904 23.368C72.7967 23.5593 72.743 23.788 72.743 24.054C72.743 24.32 72.7967 24.5533 72.904 24.754C73.016 24.9547 73.1607 25.1087 73.338 25.216C73.52 25.3187 73.7114 25.37 73.912 25.37C74.1174 25.37 74.3087 25.3187 74.486 25.216C74.6634 25.1133 74.8057 24.964 74.913 24.768C75.025 24.5673 75.081 24.334 75.081 24.068ZM80.4692 23.977C80.4692 24.1217 80.4598 24.2523 80.4412 24.369H77.4942C77.5175 24.677 77.6318 24.9243 77.8372 25.111C78.0425 25.2977 78.2945 25.391 78.5932 25.391C79.0225 25.391 79.3258 25.2113 79.5032 24.852H80.3642C80.2475 25.2067 80.0352 25.4983 79.7272 25.727C79.4238 25.951 79.0458 26.063 78.5932 26.063C78.2245 26.063 77.8932 25.9813 77.5992 25.818C77.3098 25.65 77.0812 25.4167 76.9132 25.118C76.7498 24.8147 76.6682 24.4647 76.6682 24.068C76.6682 23.6713 76.7475 23.3237 76.9062 23.025C77.0695 22.7217 77.2958 22.4883 77.5852 22.325C77.8792 22.1617 78.2152 22.08 78.5932 22.08C78.9572 22.08 79.2815 22.1593 79.5662 22.318C79.8508 22.4767 80.0725 22.7007 80.2312 22.99C80.3898 23.2747 80.4692 23.6037 80.4692 23.977ZM79.6362 23.725C79.6315 23.431 79.5265 23.1953 79.3212 23.018C79.1158 22.8407 78.8615 22.752 78.5582 22.752C78.2828 22.752 78.0472 22.8407 77.8512 23.018C77.6552 23.1907 77.5385 23.4263 77.5012 23.725H79.6362ZM82.9065 24.047L84.1525 26H83.2495L82.4165 24.691L81.6325 26H80.7995L82.0455 24.103L80.7995 22.143H81.7025L82.5355 23.452L83.3195 22.143H84.1525L82.9065 24.047ZM91.69 21.135V26H90.892V22.668L89.408 26H88.855L87.364 22.668V26H86.566V21.135H87.427L89.135 24.95L90.836 21.135H91.69ZM94.4119 26.063C94.0479 26.063 93.7189 25.9813 93.4249 25.818C93.1309 25.65 92.8999 25.4167 92.7319 25.118C92.5639 24.8147 92.4799 24.4647 92.4799 24.068C92.4799 23.676 92.5662 23.3283 92.7389 23.025C92.9115 22.7217 93.1472 22.4883 93.4459 22.325C93.7445 22.1617 94.0782 22.08 94.4469 22.08C94.8155 22.08 95.1492 22.1617 95.4479 22.325C95.7465 22.4883 95.9822 22.7217 96.1549 23.025C96.3275 23.3283 96.4139 23.676 96.4139 24.068C96.4139 24.46 96.3252 24.8077 96.1479 25.111C95.9705 25.4143 95.7279 25.65 95.4199 25.818C95.1165 25.9813 94.7805 26.063 94.4119 26.063ZM94.4119 25.37C94.6172 25.37 94.8085 25.321 94.9859 25.223C95.1679 25.125 95.3149 24.978 95.4269 24.782C95.5389 24.586 95.5949 24.348 95.5949 24.068C95.5949 23.788 95.5412 23.5523 95.4339 23.361C95.3265 23.165 95.1842 23.018 95.0069 22.92C94.8295 22.822 94.6382 22.773 94.4329 22.773C94.2275 22.773 94.0362 22.822 93.8589 22.92C93.6862 23.018 93.5485 23.165 93.4459 23.361C93.3432 23.5523 93.2919 23.788 93.2919 24.068C93.2919 24.4833 93.3969 24.8053 93.6069 25.034C93.8215 25.258 94.0899 25.37 94.4119 25.37ZM98.6937 25.286L99.7857 22.143H100.633L99.1627 26H98.2107L96.7477 22.143H97.6017L98.6937 25.286ZM104.771 23.977C104.771 24.1217 104.762 24.2523 104.743 24.369H101.796C101.819 24.677 101.934 24.9243 102.139 25.111C102.344 25.2977 102.596 25.391 102.895 25.391C103.324 25.391 103.628 25.2113 103.805 24.852H104.666C104.549 25.2067 104.337 25.4983 104.029 25.727C103.726 25.951 103.348 26.063 102.895 26.063C102.526 26.063 102.195 25.9813 101.901 25.818C101.612 25.65 101.383 25.4167 101.215 25.118C101.052 24.8147 100.97 24.4647 100.97 24.068C100.97 23.6713 101.049 23.3237 101.208 23.025C101.371 22.7217 101.598 22.4883 101.887 22.325C102.181 22.1617 102.517 22.08 102.895 22.08C103.259 22.08 103.583 22.1593 103.868 22.318C104.153 22.4767 104.374 22.7007 104.533 22.99C104.692 23.2747 104.771 23.6037 104.771 23.977ZM103.938 23.725C103.933 23.431 103.828 23.1953 103.623 23.018C103.418 22.8407 103.163 22.752 102.86 22.752C102.585 22.752 102.349 22.8407 102.153 23.018C101.957 23.1907 101.84 23.4263 101.803 23.725H103.938ZM110.225 22.08C110.529 22.08 110.799 22.143 111.037 22.269C111.28 22.395 111.469 22.5817 111.604 22.829C111.744 23.0763 111.814 23.375 111.814 23.725V26H111.023V23.844C111.023 23.4987 110.937 23.235 110.764 23.053C110.592 22.8663 110.356 22.773 110.057 22.773C109.759 22.773 109.521 22.8663 109.343 23.053C109.171 23.235 109.084 23.4987 109.084 23.844V26H108.293V23.844C108.293 23.4987 108.207 23.235 108.034 23.053C107.862 22.8663 107.626 22.773 107.327 22.773C107.029 22.773 106.791 22.8663 106.613 23.053C106.441 23.235 106.354 23.4987 106.354 23.844V26H105.556V22.143H106.354V22.584C106.485 22.4253 106.651 22.3017 106.851 22.213C107.052 22.1243 107.267 22.08 107.495 22.08C107.803 22.08 108.079 22.1453 108.321 22.276C108.564 22.4067 108.751 22.5957 108.881 22.843C108.998 22.6097 109.18 22.4253 109.427 22.29C109.675 22.15 109.941 22.08 110.225 22.08ZM116.365 23.977C116.365 24.1217 116.355 24.2523 116.337 24.369H113.39C113.413 24.677 113.527 24.9243 113.733 25.111C113.938 25.2977 114.19 25.391 114.489 25.391C114.918 25.391 115.221 25.2113 115.399 24.852H116.26C116.143 25.2067 115.931 25.4983 115.623 25.727C115.319 25.951 114.941 26.063 114.489 26.063C114.12 26.063 113.789 25.9813 113.495 25.818C113.205 25.65 112.977 25.4167 112.809 25.118C112.645 24.8147 112.564 24.4647 112.564 24.068C112.564 23.6713 112.643 23.3237 112.802 23.025C112.965 22.7217 113.191 22.4883 113.481 22.325C113.775 22.1617 114.111 22.08 114.489 22.08C114.853 22.08 115.177 22.1593 115.462 22.318C115.746 22.4767 115.968 22.7007 116.127 22.99C116.285 23.2747 116.365 23.6037 116.365 23.977ZM115.532 23.725C115.527 23.431 115.422 23.1953 115.217 23.018C115.011 22.8407 114.757 22.752 114.454 22.752C114.178 22.752 113.943 22.8407 113.747 23.018C113.551 23.1907 113.434 23.4263 113.397 23.725H115.532ZM119.096 22.08C119.399 22.08 119.67 22.143 119.908 22.269C120.151 22.395 120.34 22.5817 120.475 22.829C120.61 23.0763 120.678 23.375 120.678 23.725V26H119.887V23.844C119.887 23.4987 119.801 23.235 119.628 23.053C119.455 22.8663 119.22 22.773 118.921 22.773C118.622 22.773 118.384 22.8663 118.207 23.053C118.034 23.235 117.948 23.4987 117.948 23.844V26H117.15V22.143H117.948V22.584C118.079 22.4253 118.244 22.3017 118.445 22.213C118.65 22.1243 118.867 22.08 119.096 22.08ZM122.627 22.794V24.929C122.627 25.0737 122.66 25.1787 122.725 25.244C122.795 25.3047 122.912 25.335 123.075 25.335H123.565V26H122.935C122.576 26 122.3 25.916 122.109 25.748C121.918 25.58 121.822 25.307 121.822 24.929V22.794H121.367V22.143H121.822V21.184H122.627V22.143H123.565V22.794H122.627Z" fill="#03325C"/>
<g filter="url(#filter0_dd_3407_835)">
<rect x="9.13672" y="9" width="27.2025" height="27.7256" rx="13.6013" fill="#EAECF0"/>
<rect x="9.13672" y="9" width="27.2025" height="27.7256" rx="13.6013" fill="url(#paint0_linear_3407_835)" fill-opacity="0.5" style="mix-blend-mode:soft-light"/>
<rect x="8.84164" y="8.70492" width="27.7927" height="28.3158" rx="13.8963" stroke="white" stroke-opacity="0.4" stroke-width="0.590161"/>
</g>
<mask id="mask0_3407_835" style="mask-type:luminance" maskUnits="userSpaceOnUse" x="14" y="17" width="17" height="14">
<path d="M14.1035 17.8232H30.7035V30.4461H14.1035V17.8232Z" fill="white"/>
</mask>
<g mask="url(#mask0_3407_835)">
<path d="M22.4034 17.8232C21.8574 17.8232 21.4074 18.2734 21.4074 18.8198V19.2868C20.7616 19.4387 20.1975 19.7385 19.7629 20.1757C19.1145 20.831 18.7514 21.7588 18.7514 22.8267V25.4179C18.7514 26.0279 18.4181 26.8011 18.0745 27.3747L17.4792 28.2688C17.4118 28.3712 17.4052 28.5023 17.4623 28.61C17.5207 28.7177 17.6335 28.7852 17.7555 28.7852H20.7433C20.7433 29.6974 21.4916 30.4461 22.4034 30.4461C23.315 30.4461 24.0633 29.6974 24.0633 28.7852H27.0513C27.1732 28.7852 27.286 28.7177 27.3443 28.61C27.4014 28.5023 27.395 28.3712 27.3275 28.2688L26.7348 27.3787L26.7336 27.3773C26.386 26.7973 26.0553 26.0732 26.0553 25.4634V22.8721C26.0553 21.0893 24.9944 19.7087 23.3993 19.2985V18.8198C23.3993 18.2734 22.9494 17.8232 22.4034 17.8232ZM22.4034 18.4876C22.5875 18.4876 22.7354 18.6355 22.7354 18.8198V19.1896C22.6614 19.183 22.5888 19.1753 22.5136 19.1727C22.4786 19.1597 22.441 19.1532 22.4034 19.152C22.367 19.152 22.332 19.1584 22.2983 19.1714C22.2204 19.1727 22.1466 19.1805 22.0714 19.1856V18.8198C22.0714 18.6355 22.2192 18.4876 22.4034 18.4876ZM15.259 18.978C14.5185 20.1823 14.1035 21.616 14.1035 23.1382C14.1035 24.6602 14.5185 26.0941 15.259 27.2982L15.8257 26.9504C15.15 25.8513 14.7675 24.5395 14.7675 23.1382C14.7675 21.7367 15.15 20.4249 15.8257 19.3258L15.259 18.978ZM29.5478 18.978L28.9809 19.3258C29.6566 20.4249 30.0393 21.7367 30.0393 23.1382C30.0393 24.5395 29.6566 25.8513 28.9809 26.9504L29.5478 27.2982C30.2882 26.0941 30.7032 24.6602 30.7032 23.1382C30.7032 21.616 30.2882 20.1823 29.5478 18.978ZM22.4034 19.8163C24.2332 19.8163 25.3912 21.0347 25.3912 22.8721V25.4634C25.3912 26.2977 25.7908 27.097 26.1642 27.7212C26.1681 27.725 26.1707 27.7302 26.1733 27.7342L26.4301 28.1209H18.3767L18.6334 27.7342C18.636 27.7302 18.6386 27.725 18.6424 27.7212C19.0199 27.0918 19.4154 26.2523 19.4154 25.4179V22.8267C19.4154 21.908 19.7189 21.1645 20.2351 20.6442C20.7499 20.1238 21.4864 19.8163 22.4034 19.8163ZM16.6985 19.863C16.0942 20.84 15.7634 21.9275 15.7634 23.1382C15.7634 24.3578 16.1382 25.4789 16.6959 26.4093L17.2652 26.0667C16.762 25.2259 16.4274 24.2216 16.4274 23.1382C16.4274 22.0455 16.7166 21.0957 17.2626 20.2121L16.6985 19.863ZM28.1083 19.863L27.544 20.2121C28.09 21.0957 28.3792 22.0455 28.3792 23.1382C28.3792 24.2216 28.0446 25.2259 27.5402 26.0667L28.1108 26.4093C28.6684 25.4789 29.0432 24.3578 29.0432 23.1382C29.0432 21.9275 28.7126 20.84 28.1083 19.863ZM21.4074 28.7852H23.3993C23.3993 29.3353 22.9532 29.7817 22.4034 29.7817C21.8534 29.7817 21.4074 29.3353 21.4074 28.7852Z" fill="#03325C"/>
</g>
<path d="M47.8807 122.135V127H47.0827V124.872H44.7937V127H43.9957V122.135H44.7937V124.221H47.0827V122.135H47.8807ZM52.4663 124.977C52.4663 125.122 52.4569 125.252 52.4383 125.369H49.4913C49.5146 125.677 49.6289 125.924 49.8343 126.111C50.0396 126.298 50.2916 126.391 50.5903 126.391C51.0196 126.391 51.3229 126.211 51.5003 125.852H52.3612C52.2446 126.207 52.0323 126.498 51.7243 126.727C51.4209 126.951 51.0429 127.063 50.5903 127.063C50.2216 127.063 49.8903 126.981 49.5963 126.818C49.3069 126.65 49.0783 126.417 48.9103 126.118C48.7469 125.815 48.6653 125.465 48.6653 125.068C48.6653 124.671 48.7446 124.324 48.9033 124.025C49.0666 123.722 49.2929 123.488 49.5823 123.325C49.8763 123.162 50.2123 123.08 50.5903 123.08C50.9543 123.08 51.2786 123.159 51.5633 123.318C51.8479 123.477 52.0696 123.701 52.2283 123.99C52.3869 124.275 52.4663 124.604 52.4663 124.977ZM51.6333 124.725C51.6286 124.431 51.5236 124.195 51.3183 124.018C51.1129 123.841 50.8586 123.752 50.5553 123.752C50.2799 123.752 50.0443 123.841 49.8483 124.018C49.6523 124.191 49.5356 124.426 49.4983 124.725H51.6333ZM52.9856 125.054C52.9856 124.667 53.0649 124.324 53.2236 124.025C53.3869 123.726 53.6062 123.495 53.8816 123.332C54.1616 123.164 54.4696 123.08 54.8056 123.08C55.1089 123.08 55.3726 123.141 55.5966 123.262C55.8252 123.379 56.0072 123.526 56.1426 123.703V123.143H56.9476V127H56.1426V126.426C56.0072 126.608 55.8229 126.76 55.5896 126.881C55.3562 127.002 55.0902 127.063 54.7916 127.063C54.4602 127.063 54.1569 126.979 53.8816 126.811C53.6062 126.638 53.3869 126.4 53.2236 126.097C53.0649 125.789 52.9856 125.441 52.9856 125.054ZM56.1426 125.068C56.1426 124.802 56.0866 124.571 55.9746 124.375C55.8672 124.179 55.7249 124.03 55.5476 123.927C55.3702 123.824 55.1789 123.773 54.9736 123.773C54.7682 123.773 54.5769 123.824 54.3996 123.927C54.2222 124.025 54.0776 124.172 53.9656 124.368C53.8582 124.559 53.8046 124.788 53.8046 125.054C53.8046 125.32 53.8582 125.553 53.9656 125.754C54.0776 125.955 54.2222 126.109 54.3996 126.216C54.5816 126.319 54.7729 126.37 54.9736 126.37C55.1789 126.37 55.3702 126.319 55.5476 126.216C55.7249 126.113 55.8672 125.964 55.9746 125.768C56.0866 125.567 56.1426 125.334 56.1426 125.068ZM58.7937 123.703C58.9104 123.507 59.0644 123.355 59.2557 123.248C59.4517 123.136 59.6827 123.08 59.9487 123.08V123.906H59.7457C59.433 123.906 59.195 123.985 59.0317 124.144C58.873 124.303 58.7937 124.578 58.7937 124.97V127H57.9957V123.143H58.7937V123.703ZM63.2986 122.779V124.207H64.9786V124.858H63.2986V126.349H65.1886V127H62.5006V122.128H65.1886V122.779H63.2986ZM67.8235 125.047L69.0695 127H68.1665L67.3335 125.691L66.5495 127H65.7165L66.9625 125.103L65.7165 123.143H66.6195L67.4525 124.452L68.2365 123.143H69.0695L67.8235 125.047ZM70.4626 123.71C70.598 123.533 70.7823 123.383 71.0156 123.262C71.249 123.141 71.5126 123.08 71.8066 123.08C72.1426 123.08 72.4483 123.164 72.7236 123.332C73.0036 123.495 73.223 123.726 73.3816 124.025C73.5403 124.324 73.6196 124.667 73.6196 125.054C73.6196 125.441 73.5403 125.789 73.3816 126.097C73.223 126.4 73.0036 126.638 72.7236 126.811C72.4483 126.979 72.1426 127.063 71.8066 127.063C71.5126 127.063 71.2513 127.005 71.0226 126.888C70.794 126.767 70.6073 126.617 70.4626 126.44V128.834H69.6646V123.143H70.4626V123.71ZM72.8076 125.054C72.8076 124.788 72.7516 124.559 72.6396 124.368C72.5323 124.172 72.3876 124.025 72.2056 123.927C72.0283 123.824 71.837 123.773 71.6316 123.773C71.431 123.773 71.2396 123.824 71.0576 123.927C70.8803 124.03 70.7356 124.179 70.6236 124.375C70.5163 124.571 70.4626 124.802 70.4626 125.068C70.4626 125.334 70.5163 125.567 70.6236 125.768C70.7356 125.964 70.8803 126.113 71.0576 126.216C71.2396 126.319 71.431 126.37 71.6316 126.37C71.837 126.37 72.0283 126.319 72.2056 126.216C72.3876 126.109 72.5323 125.955 72.6396 125.754C72.7516 125.553 72.8076 125.32 72.8076 125.054ZM77.9438 124.977C77.9438 125.122 77.9345 125.252 77.9158 125.369H74.9688C74.9921 125.677 75.1065 125.924 75.3118 126.111C75.5171 126.298 75.7691 126.391 76.0678 126.391C76.4971 126.391 76.8005 126.211 76.9778 125.852H77.8388C77.7221 126.207 77.5098 126.498 77.2018 126.727C76.8985 126.951 76.5205 127.063 76.0678 127.063C75.6991 127.063 75.3678 126.981 75.0738 126.818C74.7845 126.65 74.5558 126.417 74.3878 126.118C74.2245 125.815 74.1428 125.465 74.1428 125.068C74.1428 124.671 74.2221 124.324 74.3808 124.025C74.5441 123.722 74.7705 123.488 75.0598 123.325C75.3538 123.162 75.6898 123.08 76.0678 123.08C76.4318 123.08 76.7561 123.159 77.0408 123.318C77.3255 123.477 77.5471 123.701 77.7058 123.99C77.8645 124.275 77.9438 124.604 77.9438 124.977ZM77.1108 124.725C77.1061 124.431 77.0011 124.195 76.7958 124.018C76.5905 123.841 76.3361 123.752 76.0328 123.752C75.7575 123.752 75.5218 123.841 75.3258 124.018C75.1298 124.191 75.0131 124.426 74.9758 124.725H77.1108ZM79.5271 123.703C79.6438 123.507 79.7978 123.355 79.9891 123.248C80.1851 123.136 80.4161 123.08 80.6821 123.08V123.906H80.4791C80.1664 123.906 79.9284 123.985 79.7651 124.144C79.6064 124.303 79.5271 124.578 79.5271 124.97V127H78.7291V123.143H79.5271V123.703ZM82.3466 123.794V125.929C82.3466 126.074 82.3793 126.179 82.4446 126.244C82.5146 126.305 82.6313 126.335 82.7946 126.335H83.2846V127H82.6546C82.2953 127 82.02 126.916 81.8286 126.748C81.6373 126.58 81.5416 126.307 81.5416 125.929V123.794H81.0866V123.143H81.5416V122.184H82.3466V123.143H83.2846V123.794H82.3466ZM90.0315 122.135L88.2045 127H87.2805L85.4465 122.135H86.3005L87.7425 126.181L89.1915 122.135H90.0315ZM92.3718 127.063C92.0078 127.063 91.6788 126.981 91.3848 126.818C91.0908 126.65 90.8598 126.417 90.6918 126.118C90.5238 125.815 90.4398 125.465 90.4398 125.068C90.4398 124.676 90.5262 124.328 90.6988 124.025C90.8715 123.722 91.1072 123.488 91.4058 123.325C91.7045 123.162 92.0382 123.08 92.4068 123.08C92.7755 123.08 93.1092 123.162 93.4078 123.325C93.7065 123.488 93.9422 123.722 94.1148 124.025C94.2875 124.328 94.3738 124.676 94.3738 125.068C94.3738 125.46 94.2852 125.808 94.1078 126.111C93.9305 126.414 93.6878 126.65 93.3798 126.818C93.0765 126.981 92.7405 127.063 92.3718 127.063ZM92.3718 126.37C92.5772 126.37 92.7685 126.321 92.9458 126.223C93.1278 126.125 93.2748 125.978 93.3868 125.782C93.4988 125.586 93.5548 125.348 93.5548 125.068C93.5548 124.788 93.5012 124.552 93.3938 124.361C93.2865 124.165 93.1442 124.018 92.9668 123.92C92.7895 123.822 92.5982 123.773 92.3928 123.773C92.1875 123.773 91.9962 123.822 91.8188 123.92C91.6462 124.018 91.5085 124.165 91.4058 124.361C91.3032 124.552 91.2518 124.788 91.2518 125.068C91.2518 125.483 91.3568 125.805 91.5668 126.034C91.7815 126.258 92.0498 126.37 92.3718 126.37ZM95.5687 122.632C95.424 122.632 95.3027 122.583 95.2047 122.485C95.1067 122.387 95.0577 122.266 95.0577 122.121C95.0577 121.976 95.1067 121.855 95.2047 121.757C95.3027 121.659 95.424 121.61 95.5687 121.61C95.7087 121.61 95.8277 121.659 95.9257 121.757C96.0237 121.855 96.0727 121.976 96.0727 122.121C96.0727 122.266 96.0237 122.387 95.9257 122.485C95.8277 122.583 95.7087 122.632 95.5687 122.632ZM95.9607 123.143V127H95.1627V123.143H95.9607ZM96.7424 125.068C96.7424 124.671 96.8217 124.324 96.9804 124.025C97.1437 123.722 97.3677 123.488 97.6524 123.325C97.9371 123.162 98.2637 123.08 98.6324 123.08C99.0991 123.08 99.4841 123.192 99.7874 123.416C100.095 123.635 100.303 123.95 100.41 124.361H99.5494C99.4794 124.17 99.3674 124.02 99.2134 123.913C99.0594 123.806 98.8657 123.752 98.6324 123.752C98.3057 123.752 98.0444 123.869 97.8484 124.102C97.6571 124.331 97.5614 124.653 97.5614 125.068C97.5614 125.483 97.6571 125.808 97.8484 126.041C98.0444 126.274 98.3057 126.391 98.6324 126.391C99.0944 126.391 99.4001 126.188 99.5494 125.782H100.41C100.298 126.174 100.088 126.487 99.7804 126.72C99.4724 126.949 99.0897 127.063 98.6324 127.063C98.2637 127.063 97.9371 126.981 97.6524 126.818C97.3677 126.65 97.1437 126.417 96.9804 126.118C96.8217 125.815 96.7424 125.465 96.7424 125.068ZM104.741 124.977C104.741 125.122 104.731 125.252 104.713 125.369H101.766C101.789 125.677 101.903 125.924 102.109 126.111C102.314 126.298 102.566 126.391 102.865 126.391C103.294 126.391 103.597 126.211 103.775 125.852H104.636C104.519 126.207 104.307 126.498 103.999 126.727C103.695 126.951 103.317 127.063 102.865 127.063C102.496 127.063 102.165 126.981 101.871 126.818C101.581 126.65 101.353 126.417 101.185 126.118C101.021 125.815 100.94 125.465 100.94 125.068C100.94 124.671 101.019 124.324 101.178 124.025C101.341 123.722 101.567 123.488 101.857 123.325C102.151 123.162 102.487 123.08 102.865 123.08C103.229 123.08 103.553 123.159 103.838 123.318C104.122 123.477 104.344 123.701 104.503 123.99C104.661 124.275 104.741 124.604 104.741 124.977ZM103.908 124.725C103.903 124.431 103.798 124.195 103.593 124.018C103.387 123.841 103.133 123.752 102.83 123.752C102.554 123.752 102.319 123.841 102.123 124.018C101.927 124.191 101.81 124.426 101.773 124.725H103.908ZM106.926 127.063C106.623 127.063 106.35 127.009 106.107 126.902C105.869 126.79 105.68 126.641 105.54 126.454C105.4 126.263 105.325 126.05 105.316 125.817H106.142C106.156 125.98 106.233 126.118 106.373 126.23C106.518 126.337 106.697 126.391 106.912 126.391C107.136 126.391 107.309 126.349 107.43 126.265C107.556 126.176 107.619 126.064 107.619 125.929C107.619 125.784 107.549 125.677 107.409 125.607C107.274 125.537 107.057 125.46 106.758 125.376C106.469 125.297 106.233 125.22 106.051 125.145C105.869 125.07 105.71 124.956 105.575 124.802C105.444 124.648 105.379 124.445 105.379 124.193C105.379 123.988 105.44 123.801 105.561 123.633C105.682 123.46 105.855 123.325 106.079 123.227C106.308 123.129 106.569 123.08 106.863 123.08C107.302 123.08 107.654 123.192 107.92 123.416C108.191 123.635 108.335 123.936 108.354 124.319H107.556C107.542 124.146 107.472 124.009 107.346 123.906C107.22 123.803 107.05 123.752 106.835 123.752C106.625 123.752 106.464 123.792 106.352 123.871C106.24 123.95 106.184 124.055 106.184 124.186C106.184 124.289 106.221 124.375 106.296 124.445C106.371 124.515 106.462 124.571 106.569 124.613C106.676 124.65 106.835 124.699 107.045 124.76C107.325 124.835 107.554 124.912 107.731 124.991C107.913 125.066 108.069 125.178 108.2 125.327C108.331 125.476 108.398 125.675 108.403 125.922C108.403 126.141 108.342 126.337 108.221 126.51C108.1 126.683 107.927 126.818 107.703 126.916C107.484 127.014 107.225 127.063 106.926 127.063Z" fill="#03325C"/>
<g filter="url(#filter1_dd_3407_835)">
<rect x="9.12695" y="111" width="25.5119" height="26.0025" rx="12.7559" fill="#EAECF0"/>
<rect x="9.12695" y="111" width="25.5119" height="26.0025" rx="12.7559" fill="url(#paint1_linear_3407_835)" fill-opacity="0.5" style="mix-blend-mode:soft-light"/>
<rect x="8.85021" y="110.723" width="26.0653" height="26.5559" rx="13.0327" stroke="white" stroke-opacity="0.4" stroke-width="0.553482"/>
</g>
<mask id="mask1_3407_835" style="mask-type:luminance" maskUnits="userSpaceOnUse" x="15" y="116" width="14" height="16">
<path d="M15.4707 116.949H15.4195V117V131V131.051H15.4707H28.2226H28.2738V131V117V116.949H28.2226H15.4707Z" fill="white" stroke="white" stroke-width="0.102439"/>
</mask>
<g mask="url(#mask1_3407_835)">
<path d="M22.5952 116.973L22.5951 116.973C19.9736 116.922 18.4948 117.702 17.6688 118.679C16.8445 119.654 16.6785 120.815 16.663 121.515L16.663 121.515C16.6581 121.736 16.6391 122.063 16.6049 122.385C16.5705 122.707 16.5212 123.02 16.4568 123.22L15.4553 125.887L15.4553 125.887C15.4224 125.974 15.4345 126.073 15.4878 126.15L15.4879 126.15C15.5414 126.227 15.6289 126.273 15.7225 126.273H17.0517V128.277C17.0517 128.997 17.6375 129.583 18.3575 129.583H19.7896V130.737C19.7896 130.894 19.9173 131.022 20.075 131.022C20.2329 131.022 20.3604 130.894 20.3604 130.737V129.297C20.3604 129.14 20.2329 129.012 20.075 129.012H18.3575C17.9523 129.012 17.6226 128.682 17.6226 128.277V125.987C17.6226 125.83 17.4949 125.702 17.3371 125.702H16.1344L16.9952 123.41L16.9953 123.41L16.996 123.407C17.1512 122.928 17.2228 122.019 17.2338 121.527L17.2338 121.527C17.2475 120.91 17.4021 119.889 18.1408 119.036C18.878 118.184 20.205 117.491 22.5829 117.543L22.5829 117.543C24.6131 117.586 26.0569 118.298 26.8881 119.651C27.5245 120.687 27.7217 121.974 27.6916 123.143C27.6615 124.313 27.4043 125.359 27.1397 125.909C26.5274 127.182 25.8086 127.906 25.3153 128.289C24.7857 128.7 24.4807 129.307 24.4807 129.955V130.765C24.4807 130.923 24.6083 131.051 24.7661 131.051C24.9239 131.051 25.0515 130.923 25.0515 130.765V129.955C25.0515 129.486 25.2745 129.043 25.6654 128.74C26.2101 128.317 26.9951 127.527 27.6542 126.156C27.9453 125.551 28.222 124.416 28.2536 123.153C28.2852 121.889 28.0717 120.487 27.3745 119.353C26.4315 117.818 24.8193 117.019 22.5952 116.973Z" fill="#03325C" stroke="black" stroke-width="0.102439"/>
</g>
<path d="M23.4971 124.622H22.6729V123.728C22.9706 123.613 23.184 123.327 23.184 122.988C23.184 122.549 22.8268 122.192 22.3875 122.192C21.9481 122.192 21.5908 122.549 21.5908 122.988C21.5908 123.327 21.8044 123.613 22.1022 123.728V124.622H21.3587C20.8548 124.272 20.5567 123.704 20.5567 123.089C20.5567 122.058 21.3962 121.219 22.428 121.219C23.4598 121.219 24.299 122.058 24.299 123.089C24.299 123.704 24.0008 124.272 23.4971 124.622ZM22.3875 123.214C22.263 123.214 22.1616 123.113 22.1616 122.988C22.1616 122.864 22.263 122.762 22.3875 122.762C22.512 122.762 22.6132 122.864 22.6132 122.988C22.6132 123.113 22.512 123.214 22.3875 123.214ZM23.2984 126.056H21.5553V125.193H23.2984V126.056ZM24.8699 123.089C24.8699 121.743 23.7746 120.648 22.428 120.648C21.0815 120.648 19.9859 121.743 19.9859 123.089C19.9859 123.872 20.3584 124.591 20.9844 125.051V126.341C20.9844 126.499 21.1121 126.627 21.2697 126.627H23.584C23.7416 126.627 23.8693 126.499 23.8693 126.341V125.052C24.4965 124.592 24.8699 123.872 24.8699 123.089Z" fill="#03325C" stroke="black" stroke-width="0.102439"/>
<path d="M24.4055 120.569L24.4055 120.569L24.7729 120.936L24.8091 120.972L24.8091 120.972L25.4039 120.378L25.404 120.378C25.5154 120.266 25.5154 120.086 25.404 119.974C25.2925 119.863 25.1118 119.863 25.0003 119.974L24.4055 120.569Z" fill="#03325C" stroke="black" stroke-width="0.102439"/>
<path d="M25.6248 123.279H26.7859C26.9438 123.279 27.0713 123.151 27.0713 122.994C27.0713 122.836 26.9438 122.708 26.7859 122.708H25.6248C25.4671 122.708 25.3394 122.836 25.3394 122.994C25.3394 123.151 25.4672 123.279 25.6248 123.279Z" fill="#03325C" stroke="black" stroke-width="0.102439"/>
<path d="M25.396 125.607L25.396 125.607C25.5074 125.718 25.5074 125.899 25.396 126.01M25.396 125.607L24.4339 125.048C24.3424 125.139 24.3424 125.288 24.4339 125.379L24.3977 125.415L24.3977 125.415L24.9923 126.01L24.9923 126.01C25.0481 126.066 25.1212 126.094 25.1941 126.094C25.267 126.094 25.3402 126.066 25.396 126.01M25.396 125.607L24.8013 125.012C24.6898 124.9 24.5092 124.9 24.3977 125.012L25.396 125.607ZM25.396 126.01L25.3598 125.974L25.396 126.01C25.396 126.01 25.396 126.01 25.396 126.01Z" fill="#03325C" stroke="black" stroke-width="0.102439"/>
<path d="M20.3688 120.569L20.3688 120.569C20.4803 120.68 20.4804 120.861 20.3688 120.972M20.3688 120.569L19.9652 120.972M20.3688 120.569L19.774 119.974C19.774 119.974 19.774 119.974 19.774 119.974C19.6624 119.863 19.4819 119.863 19.3703 119.974C19.2588 120.086 19.2588 120.266 19.3703 120.378C19.3703 120.378 19.3703 120.378 19.3703 120.378M20.3688 120.569L19.3703 120.378M20.3688 120.972C20.313 121.028 20.24 121.056 20.167 121.056C20.0941 121.056 20.021 121.028 19.9652 120.972M20.3688 120.972C20.3688 120.972 20.3688 120.972 20.3688 120.972L20.3326 120.936L20.3688 120.972C20.3688 120.972 20.3688 120.972 20.3688 120.972ZM19.9652 120.972L19.3703 120.378M19.9652 120.972L19.3703 120.378" fill="#03325C" stroke="black" stroke-width="0.102439"/>
<path d="M19.151 122.708H17.9901C17.8323 122.708 17.7046 122.836 17.7046 122.994C17.7046 123.151 17.8323 123.279 17.9901 123.279H19.151C19.3087 123.279 19.4364 123.151 19.4364 122.994C19.4364 122.836 19.3088 122.708 19.151 122.708Z" fill="#03325C" stroke="black" stroke-width="0.102439"/>
<path d="M19.378 125.607L19.378 125.607L19.9729 125.012C19.9729 125.012 19.9729 125.012 19.9729 125.012C20.0845 124.9 20.265 124.9 20.3766 125.012M19.378 125.607L20.3403 125.048M19.378 125.607C19.2667 125.718 19.2666 125.899 19.378 126.01L19.378 126.01M19.378 125.607L19.378 126.01M20.3766 125.012L20.3403 125.048M20.3766 125.012C20.3766 125.012 20.3765 125.012 20.3765 125.012L20.3403 125.048M20.3766 125.012C20.4881 125.123 20.4881 125.304 20.3766 125.415M20.3403 125.048C20.4319 125.139 20.4319 125.288 20.3403 125.379L20.3766 125.415M20.3766 125.415L20.3765 125.415M20.3766 125.415L20.3765 125.415M20.3765 125.415L19.7817 126.01L20.3765 125.415ZM19.378 126.01C19.4338 126.066 19.507 126.094 19.5799 126.094M19.378 126.01L19.5799 126.094M19.5799 126.094C19.6527 126.094 19.7259 126.066 19.7816 126.01L19.5799 126.094Z" fill="#03325C" stroke="black" stroke-width="0.102439"/>
<path d="M22.6738 119.746V118.586C22.6738 118.428 22.5461 118.3 22.3884 118.3C22.2307 118.3 22.1031 118.428 22.1031 118.586V119.746C22.1031 119.904 22.2307 120.032 22.3884 120.032C22.5462 120.032 22.6738 119.904 22.6738 119.746Z" fill="#03325C" stroke="black" stroke-width="0.102439"/>
<path d="M46.2236 76.006H44.1866L43.8366 77H43.0036L44.7466 72.128H45.6706L47.4136 77H46.5736L46.2236 76.006ZM45.9996 75.355L45.2086 73.094L44.4106 75.355H45.9996ZM47.9055 75.068C47.9055 74.6713 47.9848 74.3237 48.1435 74.025C48.3068 73.7217 48.5308 73.4883 48.8155 73.325C49.1002 73.1617 49.4268 73.08 49.7955 73.08C50.2622 73.08 50.6472 73.192 50.9505 73.416C51.2585 73.6353 51.4662 73.9503 51.5735 74.361H50.7125C50.6425 74.1697 50.5305 74.0203 50.3765 73.913C50.2225 73.8057 50.0288 73.752 49.7955 73.752C49.4688 73.752 49.2075 73.8687 49.0115 74.102C48.8202 74.3307 48.7245 74.6527 48.7245 75.068C48.7245 75.4833 48.8202 75.8077 49.0115 76.041C49.2075 76.2743 49.4688 76.391 49.7955 76.391C50.2575 76.391 50.5632 76.188 50.7125 75.782H51.5735C51.4615 76.174 51.2515 76.4867 50.9435 76.72C50.6355 76.9487 50.2528 77.063 49.7955 77.063C49.4268 77.063 49.1002 76.9813 48.8155 76.818C48.5308 76.65 48.3068 76.4167 48.1435 76.118C47.9848 75.8147 47.9055 75.4647 47.9055 75.068ZM52.1028 75.068C52.1028 74.6713 52.1821 74.3237 52.3408 74.025C52.5041 73.7217 52.7281 73.4883 53.0128 73.325C53.2974 73.1617 53.6241 73.08 53.9928 73.08C54.4594 73.08 54.8444 73.192 55.1478 73.416C55.4558 73.6353 55.6634 73.9503 55.7708 74.361H54.9098C54.8398 74.1697 54.7278 74.0203 54.5738 73.913C54.4198 73.8057 54.2261 73.752 53.9928 73.752C53.6661 73.752 53.4048 73.8687 53.2088 74.102C53.0174 74.3307 52.9218 74.6527 52.9218 75.068C52.9218 75.4833 53.0174 75.8077 53.2088 76.041C53.4048 76.2743 53.6661 76.391 53.9928 76.391C54.4548 76.391 54.7604 76.188 54.9098 75.782H55.7708C55.6588 76.174 55.4488 76.4867 55.1408 76.72C54.8328 76.9487 54.4501 77.063 53.9928 77.063C53.6241 77.063 53.2974 76.9813 53.0128 76.818C52.7281 76.65 52.5041 76.4167 52.3408 76.118C52.1821 75.8147 52.1028 75.4647 52.1028 75.068ZM60.101 74.977C60.101 75.1217 60.0917 75.2523 60.073 75.369H57.126C57.1493 75.677 57.2637 75.9243 57.469 76.111C57.6743 76.2977 57.9263 76.391 58.225 76.391C58.6543 76.391 58.9577 76.2113 59.135 75.852H59.996C59.8793 76.2067 59.667 76.4983 59.359 76.727C59.0557 76.951 58.6777 77.063 58.225 77.063C57.8563 77.063 57.525 76.9813 57.231 76.818C56.9417 76.65 56.713 76.4167 56.545 76.118C56.3817 75.8147 56.3 75.4647 56.3 75.068C56.3 74.6713 56.3793 74.3237 56.538 74.025C56.7013 73.7217 56.9277 73.4883 57.217 73.325C57.511 73.1617 57.847 73.08 58.225 73.08C58.589 73.08 58.9133 73.1593 59.198 73.318C59.4827 73.4767 59.7043 73.7007 59.863 73.99C60.0217 74.2747 60.101 74.6037 60.101 74.977ZM59.268 74.725C59.2633 74.431 59.1583 74.1953 58.953 74.018C58.7477 73.8407 58.4933 73.752 58.19 73.752C57.9147 73.752 57.679 73.8407 57.483 74.018C57.287 74.1907 57.1703 74.4263 57.133 74.725H59.268ZM62.2863 77.063C61.983 77.063 61.71 77.0093 61.4673 76.902C61.2293 76.79 61.0403 76.6407 60.9003 76.454C60.7603 76.2627 60.6857 76.0503 60.6763 75.817H61.5023C61.5163 75.9803 61.5933 76.118 61.7333 76.23C61.878 76.3373 62.0577 76.391 62.2723 76.391C62.4963 76.391 62.669 76.349 62.7903 76.265C62.9163 76.1763 62.9793 76.0643 62.9793 75.929C62.9793 75.7843 62.9093 75.677 62.7693 75.607C62.634 75.537 62.417 75.46 62.1183 75.376C61.829 75.2967 61.5933 75.2197 61.4113 75.145C61.2293 75.0703 61.0707 74.956 60.9353 74.802C60.8047 74.648 60.7393 74.445 60.7393 74.193C60.7393 73.9877 60.8 73.801 60.9213 73.633C61.0427 73.4603 61.2153 73.325 61.4393 73.227C61.668 73.129 61.9293 73.08 62.2233 73.08C62.662 73.08 63.0143 73.192 63.2803 73.416C63.551 73.6353 63.6957 73.9363 63.7143 74.319H62.9163C62.9023 74.1463 62.8323 74.0087 62.7063 73.906C62.5803 73.8033 62.41 73.752 62.1953 73.752C61.9853 73.752 61.8243 73.7917 61.7123 73.871C61.6003 73.9503 61.5443 74.0553 61.5443 74.186C61.5443 74.2887 61.5817 74.375 61.6563 74.445C61.731 74.515 61.822 74.571 61.9293 74.613C62.0367 74.6503 62.1953 74.6993 62.4053 74.76C62.6853 74.8347 62.914 74.9117 63.0913 74.991C63.2733 75.0657 63.4297 75.1777 63.5603 75.327C63.691 75.4763 63.7587 75.6747 63.7633 75.922C63.7633 76.1413 63.7027 76.3373 63.5813 76.51C63.46 76.6827 63.2873 76.818 63.0633 76.916C62.844 77.014 62.585 77.063 62.2863 77.063ZM66.0256 77.063C65.7223 77.063 65.4493 77.0093 65.2066 76.902C64.9686 76.79 64.7796 76.6407 64.6396 76.454C64.4996 76.2627 64.4249 76.0503 64.4156 75.817H65.2416C65.2556 75.9803 65.3326 76.118 65.4726 76.23C65.6173 76.3373 65.7969 76.391 66.0116 76.391C66.2356 76.391 66.4083 76.349 66.5296 76.265C66.6556 76.1763 66.7186 76.0643 66.7186 75.929C66.7186 75.7843 66.6486 75.677 66.5086 75.607C66.3733 75.537 66.1563 75.46 65.8576 75.376C65.5683 75.2967 65.3326 75.2197 65.1506 75.145C64.9686 75.0703 64.8099 74.956 64.6746 74.802C64.5439 74.648 64.4786 74.445 64.4786 74.193C64.4786 73.9877 64.5393 73.801 64.6606 73.633C64.7819 73.4603 64.9546 73.325 65.1786 73.227C65.4073 73.129 65.6686 73.08 65.9626 73.08C66.4013 73.08 66.7536 73.192 67.0196 73.416C67.2903 73.6353 67.4349 73.9363 67.4536 74.319H66.6556C66.6416 74.1463 66.5716 74.0087 66.4456 73.906C66.3196 73.8033 66.1493 73.752 65.9346 73.752C65.7246 73.752 65.5636 73.7917 65.4516 73.871C65.3396 73.9503 65.2836 74.0553 65.2836 74.186C65.2836 74.2887 65.3209 74.375 65.3956 74.445C65.4703 74.515 65.5613 74.571 65.6686 74.613C65.7759 74.6503 65.9346 74.6993 66.1446 74.76C66.4246 74.8347 66.6533 74.9117 66.8306 74.991C67.0126 75.0657 67.1689 75.1777 67.2996 75.327C67.4303 75.4763 67.4979 75.6747 67.5026 75.922C67.5026 76.1413 67.4419 76.3373 67.3206 76.51C67.1993 76.6827 67.0266 76.818 66.8026 76.916C66.5833 77.014 66.3243 77.063 66.0256 77.063ZM75.3072 72.135V77H74.5092V73.668L73.0252 77H72.4722L70.9812 73.668V77H70.1832V72.135H71.0442L72.7522 75.95L74.4532 72.135H75.3072ZM77.9591 77.049C77.6324 77.049 77.3384 76.993 77.0771 76.881C76.8157 76.7643 76.6104 76.601 76.4611 76.391C76.3117 76.181 76.2371 75.936 76.2371 75.656H77.0911C77.1097 75.866 77.1914 76.0387 77.3361 76.174C77.4854 76.3093 77.6931 76.377 77.9591 76.377C78.2344 76.377 78.4491 76.3117 78.6031 76.181C78.7571 76.0457 78.8341 75.873 78.8341 75.663C78.8341 75.4997 78.7851 75.3667 78.6871 75.264C78.5937 75.1613 78.4747 75.082 78.3301 75.026C78.1901 74.97 77.9941 74.9093 77.7421 74.844C77.4247 74.76 77.1657 74.676 76.9651 74.592C76.7691 74.5033 76.6011 74.368 76.4611 74.186C76.3211 74.004 76.2511 73.7613 76.2511 73.458C76.2511 73.178 76.3211 72.933 76.4611 72.723C76.6011 72.513 76.7971 72.352 77.0491 72.24C77.3011 72.128 77.5927 72.072 77.9241 72.072C78.3954 72.072 78.7804 72.191 79.0791 72.429C79.3824 72.6623 79.5504 72.9843 79.5831 73.395H78.7011C78.6871 73.2177 78.6031 73.066 78.4491 72.94C78.2951 72.814 78.0921 72.751 77.8401 72.751C77.6114 72.751 77.4247 72.8093 77.2801 72.926C77.1354 73.0427 77.0631 73.2107 77.0631 73.43C77.0631 73.5793 77.1074 73.703 77.1961 73.801C77.2894 73.8943 77.4061 73.969 77.5461 74.025C77.6861 74.081 77.8774 74.1417 78.1201 74.207C78.4421 74.2957 78.7034 74.3843 78.9041 74.473C79.1094 74.5617 79.2821 74.6993 79.4221 74.886C79.5667 75.068 79.6391 75.313 79.6391 75.621C79.6391 75.8683 79.5714 76.1017 79.4361 76.321C79.3054 76.5403 79.1117 76.7177 78.8551 76.853C78.6031 76.9837 78.3044 77.049 77.9591 77.049ZM85.7047 72.135V77H84.9067V73.668L83.4227 77H82.8697L81.3787 73.668V77H80.5807V72.135H81.4417L83.1497 75.95L84.8507 72.135H85.7047ZM87.5515 72.779V74.207H89.2315V74.858H87.5515V76.349H89.4415V77H86.7535V72.128H89.4415V72.779H87.5515ZM93.0408 72.135V77H92.2428V72.135H93.0408ZM96.0345 73.08C96.3378 73.08 96.6085 73.143 96.8465 73.269C97.0891 73.395 97.2781 73.5817 97.4135 73.829C97.5488 74.0763 97.6165 74.375 97.6165 74.725V77H96.8255V74.844C96.8255 74.4987 96.7391 74.235 96.5665 74.053C96.3938 73.8663 96.1581 73.773 95.8595 73.773C95.5608 73.773 95.3228 73.8663 95.1455 74.053C94.9728 74.235 94.8865 74.4987 94.8865 74.844V77H94.0885V73.143H94.8865V73.584C95.0171 73.4253 95.1828 73.3017 95.3835 73.213C95.5888 73.1243 95.8058 73.08 96.0345 73.08ZM100.034 77.063C99.731 77.063 99.458 77.0093 99.2154 76.902C98.9774 76.79 98.7884 76.6407 98.6484 76.454C98.5084 76.2627 98.4337 76.0503 98.4244 75.817H99.2504C99.2644 75.9803 99.3414 76.118 99.4814 76.23C99.626 76.3373 99.8057 76.391 100.02 76.391C100.244 76.391 100.417 76.349 100.538 76.265C100.664 76.1763 100.727 76.0643 100.727 75.929C100.727 75.7843 100.657 75.677 100.517 75.607C100.382 75.537 100.165 75.46 99.8664 75.376C99.577 75.2967 99.3414 75.2197 99.1594 75.145C98.9774 75.0703 98.8187 74.956 98.6834 74.802C98.5527 74.648 98.4874 74.445 98.4874 74.193C98.4874 73.9877 98.548 73.801 98.6694 73.633C98.7907 73.4603 98.9634 73.325 99.1874 73.227C99.416 73.129 99.6774 73.08 99.9714 73.08C100.41 73.08 100.762 73.192 101.028 73.416C101.299 73.6353 101.444 73.9363 101.462 74.319H100.664C100.65 74.1463 100.58 74.0087 100.454 73.906C100.328 73.8033 100.158 73.752 99.9434 73.752C99.7334 73.752 99.5724 73.7917 99.4604 73.871C99.3484 73.9503 99.2924 74.0553 99.2924 74.186C99.2924 74.2887 99.3297 74.375 99.4044 74.445C99.479 74.515 99.57 74.571 99.6774 74.613C99.7847 74.6503 99.9434 74.6993 100.153 74.76C100.433 74.8347 100.662 74.9117 100.839 74.991C101.021 75.0657 101.178 75.1777 101.308 75.327C101.439 75.4763 101.507 75.6747 101.511 75.922C101.511 76.1413 101.451 76.3373 101.329 76.51C101.208 76.6827 101.035 76.818 100.811 76.916C100.592 77.014 100.333 77.063 100.034 77.063ZM102.78 72.632C102.635 72.632 102.514 72.583 102.416 72.485C102.318 72.387 102.269 72.2657 102.269 72.121C102.269 71.9763 102.318 71.855 102.416 71.757C102.514 71.659 102.635 71.61 102.78 71.61C102.92 71.61 103.039 71.659 103.137 71.757C103.235 71.855 103.284 71.9763 103.284 72.121C103.284 72.2657 103.235 72.387 103.137 72.485C103.039 72.583 102.92 72.632 102.78 72.632ZM103.172 73.143V77H102.374V73.143H103.172ZM105.773 73.08C106.072 73.08 106.336 73.1407 106.564 73.262C106.798 73.3787 106.98 73.5257 107.11 73.703V73.143H107.915V77.063C107.915 77.4177 107.841 77.7327 107.691 78.008C107.542 78.288 107.325 78.5073 107.04 78.666C106.76 78.8247 106.424 78.904 106.032 78.904C105.51 78.904 105.076 78.7803 104.73 78.533C104.385 78.2903 104.189 77.959 104.142 77.539H104.933C104.994 77.7397 105.122 77.9007 105.318 78.022C105.519 78.148 105.757 78.211 106.032 78.211C106.354 78.211 106.613 78.113 106.809 77.917C107.01 77.721 107.11 77.4363 107.11 77.063V76.419C106.975 76.601 106.791 76.755 106.557 76.881C106.329 77.0023 106.067 77.063 105.773 77.063C105.437 77.063 105.129 76.979 104.849 76.811C104.574 76.6383 104.355 76.4003 104.191 76.097C104.033 75.789 103.953 75.4413 103.953 75.054C103.953 74.6667 104.033 74.3237 104.191 74.025C104.355 73.7263 104.574 73.4953 104.849 73.332C105.129 73.164 105.437 73.08 105.773 73.08ZM107.11 75.068C107.11 74.802 107.054 74.571 106.942 74.375C106.835 74.179 106.693 74.0297 106.515 73.927C106.338 73.8243 106.147 73.773 105.941 73.773C105.736 73.773 105.545 73.8243 105.367 73.927C105.19 74.025 105.045 74.172 104.933 74.368C104.826 74.5593 104.772 74.788 104.772 75.054C104.772 75.32 104.826 75.5533 104.933 75.754C105.045 75.9547 105.19 76.1087 105.367 76.216C105.549 76.3187 105.741 76.37 105.941 76.37C106.147 76.37 106.338 76.3187 106.515 76.216C106.693 76.1133 106.835 75.964 106.942 75.768C107.054 75.5673 107.11 75.334 107.11 75.068ZM110.958 73.08C111.252 73.08 111.514 73.143 111.742 73.269C111.976 73.395 112.158 73.5817 112.288 73.829C112.424 74.0763 112.491 74.375 112.491 74.725V77H111.7V74.844C111.7 74.4987 111.614 74.235 111.441 74.053C111.269 73.8663 111.033 73.773 110.734 73.773C110.436 73.773 110.198 73.8663 110.02 74.053C109.848 74.235 109.761 74.4987 109.761 74.844V77H108.963V71.82H109.761V73.591C109.897 73.4277 110.067 73.3017 110.272 73.213C110.482 73.1243 110.711 73.08 110.958 73.08ZM114.44 73.794V75.929C114.44 76.0737 114.473 76.1787 114.538 76.244C114.608 76.3047 114.725 76.335 114.888 76.335H115.378V77H114.748C114.389 77 114.114 76.916 113.922 76.748C113.731 76.58 113.635 76.307 113.635 75.929V73.794H113.18V73.143H113.635V72.184H114.44V73.143H115.378V73.794H114.44Z" fill="#03325C"/>
<g filter="url(#filter2_dd_3407_835)">
<rect x="9.12891" y="60.0596" width="25.6996" height="26.1938" rx="12.8498" fill="#EAECF0"/>
<rect x="9.12891" y="60.0596" width="25.6996" height="26.1938" rx="12.8498" fill="url(#paint2_linear_3407_835)" fill-opacity="0.5" style="mix-blend-mode:soft-light"/>
<rect x="8.85013" y="59.7808" width="26.2571" height="26.7514" rx="13.1286" stroke="white" stroke-opacity="0.4" stroke-width="0.557555"/>
</g>
<mask id="mask2_3407_835" style="mask-type:luminance" maskUnits="userSpaceOnUse" x="15" y="66" width="14" height="14">
<path d="M15.2891 66.3521H28.5286V79.6063H15.2891V66.3521Z" fill="white"/>
</mask>
<g mask="url(#mask2_3407_835)">
<path d="M20.3886 76.5592C21.2895 76.5592 22.1374 76.3206 22.8741 75.91L25.7701 79.071C26.0642 79.3944 26.4669 79.5771 26.9042 79.5877H26.9412C27.3652 79.5877 27.76 79.4235 28.0621 79.124C28.3694 78.814 28.5363 78.4034 28.5258 77.9661C28.5152 77.5289 28.3324 77.1262 28.0117 76.8294L24.848 73.9359C25.2588 73.1994 25.4971 72.3515 25.4971 71.4506C25.4971 68.6313 23.2052 66.3394 20.3886 66.3394C17.5693 66.3394 15.2773 68.6313 15.2773 71.4506C15.2773 74.2672 17.5693 76.5592 20.3886 76.5592ZM20.3886 66.8694C22.9138 66.8694 24.9673 68.9228 24.9673 71.4506C24.9673 73.9757 22.9138 76.0293 20.3886 76.0293C17.8635 76.0293 15.8074 73.9757 15.8074 71.4506C15.8074 68.9228 17.8635 66.8694 20.3886 66.8694Z" fill="#03325C"/>
</g>
<path d="M18.2513 72.5665C18.3977 72.5665 18.5162 72.4479 18.5162 72.3014V71.0594C18.5162 70.913 18.3977 70.7944 18.2513 70.7944C18.1047 70.7944 17.9863 70.913 17.9863 71.0594V72.3014C17.9863 72.4479 18.1047 72.5665 18.2513 72.5665Z" fill="#03325C"/>
<path d="M19.6751 72.5662C19.8216 72.5662 19.9402 72.4476 19.9402 72.3011V69.7509C19.9402 69.6044 19.8216 69.4858 19.6751 69.4858C19.5287 69.4858 19.4102 69.6044 19.4102 69.7509V72.3011C19.4102 72.4476 19.5287 72.5662 19.6751 72.5662Z" fill="#03325C"/>
<path d="M21.1009 72.5666C21.2473 72.5666 21.3658 72.448 21.3658 72.3015V70.6953C21.3658 70.5487 21.2473 70.4302 21.1009 70.4302C20.9543 70.4302 20.8359 70.5487 20.8359 70.6953V72.3015C20.8359 72.448 20.9543 72.5666 21.1009 72.5666Z" fill="#03325C"/>
<path d="M22.5227 72.5669C22.6693 72.5669 22.7877 72.4484 22.7877 72.3018V69.4534C22.7877 69.307 22.6693 69.1885 22.5227 69.1885C22.3764 69.1885 22.2578 69.307 22.2578 69.4534V72.3018C22.2578 72.4484 22.3764 72.5669 22.5227 72.5669Z" fill="#03325C"/>
<path d="M17.4895 73.5601H23.2857C23.4322 73.5601 23.5506 73.4416 23.5506 73.2952C23.5506 73.1487 23.4322 73.0303 23.2857 73.0303H17.4895C17.3432 73.0303 17.2246 73.1487 17.2246 73.2952C17.2246 73.4416 17.3432 73.5601 17.4895 73.5601Z" fill="#03325C"/>
<defs>
<filter id="filter0_dd_3407_835" x="0.874786" y="0.737579" width="43.1368" height="43.6603" filterUnits="userSpaceOnUse" color-interpolation-filters="sRGB">
<feFlood flood-opacity="0" result="BackgroundImageFix"/>
<feColorMatrix in="SourceAlpha" type="matrix" values="0 0 0 0 0 0 0 0 0 0 0 0 0 0 0 0 0 0 127 0" result="hardAlpha"/>
<feOffset dx="2.9508" dy="2.9508"/>
<feGaussianBlur stdDeviation="2.06556"/>
<feColorMatrix type="matrix" values="0 0 0 0 0.682353 0 0 0 0 0.682353 0 0 0 0 0.752941 0 0 0 0.5 0"/>
<feBlend mode="normal" in2="BackgroundImageFix" result="effect1_dropShadow_3407_835"/>
<feColorMatrix in="SourceAlpha" type="matrix" values="0 0 0 0 0 0 0 0 0 0 0 0 0 0 0 0 0 0 127 0" result="hardAlpha"/>
<feOffset dx="-2.9508" dy="-2.9508"/>
<feGaussianBlur stdDeviation="2.36064"/>
<feColorMatrix type="matrix" values="0 0 0 0 0.950608 0 0 0 0 0.95735 0 0 0 0 0.970833 0 0 0 1 0"/>
<feBlend mode="normal" in2="effect1_dropShadow_3407_835" result="effect2_dropShadow_3407_835"/>
<feBlend mode="normal" in="SourceGraphic" in2="effect2_dropShadow_3407_835" result="shape"/>
</filter>
<filter id="filter1_dd_3407_835" x="1.37896" y="103.251" width="40.4542" height="40.9469" filterUnits="userSpaceOnUse" color-interpolation-filters="sRGB">
<feFlood flood-opacity="0" result="BackgroundImageFix"/>
<feColorMatrix in="SourceAlpha" type="matrix" values="0 0 0 0 0 0 0 0 0 0 0 0 0 0 0 0 0 0 127 0" result="hardAlpha"/>
<feOffset dx="2.76741" dy="2.76741"/>
<feGaussianBlur stdDeviation="1.93719"/>
<feColorMatrix type="matrix" values="0 0 0 0 0.682353 0 0 0 0 0.682353 0 0 0 0 0.752941 0 0 0 0.5 0"/>
<feBlend mode="normal" in2="BackgroundImageFix" result="effect1_dropShadow_3407_835"/>
<feColorMatrix in="SourceAlpha" type="matrix" values="0 0 0 0 0 0 0 0 0 0 0 0 0 0 0 0 0 0 127 0" result="hardAlpha"/>
<feOffset dx="-2.76741" dy="-2.76741"/>
<feGaussianBlur stdDeviation="2.21393"/>
<feColorMatrix type="matrix" values="0 0 0 0 0.950608 0 0 0 0 0.95735 0 0 0 0 0.970833 0 0 0 1 0"/>
<feBlend mode="normal" in2="effect1_dropShadow_3407_835" result="effect2_dropShadow_3407_835"/>
<feBlend mode="normal" in="SourceGraphic" in2="effect2_dropShadow_3407_835" result="shape"/>
</filter>
<filter id="filter2_dd_3407_835" x="1.32405" y="52.2537" width="40.7533" height="41.248" filterUnits="userSpaceOnUse" color-interpolation-filters="sRGB">
<feFlood flood-opacity="0" result="BackgroundImageFix"/>
<feColorMatrix in="SourceAlpha" type="matrix" values="0 0 0 0 0 0 0 0 0 0 0 0 0 0 0 0 0 0 127 0" result="hardAlpha"/>
<feOffset dx="2.78777" dy="2.78777"/>
<feGaussianBlur stdDeviation="1.95144"/>
<feColorMatrix type="matrix" values="0 0 0 0 0.682353 0 0 0 0 0.682353 0 0 0 0 0.752941 0 0 0 0.5 0"/>
<feBlend mode="normal" in2="BackgroundImageFix" result="effect1_dropShadow_3407_835"/>
<feColorMatrix in="SourceAlpha" type="matrix" values="0 0 0 0 0 0 0 0 0 0 0 0 0 0 0 0 0 0 127 0" result="hardAlpha"/>
<feOffset dx="-2.78777" dy="-2.78777"/>
<feGaussianBlur stdDeviation="2.23022"/>
<feColorMatrix type="matrix" values="0 0 0 0 0.950608 0 0 0 0 0.95735 0 0 0 0 0.970833 0 0 0 1 0"/>
<feBlend mode="normal" in2="effect1_dropShadow_3407_835" result="effect2_dropShadow_3407_835"/>
<feBlend mode="normal" in="SourceGraphic" in2="effect2_dropShadow_3407_835" result="shape"/>
</filter>
<linearGradient id="paint0_linear_3407_835" x1="12.2838" y1="10.4754" x2="33.8684" y2="34.2636" gradientUnits="userSpaceOnUse">
<stop/>
<stop offset="1" stop-color="white"/>
</linearGradient>
<linearGradient id="paint1_linear_3407_835" x1="12.0785" y1="112.384" x2="32.3215" y2="134.693" gradientUnits="userSpaceOnUse">
<stop/>
<stop offset="1" stop-color="white"/>
</linearGradient>
<linearGradient id="paint2_linear_3407_835" x1="12.1021" y1="61.4535" x2="32.4942" y2="83.9274" gradientUnits="userSpaceOnUse">
<stop/>
<stop offset="1" stop-color="white"/>
</linearGradient>
</defs>
</svg>
