<svg width="158" height="173" viewBox="0 0 158 173" fill="none" xmlns="http://www.w3.org/2000/svg">
<path d="M54.716 23.745V24.582H53.051V30H52.025V24.582H50.351V23.745H54.716ZM56.7811 25.761C56.9311 25.509 57.1291 25.314 57.3751 25.176C57.6271 25.032 57.9241 24.96 58.2661 24.96V26.022H58.0051C57.6031 26.022 57.2971 26.124 57.0871 26.328C56.8831 26.532 56.7811 26.886 56.7811 27.39V30H55.7551V25.041H56.7811V25.761ZM58.8672 27.498C58.8672 27 58.9692 26.559 59.1732 26.175C59.3832 25.791 59.6652 25.494 60.0192 25.284C60.3792 25.068 60.7752 24.96 61.2072 24.96C61.5972 24.96 61.9362 25.038 62.2242 25.194C62.5182 25.344 62.7522 25.533 62.9262 25.761V25.041H63.9612V30H62.9262V29.262C62.7522 29.496 62.5152 29.691 62.2152 29.847C61.9152 30.003 61.5732 30.081 61.1892 30.081C60.7632 30.081 60.3732 29.973 60.0192 29.757C59.6652 29.535 59.3832 29.229 59.1732 28.839C58.9692 28.443 58.8672 27.996 58.8672 27.498ZM62.9262 27.516C62.9262 27.174 62.8542 26.877 62.7102 26.625C62.5722 26.373 62.3892 26.181 62.1612 26.049C61.9332 25.917 61.6872 25.851 61.4232 25.851C61.1592 25.851 60.9132 25.917 60.6852 26.049C60.4572 26.175 60.2712 26.364 60.1272 26.616C59.9892 26.862 59.9202 27.156 59.9202 27.498C59.9202 27.84 59.9892 28.14 60.1272 28.398C60.2712 28.656 60.4572 28.854 60.6852 28.992C60.9192 29.124 61.1652 29.19 61.4232 29.19C61.6872 29.19 61.9332 29.124 62.1612 28.992C62.3892 28.86 62.5722 28.668 62.7102 28.416C62.8542 28.158 62.9262 27.858 62.9262 27.516ZM64.9668 27.516C64.9668 27.006 65.0688 26.559 65.2728 26.175C65.4828 25.785 65.7708 25.485 66.1368 25.275C66.5028 25.065 66.9228 24.96 67.3968 24.96C67.9968 24.96 68.4918 25.104 68.8818 25.392C69.2778 25.674 69.5448 26.079 69.6828 26.607H68.5758C68.4858 26.361 68.3418 26.169 68.1438 26.031C67.9458 25.893 67.6968 25.824 67.3968 25.824C66.9768 25.824 66.6408 25.974 66.3888 26.274C66.1428 26.568 66.0198 26.982 66.0198 27.516C66.0198 28.05 66.1428 28.467 66.3888 28.767C66.6408 29.067 66.9768 29.217 67.3968 29.217C67.9908 29.217 68.3838 28.956 68.5758 28.434H69.6828C69.5388 28.938 69.2688 29.34 68.8728 29.64C68.4768 29.934 67.9848 30.081 67.3968 30.081C66.9228 30.081 66.5028 29.976 66.1368 29.766C65.7708 29.55 65.4828 29.25 65.2728 28.866C65.0688 28.476 64.9668 28.026 64.9668 27.516ZM72.6673 27.525L74.9533 30H73.5673L71.7313 27.867V30H70.7053V23.34H71.7313V27.21L73.5313 25.041H74.9533L72.6673 27.525ZM79.0526 23.745V30H78.0266V23.745H79.0526ZM82.9016 24.96C83.2916 24.96 83.6396 25.041 83.9456 25.203C84.2576 25.365 84.5006 25.605 84.6746 25.923C84.8486 26.241 84.9356 26.625 84.9356 27.075V30H83.9186V27.228C83.9186 26.784 83.8076 26.445 83.5856 26.211C83.3636 25.971 83.0606 25.851 82.6766 25.851C82.2926 25.851 81.9866 25.971 81.7586 26.211C81.5366 26.445 81.4256 26.784 81.4256 27.228V30H80.3996V25.041H81.4256V25.608C81.5936 25.404 81.8066 25.245 82.0646 25.131C82.3286 25.017 82.6076 24.96 82.9016 24.96ZM85.9023 27.498C85.9023 27 86.0043 26.559 86.2083 26.175C86.4183 25.791 86.7003 25.494 87.0543 25.284C87.4143 25.068 87.8133 24.96 88.2513 24.96C88.5753 24.96 88.8933 25.032 89.2053 25.176C89.5233 25.314 89.7753 25.5 89.9613 25.734V23.34H90.9963V30H89.9613V29.253C89.7933 29.493 89.5593 29.691 89.2593 29.847C88.9653 30.003 88.6263 30.081 88.2423 30.081C87.8103 30.081 87.4143 29.973 87.0543 29.757C86.7003 29.535 86.4183 29.229 86.2083 28.839C86.0043 28.443 85.9023 27.996 85.9023 27.498ZM89.9613 27.516C89.9613 27.174 89.8893 26.877 89.7453 26.625C89.6073 26.373 89.4243 26.181 89.1963 26.049C88.9683 25.917 88.7223 25.851 88.4583 25.851C88.1943 25.851 87.9483 25.917 87.7203 26.049C87.4923 26.175 87.3063 26.364 87.1623 26.616C87.0243 26.862 86.9553 27.156 86.9553 27.498C86.9553 27.84 87.0243 28.14 87.1623 28.398C87.3063 28.656 87.4923 28.854 87.7203 28.992C87.9543 29.124 88.2003 29.19 88.4583 29.19C88.7223 29.19 88.9683 29.124 89.1963 28.992C89.4243 28.86 89.6073 28.668 89.7453 28.416C89.8893 28.158 89.9613 27.858 89.9613 27.516ZM96.8889 27.399C96.8889 27.585 96.8769 27.753 96.8529 27.903H93.0639C93.0939 28.299 93.2409 28.617 93.5049 28.857C93.7689 29.097 94.0929 29.217 94.4769 29.217C95.0289 29.217 95.4189 28.986 95.6469 28.524H96.7539C96.6039 28.98 96.3309 29.355 95.9349 29.649C95.5449 29.937 95.0589 30.081 94.4769 30.081C94.0029 30.081 93.5769 29.976 93.1989 29.766C92.8269 29.55 92.5329 29.25 92.3169 28.866C92.1069 28.476 92.0019 28.026 92.0019 27.516C92.0019 27.006 92.1039 26.559 92.3079 26.175C92.5179 25.785 92.8089 25.485 93.1809 25.275C93.5589 25.065 93.9909 24.96 94.4769 24.96C94.9449 24.96 95.3619 25.062 95.7279 25.266C96.0939 25.47 96.3789 25.758 96.5829 26.13C96.7869 26.496 96.8889 26.919 96.8889 27.399ZM95.8179 27.075C95.8119 26.697 95.6769 26.394 95.4129 26.166C95.1489 25.938 94.8219 25.824 94.4319 25.824C94.0779 25.824 93.7749 25.938 93.5229 26.166C93.2709 26.388 93.1209 26.691 93.0729 27.075H95.8179ZM100.023 27.489L101.625 30H100.464L99.3926 28.317L98.3846 30H97.3136L98.9156 27.561L97.3136 25.041H98.4746L99.5456 26.724L100.554 25.041H101.625L100.023 27.489ZM111.316 23.745V30H110.29V25.716L108.382 30H107.671L105.754 25.716V30H104.728V23.745H105.835L108.031 28.65L110.218 23.745H111.316ZM114.815 30.081C114.347 30.081 113.924 29.976 113.546 29.766C113.168 29.55 112.871 29.25 112.655 28.866C112.439 28.476 112.331 28.026 112.331 27.516C112.331 27.012 112.442 26.565 112.664 26.175C112.886 25.785 113.189 25.485 113.573 25.275C113.957 25.065 114.386 24.96 114.86 24.96C115.334 24.96 115.763 25.065 116.147 25.275C116.531 25.485 116.834 25.785 117.056 26.175C117.278 26.565 117.389 27.012 117.389 27.516C117.389 28.02 117.275 28.467 117.047 28.857C116.819 29.247 116.507 29.55 116.111 29.766C115.721 29.976 115.289 30.081 114.815 30.081ZM114.815 29.19C115.079 29.19 115.325 29.127 115.553 29.001C115.787 28.875 115.976 28.686 116.12 28.434C116.264 28.182 116.336 27.876 116.336 27.516C116.336 27.156 116.267 26.853 116.129 26.607C115.991 26.355 115.808 26.166 115.58 26.04C115.352 25.914 115.106 25.851 114.842 25.851C114.578 25.851 114.332 25.914 114.104 26.04C113.882 26.166 113.705 26.355 113.573 26.607C113.441 26.853 113.375 27.156 113.375 27.516C113.375 28.05 113.51 28.464 113.78 28.758C114.056 29.046 114.401 29.19 114.815 29.19ZM120.321 29.082L121.725 25.041H122.814L120.924 30H119.7L117.819 25.041H118.917L120.321 29.082ZM128.134 27.399C128.134 27.585 128.122 27.753 128.098 27.903H124.309C124.339 28.299 124.486 28.617 124.75 28.857C125.014 29.097 125.338 29.217 125.722 29.217C126.274 29.217 126.664 28.986 126.892 28.524H127.999C127.849 28.98 127.576 29.355 127.18 29.649C126.79 29.937 126.304 30.081 125.722 30.081C125.248 30.081 124.822 29.976 124.444 29.766C124.072 29.55 123.778 29.25 123.562 28.866C123.352 28.476 123.247 28.026 123.247 27.516C123.247 27.006 123.349 26.559 123.553 26.175C123.763 25.785 124.054 25.485 124.426 25.275C124.804 25.065 125.236 24.96 125.722 24.96C126.19 24.96 126.607 25.062 126.973 25.266C127.339 25.47 127.624 25.758 127.828 26.13C128.032 26.496 128.134 26.919 128.134 27.399ZM127.063 27.075C127.057 26.697 126.922 26.394 126.658 26.166C126.394 25.938 126.067 25.824 125.677 25.824C125.323 25.824 125.02 25.938 124.768 26.166C124.516 26.388 124.366 26.691 124.318 27.075H127.063ZM135.147 24.96C135.537 24.96 135.885 25.041 136.191 25.203C136.503 25.365 136.746 25.605 136.92 25.923C137.1 26.241 137.19 26.625 137.19 27.075V30H136.173V27.228C136.173 26.784 136.062 26.445 135.84 26.211C135.618 25.971 135.315 25.851 134.931 25.851C134.547 25.851 134.241 25.971 134.013 26.211C133.791 26.445 133.68 26.784 133.68 27.228V30H132.663V27.228C132.663 26.784 132.552 26.445 132.33 26.211C132.108 25.971 131.805 25.851 131.421 25.851C131.037 25.851 130.731 25.971 130.503 26.211C130.281 26.445 130.17 26.784 130.17 27.228V30H129.144V25.041H130.17V25.608C130.338 25.404 130.551 25.245 130.809 25.131C131.067 25.017 131.343 24.96 131.637 24.96C132.033 24.96 132.387 25.044 132.699 25.212C133.011 25.38 133.251 25.623 133.419 25.941C133.569 25.641 133.803 25.404 134.121 25.23C134.439 25.05 134.781 24.96 135.147 24.96ZM143.04 27.399C143.04 27.585 143.028 27.753 143.004 27.903H139.215C139.245 28.299 139.392 28.617 139.656 28.857C139.92 29.097 140.244 29.217 140.628 29.217C141.18 29.217 141.57 28.986 141.798 28.524H142.905C142.755 28.98 142.482 29.355 142.086 29.649C141.696 29.937 141.21 30.081 140.628 30.081C140.154 30.081 139.728 29.976 139.35 29.766C138.978 29.55 138.684 29.25 138.468 28.866C138.258 28.476 138.153 28.026 138.153 27.516C138.153 27.006 138.255 26.559 138.459 26.175C138.669 25.785 138.96 25.485 139.332 25.275C139.71 25.065 140.142 24.96 140.628 24.96C141.096 24.96 141.513 25.062 141.879 25.266C142.245 25.47 142.53 25.758 142.734 26.13C142.938 26.496 143.04 26.919 143.04 27.399ZM141.969 27.075C141.963 26.697 141.828 26.394 141.564 26.166C141.3 25.938 140.973 25.824 140.583 25.824C140.229 25.824 139.926 25.938 139.674 26.166C139.422 26.388 139.272 26.691 139.224 27.075H141.969ZM146.552 24.96C146.942 24.96 147.29 25.041 147.596 25.203C147.908 25.365 148.151 25.605 148.325 25.923C148.499 26.241 148.586 26.625 148.586 27.075V30H147.569V27.228C147.569 26.784 147.458 26.445 147.236 26.211C147.014 25.971 146.711 25.851 146.327 25.851C145.943 25.851 145.637 25.971 145.409 26.211C145.187 26.445 145.076 26.784 145.076 27.228V30H144.05V25.041H145.076V25.608C145.244 25.404 145.457 25.245 145.715 25.131C145.979 25.017 146.258 24.96 146.552 24.96ZM151.092 25.878V28.623C151.092 28.809 151.134 28.944 151.218 29.028C151.308 29.106 151.458 29.145 151.668 29.145H152.298V30H151.488C151.026 30 150.672 29.892 150.426 29.676C150.18 29.46 150.057 29.109 150.057 28.623V25.878H149.472V25.041H150.057V23.808H151.092V25.041H152.298V25.878H151.092Z" fill="#03325C"/>
<g filter="url(#filter0_dd_3407_835)">
<rect x="10.1523" y="10" width="30.6028" height="31.1913" rx="15.3014" fill="#EAECF0"/>
<rect x="10.1523" y="10" width="30.6028" height="31.1913" rx="15.3014" fill="url(#paint0_linear_3407_835)" fill-opacity="0.5" style="mix-blend-mode:soft-light"/>
<rect x="9.82038" y="9.66803" width="31.2667" height="31.8552" rx="15.6334" stroke="white" stroke-opacity="0.4" stroke-width="0.66393"/>
</g>
<mask id="mask0_3407_835" style="mask-type:luminance" maskUnits="userSpaceOnUse" x="15" y="19" width="20" height="16">
<path d="M15.7441 19.9268H34.4191V34.1275H15.7441V19.9268Z" fill="white"/>
</mask>
<g mask="url(#mask0_3407_835)">
<path d="M25.0815 19.9268C24.4672 19.9268 23.961 20.4332 23.961 21.0478V21.5733C23.2344 21.7441 22.5998 22.0814 22.111 22.5733C21.3815 23.3105 20.973 24.3542 20.973 25.5556V28.4708C20.973 29.1569 20.598 30.0269 20.2115 30.6722L19.5418 31.678C19.4659 31.7932 19.4586 31.9407 19.5228 32.0619C19.5885 32.1831 19.7154 32.2589 19.8526 32.2589H23.2139C23.2139 33.2851 24.0558 34.1275 25.0815 34.1275C26.1071 34.1275 26.9489 33.2851 26.9489 32.2589H30.3104C30.4475 32.2589 30.5744 32.1831 30.64 32.0619C30.7042 31.9407 30.697 31.7932 30.6212 31.678L29.9544 30.6766L29.953 30.6751C29.5619 30.0226 29.1899 29.208 29.1899 28.5219V25.6068C29.1899 23.6011 27.9964 22.0478 26.2019 21.5865V21.0478C26.2019 20.4332 25.6957 19.9268 25.0815 19.9268ZM25.0815 20.6741C25.2887 20.6741 25.455 20.8405 25.455 21.0478V21.4639C25.3717 21.4565 25.2901 21.4478 25.2055 21.4449C25.1661 21.4303 25.1238 21.423 25.0815 21.4216C25.0406 21.4216 25.0012 21.4288 24.9633 21.4435C24.8757 21.4449 24.7926 21.4536 24.708 21.4594V21.0478C24.708 20.8405 24.8743 20.6741 25.0815 20.6741ZM17.044 21.2259C16.211 22.5807 15.7441 24.1936 15.7441 25.906C15.7441 27.6183 16.211 29.2314 17.044 30.586L17.6816 30.1948C16.9215 28.9584 16.4911 27.4825 16.4911 25.906C16.4911 24.3294 16.9215 22.8536 17.6816 21.6171L17.044 21.2259ZM33.1189 21.2259L32.4812 21.6171C33.2414 22.8536 33.6718 24.3294 33.6718 25.906C33.6718 27.4825 33.2414 28.9584 32.4812 30.1948L33.1189 30.586C33.9519 29.2314 34.4188 27.6183 34.4188 25.906C34.4188 24.1936 33.9519 22.5807 33.1189 21.2259ZM25.0815 22.1689C27.14 22.1689 28.4428 23.5396 28.4428 25.6068V28.5219C28.4428 29.4605 28.8923 30.3597 29.3124 31.062C29.3168 31.0663 29.3197 31.0721 29.3226 31.0765L29.6115 31.5116H20.5514L20.8403 31.0765C20.8432 31.0721 20.8461 31.0663 20.8504 31.062C21.2751 30.3539 21.72 29.4095 21.72 28.4708V25.5556C21.72 24.5222 22.0614 23.6857 22.6421 23.1003C23.2213 22.5149 24.0499 22.1689 25.0815 22.1689ZM18.6635 22.2215C17.9836 23.3207 17.6116 24.5441 17.6116 25.906C17.6116 27.2781 18.0332 28.5394 18.6606 29.586L19.301 29.2006C18.7349 28.2547 18.3585 27.1249 18.3585 25.906C18.3585 24.6768 18.6839 23.6083 19.2981 22.6142L18.6635 22.2215ZM31.4995 22.2215L30.8647 22.6142C31.4789 23.6083 31.8043 24.6768 31.8043 25.906C31.8043 27.1249 31.4279 28.2547 30.8604 29.2006L31.5024 29.586C32.1297 28.5394 32.5513 27.2781 32.5513 25.906C32.5513 24.5441 32.1793 23.3207 31.4995 22.2215ZM23.961 32.2589H26.2019C26.2019 32.8778 25.7 33.38 25.0815 33.38C24.4628 33.38 23.961 32.8778 23.961 32.2589Z" fill="#03325C"/>
</g>
<path d="M54.67 147.745V154H53.644V151.264H50.701V154H49.675V147.745H50.701V150.427H53.644V147.745H54.67ZM60.5657 151.399C60.5657 151.585 60.5537 151.753 60.5297 151.903H56.7407C56.7707 152.299 56.9177 152.617 57.1817 152.857C57.4457 153.097 57.7697 153.217 58.1537 153.217C58.7057 153.217 59.0957 152.986 59.3237 152.524H60.4307C60.2807 152.98 60.0077 153.355 59.6117 153.649C59.2217 153.937 58.7357 154.081 58.1537 154.081C57.6797 154.081 57.2537 153.976 56.8757 153.766C56.5037 153.55 56.2097 153.25 55.9937 152.866C55.7837 152.476 55.6787 152.026 55.6787 151.516C55.6787 151.006 55.7807 150.559 55.9847 150.175C56.1947 149.785 56.4857 149.485 56.8577 149.275C57.2357 149.065 57.6677 148.96 58.1537 148.96C58.6217 148.96 59.0387 149.062 59.4047 149.266C59.7707 149.47 60.0557 149.758 60.2597 150.13C60.4637 150.496 60.5657 150.919 60.5657 151.399ZM59.4947 151.075C59.4887 150.697 59.3537 150.394 59.0897 150.166C58.8257 149.938 58.4987 149.824 58.1087 149.824C57.7547 149.824 57.4517 149.938 57.1997 150.166C56.9477 150.388 56.7977 150.691 56.7497 151.075H59.4947ZM61.2334 151.498C61.2334 151 61.3354 150.559 61.5394 150.175C61.7494 149.791 62.0314 149.494 62.3854 149.284C62.7454 149.068 63.1414 148.96 63.5734 148.96C63.9634 148.96 64.3024 149.038 64.5904 149.194C64.8844 149.344 65.1184 149.533 65.2924 149.761V149.041H66.3274V154H65.2924V153.262C65.1184 153.496 64.8814 153.691 64.5814 153.847C64.2814 154.003 63.9394 154.081 63.5554 154.081C63.1294 154.081 62.7394 153.973 62.3854 153.757C62.0314 153.535 61.7494 153.229 61.5394 152.839C61.3354 152.443 61.2334 151.996 61.2334 151.498ZM65.2924 151.516C65.2924 151.174 65.2204 150.877 65.0764 150.625C64.9384 150.373 64.7554 150.181 64.5274 150.049C64.2994 149.917 64.0534 149.851 63.7894 149.851C63.5254 149.851 63.2794 149.917 63.0514 150.049C62.8234 150.175 62.6374 150.364 62.4934 150.616C62.3554 150.862 62.2864 151.156 62.2864 151.498C62.2864 151.84 62.3554 152.14 62.4934 152.398C62.6374 152.656 62.8234 152.854 63.0514 152.992C63.2854 153.124 63.5314 153.19 63.7894 153.19C64.0534 153.19 64.2994 153.124 64.5274 152.992C64.7554 152.86 64.9384 152.668 65.0764 152.416C65.2204 152.158 65.2924 151.858 65.2924 151.516ZM68.701 149.761C68.851 149.509 69.049 149.314 69.295 149.176C69.547 149.032 69.844 148.96 70.186 148.96V150.022H69.925C69.523 150.022 69.217 150.124 69.007 150.328C68.803 150.532 68.701 150.886 68.701 151.39V154H67.675V149.041H68.701V149.761ZM74.493 148.573V150.409H76.653V151.246H74.493V153.163H76.923V154H73.467V147.736H76.923V148.573H74.493ZM80.3107 151.489L81.9127 154H80.7517L79.6807 152.317L78.6727 154H77.6017L79.2037 151.561L77.6017 149.041H78.7627L79.8337 150.724L80.8417 149.041H81.9127L80.3107 151.489ZM83.7039 149.77C83.8779 149.542 84.1149 149.35 84.4149 149.194C84.7149 149.038 85.0539 148.96 85.4319 148.96C85.8639 148.96 86.2569 149.068 86.6109 149.284C86.9709 149.494 87.2529 149.791 87.4569 150.175C87.6609 150.559 87.7629 151 87.7629 151.498C87.7629 151.996 87.6609 152.443 87.4569 152.839C87.2529 153.229 86.9709 153.535 86.6109 153.757C86.2569 153.973 85.8639 154.081 85.4319 154.081C85.0539 154.081 84.7179 154.006 84.4239 153.856C84.1299 153.7 83.8899 153.508 83.7039 153.28V156.358H82.6779V149.041H83.7039V149.77ZM86.7189 151.498C86.7189 151.156 86.6469 150.862 86.5029 150.616C86.3649 150.364 86.1789 150.175 85.9449 150.049C85.7169 149.917 85.4709 149.851 85.2069 149.851C84.9489 149.851 84.7029 149.917 84.4689 150.049C84.2409 150.181 84.0549 150.373 83.9109 150.625C83.7729 150.877 83.7039 151.174 83.7039 151.516C83.7039 151.858 83.7729 152.158 83.9109 152.416C84.0549 152.668 84.2409 152.86 84.4689 152.992C84.7029 153.124 84.9489 153.19 85.2069 153.19C85.4709 153.19 85.7169 153.124 85.9449 152.992C86.1789 152.854 86.3649 152.656 86.5029 152.398C86.6469 152.14 86.7189 151.84 86.7189 151.498ZM93.3225 151.399C93.3225 151.585 93.3105 151.753 93.2865 151.903H89.4975C89.5275 152.299 89.6745 152.617 89.9385 152.857C90.2025 153.097 90.5265 153.217 90.9105 153.217C91.4625 153.217 91.8525 152.986 92.0805 152.524H93.1875C93.0375 152.98 92.7645 153.355 92.3685 153.649C91.9785 153.937 91.4925 154.081 90.9105 154.081C90.4365 154.081 90.0105 153.976 89.6325 153.766C89.2605 153.55 88.9665 153.25 88.7505 152.866C88.5405 152.476 88.4355 152.026 88.4355 151.516C88.4355 151.006 88.5375 150.559 88.7415 150.175C88.9515 149.785 89.2425 149.485 89.6145 149.275C89.9925 149.065 90.4245 148.96 90.9105 148.96C91.3785 148.96 91.7955 149.062 92.1615 149.266C92.5275 149.47 92.8125 149.758 93.0165 150.13C93.2205 150.496 93.3225 150.919 93.3225 151.399ZM92.2515 151.075C92.2455 150.697 92.1105 150.394 91.8465 150.166C91.5825 149.938 91.2555 149.824 90.8655 149.824C90.5115 149.824 90.2085 149.938 89.9565 150.166C89.7045 150.388 89.5545 150.691 89.5065 151.075H92.2515ZM95.3582 149.761C95.5082 149.509 95.7062 149.314 95.9522 149.176C96.2042 149.032 96.5012 148.96 96.8432 148.96V150.022H96.5822C96.1802 150.022 95.8742 150.124 95.6642 150.328C95.4602 150.532 95.3582 150.886 95.3582 151.39V154H94.3322V149.041H95.3582V149.761ZM98.9833 149.878V152.623C98.9833 152.809 99.0253 152.944 99.1093 153.028C99.1993 153.106 99.3493 153.145 99.5593 153.145H100.189V154H99.3793C98.9173 154 98.5633 153.892 98.3173 153.676C98.0713 153.46 97.9483 153.109 97.9483 152.623V149.878H97.3633V149.041H97.9483V147.808H98.9833V149.041H100.189V149.878H98.9833ZM108.864 147.745L106.515 154H105.327L102.969 147.745H104.067L105.921 152.947L107.784 147.745H108.864ZM111.873 154.081C111.405 154.081 110.982 153.976 110.604 153.766C110.226 153.55 109.929 153.25 109.713 152.866C109.497 152.476 109.389 152.026 109.389 151.516C109.389 151.012 109.5 150.565 109.722 150.175C109.944 149.785 110.247 149.485 110.631 149.275C111.015 149.065 111.444 148.96 111.918 148.96C112.392 148.96 112.821 149.065 113.205 149.275C113.589 149.485 113.892 149.785 114.114 150.175C114.336 150.565 114.447 151.012 114.447 151.516C114.447 152.02 114.333 152.467 114.105 152.857C113.877 153.247 113.565 153.55 113.169 153.766C112.779 153.976 112.347 154.081 111.873 154.081ZM111.873 153.19C112.137 153.19 112.383 153.127 112.611 153.001C112.845 152.875 113.034 152.686 113.178 152.434C113.322 152.182 113.394 151.876 113.394 151.516C113.394 151.156 113.325 150.853 113.187 150.607C113.049 150.355 112.866 150.166 112.638 150.04C112.41 149.914 112.164 149.851 111.9 149.851C111.636 149.851 111.39 149.914 111.162 150.04C110.94 150.166 110.763 150.355 110.631 150.607C110.499 150.853 110.433 151.156 110.433 151.516C110.433 152.05 110.568 152.464 110.838 152.758C111.114 153.046 111.459 153.19 111.873 153.19ZM115.983 148.384C115.797 148.384 115.641 148.321 115.515 148.195C115.389 148.069 115.326 147.913 115.326 147.727C115.326 147.541 115.389 147.385 115.515 147.259C115.641 147.133 115.797 147.07 115.983 147.07C116.163 147.07 116.316 147.133 116.442 147.259C116.568 147.385 116.631 147.541 116.631 147.727C116.631 147.913 116.568 148.069 116.442 148.195C116.316 148.321 116.163 148.384 115.983 148.384ZM116.487 149.041V154H115.461V149.041H116.487ZM117.492 151.516C117.492 151.006 117.594 150.559 117.798 150.175C118.008 149.785 118.296 149.485 118.662 149.275C119.028 149.065 119.448 148.96 119.922 148.96C120.522 148.96 121.017 149.104 121.407 149.392C121.803 149.674 122.07 150.079 122.208 150.607H121.101C121.011 150.361 120.867 150.169 120.669 150.031C120.471 149.893 120.222 149.824 119.922 149.824C119.502 149.824 119.166 149.974 118.914 150.274C118.668 150.568 118.545 150.982 118.545 151.516C118.545 152.05 118.668 152.467 118.914 152.767C119.166 153.067 119.502 153.217 119.922 153.217C120.516 153.217 120.909 152.956 121.101 152.434H122.208C122.064 152.938 121.794 153.34 121.398 153.64C121.002 153.934 120.51 154.081 119.922 154.081C119.448 154.081 119.028 153.976 118.662 153.766C118.296 153.55 118.008 153.25 117.798 152.866C117.594 152.476 117.492 152.026 117.492 151.516ZM127.776 151.399C127.776 151.585 127.764 151.753 127.74 151.903H123.951C123.981 152.299 124.128 152.617 124.392 152.857C124.656 153.097 124.98 153.217 125.364 153.217C125.916 153.217 126.306 152.986 126.534 152.524H127.641C127.491 152.98 127.218 153.355 126.822 153.649C126.432 153.937 125.946 154.081 125.364 154.081C124.89 154.081 124.464 153.976 124.086 153.766C123.714 153.55 123.42 153.25 123.204 152.866C122.994 152.476 122.889 152.026 122.889 151.516C122.889 151.006 122.991 150.559 123.195 150.175C123.405 149.785 123.696 149.485 124.068 149.275C124.446 149.065 124.878 148.96 125.364 148.96C125.832 148.96 126.249 149.062 126.615 149.266C126.981 149.47 127.266 149.758 127.47 150.13C127.674 150.496 127.776 150.919 127.776 151.399ZM126.705 151.075C126.699 150.697 126.564 150.394 126.3 150.166C126.036 149.938 125.709 149.824 125.319 149.824C124.965 149.824 124.662 149.938 124.41 150.166C124.158 150.388 124.008 150.691 123.96 151.075H126.705ZM130.585 154.081C130.195 154.081 129.844 154.012 129.532 153.874C129.226 153.73 128.983 153.538 128.803 153.298C128.623 153.052 128.527 152.779 128.515 152.479H129.577C129.595 152.689 129.694 152.866 129.874 153.01C130.06 153.148 130.291 153.217 130.567 153.217C130.855 153.217 131.077 153.163 131.233 153.055C131.395 152.941 131.476 152.797 131.476 152.623C131.476 152.437 131.386 152.299 131.206 152.209C131.032 152.119 130.753 152.02 130.369 151.912C129.997 151.81 129.694 151.711 129.46 151.615C129.226 151.519 129.022 151.372 128.848 151.174C128.68 150.976 128.596 150.715 128.596 150.391C128.596 150.127 128.674 149.887 128.83 149.671C128.986 149.449 129.208 149.275 129.496 149.149C129.79 149.023 130.126 148.96 130.504 148.96C131.068 148.96 131.521 149.104 131.863 149.392C132.211 149.674 132.397 150.061 132.421 150.553H131.395C131.377 150.331 131.287 150.154 131.125 150.022C130.963 149.89 130.744 149.824 130.468 149.824C130.198 149.824 129.991 149.875 129.847 149.977C129.703 150.079 129.631 150.214 129.631 150.382C129.631 150.514 129.679 150.625 129.775 150.715C129.871 150.805 129.988 150.877 130.126 150.931C130.264 150.979 130.468 151.042 130.738 151.12C131.098 151.216 131.392 151.315 131.62 151.417C131.854 151.513 132.055 151.657 132.223 151.849C132.391 152.041 132.478 152.296 132.484 152.614C132.484 152.896 132.406 153.148 132.25 153.37C132.094 153.592 131.872 153.766 131.584 153.892C131.302 154.018 130.969 154.081 130.585 154.081Z" fill="#03325C"/>
<g filter="url(#filter1_dd_3407_835)">
<rect x="10.1426" y="135" width="28.7008" height="29.2527" rx="14.3504" fill="#EAECF0"/>
<rect x="10.1426" y="135" width="28.7008" height="29.2527" rx="14.3504" fill="url(#paint1_linear_3407_835)" fill-opacity="0.5" style="mix-blend-mode:soft-light"/>
<rect x="9.83124" y="134.689" width="29.3235" height="29.8754" rx="14.6617" stroke="white" stroke-opacity="0.4" stroke-width="0.622667"/>
</g>
<mask id="mask1_3407_835" style="mask-type:luminance" maskUnits="userSpaceOnUse" x="16" y="140" width="17" height="18">
<path d="M16.5742 140.188H16.5114V140.25V157.422V157.485H16.5742H32.2152H32.278V157.422V140.25V140.188H32.2152H16.5742Z" fill="white" stroke="white" stroke-width="0.125648"/>
</mask>
<g mask="url(#mask1_3407_835)">
<path d="M25.3167 140.216L25.3165 140.216C22.1012 140.155 20.2873 141.111 19.2741 142.309C18.2631 143.505 18.0595 144.93 18.0405 145.787L18.0405 145.787C18.0345 146.059 18.0112 146.46 17.9692 146.854C17.927 147.25 17.8666 147.634 17.7876 147.879L16.5592 151.15L16.5592 151.15C16.5188 151.258 16.5337 151.378 16.599 151.473L16.599 151.473L16.5992 151.473C16.6647 151.567 16.7721 151.623 16.8869 151.623H18.5173V154.082C18.5173 154.965 19.2358 155.684 20.1189 155.684H21.8754V157.099C21.8754 157.292 22.0321 157.449 22.2255 157.449C22.4192 157.449 22.5755 157.292 22.5755 157.099V155.333C22.5755 155.14 22.4191 154.983 22.2255 154.983H20.1189C19.6219 154.983 19.2175 154.579 19.2175 154.082V151.273C19.2175 151.08 19.0608 150.923 18.8673 150.923H17.3921L18.448 148.112L18.448 148.112L18.4489 148.109C18.6392 147.521 18.7271 146.406 18.7406 145.803V145.803C18.7574 145.046 18.947 143.793 19.8531 142.747C20.7573 141.703 22.3849 140.852 25.3015 140.917L25.3016 140.917C27.7918 140.969 29.5627 141.842 30.5822 143.502C31.3628 144.773 31.6046 146.35 31.5677 147.785C31.5308 149.22 31.2153 150.502 30.8908 151.177C30.1398 152.739 29.2581 153.627 28.6531 154.096C28.0034 154.6 27.6293 155.345 27.6293 156.14V157.134C27.6293 157.328 27.7859 157.484 27.9795 157.484C28.1729 157.484 28.3295 157.328 28.3295 157.134V156.14C28.3295 155.565 28.603 155.021 29.0825 154.649C29.7506 154.131 30.7135 153.162 31.5218 151.481C31.8789 150.738 32.2183 149.347 32.257 147.797C32.2958 146.246 32.0339 144.528 31.1787 143.136L31.1277 143.167L31.1787 143.136C30.0221 141.253 28.0447 140.274 25.3167 140.216Z" fill="#03325C" stroke="black" stroke-width="0.125648"/>
</g>
<path d="M26.4216 149.6H25.4107V148.503C25.7758 148.362 26.0376 148.011 26.0376 147.595C26.0376 147.056 25.5995 146.618 25.0607 146.618C24.5216 146.618 24.0834 147.056 24.0834 147.595C24.0834 148.011 24.3454 148.362 24.7107 148.503V149.6H23.7988C23.1807 149.169 22.815 148.474 22.815 147.719C22.815 146.454 23.8448 145.425 25.1103 145.425C26.3758 145.425 27.4052 146.454 27.4052 147.719C27.4052 148.474 27.0395 149.169 26.4216 149.6ZM25.0607 147.872C24.9079 147.872 24.7835 147.748 24.7835 147.595C24.7835 147.443 24.9079 147.318 25.0607 147.318C25.2133 147.318 25.3375 147.442 25.3375 147.595C25.3375 147.748 25.2133 147.872 25.0607 147.872ZM26.1779 151.358H24.0399V150.3H26.1779V151.358ZM28.1055 147.719C28.1055 146.068 26.762 144.725 25.1103 144.725C23.4587 144.725 22.1149 146.068 22.1149 147.719C22.1149 148.679 22.5719 149.561 23.3396 150.125V151.708C23.3396 151.901 23.4963 152.058 23.6896 152.058H26.5282C26.7215 152.058 26.8782 151.901 26.8782 151.708V150.127C27.6474 149.563 28.1055 148.68 28.1055 147.719Z" fill="#03325C" stroke="black" stroke-width="0.125648"/>
<path d="M27.9455 145.078L27.9011 145.122C27.9695 145.191 28.0593 145.225 28.1487 145.225C28.2381 145.225 28.3277 145.191 28.3962 145.122C28.3962 145.122 28.3962 145.122 28.3962 145.122L29.1258 144.393L29.1258 144.393C29.2625 144.256 29.2625 144.035 29.1258 143.898C28.9891 143.761 28.7675 143.761 28.6307 143.898C28.6307 143.898 28.6307 143.898 28.6307 143.898L27.9011 144.627L27.9011 144.627C27.7643 144.764 27.7643 144.986 27.9011 145.122L27.9455 145.078ZM27.9455 145.078C27.8333 144.966 27.8333 144.784 27.9455 144.672L28.3518 145.078C28.2956 145.134 28.2222 145.162 28.1487 145.162C28.0751 145.162 28.0016 145.134 27.9455 145.078Z" fill="#03325C" stroke="black" stroke-width="0.125648"/>
<path d="M29.0313 147.951H30.4555C30.6492 147.951 30.8056 147.795 30.8056 147.601C30.8056 147.408 30.6492 147.251 30.4555 147.251H29.0313C28.838 147.251 28.6813 147.408 28.6813 147.601C28.6813 147.795 28.838 147.951 29.0313 147.951Z" fill="#03325C" stroke="black" stroke-width="0.125648"/>
<path d="M28.7525 150.806L28.7525 150.806C28.8892 150.943 28.8892 151.164 28.7526 151.301L28.7525 150.806ZM28.7525 150.806L28.0232 150.077M28.7525 150.806L28.0232 150.077M28.0232 150.077C27.8864 149.94 27.6649 149.94 27.5281 150.077M28.0232 150.077L27.5281 150.077M27.5281 150.077C27.3913 150.213 27.3912 150.435 27.5281 150.572L27.5281 150.077ZM27.5281 150.077C27.5281 150.077 27.5281 150.077 27.5281 150.077L27.5725 150.121L27.5281 150.077Z" fill="#03325C" stroke="black" stroke-width="0.125648"/>
<path d="M22.5868 145.122C22.7236 144.986 22.7235 144.764 22.5867 144.627L22.5867 144.627L22.0917 145.122L22.1362 145.078L22.0918 145.122L22.0917 145.122C22.1601 145.191 22.2498 145.225 22.3392 145.225C22.4287 145.225 22.5183 145.191 22.5868 145.122ZM22.5868 145.122C22.5867 145.122 22.5867 145.122 22.5867 145.122L22.5423 145.078L22.5868 145.122C22.5868 145.122 22.5868 145.122 22.5868 145.122ZM21.3621 144.393L21.4064 144.349L21.3621 144.393C21.3621 144.393 21.3621 144.393 21.3621 144.393ZM21.8571 143.898L21.8128 143.943L21.8571 143.898C21.8571 143.898 21.8571 143.898 21.8571 143.898Z" fill="#03325C" stroke="black" stroke-width="0.125648"/>
<path d="M21.0921 147.251H19.6682C19.4746 147.251 19.318 147.408 19.318 147.601C19.318 147.795 19.4746 147.951 19.6682 147.951H21.0921C21.2856 147.951 21.4421 147.795 21.4421 147.601C21.4421 147.408 21.2856 147.251 21.0921 147.251Z" fill="#03325C" stroke="black" stroke-width="0.125648"/>
<path d="M21.3696 150.806L21.3697 150.806L22.0994 150.077C22.0994 150.077 22.0994 150.077 22.0994 150.077C22.2362 149.94 22.4576 149.94 22.5944 150.077C22.5945 150.077 22.5945 150.077 22.5945 150.077L22.5501 150.121C22.6623 150.233 22.6623 150.415 22.5501 150.527L21.8204 151.257C21.7643 151.313 21.6908 151.341 21.6173 151.341C21.5438 151.341 21.4703 151.313 21.4141 151.257C21.3021 151.145 21.3021 150.963 21.4141 150.851L21.3696 150.806ZM21.3696 150.806C21.2331 150.943 21.2331 151.165 21.3697 151.301L21.3697 151.301M21.3696 150.806L21.3697 151.301M21.3697 151.301C21.4381 151.37 21.5279 151.404 21.6173 151.404M21.3697 151.301L21.6173 151.404M21.6173 151.404C21.7067 151.404 21.7964 151.37 21.8648 151.301L21.6173 151.404ZM21.8648 151.301L22.5944 150.572L21.8648 151.301Z" fill="#03325C" stroke="black" stroke-width="0.125648"/>
<path d="M25.4126 143.619V142.195C25.4126 142.001 25.256 141.845 25.0626 141.845C24.8691 141.845 24.7126 142.001 24.7126 142.195V143.619C24.7126 143.812 24.8691 143.969 25.0626 143.969C25.256 143.969 25.4126 143.812 25.4126 143.619Z" fill="#03325C" stroke="black" stroke-width="0.125648"/>
<path d="M52.4929 91.7684H49.8739L49.4239 93.0464H48.3529L50.5939 86.7824H51.7819L54.0229 93.0464H52.9429L52.4929 91.7684ZM52.2049 90.9314L51.1879 88.0244L50.1619 90.9314H52.2049ZM54.6553 90.5624C54.6553 90.0524 54.7573 89.6054 54.9613 89.2214C55.1713 88.8314 55.4593 88.5314 55.8253 88.3214C56.1913 88.1114 56.6113 88.0064 57.0853 88.0064C57.6853 88.0064 58.1803 88.1504 58.5703 88.4384C58.9663 88.7204 59.2333 89.1254 59.3713 89.6534H58.2643C58.1743 89.4074 58.0303 89.2154 57.8323 89.0774C57.6343 88.9394 57.3853 88.8704 57.0853 88.8704C56.6653 88.8704 56.3293 89.0204 56.0773 89.3204C55.8313 89.6144 55.7083 90.0284 55.7083 90.5624C55.7083 91.0964 55.8313 91.5134 56.0773 91.8134C56.3293 92.1134 56.6653 92.2634 57.0853 92.2634C57.6793 92.2634 58.0723 92.0024 58.2643 91.4804H59.3713C59.2273 91.9844 58.9573 92.3864 58.5613 92.6864C58.1653 92.9804 57.6733 93.1274 57.0853 93.1274C56.6113 93.1274 56.1913 93.0224 55.8253 92.8124C55.4593 92.5964 55.1713 92.2964 54.9613 91.9124C54.7573 91.5224 54.6553 91.0724 54.6553 90.5624ZM60.0518 90.5624C60.0518 90.0524 60.1538 89.6054 60.3578 89.2214C60.5678 88.8314 60.8558 88.5314 61.2218 88.3214C61.5878 88.1114 62.0078 88.0064 62.4818 88.0064C63.0818 88.0064 63.5768 88.1504 63.9668 88.4384C64.3628 88.7204 64.6298 89.1254 64.7678 89.6534H63.6608C63.5708 89.4074 63.4268 89.2154 63.2288 89.0774C63.0308 88.9394 62.7818 88.8704 62.4818 88.8704C62.0618 88.8704 61.7258 89.0204 61.4738 89.3204C61.2278 89.6144 61.1048 90.0284 61.1048 90.5624C61.1048 91.0964 61.2278 91.5134 61.4738 91.8134C61.7258 92.1134 62.0618 92.2634 62.4818 92.2634C63.0758 92.2634 63.4688 92.0024 63.6608 91.4804H64.7678C64.6238 91.9844 64.3538 92.3864 63.9578 92.6864C63.5618 92.9804 63.0698 93.1274 62.4818 93.1274C62.0078 93.1274 61.5878 93.0224 61.2218 92.8124C60.8558 92.5964 60.5678 92.2964 60.3578 91.9124C60.1538 91.5224 60.0518 91.0724 60.0518 90.5624ZM70.3352 90.4454C70.3352 90.6314 70.3232 90.7994 70.2992 90.9494H66.5102C66.5402 91.3454 66.6872 91.6634 66.9512 91.9034C67.2152 92.1434 67.5392 92.2634 67.9232 92.2634C68.4752 92.2634 68.8652 92.0324 69.0932 91.5704H70.2002C70.0502 92.0264 69.7772 92.4014 69.3812 92.6954C68.9912 92.9834 68.5052 93.1274 67.9232 93.1274C67.4492 93.1274 67.0232 93.0224 66.6452 92.8124C66.2732 92.5964 65.9792 92.2964 65.7632 91.9124C65.5532 91.5224 65.4482 91.0724 65.4482 90.5624C65.4482 90.0524 65.5502 89.6054 65.7542 89.2214C65.9642 88.8314 66.2552 88.5314 66.6272 88.3214C67.0052 88.1114 67.4372 88.0064 67.9232 88.0064C68.3912 88.0064 68.8082 88.1084 69.1742 88.3124C69.5402 88.5164 69.8252 88.8044 70.0292 89.1764C70.2332 89.5424 70.3352 89.9654 70.3352 90.4454ZM69.2642 90.1214C69.2582 89.7434 69.1232 89.4404 68.8592 89.2124C68.5952 88.9844 68.2682 88.8704 67.8782 88.8704C67.5242 88.8704 67.2212 88.9844 66.9692 89.2124C66.7172 89.4344 66.5672 89.7374 66.5192 90.1214H69.2642ZM73.1449 93.1274C72.7549 93.1274 72.4039 93.0584 72.0919 92.9204C71.7859 92.7764 71.5429 92.5844 71.3629 92.3444C71.1829 92.0984 71.0869 91.8254 71.0749 91.5254H72.1369C72.1549 91.7354 72.2539 91.9124 72.4339 92.0564C72.6199 92.1944 72.8509 92.2634 73.1269 92.2634C73.4149 92.2634 73.6369 92.2094 73.7929 92.1014C73.9549 91.9874 74.0359 91.8434 74.0359 91.6694C74.0359 91.4834 73.9459 91.3454 73.7659 91.2554C73.5919 91.1654 73.3129 91.0664 72.9289 90.9584C72.5569 90.8564 72.2539 90.7574 72.0199 90.6614C71.7859 90.5654 71.5819 90.4184 71.4079 90.2204C71.2399 90.0224 71.1559 89.7614 71.1559 89.4374C71.1559 89.1734 71.2339 88.9334 71.3899 88.7174C71.5459 88.4954 71.7679 88.3214 72.0559 88.1954C72.3499 88.0694 72.6859 88.0064 73.0639 88.0064C73.6279 88.0064 74.0809 88.1504 74.4229 88.4384C74.7709 88.7204 74.9569 89.1074 74.9809 89.5994H73.9549C73.9369 89.3774 73.8469 89.2004 73.6849 89.0684C73.5229 88.9364 73.3039 88.8704 73.0279 88.8704C72.7579 88.8704 72.5509 88.9214 72.4069 89.0234C72.2629 89.1254 72.1909 89.2604 72.1909 89.4284C72.1909 89.5604 72.2389 89.6714 72.3349 89.7614C72.4309 89.8514 72.5479 89.9234 72.6859 89.9774C72.8239 90.0254 73.0279 90.0884 73.2979 90.1664C73.6579 90.2624 73.9519 90.3614 74.1799 90.4634C74.4139 90.5594 74.6149 90.7034 74.7829 90.8954C74.9509 91.0874 75.0379 91.3424 75.0439 91.6604C75.0439 91.9424 74.9659 92.1944 74.8099 92.4164C74.6539 92.6384 74.4319 92.8124 74.1439 92.9384C73.8619 93.0644 73.5289 93.1274 73.1449 93.1274ZM77.9525 93.1274C77.5625 93.1274 77.2115 93.0584 76.8995 92.9204C76.5935 92.7764 76.3505 92.5844 76.1705 92.3444C75.9905 92.0984 75.8945 91.8254 75.8825 91.5254H76.9445C76.9625 91.7354 77.0615 91.9124 77.2415 92.0564C77.4275 92.1944 77.6585 92.2634 77.9345 92.2634C78.2225 92.2634 78.4445 92.2094 78.6005 92.1014C78.7625 91.9874 78.8435 91.8434 78.8435 91.6694C78.8435 91.4834 78.7535 91.3454 78.5735 91.2554C78.3995 91.1654 78.1205 91.0664 77.7365 90.9584C77.3645 90.8564 77.0615 90.7574 76.8275 90.6614C76.5935 90.5654 76.3895 90.4184 76.2155 90.2204C76.0475 90.0224 75.9635 89.7614 75.9635 89.4374C75.9635 89.1734 76.0415 88.9334 76.1975 88.7174C76.3535 88.4954 76.5755 88.3214 76.8635 88.1954C77.1575 88.0694 77.4935 88.0064 77.8715 88.0064C78.4355 88.0064 78.8885 88.1504 79.2305 88.4384C79.5785 88.7204 79.7645 89.1074 79.7885 89.5994H78.7625C78.7445 89.3774 78.6545 89.2004 78.4925 89.0684C78.3305 88.9364 78.1115 88.8704 77.8355 88.8704C77.5655 88.8704 77.3585 88.9214 77.2145 89.0234C77.0705 89.1254 76.9985 89.2604 76.9985 89.4284C76.9985 89.5604 77.0465 89.6714 77.1425 89.7614C77.2385 89.8514 77.3555 89.9234 77.4935 89.9774C77.6315 90.0254 77.8355 90.0884 78.1055 90.1664C78.4655 90.2624 78.7595 90.3614 78.9875 90.4634C79.2215 90.5594 79.4225 90.7034 79.5905 90.8954C79.7585 91.0874 79.8455 91.3424 79.8515 91.6604C79.8515 91.9424 79.7735 92.1944 79.6175 92.4164C79.4615 92.6384 79.2395 92.8124 78.9515 92.9384C78.6695 93.0644 78.3365 93.1274 77.9525 93.1274ZM89.886 86.7914V93.0464H88.86V88.7624L86.952 93.0464H86.241L84.324 88.7624V93.0464H83.298V86.7914H84.405L86.601 91.6964L88.788 86.7914H89.886ZM93.2956 93.1094C92.8756 93.1094 92.4976 93.0374 92.1616 92.8934C91.8256 92.7434 91.5616 92.5334 91.3696 92.2634C91.1776 91.9934 91.0816 91.6784 91.0816 91.3184H92.1796C92.2036 91.5884 92.3086 91.8104 92.4946 91.9844C92.6866 92.1584 92.9536 92.2454 93.2956 92.2454C93.6496 92.2454 93.9256 92.1614 94.1236 91.9934C94.3216 91.8194 94.4206 91.5974 94.4206 91.3274C94.4206 91.1174 94.3576 90.9464 94.2316 90.8144C94.1116 90.6824 93.9586 90.5804 93.7726 90.5084C93.5926 90.4364 93.3406 90.3584 93.0166 90.2744C92.6086 90.1664 92.2756 90.0584 92.0176 89.9504C91.7656 89.8364 91.5496 89.6624 91.3696 89.4284C91.1896 89.1944 91.0996 88.8824 91.0996 88.4924C91.0996 88.1324 91.1896 87.8174 91.3696 87.5474C91.5496 87.2774 91.8016 87.0704 92.1256 86.9264C92.4496 86.7824 92.8246 86.7104 93.2506 86.7104C93.8566 86.7104 94.3516 86.8634 94.7356 87.1694C95.1256 87.4694 95.3416 87.8834 95.3836 88.4114H94.2496C94.2316 88.1834 94.1236 87.9884 93.9256 87.8264C93.7276 87.6644 93.4666 87.5834 93.1426 87.5834C92.8486 87.5834 92.6086 87.6584 92.4226 87.8084C92.2366 87.9584 92.1436 88.1744 92.1436 88.4564C92.1436 88.6484 92.2006 88.8074 92.3146 88.9334C92.4346 89.0534 92.5846 89.1494 92.7646 89.2214C92.9446 89.2934 93.1906 89.3714 93.5026 89.4554C93.9166 89.5694 94.2526 89.6834 94.5106 89.7974C94.7746 89.9114 94.9966 90.0884 95.1766 90.3284C95.3626 90.5624 95.4556 90.8774 95.4556 91.2734C95.4556 91.5914 95.3686 91.8914 95.1946 92.1734C95.0266 92.4554 94.7776 92.6834 94.4476 92.8574C94.1236 93.0254 93.7396 93.1094 93.2956 93.1094ZM103.254 86.7914V93.0464H102.228V88.7624L100.32 93.0464H99.6092L97.6922 88.7624V93.0464H96.6662V86.7914H97.7732L99.9692 91.6964L102.156 86.7914H103.254ZM105.629 87.6194V89.4554H107.789V90.2924H105.629V92.2094H108.059V93.0464H104.603V86.7824H108.059V87.6194H105.629ZM112.686 86.7914V93.0464H111.66V86.7914H112.686ZM116.535 88.0064C116.925 88.0064 117.273 88.0874 117.579 88.2494C117.891 88.4114 118.134 88.6514 118.308 88.9694C118.482 89.2874 118.569 89.6714 118.569 90.1214V93.0464H117.552V90.2744C117.552 89.8304 117.441 89.4914 117.219 89.2574C116.997 89.0174 116.694 88.8974 116.31 88.8974C115.926 88.8974 115.62 89.0174 115.392 89.2574C115.17 89.4914 115.059 89.8304 115.059 90.2744V93.0464H114.033V88.0874H115.059V88.6544C115.227 88.4504 115.44 88.2914 115.698 88.1774C115.962 88.0634 116.241 88.0064 116.535 88.0064ZM121.678 93.1274C121.288 93.1274 120.937 93.0584 120.625 92.9204C120.319 92.7764 120.076 92.5844 119.896 92.3444C119.716 92.0984 119.62 91.8254 119.608 91.5254H120.67C120.688 91.7354 120.787 91.9124 120.967 92.0564C121.153 92.1944 121.384 92.2634 121.66 92.2634C121.948 92.2634 122.17 92.2094 122.326 92.1014C122.488 91.9874 122.569 91.8434 122.569 91.6694C122.569 91.4834 122.479 91.3454 122.299 91.2554C122.125 91.1654 121.846 91.0664 121.462 90.9584C121.09 90.8564 120.787 90.7574 120.553 90.6614C120.319 90.5654 120.115 90.4184 119.941 90.2204C119.773 90.0224 119.689 89.7614 119.689 89.4374C119.689 89.1734 119.767 88.9334 119.923 88.7174C120.079 88.4954 120.301 88.3214 120.589 88.1954C120.883 88.0694 121.219 88.0064 121.597 88.0064C122.161 88.0064 122.614 88.1504 122.956 88.4384C123.304 88.7204 123.49 89.1074 123.514 89.5994H122.488C122.47 89.3774 122.38 89.2004 122.218 89.0684C122.056 88.9364 121.837 88.8704 121.561 88.8704C121.291 88.8704 121.084 88.9214 120.94 89.0234C120.796 89.1254 120.724 89.2604 120.724 89.4284C120.724 89.5604 120.772 89.6714 120.868 89.7614C120.964 89.8514 121.081 89.9234 121.219 89.9774C121.357 90.0254 121.561 90.0884 121.831 90.1664C122.191 90.2624 122.485 90.3614 122.713 90.4634C122.947 90.5594 123.148 90.7034 123.316 90.8954C123.484 91.0874 123.571 91.3424 123.577 91.6604C123.577 91.9424 123.499 92.1944 123.343 92.4164C123.187 92.6384 122.965 92.8124 122.677 92.9384C122.395 93.0644 122.062 93.1274 121.678 93.1274ZM125.208 87.4304C125.022 87.4304 124.866 87.3674 124.74 87.2414C124.614 87.1154 124.551 86.9594 124.551 86.7734C124.551 86.5874 124.614 86.4314 124.74 86.3054C124.866 86.1794 125.022 86.1164 125.208 86.1164C125.388 86.1164 125.541 86.1794 125.667 86.3054C125.793 86.4314 125.856 86.5874 125.856 86.7734C125.856 86.9594 125.793 87.1154 125.667 87.2414C125.541 87.3674 125.388 87.4304 125.208 87.4304ZM125.712 88.0874V93.0464H124.686V88.0874H125.712ZM129.057 88.0064C129.441 88.0064 129.78 88.0844 130.074 88.2404C130.374 88.3904 130.608 88.5794 130.776 88.8074V88.0874H131.811V93.1274C131.811 93.5834 131.715 93.9884 131.523 94.3424C131.331 94.7024 131.052 94.9844 130.686 95.1884C130.326 95.3924 129.894 95.4944 129.39 95.4944C128.718 95.4944 128.16 95.3354 127.716 95.0174C127.272 94.7054 127.02 94.2794 126.96 93.7394H127.977C128.055 93.9974 128.22 94.2044 128.472 94.3604C128.73 94.5224 129.036 94.6034 129.39 94.6034C129.804 94.6034 130.137 94.4774 130.389 94.2254C130.647 93.9734 130.776 93.6074 130.776 93.1274V92.2994C130.602 92.5334 130.365 92.7314 130.065 92.8934C129.771 93.0494 129.435 93.1274 129.057 93.1274C128.625 93.1274 128.229 93.0194 127.869 92.8034C127.515 92.5814 127.233 92.2754 127.023 91.8854C126.819 91.4894 126.717 91.0424 126.717 90.5444C126.717 90.0464 126.819 89.6054 127.023 89.2214C127.233 88.8374 127.515 88.5404 127.869 88.3304C128.229 88.1144 128.625 88.0064 129.057 88.0064ZM130.776 90.5624C130.776 90.2204 130.704 89.9234 130.56 89.6714C130.422 89.4194 130.239 89.2274 130.011 89.0954C129.783 88.9634 129.537 88.8974 129.273 88.8974C129.009 88.8974 128.763 88.9634 128.535 89.0954C128.307 89.2214 128.121 89.4104 127.977 89.6624C127.839 89.9084 127.77 90.2024 127.77 90.5444C127.77 90.8864 127.839 91.1864 127.977 91.4444C128.121 91.7024 128.307 91.9004 128.535 92.0384C128.769 92.1704 129.015 92.2364 129.273 92.2364C129.537 92.2364 129.783 92.1704 130.011 92.0384C130.239 91.9064 130.422 91.7144 130.56 91.4624C130.704 91.2044 130.776 90.9044 130.776 90.5624ZM135.723 88.0064C136.101 88.0064 136.437 88.0874 136.731 88.2494C137.031 88.4114 137.265 88.6514 137.433 88.9694C137.607 89.2874 137.694 89.6714 137.694 90.1214V93.0464H136.677V90.2744C136.677 89.8304 136.566 89.4914 136.344 89.2574C136.122 89.0174 135.819 88.8974 135.435 88.8974C135.051 88.8974 134.745 89.0174 134.517 89.2574C134.295 89.4914 134.184 89.8304 134.184 90.2744V93.0464H133.158V86.3864H134.184V88.6634C134.358 88.4534 134.577 88.2914 134.841 88.1774C135.111 88.0634 135.405 88.0064 135.723 88.0064ZM140.2 88.9244V91.6694C140.2 91.8554 140.242 91.9904 140.326 92.0744C140.416 92.1524 140.566 92.1914 140.776 92.1914H141.406V93.0464H140.596C140.134 93.0464 139.78 92.9384 139.534 92.7224C139.288 92.5064 139.165 92.1554 139.165 91.6694V88.9244H138.58V88.0874H139.165V86.8544H140.2V88.0874H141.406V88.9244H140.2ZM144.152 93.1274C143.762 93.1274 143.411 93.0584 143.099 92.9204C142.793 92.7764 142.55 92.5844 142.37 92.3444C142.19 92.0984 142.094 91.8254 142.082 91.5254H143.144C143.162 91.7354 143.261 91.9124 143.441 92.0564C143.627 92.1944 143.858 92.2634 144.134 92.2634C144.422 92.2634 144.644 92.2094 144.8 92.1014C144.962 91.9874 145.043 91.8434 145.043 91.6694C145.043 91.4834 144.953 91.3454 144.773 91.2554C144.599 91.1654 144.32 91.0664 143.936 90.9584C143.564 90.8564 143.261 90.7574 143.027 90.6614C142.793 90.5654 142.589 90.4184 142.415 90.2204C142.247 90.0224 142.163 89.7614 142.163 89.4374C142.163 89.1734 142.241 88.9334 142.397 88.7174C142.553 88.4954 142.775 88.3214 143.063 88.1954C143.357 88.0694 143.693 88.0064 144.071 88.0064C144.635 88.0064 145.088 88.1504 145.43 88.4384C145.778 88.7204 145.964 89.1074 145.988 89.5994H144.962C144.944 89.3774 144.854 89.2004 144.692 89.0684C144.53 88.9364 144.311 88.8704 144.035 88.8704C143.765 88.8704 143.558 88.9214 143.414 89.0234C143.27 89.1254 143.198 89.2604 143.198 89.4284C143.198 89.5604 143.246 89.6714 143.342 89.7614C143.438 89.8514 143.555 89.9234 143.693 89.9774C143.831 90.0254 144.035 90.0884 144.305 90.1664C144.665 90.2624 144.959 90.3614 145.187 90.4634C145.421 90.5594 145.622 90.7034 145.79 90.8954C145.958 91.0874 146.045 91.3424 146.051 91.6604C146.051 91.9424 145.973 92.1944 145.817 92.4164C145.661 92.6384 145.439 92.8124 145.151 92.9384C144.869 93.0644 144.536 93.1274 144.152 93.1274Z" fill="#03325C"/>
<g filter="url(#filter2_dd_3407_835)">
<rect x="10.1445" y="75" width="28.912" height="29.468" rx="14.456" fill="#EAECF0"/>
<rect x="10.1445" y="75" width="28.912" height="29.468" rx="14.456" fill="url(#paint2_linear_3407_835)" fill-opacity="0.5" style="mix-blend-mode:soft-light"/>
<rect x="9.83091" y="74.6864" width="29.5393" height="30.0953" rx="14.7696" stroke="white" stroke-opacity="0.4" stroke-width="0.627249"/>
</g>
<mask id="mask2_3407_835" style="mask-type:luminance" maskUnits="userSpaceOnUse" x="17" y="82" width="15" height="15">
<path d="M17.0781 82.0791H31.9726V96.9901H17.0781V82.0791Z" fill="white"/>
</mask>
<g mask="url(#mask2_3407_835)">
<path d="M22.8146 93.5627C23.8281 93.5627 24.782 93.2944 25.6108 92.8324L28.8688 96.3885C29.1996 96.7523 29.6527 96.9578 30.1447 96.9698H30.1863C30.6633 96.9698 31.1074 96.7851 31.4473 96.4481C31.793 96.0994 31.9808 95.6374 31.969 95.1455C31.957 94.6537 31.7513 94.2006 31.3906 93.8667L27.8314 90.6116C28.2935 89.783 28.5617 88.8291 28.5617 87.8156C28.5617 84.6439 25.9832 82.0654 22.8146 82.0654C19.6429 82.0654 17.0645 84.6439 17.0645 87.8156C17.0645 90.9842 19.6429 93.5627 22.8146 93.5627ZM22.8146 82.6617C25.6555 82.6617 27.9656 84.9718 27.9656 87.8156C27.9656 90.6563 25.6555 92.9666 22.8146 92.9666C19.9739 92.9666 17.6607 90.6563 17.6607 87.8156C17.6607 84.9718 19.9739 82.6617 22.8146 82.6617Z" fill="#03325C"/>
</g>
<path d="M20.4094 89.0707C20.5741 89.0707 20.7074 88.9373 20.7074 88.7725V87.3752C20.7074 87.2105 20.5741 87.0771 20.4094 87.0771C20.2445 87.0771 20.1113 87.2105 20.1113 87.3752V88.7725C20.1113 88.9373 20.2445 89.0707 20.4094 89.0707Z" fill="#03325C"/>
<path d="M22.0129 89.0699C22.1777 89.0699 22.3111 88.9365 22.3111 88.7717V85.9027C22.3111 85.7379 22.1777 85.6045 22.0129 85.6045C21.8482 85.6045 21.7148 85.7379 21.7148 85.9027V88.7717C21.7148 88.9365 21.8482 89.0699 22.0129 89.0699Z" fill="#03325C"/>
<path d="M23.6145 89.0709C23.7791 89.0709 23.9125 88.9376 23.9125 88.7727V86.9657C23.9125 86.8008 23.7791 86.6675 23.6145 86.6675C23.4496 86.6675 23.3164 86.8008 23.3164 86.9657V88.7727C23.3164 88.9376 23.4496 89.0709 23.6145 89.0709Z" fill="#03325C"/>
<path d="M25.2141 89.0707C25.3789 89.0707 25.5121 88.9374 25.5121 88.7725V85.5681C25.5121 85.4034 25.3789 85.27 25.2141 85.27C25.0494 85.27 24.916 85.4034 24.916 85.5681V88.7725C24.916 88.9374 25.0494 89.0707 25.2141 89.0707Z" fill="#03325C"/>
<path d="M19.552 90.1889H26.0726C26.2375 90.1889 26.3707 90.0555 26.3707 89.8908C26.3707 89.726 26.2375 89.5928 26.0726 89.5928H19.552C19.3873 89.5928 19.2539 89.726 19.2539 89.8908C19.2539 90.0555 19.3873 90.1889 19.552 90.1889Z" fill="#03325C"/>
<defs>
<filter id="filter0_dd_3407_835" x="0.857188" y="0.704844" width="48.5299" height="49.1178" filterUnits="userSpaceOnUse" color-interpolation-filters="sRGB">
<feFlood flood-opacity="0" result="BackgroundImageFix"/>
<feColorMatrix in="SourceAlpha" type="matrix" values="0 0 0 0 0 0 0 0 0 0 0 0 0 0 0 0 0 0 127 0" result="hardAlpha"/>
<feOffset dx="3.31965" dy="3.31965"/>
<feGaussianBlur stdDeviation="2.32376"/>
<feColorMatrix type="matrix" values="0 0 0 0 0.682353 0 0 0 0 0.682353 0 0 0 0 0.752941 0 0 0 0.5 0"/>
<feBlend mode="normal" in2="BackgroundImageFix" result="effect1_dropShadow_3407_835"/>
<feColorMatrix in="SourceAlpha" type="matrix" values="0 0 0 0 0 0 0 0 0 0 0 0 0 0 0 0 0 0 127 0" result="hardAlpha"/>
<feOffset dx="-3.31965" dy="-3.31965"/>
<feGaussianBlur stdDeviation="2.65572"/>
<feColorMatrix type="matrix" values="0 0 0 0 0.950608 0 0 0 0 0.95735 0 0 0 0 0.970833 0 0 0 1 0"/>
<feBlend mode="normal" in2="effect1_dropShadow_3407_835" result="effect2_dropShadow_3407_835"/>
<feBlend mode="normal" in="SourceGraphic" in2="effect2_dropShadow_3407_835" result="shape"/>
</filter>
<filter id="filter1_dd_3407_835" x="1.42487" y="126.283" width="45.5139" height="46.0647" filterUnits="userSpaceOnUse" color-interpolation-filters="sRGB">
<feFlood flood-opacity="0" result="BackgroundImageFix"/>
<feColorMatrix in="SourceAlpha" type="matrix" values="0 0 0 0 0 0 0 0 0 0 0 0 0 0 0 0 0 0 127 0" result="hardAlpha"/>
<feOffset dx="3.11333" dy="3.11333"/>
<feGaussianBlur stdDeviation="2.17933"/>
<feColorMatrix type="matrix" values="0 0 0 0 0.682353 0 0 0 0 0.682353 0 0 0 0 0.752941 0 0 0 0.5 0"/>
<feBlend mode="normal" in2="BackgroundImageFix" result="effect1_dropShadow_3407_835"/>
<feColorMatrix in="SourceAlpha" type="matrix" values="0 0 0 0 0 0 0 0 0 0 0 0 0 0 0 0 0 0 127 0" result="hardAlpha"/>
<feOffset dx="-3.11333" dy="-3.11333"/>
<feGaussianBlur stdDeviation="2.49067"/>
<feColorMatrix type="matrix" values="0 0 0 0 0.950608 0 0 0 0 0.95735 0 0 0 0 0.970833 0 0 0 1 0"/>
<feBlend mode="normal" in2="effect1_dropShadow_3407_835" result="effect2_dropShadow_3407_835"/>
<feBlend mode="normal" in="SourceGraphic" in2="effect2_dropShadow_3407_835" result="shape"/>
</filter>
<filter id="filter2_dd_3407_835" x="1.36334" y="66.2183" width="45.8472" height="46.4039" filterUnits="userSpaceOnUse" color-interpolation-filters="sRGB">
<feFlood flood-opacity="0" result="BackgroundImageFix"/>
<feColorMatrix in="SourceAlpha" type="matrix" values="0 0 0 0 0 0 0 0 0 0 0 0 0 0 0 0 0 0 127 0" result="hardAlpha"/>
<feOffset dx="3.13624" dy="3.13624"/>
<feGaussianBlur stdDeviation="2.19537"/>
<feColorMatrix type="matrix" values="0 0 0 0 0.682353 0 0 0 0 0.682353 0 0 0 0 0.752941 0 0 0 0.5 0"/>
<feBlend mode="normal" in2="BackgroundImageFix" result="effect1_dropShadow_3407_835"/>
<feColorMatrix in="SourceAlpha" type="matrix" values="0 0 0 0 0 0 0 0 0 0 0 0 0 0 0 0 0 0 127 0" result="hardAlpha"/>
<feOffset dx="-3.13624" dy="-3.13624"/>
<feGaussianBlur stdDeviation="2.50899"/>
<feColorMatrix type="matrix" values="0 0 0 0 0.950608 0 0 0 0 0.95735 0 0 0 0 0.970833 0 0 0 1 0"/>
<feBlend mode="normal" in2="effect1_dropShadow_3407_835" result="effect2_dropShadow_3407_835"/>
<feBlend mode="normal" in="SourceGraphic" in2="effect2_dropShadow_3407_835" result="shape"/>
</filter>
<linearGradient id="paint0_linear_3407_835" x1="13.6928" y1="11.6598" x2="37.9754" y2="38.4215" gradientUnits="userSpaceOnUse">
<stop/>
<stop offset="1" stop-color="white"/>
</linearGradient>
<linearGradient id="paint1_linear_3407_835" x1="13.463" y1="136.557" x2="36.2364" y2="161.655" gradientUnits="userSpaceOnUse">
<stop/>
<stop offset="1" stop-color="white"/>
</linearGradient>
<linearGradient id="paint2_linear_3407_835" x1="13.4894" y1="76.5681" x2="36.4304" y2="101.851" gradientUnits="userSpaceOnUse">
<stop/>
<stop offset="1" stop-color="white"/>
</linearGradient>
</defs>
</svg>
