<svg width="428" height="350" viewBox="0 0 428 350" fill="none" xmlns="http://www.w3.org/2000/svg">
<g filter="url(#filter0_d_51_3965)">
<rect width="154.508" height="197.492" rx="2.57726" transform="matrix(-1 0 0 1 426.502 151.508)" fill="white"/>
</g>
<path d="M403.414 176.417C403.414 175.434 402.503 174.638 401.379 174.638H307.771C306.647 174.638 305.736 175.434 305.736 176.417C305.736 177.4 306.647 178.196 307.771 178.196H401.379C402.503 178.196 403.414 177.4 403.414 176.417Z" fill="#D5D5D5"/>
<path d="M403.414 183.534C403.414 182.552 402.503 181.755 401.379 181.755H307.771C306.647 181.755 305.736 182.552 305.736 183.534C305.736 184.517 306.647 185.313 307.771 185.313H401.379C402.503 185.313 403.414 184.517 403.414 183.534Z" fill="#D5D5D5"/>
<path d="M343.029 311.637C343.029 310.654 342.097 309.858 340.948 309.858H291.832C290.682 309.858 289.751 310.654 289.751 311.637C289.751 312.62 290.682 313.416 291.832 313.416H340.948C342.097 313.416 343.029 312.62 343.029 311.637Z" fill="#D5D5D5"/>
<path d="M403.414 315.902C403.414 314.409 403.414 313.663 403.048 313.092C402.725 312.591 402.211 312.183 401.579 311.928C400.86 311.637 399.918 311.637 398.036 311.637H369.721C367.839 311.637 366.897 311.637 366.178 311.928C365.546 312.183 365.031 312.591 364.709 313.092C364.343 313.663 364.343 314.409 364.343 315.902V316.268C364.343 317.761 364.343 318.507 364.709 319.078C365.031 319.579 365.546 319.987 366.178 320.242C366.897 320.533 367.839 320.533 369.721 320.533H398.036C399.918 320.533 400.86 320.533 401.579 320.242C402.211 319.987 402.725 319.579 403.048 319.078C403.414 318.507 403.414 317.761 403.414 316.268V315.902Z" fill="#979797"/>
<path d="M343.029 320.533C343.029 319.551 342.097 318.754 340.948 318.754H291.832C290.682 318.754 289.751 319.551 289.751 320.533C289.751 321.516 290.682 322.312 291.832 322.312H340.948C342.097 322.312 343.029 321.516 343.029 320.533Z" fill="#D5D5D5"/>
<path d="M301.615 239.798C302.266 232.281 304.38 225.576 307.958 219.685C311.536 213.794 316.271 209.059 322.162 205.481C328.053 201.903 334.758 199.789 342.275 199.138V212.909C337.794 213.487 333.601 215.059 329.698 217.625C325.794 220.191 322.56 223.408 319.994 227.275C317.428 231.142 315.819 235.317 315.169 239.798H301.615Z" fill="#25BB61"/>
<path d="M350.41 288.591V274.936C354.964 274.219 359.319 272.374 363.476 269.399C367.632 266.425 370.975 262.787 373.505 258.486C376.18 253.827 377.517 248.953 377.517 243.864C377.517 238.775 376.18 233.901 373.505 229.242C370.975 224.87 367.632 221.215 363.476 218.276C359.319 215.337 354.964 213.509 350.41 212.793V199.138C357.856 199.855 364.686 202.292 370.903 206.449C377.119 210.607 381.999 215.911 385.541 222.361C389.227 229.027 391.07 236.195 391.07 243.864C391.07 251.534 389.227 258.701 385.541 265.367C381.999 271.818 377.119 277.122 370.903 281.28C364.686 285.437 357.856 287.874 350.41 288.591Z" fill="#C4E2FD"/>
<path d="M342.275 288.589C334.758 287.939 328.053 285.824 322.162 282.246C316.271 278.668 311.536 273.934 307.958 268.042C304.38 262.151 302.266 255.447 301.615 247.929H315.169C315.819 252.411 317.428 256.585 319.994 260.453C322.56 264.32 325.794 267.518 329.698 270.048C333.601 272.578 337.794 274.169 342.275 274.819V288.589Z" fill="#979797"/>
<g filter="url(#filter1_d_51_3965)">
<rect width="247.446" height="194.007" rx="3.22157" transform="matrix(-1 0 0 1 249.035 128.907)" fill="white"/>
</g>
<path d="M69.2402 171.623C69.2402 170.64 68.3049 169.843 67.1556 169.843H17.9229C16.77 169.843 15.8346 170.64 15.8346 171.623C15.8346 172.606 16.77 173.403 17.9229 173.403H67.1556C68.3049 173.403 69.2402 172.606 69.2402 171.623Z" fill="#D5D5D5"/>
<path d="M69.2402 150.973C69.2402 149.479 69.2402 148.732 68.873 148.162C68.5495 147.66 68.0339 147.253 67.4005 146.997C66.6794 146.706 65.7359 146.706 63.849 146.706H35.4674C33.5804 146.706 32.637 146.706 31.9159 146.997C31.2791 147.253 30.7669 147.66 30.4434 148.162C30.0761 148.732 30.0761 149.479 30.0761 150.973V151.339C30.0761 152.832 30.0761 153.579 30.4434 154.15C30.7669 154.651 31.2791 155.059 31.9159 155.315C32.637 155.606 33.5804 155.606 35.4674 155.606H63.849C65.7359 155.606 66.6794 155.606 67.4005 155.315C68.0339 155.059 68.5495 154.651 68.873 154.15C69.2402 153.579 69.2402 152.832 69.2402 151.339V150.973Z" fill="#C4E2FD"/>
<path d="M69.2402 176.963C69.2402 175.98 68.3049 175.183 67.1556 175.183H17.9229C16.77 175.183 15.8346 175.98 15.8346 176.963C15.8346 177.946 16.77 178.743 17.9229 178.743H67.1556C68.3049 178.743 69.2402 177.946 69.2402 176.963Z" fill="#D5D5D5"/>
<path d="M92.3596 141.365H224.128C228.053 141.365 231.231 144.559 231.231 148.5V297.979C231.231 301.92 228.053 305.114 224.128 305.114H92.3596C88.4349 305.114 85.2561 301.92 85.2561 297.979V148.5C85.2561 144.559 88.4349 141.365 92.3596 141.365Z" fill="#F6F6F6" stroke="#25BB61" stroke-width="3"/>
<path d="M206.062 198.322H213.679C215.507 198.322 216.991 199.933 216.991 201.921V296.215H202.75V201.921C202.75 199.933 204.233 198.322 206.062 198.322Z" fill="#D4D4D4"/>
<path d="M179.278 175.183H187.047C188.833 175.183 190.283 176.744 190.283 178.671V296.215H176.042V178.671C176.042 176.744 177.492 175.183 179.278 175.183Z" fill="#D4D4D4"/>
<path d="M152.734 223.241H160.194C162.066 223.241 163.585 224.819 163.585 226.766V296.216H149.343V226.766C149.343 224.819 150.863 223.241 152.734 223.241Z" fill="#D4D4D4"/>
<path d="M127.732 192.983H135.349C137.177 192.983 138.661 194.523 138.661 196.424V296.216H124.42V196.424C124.42 194.523 125.903 192.983 127.732 192.983Z" fill="#D4D4D4"/>
<path d="M99.2531 239.26H106.871C108.699 239.26 110.183 240.796 110.183 242.691V296.216H95.9411V242.691C95.9411 240.796 97.4249 239.26 99.2531 239.26Z" fill="#D4D4D4"/>
<path d="M125.643 176.963H137.438C138.108 176.963 138.661 177.768 138.661 178.743C138.661 179.719 138.108 180.523 137.438 180.523H125.643C124.973 180.523 124.42 179.719 124.42 178.743C124.42 177.768 124.973 176.963 125.643 176.963Z" fill="#D4D4D4"/>
<path d="M134.595 185.863H137.387C138.085 185.863 138.661 186.667 138.661 187.643C138.661 188.618 138.085 189.422 137.387 189.422H134.595C133.897 189.422 133.321 188.618 133.321 187.643C133.321 186.667 133.897 185.863 134.595 185.863Z" fill="#D4D4D4"/>
<path d="M175.487 157.384H187.281C187.951 157.384 188.505 158.188 188.505 159.164C188.505 160.139 187.951 160.943 187.281 160.943H175.487C174.817 160.943 174.263 160.139 174.263 159.164C174.263 158.188 174.817 157.384 175.487 157.384Z" fill="#D4D4D4"/>
<path d="M184.439 162.724H187.23C187.927 162.724 188.505 163.528 188.505 164.504C188.505 165.479 187.927 166.284 187.23 166.284H184.439C183.742 166.284 183.164 165.479 183.164 164.504C183.164 163.528 183.742 162.724 184.439 162.724Z" fill="#D4D4D4"/>
<path d="M150.568 205.442H162.36C163.031 205.442 163.585 206.246 163.585 207.222C163.585 208.197 163.031 209.002 162.36 209.002H150.568C149.897 209.002 149.343 208.197 149.343 207.222C149.343 206.246 149.897 205.442 150.568 205.442Z" fill="#D4D4D4"/>
<path d="M159.519 210.781H162.311C163.009 210.781 163.585 211.586 163.585 212.561C163.585 213.537 163.009 214.341 162.311 214.341H159.519C158.82 214.341 158.244 213.537 158.244 212.561C158.244 211.586 158.82 210.781 159.519 210.781Z" fill="#D4D4D4"/>
<path d="M97.1659 223.241H108.958C109.629 223.241 110.183 224.045 110.183 225.021C110.183 225.996 109.629 226.801 108.958 226.801H97.1659C96.495 226.801 95.9411 225.996 95.9411 225.021C95.9411 224.045 96.495 223.241 97.1659 223.241Z" fill="#D4D4D4"/>
<path d="M106.118 228.58H108.907C109.608 228.58 110.183 229.384 110.183 230.36C110.183 231.335 109.608 232.139 108.907 232.139H106.118C105.417 232.139 104.842 231.335 104.842 230.36C104.861 229.384 105.417 228.58 106.118 228.58Z" fill="#D4D4D4"/>
<g filter="url(#filter2_d_51_3965)">
<rect width="69.7031" height="69.7031" rx="1.93294" transform="matrix(-1 0 0 1 342.012 59.1238)" fill="white"/>
</g>
<path d="M308.47 95.2832V78.1297H309.695C319.83 78.1297 328.074 86.3738 328.074 96.5084C328.074 106.643 319.83 114.887 309.695 114.887C299.561 114.887 291.317 106.643 291.317 96.5084V95.2832H308.47Z" fill="#D4D4D4"/>
<path d="M304.627 73.065H305.853V92.669H286.249V91.4438C286.249 81.3092 294.493 73.065 304.627 73.065Z" fill="#5BCDC5"/>
<g filter="url(#filter3_d_51_3965)">
<rect width="102.231" height="102.231" rx="1.93294" transform="matrix(-1 0 0 1 250.574 1)" fill="white"/>
</g>
<path d="M168.218 80.6926V41.8596H181.263V80.6893L185.611 80.6882V50.5561H198.655V80.6848L203.004 80.6837V59.2525H216.048V80.6803L220.397 80.6792V67.9489H233.441V80.6758L237.789 80.6747L237.79 85.0226L163.585 85.0419L163.584 80.694L168.218 80.6926Z" fill="#C9C9C9"/>
<path d="M226.253 54.512L177.901 26.1813L178.775 29.4897L174.571 30.6L171.795 20.0905L182.304 17.3147L183.415 21.5184L180.057 22.4054L228.451 50.7606L226.253 54.512Z" fill="#25BB61"/>
<defs>
<filter id="filter0_d_51_3965" x="271.349" y="150.864" width="155.797" height="198.781" filterUnits="userSpaceOnUse" color-interpolation-filters="sRGB">
<feFlood flood-opacity="0" result="BackgroundImageFix"/>
<feColorMatrix in="SourceAlpha" type="matrix" values="0 0 0 0 0 0 0 0 0 0 0 0 0 0 0 0 0 0 127 0" result="hardAlpha"/>
<feOffset/>
<feGaussianBlur stdDeviation="0.322157"/>
<feColorMatrix type="matrix" values="0 0 0 0 0 0 0 0 0 0 0 0 0 0 0 0 0 0 0.5 0"/>
<feBlend mode="normal" in2="BackgroundImageFix" result="effect1_dropShadow_51_3965"/>
<feBlend mode="normal" in="SourceGraphic" in2="effect1_dropShadow_51_3965" result="shape"/>
</filter>
<filter id="filter1_d_51_3965" x="0.944553" y="128.263" width="248.735" height="195.296" filterUnits="userSpaceOnUse" color-interpolation-filters="sRGB">
<feFlood flood-opacity="0" result="BackgroundImageFix"/>
<feColorMatrix in="SourceAlpha" type="matrix" values="0 0 0 0 0 0 0 0 0 0 0 0 0 0 0 0 0 0 127 0" result="hardAlpha"/>
<feOffset/>
<feGaussianBlur stdDeviation="0.322157"/>
<feColorMatrix type="matrix" values="0 0 0 0 0 0 0 0 0 0 0 0 0 0 0 0 0 0 0.5 0"/>
<feBlend mode="normal" in2="BackgroundImageFix" result="effect1_dropShadow_51_3965"/>
<feBlend mode="normal" in="SourceGraphic" in2="effect1_dropShadow_51_3965" result="shape"/>
</filter>
<filter id="filter2_d_51_3965" x="271.664" y="58.4795" width="70.9918" height="70.9917" filterUnits="userSpaceOnUse" color-interpolation-filters="sRGB">
<feFlood flood-opacity="0" result="BackgroundImageFix"/>
<feColorMatrix in="SourceAlpha" type="matrix" values="0 0 0 0 0 0 0 0 0 0 0 0 0 0 0 0 0 0 127 0" result="hardAlpha"/>
<feOffset/>
<feGaussianBlur stdDeviation="0.322157"/>
<feColorMatrix type="matrix" values="0 0 0 0 0 0 0 0 0 0 0 0 0 0 0 0 0 0 0.5 0"/>
<feBlend mode="normal" in2="BackgroundImageFix" result="effect1_dropShadow_51_3965"/>
<feBlend mode="normal" in="SourceGraphic" in2="effect1_dropShadow_51_3965" result="shape"/>
</filter>
<filter id="filter3_d_51_3965" x="147.698" y="0.355686" width="103.52" height="103.52" filterUnits="userSpaceOnUse" color-interpolation-filters="sRGB">
<feFlood flood-opacity="0" result="BackgroundImageFix"/>
<feColorMatrix in="SourceAlpha" type="matrix" values="0 0 0 0 0 0 0 0 0 0 0 0 0 0 0 0 0 0 127 0" result="hardAlpha"/>
<feOffset/>
<feGaussianBlur stdDeviation="0.322157"/>
<feColorMatrix type="matrix" values="0 0 0 0 0 0 0 0 0 0 0 0 0 0 0 0 0 0 0.5 0"/>
<feBlend mode="normal" in2="BackgroundImageFix" result="effect1_dropShadow_51_3965"/>
<feBlend mode="normal" in="SourceGraphic" in2="effect1_dropShadow_51_3965" result="shape"/>
</filter>
</defs>
</svg>
