<svg width="65" height="64" viewBox="0 0 65 64" fill="none" xmlns="http://www.w3.org/2000/svg">
<g clip-path="url(#clip0_3266_72807)">
<path d="M30.4961 13.2949H32.5001C33.0178 13.2949 33.4376 12.8752 33.4376 12.3574C33.4376 11.8397 33.0178 11.4199 32.5001 11.4199H30.4961C29.9783 11.4199 29.5586 11.8397 29.5586 12.3574C29.5586 12.8752 29.9783 13.2949 30.4961 13.2949Z" fill="#63CB8D"/>
<path d="M12.8458 28.4558L11.1094 23.9746" stroke="#63CB8D" stroke-width="1.85"/>
<path d="M16.4777 57.5195H16.4675C15.9498 57.5195 15.5352 57.9393 15.5352 58.457C15.5352 58.9748 15.9599 59.3945 16.4777 59.3945C16.9954 59.3945 17.4152 58.9748 17.4152 58.457C17.4152 57.9393 16.9954 57.5195 16.4777 57.5195Z" fill="#63CB8D"/>
<path d="M59.5549 53.5117C56.8279 53.5117 54.6094 55.7303 54.6094 58.4572C54.6094 61.1841 56.828 63.4027 59.5549 63.4027C62.2817 63.4027 64.5004 61.1842 64.5004 58.4572C64.5004 55.7302 62.2817 53.5117 59.5549 53.5117ZM59.5549 61.5278C57.8617 61.5278 56.4844 60.1503 56.4844 58.4573C56.4844 56.7643 57.8619 55.3868 59.5549 55.3868C61.2479 55.3868 62.6254 56.7641 62.6254 58.4572C62.6254 60.1503 61.2479 61.5278 59.5549 61.5278Z" fill="#63CB8D"/>
<path d="M59.5636 57.5195H59.5536C59.0358 57.5195 58.6211 57.9393 58.6211 58.457C58.6211 58.9748 59.0458 59.3945 59.5636 59.3945C60.0813 59.3945 60.5011 58.9748 60.5011 58.457C60.5011 57.9393 60.0813 57.5195 59.5636 57.5195Z" fill="#63CB8D"/>
<path d="M25.2949 44.5348C25.377 44.5348 25.4605 44.5239 25.5435 44.501C26.0429 44.364 26.3365 43.8482 26.1995 43.3489L21.4785 26.1468C21.3415 25.6474 20.8252 25.3535 20.3264 25.4908C19.827 25.6278 19.5334 26.1436 19.6704 26.6429L24.3914 43.845C24.5056 44.2615 24.8831 44.5348 25.2949 44.5348Z" fill="#63CB8D"/>
<path d="M56.4844 39.3576V26.3496C56.4844 25.8567 56.0646 25.457 55.5469 25.457C55.0291 25.457 54.6094 25.8567 54.6094 26.3496V39.3575C54.6094 39.8504 55.0291 40.25 55.5469 40.25C56.0646 40.25 56.4844 39.8505 56.4844 39.3576Z" fill="#63CB8D"/>
<path d="M32.2592 43.7383C32.3104 43.7383 32.362 43.7342 32.414 43.7254C32.9247 43.6405 33.27 43.1577 33.1851 42.647L30.46 26.2412C30.3751 25.7304 29.8924 25.3844 29.3816 25.47C28.8709 25.5549 28.5256 26.0378 28.6105 26.5484L31.3357 42.9543C31.4117 43.413 31.8091 43.7383 32.2592 43.7383Z" fill="#63CB8D"/>
<path d="M48.5898 40.8967V26.3945C48.5898 25.8768 48.1701 25.457 47.6523 25.457C47.1346 25.457 46.7148 25.8768 46.7148 26.3945V40.8967C46.7148 41.4144 47.1346 41.8342 47.6523 41.8342C48.1701 41.8342 48.5898 41.4144 48.5898 40.8967Z" fill="#63CB8D"/>
<path d="M39.6465 42.7958C39.6647 42.7958 39.683 42.7953 39.7014 42.7942C40.2182 42.7643 40.6131 42.3211 40.5832 41.8042L39.6899 26.3406C39.6601 25.8236 39.2157 25.4282 38.6999 25.4587C38.183 25.4886 37.7881 25.9318 37.818 26.4487L38.7114 41.9123C38.7401 42.4109 39.1534 42.7958 39.6465 42.7958Z" fill="#63CB8D"/>
<path fill-rule="evenodd" clip-rule="evenodd" d="M13.9894 21.4497L14 21.5009H25.5V21.4499H25.5504V9.54606L25.5 9.27677V7.50094H29L28.9884 7.41206H36.508C37.0257 7.41206 37.4455 7.83181 37.4455 8.34956V11.4201H42.1729C42.2555 11.3108 42.3457 11.2062 42.4442 11.1077L43.2744 10.2776C43.4759 10.0762 43.5868 9.80831 43.5868 9.52343V6.34543C43.5868 5.27593 44.4567 4.40593 45.5262 4.40593H47.5303C48.5998 4.40593 49.4699 5.27593 49.4699 6.34543V9.52368C49.4699 9.80856 49.5809 10.0764 49.7822 10.2778L50.6124 11.1079C51.168 11.6636 51.474 12.4022 51.474 13.1879V14.6233C52.2811 13.3369 53.6328 12.5087 55.105 12.3393L54.9401 7.78243C54.9214 7.26506 55.3256 6.83043 55.8431 6.81168C56.358 6.79231 56.7951 7.19718 56.8139 7.71468L56.9305 10.9386L59.1771 4.67406C59.3519 4.18668 59.8887 3.93318 60.376 4.10806C60.8634 4.28281 61.1168 4.81956 60.942 5.30693L58.6954 11.5714L60.8343 9.15643C61.1775 8.76893 61.7699 8.73281 62.1576 9.07618C62.5451 9.41943 62.5811 10.0119 62.2379 10.3996L59.2163 13.8112C59.5881 14.1959 59.8993 14.6426 60.1344 15.1407C60.6984 16.3353 60.7634 17.6779 60.3174 18.9214L59.4106 21.4497H63.5625C64.0802 21.4497 64.5 21.8694 64.5 22.3872V38.0679C64.5 41.0183 62.2965 43.5507 59.3745 43.9583L26.9228 48.4864C26.4995 48.5454 26.0777 48.5743 25.6612 48.5743C24.3511 48.5743 23.0864 48.2881 21.9395 47.7618L19.1999 54.3368C20.284 55.0582 21.0679 56.1954 21.323 57.5191H51.5384C52.0561 57.5191 52.4759 57.9388 52.4759 58.4566C52.4759 58.9743 52.0561 59.3941 51.5384 59.3941H21.3231C20.8836 61.6741 18.8743 63.4021 16.4677 63.4021C13.7409 63.4021 11.5223 61.1834 11.5223 58.4566C11.5223 55.7297 13.7407 53.5111 16.4677 53.5111C16.8112 53.5111 17.1464 53.5464 17.4702 53.6133L20.3118 46.7937C18.9979 45.8077 17.9469 44.4504 17.3221 42.8166L11.9373 28.7332C11.7524 28.2496 11.9945 27.7076 12.4781 27.5227C12.9619 27.3379 13.5038 27.5799 13.6886 28.0636L19.0735 42.1469C20.2579 45.2446 23.3792 47.0882 26.6635 46.6296L59.1152 42.1014C61.1161 41.8222 62.625 40.0882 62.625 38.0679V23.3247H11.8767L12.1615 24.0694C12.3464 24.5531 12.1042 25.0951 11.6206 25.2799C11.5105 25.3221 11.3973 25.3421 11.286 25.3421C10.9086 25.3421 10.553 25.1127 10.4101 24.7392L7.559 17.2826C7.10763 16.1018 5.955 15.3086 4.691 15.3086H1.4375C0.91975 15.3086 0.5 14.8888 0.5 14.3711C0.5 13.8533 0.91975 13.4336 1.4375 13.4336H4.691C6.727 13.4336 8.58337 14.7113 9.31038 16.6129L11.1597 21.4497H13.9894ZM58.4388 15.9411C58.0888 15.1994 57.4706 14.6384 56.6986 14.3616C55.1051 13.7901 53.3434 14.6217 52.7719 16.2153L52.7501 16.2761L53.7541 16.6361C54.2415 16.8108 54.4949 17.3476 54.3201 17.8349C54.1829 18.2177 53.8223 18.4562 53.4376 18.4562C53.3326 18.4562 53.2257 18.4384 53.1213 18.4009L52.1172 18.0409L51.474 19.8346V21.4496H57.4189L58.2361 19.1708L57.2321 18.8108C56.7448 18.6361 56.4914 18.0993 56.6661 17.6119C56.8409 17.1246 57.3775 16.8711 57.865 17.0459L58.7316 17.3568C58.7486 16.8739 58.651 16.3906 58.4388 15.9411ZM47.5301 6.28093H45.5261C45.4906 6.28093 45.4616 6.30981 45.4616 6.34543V8.41406H47.5947V6.34543C47.5947 6.30981 47.5658 6.28093 47.5301 6.28093ZM44.6001 11.6034L43.77 12.4336C43.5686 12.6349 43.4576 12.9028 43.4576 13.1877V15.4282H44.5241C46.146 15.4282 47.4656 16.7477 47.4656 18.3697V21.4497H49.5988V13.1877C49.5988 12.9028 49.4877 12.6351 49.2864 12.4336L48.4562 11.6034C48.0861 11.2332 47.8275 10.7816 47.6956 10.2891H45.3607C45.2289 10.7816 44.9702 11.2333 44.6001 11.6034ZM44.5241 17.3032H43.4576V21.4497H45.5906V18.3697C45.5906 17.7817 45.1122 17.3032 44.5241 17.3032ZM41.5826 21.4497V13.2951H37.4455V21.4497H41.5826ZM35.5705 17.3032H27.4254V21.4497H35.5705V17.3032ZM35.5705 15.4282V9.28706H27.4254V15.4282H35.5705ZM13.3973 58.4568C13.3973 60.1498 14.7746 61.5273 16.4677 61.5273C18.1609 61.5273 19.5384 60.1498 19.5384 58.4568C19.5384 56.7638 18.1607 55.3863 16.4677 55.3863C14.7747 55.3863 13.3973 56.7638 13.3973 58.4568Z" fill="#63CB8D"/>
</g>
<defs>
<clipPath id="clip0_3266_72807">
<rect width="64" height="64" fill="white" transform="translate(0.5)"/>
</clipPath>
</defs>
</svg>
