<svg width="80" height="80" viewBox="0 0 80 80" fill="none" xmlns="http://www.w3.org/2000/svg">
<mask id="mask0_5110_431" style="mask-type:alpha" maskUnits="userSpaceOnUse" x="0" y="0" width="80" height="80">
<rect width="80" height="80" fill="#D9D9D9"/>
</mask>
<g mask="url(#mask0_5110_431)">
<path d="M46.3779 68.3277L24.7626 45.9111V41.2444H34.9869C38.3245 41.2444 41.3053 40.1792 43.9292 38.0489C46.5532 35.9186 47.9741 32.8598 48.1921 28.8726H20.8203V25.0906H47.9356C47.2775 22.2958 45.7433 19.9891 43.3331 18.1707C40.9228 16.3523 38.1408 15.4431 34.9869 15.4431H20.8203V11.6611H59.1535V15.4431H45.7111C47.2667 16.4901 48.5851 17.9175 49.6663 19.7252C50.7475 21.5329 51.4719 23.3214 51.8394 25.0906H59.1535V28.8726H51.942C51.7112 33.8427 49.9484 37.7775 46.6536 40.6771C43.3587 43.5766 39.4698 45.0264 34.9869 45.0264H29.2111L51.5957 68.3277H46.3779Z" fill="#25505C"/>
</g>
</svg>
