<svg width="65" height="64" viewBox="0 0 65 64" fill="none" xmlns="http://www.w3.org/2000/svg">
<path d="M52.5397 5.01013H44.3051C43.9128 3.84663 42.8119 3.00612 41.5176 3.00612H37.6847C37.3086 3.00612 36.9578 2.8025 36.7689 2.47487C35.8894 0.94825 34.2534 0 32.4995 0C30.7456 0 29.1096 0.94825 28.23 2.47475C28.0413 2.8025 27.6904 3.006 27.3143 3.006H23.4814C22.1873 3.006 21.0864 3.8465 20.6939 5.01H12.4591C10.2846 5.01 8.51562 6.779 8.51562 8.9535V60.0564C8.51562 62.2309 10.2846 63.9999 12.4591 63.9999H52.5397C54.7142 63.9999 56.4834 62.2309 56.4834 60.0564V8.95362C56.4834 6.77912 54.7144 5.01013 52.5397 5.01013ZM23.4814 4.881H27.3143C28.3586 4.881 29.3321 4.31763 29.8545 3.41088C30.4005 2.4635 31.414 1.875 32.4995 1.875C33.585 1.875 34.5985 2.4635 35.1444 3.41088C35.667 4.31763 36.6404 4.881 37.6847 4.881H41.5176C42.1057 4.881 42.5841 5.3595 42.5841 5.9475V7.9515C42.5841 8.53963 42.1057 9.018 41.5176 9.018H23.4814C22.8932 9.018 22.4149 8.5395 22.4149 7.9515V5.94763C22.4149 5.3595 22.8932 4.881 23.4814 4.881ZM54.6084 60.0565C54.6084 61.1971 53.6804 62.125 52.5397 62.125H12.4591C11.3185 62.125 10.3906 61.1971 10.3906 60.0565V8.95362C10.3906 7.813 11.3185 6.88513 12.4591 6.88513H20.5399V7.95162C20.5399 9.57362 21.8595 10.8931 23.4814 10.8931H41.5177C43.1398 10.8931 44.4593 9.5735 44.4593 7.95162V6.88513H52.5399C53.6805 6.88513 54.6085 7.813 54.6085 8.95362V60.0565H54.6084Z" fill="#63CB8D"/>
<path d="M32.5 6.88481C33.0179 6.88481 33.4375 6.46506 33.4375 5.94731V4.94531C33.4375 4.42756 33.0179 4.00781 32.5 4.00781C31.9822 4.00781 31.5625 4.42756 31.5625 4.94531V5.94731C31.5625 6.46506 31.9822 6.88481 32.5 6.88481Z" fill="#63CB8D"/>
<path d="M44.5241 26.5625H32.5C31.9822 26.5625 31.5625 26.9822 31.5625 27.5C31.5625 28.0178 31.9822 28.4375 32.5 28.4375H44.5241C45.042 28.4375 45.4616 28.0178 45.4616 27.5C45.4616 26.9822 45.042 26.5625 44.5241 26.5625Z" fill="#63CB8D"/>
<path d="M20.4766 42.4648H30.4967C31.0144 42.4648 31.4342 42.0451 31.4342 41.5273C31.4342 41.0096 31.0144 40.5898 30.4967 40.5898H20.4766C19.9588 40.5898 19.5391 41.0096 19.5391 41.5273C19.5391 42.0451 19.9588 42.4648 20.4766 42.4648Z" fill="#63CB8D"/>
<path d="M20.4766 46.4727H34.5048C35.0227 46.4727 35.4423 46.0529 35.4423 45.5352C35.4423 45.0174 35.0227 44.5977 34.5048 44.5977H20.4766C19.9588 44.5977 19.5391 45.0174 19.5391 45.5352C19.5391 46.0529 19.9588 46.4727 20.4766 46.4727Z" fill="#63CB8D"/>
<path d="M44.522 30.5703H35.5039C34.986 30.5703 34.5664 30.9901 34.5664 31.5078C34.5664 32.0256 34.986 32.4453 35.5039 32.4453H44.522C45.0399 32.4453 45.4595 32.0256 45.4595 31.5078C45.4595 30.9901 45.0399 30.5703 44.522 30.5703Z" fill="#63CB8D"/>
<path d="M13 23L20.9489 31.8841C21.2688 32.2416 21.7974 32.3216 22.2087 32.0748L25.7863 29.9282C26.1999 29.6801 26.7316 29.7625 27.0507 30.1241L40.889 45.8075C41.234 46.1985 41.8216 46.2588 42.2388 45.9459L44.8361 43.998C45.221 43.7092 45.7571 43.7356 46.1118 44.0608L51.5 49" stroke="#63CB8D" stroke-width="1.8" stroke-linecap="round" stroke-linejoin="round"/>
</svg>
