<svg xmlns="http://www.w3.org/2000/svg" width="48" height="48" viewBox="0 0 48 48" fill="none">
    <path fill-rule="evenodd" clip-rule="evenodd"
      d="M28.9 21.8L29.3 25H34.8L35.2 21.8C35.4 21.7167 35.6 21.6167 35.8 21.5C36 21.3833 36.1917 21.2583 36.375 21.125L39.325 22.375L42.075 17.625L39.5 15.675C39.5333 15.5583 39.55 15.4458 39.55 15.3375V14.6625C39.55 14.5542 39.5417 14.4417 39.525 14.325L42.1 12.375L39.35 7.625L36.375 8.875C36.1917 8.74167 36.0042 8.61667 35.8125 8.5C35.6208 8.38333 35.4167 8.28333 35.2 8.2L34.8 5H29.3L28.9 8.2C28.7 8.28333 28.5 8.38333 28.3 8.5C28.1 8.61667 27.9083 8.74167 27.725 8.875L24.75 7.625L22 12.375L24.575 14.325C24.5583 14.4417 24.55 14.5542 24.55 14.6625V15.3375C24.55 15.4458 24.5583 15.5583 24.575 15.675L22 17.625L24.75 22.375L27.725 21.125C27.9083 21.2583 28.0958 21.3833 28.2875 21.5C28.4792 21.6167 28.6833 21.7167 28.9 21.8ZM34.575 17.475C33.8917 18.1583 33.0667 18.5 32.1 18.5C31.1167 18.5 30.2875 18.1583 29.6125 17.475C28.9375 16.7917 28.6 15.9667 28.6 15C28.6 14.0333 28.9375 13.2083 29.6125 12.525C30.2875 11.8417 31.1167 11.5 32.1 11.5C33.0667 11.5 33.8917 11.8417 34.575 12.525C35.2583 13.2083 35.6 14.0333 35.6 15C35.6 15.9667 35.2583 16.7917 34.575 17.475ZM12.9781 41.8546L6.49928 30.4072C6.16271 29.8125 5.40072 29.6012 4.80606 29.9379L2.43822 31.2779C1.84347 31.6145 1.63225 32.3765 1.96881 32.9712L8.4475 44.4186C8.78406 45.0133 9.54606 45.2246 10.1408 44.888L12.5087 43.5479C13.1034 43.2114 13.3146 42.4494 12.9781 41.8546ZM14.1092 39.2854L9.19534 30.6028L14.2397 27.6804C15.887 26.726 17.5621 26.0492 19.3727 26.6366C19.8976 26.8068 20.5087 27.0278 21.185 27.2723C23.1099 27.9682 25.562 28.8547 28.0498 29.3034C29.2976 29.708 30.0755 30.9575 29.7361 32.2243C29.6887 32.4008 29.6272 32.5653 29.5524 32.7172L21.9711 30.6859C21.4842 30.5554 20.9837 30.8444 20.8532 31.3314C20.7227 31.8184 21.0116 32.3189 21.4986 32.4494C21.9659 32.5746 22.4332 32.7008 22.8924 32.8248C25.0701 33.4127 27.0631 33.9508 27.9902 34.0991C29.337 34.3145 30.5737 34.1302 31.7523 33.4438L39.8004 29.0736C46.3604 25.253 47.3239 31.1306 45.1428 32.4735L30.219 41.3587C28.8105 42.2259 27.2692 42.4282 25.6713 41.9999L14.5629 39.0235L14.1092 39.2854Z"
      fill="#CACACA" />
  </svg>