<svg width="14" height="14" viewBox="0 0 14 14" fill="none" xmlns="http://www.w3.org/2000/svg">
<path d="M7 0C5.61553 0 4.26215 0.410543 3.11101 1.17971C1.95987 1.94888 1.06266 3.04213 0.532846 4.32121C0.00303276 5.6003 -0.13559 7.00776 0.134506 8.36563C0.404603 9.7235 1.07129 10.9708 2.05026 11.9497C3.02922 12.9287 4.2765 13.5954 5.63437 13.8655C6.99224 14.1356 8.3997 13.997 9.67879 13.4672C10.9579 12.9373 12.0511 12.0401 12.8203 10.889C13.5895 9.73785 14 8.38447 14 7C14 5.14348 13.2625 3.36301 11.9497 2.05025C10.637 0.737498 8.85652 0 7 0ZM7 3.09562C7.23498 3.09562 7.46467 3.1653 7.66005 3.29584C7.85542 3.42638 8.00769 3.61193 8.09761 3.82902C8.18754 4.04611 8.21106 4.28498 8.16522 4.51544C8.11938 4.7459 8.00623 4.95759 7.84008 5.12374C7.67393 5.28989 7.46224 5.40304 7.23178 5.44888C7.00132 5.49472 6.76244 5.4712 6.54536 5.38128C6.32827 5.29136 6.14272 5.13908 6.01218 4.94371C5.88163 4.74833 5.81195 4.51864 5.81195 4.28366C5.81342 3.96903 5.93906 3.66769 6.16155 3.44521C6.38403 3.22272 6.68536 3.09708 7 3.09562ZM8.58407 10.2685C8.58407 10.3588 8.54822 10.4453 8.48441 10.5091C8.4206 10.5729 8.33406 10.6088 8.24383 10.6088H5.75618C5.66594 10.6088 5.5794 10.5729 5.51559 10.5091C5.45179 10.4453 5.41594 10.3588 5.41594 10.2685V9.5992C5.41594 9.50896 5.45179 9.42242 5.51559 9.35861C5.5794 9.29481 5.66594 9.25896 5.75618 9.25896H6.09642V7.45179H5.75618C5.66594 7.45179 5.5794 7.41594 5.51559 7.35214C5.45179 7.28833 5.41594 7.20179 5.41594 7.11155V6.44223C5.41594 6.35199 5.45179 6.26545 5.51559 6.20164C5.5794 6.13784 5.66594 6.10199 5.75618 6.10199H7.55777C7.64801 6.10199 7.73455 6.13784 7.79836 6.20164C7.86216 6.26545 7.89801 6.35199 7.89801 6.44223V9.26454H8.23825C8.32849 9.26454 8.41503 9.30039 8.47883 9.36419C8.54264 9.428 8.57849 9.51454 8.57849 9.60478L8.58407 10.2685Z" fill="#D2D2D2"/>
</svg>
