<svg width="65" height="64" viewBox="0 0 65 64" fill="none" xmlns="http://www.w3.org/2000/svg">
<g clip-path="url(#clip0_3266_72847)">
<path d="M23.1172 2.85938H24.9923V4.73425H23.1172V2.85938Z" fill="#63CB8D"/>
<path d="M19.3672 2.85938H21.2423V4.73425H19.3672V2.85938Z" fill="#63CB8D"/>
<path d="M15.6172 2.85938H17.4923V4.73425H15.6172V2.85938Z" fill="#63CB8D"/>
<path d="M11.8672 2.85938H13.7423V4.73425H11.8672V2.85938Z" fill="#63CB8D"/>
<path d="M51.2461 2.85938H53.1212V4.73425H51.2461V2.85938Z" fill="#63CB8D"/>
<path d="M47.4922 2.85938H49.3673V4.73425H47.4922V2.85938Z" fill="#63CB8D"/>
<path d="M43.7422 2.85938H45.6173V4.73425H43.7422V2.85938Z" fill="#63CB8D"/>
<path d="M39.9922 2.85938H41.8673V4.73425H39.9922V2.85938Z" fill="#63CB8D"/>
<path d="M51.2461 59.2402H53.1212V61.1151H51.2461V59.2402Z" fill="#63CB8D"/>
<path d="M47.4922 59.2402H49.3673V61.1151H47.4922V59.2402Z" fill="#63CB8D"/>
<path d="M43.7422 59.2402H45.6173V61.1151H43.7422V59.2402Z" fill="#63CB8D"/>
<path d="M39.9922 59.2402H41.8673V61.1151H39.9922V59.2402Z" fill="#63CB8D"/>
<path d="M59.6836 22.6406H61.5587V24.4969H59.6836V22.6406Z" fill="#63CB8D"/>
<path d="M59.6836 18.873H61.5587V20.7265H59.6836V18.873Z" fill="#63CB8D"/>
<path d="M59.6836 15.123H61.5587V17.0404H59.6836V15.123Z" fill="#63CB8D"/>
<path d="M59.6836 11.373H61.5587V13.2479H59.6836V11.373Z" fill="#63CB8D"/>
<path d="M3.42969 22.6406H5.30481V24.4969H3.42969V22.6406Z" fill="#63CB8D"/>
<path d="M3.42969 18.873H5.30481V20.7265H3.42969V18.873Z" fill="#63CB8D"/>
<path d="M3.42969 15.123H5.30481V17.0404H3.42969V15.123Z" fill="#63CB8D"/>
<path d="M3.42969 11.373H5.30481V13.2479H3.42969V11.373Z" fill="#63CB8D"/>
<path d="M59.6836 50.7402H61.5587V52.6071H59.6836V50.7402Z" fill="#63CB8D"/>
<path d="M59.6836 46.9961H61.5587V48.9215H59.6836V46.9961Z" fill="#63CB8D"/>
<path d="M59.6836 43.2461H61.5587V45.121H59.6836V43.2461Z" fill="#63CB8D"/>
<path d="M59.6836 39.4961H61.5587V41.371H59.6836V39.4961Z" fill="#63CB8D"/>
<path d="M9.96094 37.6445V50.8642H15.7279C16.1934 53.943 19.0812 56.3972 22.2088 56.3397C30.2976 56.1902 31.1049 44.592 23.1894 43.2672L23.1899 43.2024H23.1822V37.6447H9.96094V37.6445ZM17.5818 48.9483C17.8912 47.0739 19.4396 45.5 21.3072 45.1544V48.9893H17.5744C17.5768 48.9755 17.5794 48.962 17.5818 48.9483ZM11.8361 48.9893V39.5194H21.3072V43.1869V43.2535C18.4137 43.617 15.9866 46.0893 15.6797 48.9894H15.6114H11.8361V48.9893ZM26.9084 49.7658C26.8396 55.309 18.9449 56.1948 17.6378 50.8642H23.1822V45.1693C25.3064 45.62 26.9084 47.5144 26.9084 49.7658Z" fill="#63CB8D"/>
<path d="M50.2926 9.70312L48.3841 11.6115L51.5546 11.6105L40.0249 23.1388L40.0258 19.9686L38.1172 21.877V26.372H42.6128L44.5214 24.4636L41.3508 24.4645L52.8804 12.9362L52.8796 16.1065L54.7882 14.1981V9.70312H50.2926Z" fill="#63CB8D"/>
<path d="M13.7773 41.3711H15.6525V43.246H13.7773V41.3711Z" fill="#63CB8D"/>
<circle cx="4.5" cy="4" r="3.075" stroke="#63CB8D" stroke-width="1.85"/>
<circle cx="60.5" cy="4" r="3.075" stroke="#63CB8D" stroke-width="1.85"/>
<circle cx="32.5" cy="4" r="3.075" stroke="#63CB8D" stroke-width="1.85"/>
<circle cx="60.5" cy="32" r="3.075" stroke="#63CB8D" stroke-width="1.85"/>
<circle cx="60.5" cy="60" r="3.075" stroke="#63CB8D" stroke-width="1.85"/>
<path fill-rule="evenodd" clip-rule="evenodd" d="M4.5 34.15C5.68741 34.15 6.65 33.1874 6.65 32C6.65 30.8126 5.68741 29.85 4.5 29.85C3.31259 29.85 2.35 30.8126 2.35 32C2.35 33.1874 3.31259 34.15 4.5 34.15ZM8.47769 32.425C8.29819 34.1246 7.05428 35.5068 5.425 35.8925V56.1075C7.05428 56.4932 8.29819 57.8754 8.47769 59.575H28.5223C28.7018 57.8754 29.9457 56.4932 31.575 56.1075V35.8925C29.9457 35.5068 28.7018 34.1246 28.5223 32.425H8.47769ZM28.7613 61.425C29.3354 62.9305 30.7928 64 32.5 64C34.7091 64 36.5 62.2091 36.5 60C36.5 58.1093 35.1882 56.5249 33.425 56.1075V35.8925C35.1882 35.4751 36.5 33.8907 36.5 32C36.5 29.7909 34.7091 28 32.5 28C30.7928 28 29.3354 29.0695 28.7613 30.575H8.23872C7.66456 29.0695 6.20718 28 4.5 28C2.29086 28 0.5 29.7909 0.5 32C0.5 33.8907 1.81185 35.4751 3.575 35.8925V56.1075C1.81185 56.5249 0.5 58.1093 0.5 60C0.5 62.2091 2.29086 64 4.5 64C6.20718 64 7.66456 62.9305 8.23872 61.425H28.7613ZM32.5 34.15C33.6874 34.15 34.65 33.1874 34.65 32C34.65 30.8126 33.6874 29.85 32.5 29.85C31.3126 29.85 30.35 30.8126 30.35 32C30.35 33.1874 31.3126 34.15 32.5 34.15ZM6.65 60C6.65 61.1874 5.68741 62.15 4.5 62.15C3.31259 62.15 2.35 61.1874 2.35 60C2.35 58.8126 3.31259 57.85 4.5 57.85C5.68741 57.85 6.65 58.8126 6.65 60ZM32.5 62.15C33.6874 62.15 34.65 61.1874 34.65 60C34.65 58.8126 33.6874 57.85 32.5 57.85C31.3126 57.85 30.35 58.8126 30.35 60C30.35 61.1874 31.3126 62.15 32.5 62.15Z" fill="#63CB8D"/>
</g>
<defs>
<clipPath id="clip0_3266_72847">
<rect width="64" height="64" fill="white" transform="translate(0.5)"/>
</clipPath>
</defs>
</svg>
