<svg width="80" height="80" viewBox="0 0 80 80" fill="none" xmlns="http://www.w3.org/2000/svg">
<mask id="mask0_5110_411" style="mask-type:alpha" maskUnits="userSpaceOnUse" x="0" y="0" width="80" height="80">
<rect width="80" height="80" fill="#D9D9D9"/>
</mask>
<g mask="url(#mask0_5110_411)">
<path d="M53.3202 36.2874C54.1364 36.2874 54.832 36 55.4067 35.4253C55.9815 34.8505 56.2689 34.155 56.2689 33.3388C56.2689 32.5225 55.9815 31.827 55.4067 31.2523C54.832 30.6775 54.1364 30.3901 53.3202 30.3901C52.504 30.3901 51.8085 30.6775 51.2337 31.2523C50.6589 31.827 50.3716 32.5225 50.3716 33.3388C50.3716 34.155 50.6589 34.8505 51.2337 35.4253C51.8085 36 52.504 36.2874 53.3202 36.2874ZM26.6536 27.9541H43.3202V24.1722H26.6536V27.9541ZM16.237 68.3387C14.4763 62.2617 12.7167 56.2147 10.9581 50.1977C9.19959 44.1806 8.32031 38.0054 8.32031 31.6721C8.32031 27.0311 9.93784 23.0931 13.1729 19.8581C16.4079 16.6231 20.3459 15.0055 24.9869 15.0055H42.487C44.0126 13.0013 45.8427 11.3891 47.9773 10.169C50.1119 8.94893 52.4484 8.33887 54.9869 8.33887C55.9057 8.33887 56.6909 8.66473 57.3426 9.31645C57.9943 9.96812 58.3201 10.7533 58.3201 11.6721C58.3201 11.8986 58.2891 12.1251 58.2271 12.3516C58.1652 12.5781 58.1 12.7875 58.0316 12.9798C57.724 13.7832 57.4622 14.6059 57.2464 15.4478C57.0306 16.2897 56.8457 17.1401 56.6919 17.9991L65.3651 26.6722H71.6535V47.0374L62.5573 50.0246L57.0701 68.3387H41.6536V61.672H31.6535V68.3387H16.237ZM19.0895 64.5567H27.8715V57.89H45.4356V64.5567H54.2497L59.4676 47.1528L67.8715 44.2683V30.4542H63.7946L52.8715 19.5311C52.9056 18.2063 53.0541 16.9286 53.317 15.6978C53.5798 14.467 53.8886 13.2384 54.2432 12.012C52.2817 12.5247 50.4527 13.3335 48.7561 14.4382C47.0596 15.5429 45.7327 16.9927 44.7754 18.7875H24.9869C21.4112 18.7875 18.3698 20.041 15.8628 22.548C13.3558 25.0551 12.1023 28.0964 12.1023 31.6721C12.1023 37.3296 12.8918 42.8572 14.4709 48.2549C16.05 53.6527 17.5895 59.0866 19.0895 64.5567Z" fill="#25505C"/>
</g>
</svg>
