<svg width="30" height="30" viewBox="0 0 30 30" fill="none" xmlns="http://www.w3.org/2000/svg">
<g clip-path="url(#clip0_115_190)">
<path d="M1580.52 723.09C1580.34 723.09 1580.22 723.21 1580.22 723.39C1580.22 723.57 1580.34 723.69 1580.52 723.69H1581.81C1581.99 723.69 1582.11 723.57 1582.11 723.39C1582.11 723.21 1581.99 723.09 1581.81 723.09H1580.52ZM1581.81 724.11H1580.52C1580.34 724.11 1580.22 724.23 1580.22 724.41C1580.22 724.59 1580.34 724.71 1580.52 724.71H1581.81C1581.99 724.71 1582.11 724.59 1582.11 724.41C1582.11 724.23 1581.99 724.11 1581.81 724.11ZM1581.81 725.1H1580.52C1580.34 725.1 1580.22 725.22 1580.22 725.4C1580.22 725.58 1580.34 725.7 1580.52 725.7H1581.81C1581.99 725.7 1582.11 725.58 1582.11 725.4C1582.11 725.25 1581.99 725.1 1581.81 725.1ZM15 0.75C7.14 0.75 0.75 7.14 0.75 15C0.75 22.86 7.14 29.25 15 29.25C22.86 29.25 29.25 22.86 29.25 15C29.25 7.14 22.86 0.75 15 0.75ZM10.17 12.48C10.32 12.18 10.62 11.97 10.95 11.97H12.9V6.6C12.9 6.12 13.29 5.76 13.74 5.76H16.23C16.71 5.76 17.07 6.15 17.07 6.6V12H19.02C19.35 12 19.65 12.21 19.8 12.51C19.92 12.81 19.86 13.17 19.65 13.44L15.63 17.76C15.3 18.09 14.7 18.09 14.4 17.76L10.32 13.41C10.08 13.17 10.02 12.81 10.17 12.48ZM21.81 21.51C21.81 22.17 21.27 22.71 20.61 22.71H9.39C8.73 22.71 8.19 22.17 8.19 21.51V18.99C8.19 18.33 8.73 17.79 9.39 17.79C10.05 17.79 10.59 18.33 10.59 18.99V20.34H19.47V18.99C19.47 18.33 20.01 17.79 20.67 17.79C21.33 17.79 21.87 18.33 21.87 18.99V21.51H21.81Z" fill="#25BB61"/>
</g>
<defs>
<clipPath id="clip0_115_190">
<rect width="30" height="30" fill="white"/>
</clipPath>
</defs>
</svg>
