<svg width="65" height="64" viewBox="0 0 65 64" fill="none" xmlns="http://www.w3.org/2000/svg">
<rect width="65" height="64" fill="#DFDFDF"/>
<g id="Section 1">
<path d="M-39328 -9498C-39328 -9499.1 -39327.1 -9500 -39326 -9500H15070C15071.1 -9500 15072 -9499.1 15072 -9498V4720C15072 4721.1 15071.1 4722 15070 4722H-39326C-39327.1 4722 -39328 4721.1 -39328 4720V-9498Z" fill="#C9C9C9"/>
<g id="microsite">
<rect width="1440" height="4759" transform="translate(-921 -1954)" fill="#C4E2FD"/>
<g id="Frame 2332" filter="url(#filter0_dddd_2921_15636)">
<rect x="-72.5" y="-31" width="210" height="270" rx="7" fill="white"/>
<g id="Frame 2469">
<path id="Vector 361" d="M1.25 63L19.25 23L30.25 33.8164L40.75 20.5L53.25 13M1.25 63L19.25 45.5L30.25 47.5218L40.75 33.8164H53.25M1.25 63V1M1.25 63H63.75" stroke="#63CB8D" stroke-width="1.85" stroke-linecap="round" stroke-linejoin="round"/>
</g>
</g>
</g>
<path d="M-39326 -9499H15070V-9501H-39326V-9499ZM15071 -9498V4720H15073V-9498H15071ZM15070 4721H-39326V4723H15070V4721ZM-39327 4720V-9498H-39329V4720H-39327ZM-39326 4721C-39326.6 4721 -39327 4720.55 -39327 4720H-39329C-39329 4721.66 -39327.7 4723 -39326 4723V4721ZM15071 4720C15071 4720.55 15070.6 4721 15070 4721V4723C15071.7 4723 15073 4721.66 15073 4720H15071ZM15070 -9499C15070.6 -9499 15071 -9498.55 15071 -9498H15073C15073 -9499.66 15071.7 -9501 15070 -9501V-9499ZM-39326 -9501C-39327.7 -9501 -39329 -9499.66 -39329 -9498H-39327C-39327 -9498.55 -39326.6 -9499 -39326 -9499V-9501Z" fill="black" fill-opacity="0.1"/>
</g>
<defs>
<filter id="filter0_dddd_2921_15636" x="-120.5" y="-40" width="306" height="447" filterUnits="userSpaceOnUse" color-interpolation-filters="sRGB">
<feFlood flood-opacity="0" result="BackgroundImageFix"/>
<feColorMatrix in="SourceAlpha" type="matrix" values="0 0 0 0 0 0 0 0 0 0 0 0 0 0 0 0 0 0 127 0" result="hardAlpha"/>
<feOffset dy="8"/>
<feGaussianBlur stdDeviation="8.5"/>
<feColorMatrix type="matrix" values="0 0 0 0 0 0 0 0 0 0.298039 0 0 0 0 0.580392 0 0 0 0.1 0"/>
<feBlend mode="normal" in2="BackgroundImageFix" result="effect1_dropShadow_2921_15636"/>
<feColorMatrix in="SourceAlpha" type="matrix" values="0 0 0 0 0 0 0 0 0 0 0 0 0 0 0 0 0 0 127 0" result="hardAlpha"/>
<feOffset dy="30"/>
<feGaussianBlur stdDeviation="15"/>
<feColorMatrix type="matrix" values="0 0 0 0 0 0 0 0 0 0.298039 0 0 0 0 0.580392 0 0 0 0.09 0"/>
<feBlend mode="normal" in2="effect1_dropShadow_2921_15636" result="effect2_dropShadow_2921_15636"/>
<feColorMatrix in="SourceAlpha" type="matrix" values="0 0 0 0 0 0 0 0 0 0 0 0 0 0 0 0 0 0 127 0" result="hardAlpha"/>
<feOffset dy="68"/>
<feGaussianBlur stdDeviation="20.5"/>
<feColorMatrix type="matrix" values="0 0 0 0 0 0 0 0 0 0.298039 0 0 0 0 0.580392 0 0 0 0.05 0"/>
<feBlend mode="normal" in2="effect2_dropShadow_2921_15636" result="effect3_dropShadow_2921_15636"/>
<feColorMatrix in="SourceAlpha" type="matrix" values="0 0 0 0 0 0 0 0 0 0 0 0 0 0 0 0 0 0 127 0" result="hardAlpha"/>
<feOffset dy="120"/>
<feGaussianBlur stdDeviation="24"/>
<feColorMatrix type="matrix" values="0 0 0 0 0 0 0 0 0 0.298039 0 0 0 0 0.580392 0 0 0 0.01 0"/>
<feBlend mode="normal" in2="effect3_dropShadow_2921_15636" result="effect4_dropShadow_2921_15636"/>
<feBlend mode="normal" in="SourceGraphic" in2="effect4_dropShadow_2921_15636" result="shape"/>
</filter>
</defs>
</svg>
