<svg width="80" height="80" viewBox="0 0 80 80" fill="none" xmlns="http://www.w3.org/2000/svg">
<g id="Underwriting-credit-icon.svg" clip-path="url(#clip0_51_3859)">
<g id="Page-1">
<g id="SWARA-Landing-page-final">
<g id="Group-15">
<path id="XMLID_200_" d="M80.0001 13.9207C80.0001 6.24479 73.475 0 65.4546 0C57.4342 0 50.9092 6.24479 50.9092 13.9207C50.9092 21.0853 56.5942 27.0022 63.8736 27.7589V42.0647H57.3914C56.5183 42.0647 55.8104 42.7421 55.8104 43.5778C55.8104 44.4135 56.5183 45.0909 57.3914 45.0909H65.4546C66.3277 45.0909 67.0357 44.4135 67.0357 43.5778V27.7589C74.315 27.0022 80.0001 21.0853 80.0001 13.9207ZM65.4546 24.8151C59.1778 24.8151 54.0712 19.9279 54.0712 13.9207C54.0712 7.91345 59.1778 3.02624 65.4546 3.02624C71.7315 3.02624 76.838 7.91345 76.838 13.9207C76.838 19.9279 71.7315 24.8151 65.4546 24.8151Z" fill="#25505C"/>
<path id="XMLID_204_" d="M69.7529 9.6351L64.7974 14.1735L62.4302 12.0056C61.7703 11.4013 60.7008 11.4013 60.0407 12.0056C59.381 12.6098 59.381 13.5895 60.0407 14.1939L63.6025 17.4559C63.9195 17.746 64.3491 17.9091 64.7972 17.9091C65.2452 17.9091 65.6749 17.746 65.9918 17.4559L72.142 11.8233C72.8017 11.2191 72.8017 10.2393 72.142 9.6351C71.4822 9.03073 70.4128 9.03073 69.7529 9.6351Z" fill="#25505C"/>
<path id="XMLID_205_" d="M19.8886 9.2026C19.2547 8.56886 18.2274 8.56886 17.5933 9.2026L14.5457 12.2504L11.4981 9.2026C10.8644 8.56886 9.83707 8.56886 9.20284 9.2026C8.5691 9.83633 8.5691 10.8639 9.20284 11.4977L12.2506 14.5455L9.20284 17.5932C8.5691 18.227 8.5691 19.2546 9.20284 19.8883C9.51979 20.2053 9.93509 20.3637 10.3504 20.3637C10.7657 20.3637 11.181 20.2051 11.4979 19.8883L14.5457 16.8405L17.5933 19.8882C17.9103 20.2051 18.3256 20.3635 18.7409 20.3635C19.1562 20.3635 19.5715 20.2049 19.8884 19.8882C20.5222 19.2544 20.5222 18.2268 19.8884 17.5931L16.8408 14.5455L19.8886 11.4977C20.5223 10.8638 20.5223 9.83633 19.8886 9.2026Z" fill="#25505C"/>
<path id="XMLID_1644_" d="M50.62 52.9375H48.57C50.7326 50.8737 52.0837 47.9701 52.0837 44.7558V37.5103C52.0837 31.2638 46.9894 26.1818 40.7277 26.1818C34.466 26.1818 29.3717 31.2638 29.3717 37.5103V44.7558C29.3717 47.9701 30.7228 50.8737 32.8855 52.9375H30.8354C21.8533 52.9375 14.5459 60.2274 14.5459 69.1876V78.4266C14.5459 79.2956 15.2522 80 16.1231 80H65.3323C66.2033 80 66.9095 79.2956 66.9095 78.4266V69.1876C66.9095 60.2274 59.6021 52.9375 50.62 52.9375ZM40.7277 61.4339C41.5987 61.4339 42.3049 60.7295 42.3049 59.8605V56.0843H48.2629L40.7277 74.3016L33.1926 56.0843H39.1505V59.8605C39.1505 60.7295 39.8568 61.4339 40.7277 61.4339ZM40.7277 29.3286C45.2501 29.3286 48.9292 32.9989 48.9292 37.5103V37.526H48.9225C46.3122 37.526 43.7771 36.7718 41.5914 35.3448C41.0668 35.0023 40.3888 35.0023 39.8642 35.3448C37.6785 36.7718 35.1433 37.526 32.5331 37.526H32.5262V37.5103C32.5262 32.9989 36.2054 29.3286 40.7277 29.3286ZM32.5262 44.7558V40.6728H32.533C35.4201 40.6728 38.2327 39.9261 40.7277 38.5052C43.2227 39.9261 46.0354 40.6728 48.9225 40.6728H48.9292V44.7558C48.9292 49.2672 45.2501 52.9375 40.7277 52.9375C36.2054 52.9375 32.5262 49.2672 32.5262 44.7558ZM17.7003 69.1876C17.7003 62.3109 23.0392 56.6586 29.7985 56.1288L38.3707 76.8532H17.7003V69.1876ZM63.7551 76.8532H43.0847L51.6569 56.129C58.4162 56.6586 63.7551 62.3109 63.7551 69.1876V76.8532Z" fill="#25505C"/>
<path id="XMLID_1661_" d="M23.0221 45.0909C23.9441 45.0909 24.6852 44.3623 24.629 43.4843C24.5773 42.6757 23.821 42.0647 22.9592 42.0647H16.4299C16.4252 42.0647 16.4214 42.061 16.4214 42.0567V27.7591C20.9311 27.3042 24.9537 24.9515 27.3929 21.2696C27.8629 20.5602 27.6318 19.6271 26.8773 19.1854C26.1222 18.7436 25.1297 18.9609 24.6596 19.6701C22.5251 22.8917 18.8437 24.8151 14.8114 24.8151C8.41981 24.8151 3.21987 19.9279 3.21987 13.9207C3.21987 7.91345 8.41981 3.02624 14.8114 3.02624C18.8435 3.02624 22.525 4.94956 24.6594 8.17114C25.1295 8.88049 26.1224 9.09747 26.8771 8.65579C27.6318 8.21411 27.8627 7.28097 27.3926 6.57147C24.6665 2.4567 19.9632 0 14.8114 0C6.64437 0 0 6.24479 0 13.9207C0 21.0853 5.78901 27.0022 13.2015 27.7589V43.5698C13.2015 44.4099 13.9261 45.0909 14.82 45.0909H23.0221Z" fill="#25505C"/>
<path id="XMLID_1662_" d="M26.1816 14.5454C26.1816 14.928 26.3371 15.3032 26.6078 15.5738C26.8785 15.8443 27.2536 16 27.6362 16C28.0187 16 28.394 15.8443 28.6644 15.5738C28.9351 15.3032 29.0907 14.928 29.0907 14.5454C29.0907 14.1629 28.9351 13.7876 28.6644 13.5171C28.394 13.2465 28.0187 13.0909 27.6362 13.0909C27.2536 13.0909 26.8784 13.2465 26.6078 13.5171C26.3371 13.7876 26.1816 14.1629 26.1816 14.5454Z" fill="#25505C"/>
</g>
</g>
</g>
</g>
<defs>
<clipPath id="clip0_51_3859">
<rect width="80" height="80" fill="white"/>
</clipPath>
</defs>
</svg>
