<svg width="44" height="38" viewBox="0 0 44 38" fill="none" xmlns="http://www.w3.org/2000/svg">
<path d="M10.696 37.544C13.288 37.544 15.496 36.296 17.32 33.8C19.048 31.304 19.912 28.28 19.912 24.728C19.912 21.176 18.664 17.288 16.168 13.064C13.576 8.84 9.976 4.80799 5.368 0.967992L1.048 3.128L0.615996 5C2.824 7.112 4.6 9.46399 5.944 12.056C7.192 14.552 7.816 16.904 7.816 19.112C7.816 21.224 7.144 23.24 5.8 25.16C4.36 26.984 2.536 28.328 0.327996 29.192L0.183998 31.208C3.736 35.432 7.24 37.544 10.696 37.544ZM34.744 37.544C37.336 37.544 39.544 36.296 41.368 33.8C43.096 31.304 43.96 28.28 43.96 24.728C43.96 21.176 42.712 17.288 40.216 13.064C37.624 8.84 34.024 4.80799 29.416 0.967992L25.096 3.128L24.664 5C26.872 7.112 28.648 9.46399 29.992 12.056C31.24 14.552 31.864 16.904 31.864 19.112C31.864 21.224 31.192 23.24 29.848 25.16C28.408 26.984 26.584 28.328 24.376 29.192L24.232 31.208C27.784 35.432 31.288 37.544 34.744 37.544Z" fill="#DBDBDB"/>
</svg>
