<svg width="32" height="32" viewBox="0 0 32 32" fill="none" xmlns="http://www.w3.org/2000/svg">
<path d="M16 0C12.8355 0 9.74207 0.938384 7.11088 2.69649C4.4797 4.45459 2.42894 6.95345 1.21793 9.87706C0.0069325 12.8007 -0.309921 16.0177 0.307443 19.1214C0.924806 22.2251 2.44866 25.0761 4.6863 27.3137C6.92394 29.5513 9.77486 31.0752 12.8786 31.6926C15.9823 32.3099 19.1993 31.9931 22.1229 30.7821C25.0466 29.5711 27.5454 27.5203 29.3035 24.8891C31.0616 22.2579 32 19.1645 32 16C32 11.7565 30.3143 7.68687 27.3137 4.68629C24.3131 1.68571 20.2435 0 16 0ZM16 30C13.2311 30 10.5243 29.1789 8.22202 27.6406C5.91973 26.1022 4.12532 23.9157 3.06569 21.3576C2.00607 18.7994 1.72882 15.9845 2.26901 13.2687C2.8092 10.553 4.14258 8.05844 6.10051 6.1005C8.05844 4.14257 10.553 2.8092 13.2687 2.26901C15.9845 1.72881 18.7994 2.00606 21.3576 3.06569C23.9157 4.12531 26.1022 5.91973 27.6406 8.22202C29.1789 10.5243 30 13.2311 30 16C30 19.713 28.525 23.274 25.8995 25.8995C23.274 28.525 19.713 30 16 30ZM24.365 9.635C24.4617 9.7242 24.5398 9.8316 24.5949 9.95105C24.65 10.0705 24.681 10.1996 24.6861 10.3311C24.6912 10.4625 24.6703 10.5937 24.6247 10.7171C24.579 10.8404 24.5095 10.9536 24.42 11.05L14.665 21.55C14.5729 21.6493 14.4616 21.7289 14.3378 21.7839C14.2141 21.8389 14.0804 21.8682 13.945 21.87C13.8107 21.8701 13.6777 21.8432 13.554 21.7908C13.4303 21.7384 13.3184 21.6616 13.225 21.565L8.13 16.33C8.031 16.2377 7.95174 16.1263 7.89705 16.0026C7.84236 15.8788 7.81336 15.7452 7.81181 15.6098C7.81026 15.4745 7.8362 15.3403 7.88805 15.2153C7.9399 15.0903 8.01658 14.9771 8.11345 14.8826C8.21032 14.7881 8.32537 14.7142 8.45162 14.6655C8.57788 14.6168 8.71271 14.5942 8.84795 14.5991C8.98319 14.604 9.11603 14.6363 9.23843 14.694C9.36082 14.7517 9.47022 14.8337 9.56 14.935L13.915 19.405L22.955 9.685C23.1357 9.49195 23.3854 9.37832 23.6497 9.36895C23.9139 9.35958 24.1711 9.45524 24.365 9.635Z" fill="#25BB61"/>
</svg>
