<svg width="32" height="32" viewBox="0 0 32 32" fill="none" xmlns="http://www.w3.org/2000/svg">
<path fill-rule="evenodd" clip-rule="evenodd" d="M0 16C0 7.16907 7.16907 0 16 0C24.8309 0 32 7.16907 32 16C32 24.8309 24.8309 32 16 32C7.16907 32 0 24.8309 0 16ZM29.8667 16C29.8667 8.34667 23.6533 2.13333 16 2.13333C8.34667 2.13333 2.13333 8.34667 2.13333 16C2.13333 23.6533 8.34667 29.8667 16 29.8667C23.6533 29.8667 29.8667 23.6533 29.8667 16ZM11.2518 9.74358L15.831 14.3228L20.4102 9.74358C20.8262 9.32758 21.5025 9.32758 21.9185 9.74358C22.3345 10.1596 22.3345 10.8358 21.9185 11.2518L17.3393 15.831L21.9185 20.4102C22.3345 20.8262 22.3345 21.5025 21.9185 21.9185C21.5025 22.3345 20.8262 22.3345 20.4102 21.9185L15.831 17.3393L11.2518 21.9185C10.8358 22.3345 10.1596 22.3345 9.74358 21.9185C9.32758 21.5025 9.32758 20.8262 9.74358 20.4102L14.3228 15.831L9.74358 11.2518C9.32758 10.8358 9.32758 10.1596 9.74358 9.74358C10.1596 9.32758 10.8358 9.32758 11.2518 9.74358Z" fill="#FE0008"/>
</svg>
