<svg width="267" height="268" viewBox="0 0 267 268" fill="none" xmlns="http://www.w3.org/2000/svg">
<path d="M40 3H267V223H40V3Z" fill="white"/>
<path d="M40 55H251V80H40V55Z" fill="#F7F7F7"/>
<path d="M40 55.3101H251V54.6899H40V55.3101ZM251 79.6899H40V80.3101H251V79.6899Z" fill="#DFDADA"/>
<mask id="path-4-inside-1_820_327" fill="white">
<path d="M40 107H251V112H40V107Z"/>
</mask>
<path d="M40 107H251V112H40V107Z" fill="#F7F7F7"/>
<path d="M40 107.62H251V106.38H40V107.62ZM251 111.38H40V112.62H251V111.38Z" fill="#DFDADA" mask="url(#path-4-inside-1_820_327)"/>
<mask id="path-6-inside-2_820_327" fill="white">
<path d="M40 3H251V4H40V3Z"/>
</mask>
<path d="M40 3H251V4H40V3Z" fill="#F7F7F7"/>
<path d="M40 3.62023H251V2.37977H40V3.62023ZM251 3.37977H40V4.62023H251V3.37977Z" fill="#DFDADA" mask="url(#path-6-inside-2_820_327)"/>
<mask id="path-8-inside-3_820_327" fill="white">
<path d="M40 91H251V103H40V91Z"/>
</mask>
<path d="M40 91H251V103H40V91Z" fill="#F7F7F7"/>
<path d="M40 91.6202H251V90.3798H40V91.6202ZM251 102.38H40V103.62H251V102.38Z" fill="#DFDADA" mask="url(#path-8-inside-3_820_327)"/>
<mask id="path-10-inside-4_820_327" fill="white">
<path d="M40 126H251V175H40V126Z"/>
</mask>
<path d="M40 126H251V175H40V126Z" fill="#F7F7F7"/>
<path d="M40 126.62H251V125.38H40V126.62ZM251 174.38H40V175.62H251V174.38Z" fill="#DFDADA" mask="url(#path-10-inside-4_820_327)"/>
<rect x="40" y="185" width="227" height="5" fill="white"/>
<rect x="40" y="190" width="227" height="14" fill="white"/>
<path d="M40 204H267V268H40V204Z" fill="white"/>
<path d="M82.2012 2.80792V222.672" stroke="#C9C9C9" stroke-dasharray="2 2"/>
<path d="M40.0713 2.80792V222.672" stroke="#DFDFDF"/>
<path d="M250.824 223.321H39.8242" stroke="#DFDFDF"/>
<path d="M208.6 2.80792V222.672" stroke="#C9C9C9" stroke-dasharray="2 2"/>
<path d="M166.469 2.80792V222.672" stroke="#C9C9C9" stroke-dasharray="2 2"/>
<path d="M124.335 2.80792V222.672" stroke="#C9C9C9" stroke-dasharray="2 2"/>
<path d="M250.729 2.80792V222.672" stroke="#DFDFDF"/>
<path d="M29.3301 184.411V183.622L32.2936 180.378C32.6414 179.998 32.9279 179.668 33.1529 179.387C33.3779 179.104 33.5445 178.838 33.6527 178.59C33.7637 178.338 33.8193 178.075 33.8193 177.8C33.8193 177.485 33.7433 177.211 33.5913 176.981C33.4422 176.75 33.2377 176.571 32.9775 176.446C32.7174 176.32 32.4252 176.257 32.1007 176.257C31.7559 176.257 31.4548 176.329 31.1976 176.472C30.9434 176.612 30.7461 176.81 30.6058 177.064C30.4684 177.318 30.3998 177.616 30.3998 177.958H29.3652C29.3652 177.432 29.4864 176.97 29.729 176.573C29.9716 176.175 30.3019 175.866 30.7198 175.643C31.1407 175.421 31.6127 175.31 32.1358 175.31C32.6619 175.31 33.1281 175.421 33.5343 175.643C33.9406 175.866 34.2591 176.165 34.49 176.542C34.7209 176.919 34.8363 177.339 34.8363 177.8C34.8363 178.131 34.7764 178.454 34.6566 178.769C34.5397 179.082 34.3351 179.431 34.0428 179.817C33.7535 180.2 33.3516 180.668 32.8373 181.22L30.8206 183.377V183.447H34.9942V184.411H29.3301Z" fill="#2FB36B"/>
<path d="M26.7022 184.482C26.4859 184.482 26.3003 184.404 26.1454 184.249C25.9905 184.094 25.9131 183.909 25.9131 183.692C25.9131 183.476 25.9905 183.291 26.1454 183.136C26.3003 182.981 26.4859 182.903 26.7022 182.903C26.9185 182.903 27.1041 182.981 27.259 183.136C27.4139 183.291 27.4913 183.476 27.4913 183.692C27.4913 183.836 27.4548 183.967 27.3817 184.087C27.3116 184.207 27.2166 184.303 27.0968 184.376C26.9799 184.446 26.8483 184.482 26.7022 184.482Z" fill="#2FB36B"/>
<path d="M21.4563 184.534C20.7958 184.534 20.2332 184.354 19.7685 183.995C19.3038 183.633 18.9487 183.108 18.7032 182.421C18.4577 181.731 18.335 180.898 18.335 179.922C18.335 178.952 18.4577 178.123 18.7032 177.437C18.9516 176.747 19.3082 176.221 19.7729 175.858C20.2405 175.493 20.8017 175.31 21.4563 175.31C22.111 175.31 22.6707 175.493 23.1354 175.858C23.603 176.221 23.9596 176.747 24.2051 177.437C24.4535 178.123 24.5777 178.952 24.5777 179.922C24.5777 180.898 24.455 181.731 24.2095 182.421C23.964 183.108 23.6089 183.633 23.1442 183.995C22.6795 184.354 22.1169 184.534 21.4563 184.534ZM21.4563 183.57C22.111 183.57 22.6196 183.254 22.982 182.623C23.3444 181.991 23.5256 181.091 23.5256 179.922C23.5256 179.145 23.4423 178.483 23.2757 177.936C23.112 177.39 22.8753 176.973 22.5655 176.687C22.2586 176.4 21.8889 176.257 21.4563 176.257C20.8075 176.257 20.3004 176.577 19.9351 177.217C19.5698 177.854 19.3871 178.756 19.3871 179.922C19.3871 180.7 19.4689 181.36 19.6326 181.904C19.7963 182.447 20.0316 182.861 20.3384 183.144C20.6482 183.428 21.0209 183.57 21.4563 183.57Z" fill="#2FB36B"/>
<path d="M31.9808 224.791C31.3202 224.791 30.7576 224.611 30.2929 224.251C29.8282 223.889 29.4731 223.364 29.2276 222.678C28.9821 221.988 28.8594 221.155 28.8594 220.179C28.8594 219.208 28.9821 218.38 29.2276 217.693C29.4761 217.003 29.8326 216.477 30.2973 216.115C30.7649 215.749 31.3261 215.567 31.9808 215.567C32.6354 215.567 33.1951 215.749 33.6598 216.115C34.1274 216.477 34.484 217.003 34.7295 217.693C34.9779 218.38 35.1021 219.208 35.1021 220.179C35.1021 221.155 34.9794 221.988 34.7339 222.678C34.4884 223.364 34.1333 223.889 33.6686 224.251C33.2039 224.611 32.6413 224.791 31.9808 224.791ZM31.9808 223.826C32.6354 223.826 33.144 223.51 33.5064 222.879C33.8688 222.248 34.05 221.348 34.05 220.179C34.05 219.401 33.9667 218.739 33.8001 218.193C33.6364 217.646 33.3997 217.23 33.0899 216.943C32.783 216.657 32.4133 216.514 31.9808 216.514C31.3319 216.514 30.8249 216.834 30.4595 217.474C30.0942 218.111 29.9115 219.013 29.9115 220.179C29.9115 220.956 29.9934 221.617 30.157 222.16C30.3207 222.704 30.556 223.117 30.8628 223.401C31.1727 223.684 31.5453 223.826 31.9808 223.826Z" fill="#2FB36B"/>
<path d="M26.7383 224.738C26.5221 224.738 26.3365 224.661 26.1816 224.506C26.0267 224.351 25.9492 224.165 25.9492 223.949C25.9492 223.733 26.0267 223.547 26.1816 223.392C26.3365 223.237 26.5221 223.16 26.7383 223.16C26.9546 223.16 27.1402 223.237 27.2951 223.392C27.45 223.547 27.5274 223.733 27.5274 223.949C27.5274 224.092 27.4909 224.224 27.4178 224.343C27.3477 224.463 27.2527 224.56 27.1329 224.633C27.016 224.703 26.8845 224.738 26.7383 224.738Z" fill="#2FB36B"/>
<path d="M21.4925 224.791C20.832 224.791 20.2694 224.611 19.8047 224.251C19.34 223.889 18.9848 223.364 18.7393 222.678C18.4938 221.988 18.3711 221.155 18.3711 220.179C18.3711 219.208 18.4938 218.38 18.7393 217.693C18.9878 217.003 19.3443 216.477 19.809 216.115C20.2767 215.749 20.8378 215.567 21.4925 215.567C22.1472 215.567 22.7068 215.749 23.1715 216.115C23.6392 216.477 23.9957 217.003 24.2412 217.693C24.4897 218.38 24.6139 219.208 24.6139 220.179C24.6139 221.155 24.4911 221.988 24.2456 222.678C24.0001 223.364 23.645 223.889 23.1803 224.251C22.7156 224.611 22.153 224.791 21.4925 224.791ZM21.4925 223.826C22.1472 223.826 22.6557 223.51 23.0181 222.879C23.3805 222.248 23.5617 221.348 23.5617 220.179C23.5617 219.401 23.4784 218.739 23.3118 218.193C23.1482 217.646 22.9114 217.23 22.6016 216.943C22.2947 216.657 21.925 216.514 21.4925 216.514C20.8437 216.514 20.3366 216.834 19.9712 217.474C19.6059 218.111 19.4232 219.013 19.4232 220.179C19.4232 220.956 19.5051 221.617 19.6687 222.16C19.8324 222.704 20.0677 223.117 20.3746 223.401C20.6844 223.684 21.057 223.826 21.4925 223.826Z" fill="#2FB36B"/>
<path d="M28.4561 138.022V137.127L32.4016 130.885H33.0505V132.27H32.6121L29.631 136.987V137.057H34.9443V138.022H28.4561ZM32.6822 139.863V137.75V137.333V130.885H33.7168V139.863H32.6822Z" fill="#2FB36B"/>
<path d="M26.0381 139.933C25.8219 139.933 25.6363 139.856 25.4814 139.701C25.3265 139.546 25.249 139.36 25.249 139.144C25.249 138.928 25.3265 138.742 25.4814 138.587C25.6363 138.432 25.8219 138.355 26.0381 138.355C26.2544 138.355 26.44 138.432 26.5949 138.587C26.7498 138.742 26.8273 138.928 26.8273 139.144C26.8273 139.287 26.7907 139.419 26.7177 139.539C26.6475 139.658 26.5525 139.755 26.4327 139.828C26.3158 139.898 26.1843 139.933 26.0381 139.933Z" fill="#2FB36B"/>
<path d="M20.7923 139.986C20.1318 139.986 19.5692 139.806 19.1045 139.447C18.6398 139.084 18.2847 138.56 18.0392 137.873C17.7936 137.183 17.6709 136.35 17.6709 135.374C17.6709 134.404 17.7936 133.575 18.0392 132.888C18.2876 132.198 18.6441 131.672 19.1088 131.31C19.5765 130.945 20.1376 130.762 20.7923 130.762C21.447 130.762 22.0066 130.945 22.4713 131.31C22.939 131.672 23.2955 132.198 23.541 132.888C23.7895 133.575 23.9137 134.404 23.9137 135.374C23.9137 136.35 23.7909 137.183 23.5454 137.873C23.2999 138.56 22.9448 139.084 22.4801 139.447C22.0154 139.806 21.4528 139.986 20.7923 139.986ZM20.7923 139.021C21.447 139.021 21.9555 138.706 22.3179 138.074C22.6803 137.443 22.8615 136.543 22.8615 135.374C22.8615 134.596 22.7782 133.934 22.6116 133.388C22.448 132.841 22.2112 132.425 21.9014 132.139C21.5946 131.852 21.2248 131.709 20.7923 131.709C20.1435 131.709 19.6364 132.029 19.271 132.669C18.9057 133.306 18.7231 134.208 18.7231 135.374C18.7231 136.151 18.8049 136.812 18.9686 137.355C19.1322 137.899 19.3675 138.313 19.6744 138.596C19.9842 138.88 20.3568 139.021 20.7923 139.021Z" fill="#2FB36B"/>
<path d="M32.0394 96.8755C31.6711 96.8697 31.3028 96.7996 30.9346 96.6651C30.5663 96.5307 30.2302 96.3042 29.9263 95.9856C29.6223 95.6641 29.3783 95.2301 29.1942 94.6836C29.01 94.1341 28.918 93.4444 28.918 92.6143C28.918 91.8194 28.9925 91.115 29.1416 90.5013C29.2906 89.8846 29.5069 89.3658 29.7904 88.9449C30.0739 88.5212 30.4158 88.1997 30.8162 87.9805C31.2196 87.7613 31.674 87.6517 32.1796 87.6517C32.6823 87.6517 33.1295 87.7525 33.5211 87.9542C33.9157 88.1529 34.2372 88.4306 34.4856 88.7871C34.734 89.1437 34.8948 89.5543 34.9678 90.019H33.8982C33.7988 89.6157 33.6059 89.281 33.3195 89.0151C33.0331 88.7491 32.6531 88.6161 32.1796 88.6161C31.4841 88.6161 30.9361 88.9186 30.5357 89.5236C30.1382 90.1286 29.938 90.9776 29.935 92.0707H30.0052C30.1689 91.8223 30.3632 91.6104 30.5883 91.435C30.8162 91.2568 31.0676 91.1194 31.3423 91.0229C31.617 90.9265 31.9078 90.8783 32.2147 90.8783C32.7291 90.8783 33.1996 91.0069 33.6264 91.2641C34.0531 91.5183 34.395 91.8705 34.6522 92.3206C34.9094 92.7678 35.038 93.2807 35.038 93.8594C35.038 94.4147 34.9138 94.9232 34.6654 95.385C34.4169 95.8439 34.0677 96.2092 33.6176 96.481C33.1704 96.7499 32.6443 96.8814 32.0394 96.8755ZM32.0394 95.9111C32.4076 95.9111 32.7379 95.819 33.0301 95.6349C33.3253 95.4508 33.5577 95.2038 33.7272 94.894C33.8996 94.5842 33.9858 94.2393 33.9858 93.8594C33.9858 93.4882 33.9025 93.1506 33.736 92.8467C33.5723 92.5398 33.3458 92.2958 33.0564 92.1146C32.77 91.9334 32.4427 91.8427 32.0744 91.8427C31.7968 91.8427 31.5381 91.8983 31.2985 92.0093C31.0588 92.1175 30.8484 92.2665 30.6672 92.4565C30.4889 92.6465 30.3486 92.8642 30.2463 93.1097C30.144 93.3523 30.0929 93.608 30.0929 93.8769C30.0929 94.2335 30.1762 94.5667 30.3428 94.8765C30.5123 95.1863 30.7432 95.4361 31.0354 95.6261C31.3306 95.8161 31.6653 95.9111 32.0394 95.9111Z" fill="#2FB36B"/>
<path d="M26.7442 96.823C26.5279 96.823 26.3423 96.7455 26.1874 96.5906C26.0325 96.4357 25.9551 96.2501 25.9551 96.0339C25.9551 95.8176 26.0325 95.632 26.1874 95.4771C26.3423 95.3222 26.5279 95.2448 26.7442 95.2448C26.9605 95.2448 27.1461 95.3222 27.301 95.4771C27.4559 95.632 27.5333 95.8176 27.5333 96.0339C27.5333 96.1771 27.4968 96.3086 27.4237 96.4284C27.3536 96.5483 27.2586 96.6447 27.1387 96.7178C27.0218 96.7879 26.8903 96.823 26.7442 96.823Z" fill="#2FB36B"/>
<path d="M21.4983 96.8755C20.8378 96.8755 20.2752 96.6958 19.8105 96.3363C19.3458 95.9739 18.9907 95.4493 18.7452 94.7625C18.4997 94.0727 18.377 93.2398 18.377 92.2636C18.377 91.2933 18.4997 90.4647 18.7452 89.7779C18.9936 89.0882 19.3502 88.5621 19.8149 88.1997C20.2825 87.8343 20.8437 87.6517 21.4983 87.6517C22.153 87.6517 22.7127 87.8343 23.1774 88.1997C23.645 88.5621 24.0016 89.0882 24.2471 89.7779C24.4955 90.4647 24.6197 91.2933 24.6197 92.2636C24.6197 93.2398 24.497 94.0727 24.2515 94.7625C24.006 95.4493 23.6509 95.9739 23.1862 96.3363C22.7215 96.6958 22.1589 96.8755 21.4983 96.8755ZM21.4983 95.9111C22.153 95.9111 22.6616 95.5954 23.024 94.9641C23.3864 94.3328 23.5676 93.4327 23.5676 92.2636C23.5676 91.4862 23.4843 90.8242 23.3177 90.2777C23.154 89.7311 22.9173 89.3147 22.6075 89.0282C22.3006 88.7418 21.9309 88.5986 21.4983 88.5986C20.8495 88.5986 20.3424 88.9186 19.9771 89.5587C19.6118 90.1958 19.4291 91.0975 19.4291 92.2636C19.4291 93.041 19.5109 93.7016 19.6746 94.2452C19.8383 94.7888 20.0735 95.2023 20.3804 95.4858C20.6902 95.7693 21.0629 95.9111 21.4983 95.9111Z" fill="#2FB36B"/>
<path d="M32.0015 52.329C31.3995 52.329 30.8675 52.2223 30.4058 52.0089C29.9469 51.7927 29.5889 51.496 29.3317 51.119C29.0745 50.7391 28.9474 50.3065 28.9503 49.8213C28.9474 49.4414 29.0219 49.0907 29.1739 48.7692C29.3258 48.4448 29.5333 48.1744 29.7964 47.9582C30.0623 47.739 30.359 47.6001 30.6863 47.5417V47.4891C30.2567 47.378 29.9148 47.1369 29.6605 46.7657C29.4062 46.3916 29.2805 45.9664 29.2835 45.49C29.2805 45.034 29.396 44.6263 29.6298 44.2669C29.8636 43.9074 30.1851 43.6239 30.5943 43.4164C31.0064 43.2089 31.4754 43.1051 32.0015 43.1051C32.5218 43.1051 32.9865 43.2089 33.3956 43.4164C33.8048 43.6239 34.1263 43.9074 34.3601 44.2669C34.5968 44.6263 34.7167 45.034 34.7196 45.49C34.7167 45.9664 34.5866 46.3916 34.3294 46.7657C34.0751 47.1369 33.7376 47.378 33.3167 47.4891V47.5417C33.6411 47.6001 33.9334 47.739 34.1935 47.9582C34.4536 48.1744 34.6611 48.4448 34.816 48.7692C34.9709 49.0907 35.0498 49.4414 35.0528 49.8213C35.0498 50.3065 34.9183 50.7391 34.6582 51.119C34.401 51.496 34.043 51.7927 33.5841 52.0089C33.1282 52.2223 32.6007 52.329 32.0015 52.329ZM32.0015 51.3645C32.4078 51.3645 32.7585 51.2987 33.0537 51.1672C33.3489 51.0357 33.5768 50.8501 33.7376 50.6105C33.8983 50.3708 33.9802 50.0902 33.9831 49.7687C33.9802 49.4297 33.8925 49.1301 33.72 48.87C33.5476 48.6099 33.3123 48.4053 33.0142 48.2563C32.719 48.1072 32.3815 48.0327 32.0015 48.0327C31.6187 48.0327 31.2767 48.1072 30.9757 48.2563C30.6776 48.4053 30.4423 48.6099 30.2699 48.87C30.1003 49.1301 30.017 49.4297 30.02 49.7687C30.017 50.0902 30.0945 50.3708 30.2523 50.6105C30.4131 50.8501 30.6425 51.0357 30.9406 51.1672C31.2387 51.2987 31.5923 51.3645 32.0015 51.3645ZM32.0015 47.1033C32.323 47.1033 32.608 47.039 32.8564 46.9104C33.1077 46.7818 33.305 46.602 33.4482 46.3712C33.5914 46.1403 33.6645 45.8699 33.6674 45.5601C33.6645 45.2562 33.5929 44.9917 33.4526 44.7666C33.3123 44.5387 33.118 44.3633 32.8695 44.2406C32.6211 44.1149 32.3318 44.052 32.0015 44.052C31.6654 44.052 31.3717 44.1149 31.1203 44.2406C30.869 44.3633 30.6746 44.5387 30.5373 44.7666C30.3999 44.9917 30.3327 45.2562 30.3356 45.5601C30.3327 45.8699 30.4014 46.1403 30.5417 46.3712C30.6849 46.602 30.8821 46.7818 31.1335 46.9104C31.3848 47.039 31.6742 47.1033 32.0015 47.1033Z" fill="#2FB36B"/>
<path d="M26.7745 52.2763C26.5582 52.2763 26.3726 52.1989 26.2177 52.044C26.0628 51.8891 25.9854 51.7035 25.9854 51.4872C25.9854 51.271 26.0628 51.0854 26.2177 50.9305C26.3726 50.7756 26.5582 50.6981 26.7745 50.6981C26.9907 50.6981 27.1763 50.7756 27.3312 50.9305C27.4861 51.0854 27.5636 51.271 27.5636 51.4872C27.5636 51.6304 27.527 51.762 27.454 51.8818C27.3838 52.0016 27.2889 52.0981 27.169 52.1711C27.0521 52.2413 26.9206 52.2763 26.7745 52.2763Z" fill="#2FB36B"/>
<path d="M21.5286 52.329C20.8681 52.329 20.3055 52.1492 19.8408 51.7897C19.3761 51.4273 19.021 50.9027 18.7755 50.2159C18.53 49.5262 18.4072 48.6932 18.4072 47.717C18.4072 46.7467 18.53 45.9182 18.7755 45.2313C19.0239 44.5416 19.3805 44.0155 19.8452 43.6531C20.3128 43.2878 20.8739 43.1051 21.5286 43.1051C22.1833 43.1051 22.743 43.2878 23.2077 43.6531C23.6753 44.0155 24.0319 44.5416 24.2774 45.2313C24.5258 45.9182 24.65 46.7467 24.65 47.717C24.65 48.6932 24.5272 49.5262 24.2817 50.2159C24.0362 50.9027 23.6811 51.4273 23.2164 51.7897C22.7517 52.1492 22.1891 52.329 21.5286 52.329ZM21.5286 51.3645C22.1833 51.3645 22.6918 51.0489 23.0542 50.4176C23.4166 49.7863 23.5978 48.8861 23.5978 47.717C23.5978 46.9396 23.5146 46.2776 23.348 45.7311C23.1843 45.1846 22.9476 44.7681 22.6378 44.4817C22.3309 44.1952 21.9612 44.052 21.5286 44.052C20.8798 44.052 20.3727 44.3721 20.0074 45.0121C19.642 45.6493 19.4594 46.5509 19.4594 47.717C19.4594 48.4945 19.5412 49.155 19.7049 49.6986C19.8685 50.2422 20.1038 50.6558 20.4107 50.9393C20.7205 51.2228 21.0931 51.3645 21.5286 51.3645Z" fill="#2FB36B"/>
<path d="M31.7659 9.22387C31.1054 9.22387 30.5428 9.04413 30.0781 8.68464C29.6134 8.32224 29.2583 7.79762 29.0128 7.1108C28.7673 6.42106 28.6445 5.5881 28.6445 4.61194C28.6445 3.64162 28.7673 2.81305 29.0128 2.12623C29.2612 1.43648 29.6178 0.910404 30.0825 0.547996C30.5501 0.182665 31.1112 0 31.7659 0C32.4206 0 32.9803 0.182665 33.445 0.547996C33.9126 0.910404 34.2692 1.43648 34.5147 2.12623C34.7631 2.81305 34.8873 3.64162 34.8873 4.61194C34.8873 5.5881 34.7646 6.42106 34.5191 7.1108C34.2735 7.79762 33.9184 8.32224 33.4537 8.68464C32.989 9.04413 32.4264 9.22387 31.7659 9.22387ZM31.7659 8.2594C32.4206 8.2594 32.9291 7.94375 33.2915 7.31246C33.6539 6.68117 33.8352 5.781 33.8352 4.61194C33.8352 3.83451 33.7519 3.17253 33.5853 2.626C33.4216 2.07946 33.1849 1.66299 32.8751 1.37657C32.5682 1.09015 32.1985 0.946938 31.7659 0.946938C31.1171 0.946938 30.61 1.26697 30.2447 1.90703C29.8793 2.54416 29.6967 3.4458 29.6967 4.61194C29.6967 5.38936 29.7785 6.04988 29.9422 6.59349C30.1059 7.1371 30.3411 7.55066 30.648 7.83416C30.9578 8.11765 31.3304 8.2594 31.7659 8.2594Z" fill="#2FB36B"/>
<path d="M26.5225 9.17131C26.3062 9.17131 26.1206 9.09386 25.9657 8.93896C25.8108 8.78406 25.7334 8.59847 25.7334 8.38219C25.7334 8.16592 25.8108 7.98033 25.9657 7.82543C26.1206 7.67053 26.3062 7.59308 26.5225 7.59308C26.7388 7.59308 26.9244 7.67053 27.0793 7.82543C27.2342 7.98033 27.3116 8.16592 27.3116 8.38219C27.3116 8.5254 27.2751 8.65692 27.202 8.77675C27.1319 8.89658 27.0369 8.99303 26.9171 9.06609C26.8002 9.13624 26.6686 9.17131 26.5225 9.17131Z" fill="#2FB36B"/>
<path d="M23.7 0.122803V9.10117H22.6128V1.26264H22.5601L20.3682 2.71811V1.61335L22.6128 0.122803H23.7Z" fill="#2FB36B"/>
<path d="M5.10257 66.3766L9.10075 66.3766L9.10075 67.6874L2.36698 67.6874L2.36698 66.4292L3.46297 66.4292L3.46297 66.3459C3.10641 66.191 2.81999 65.9484 2.60371 65.6181C2.38743 65.285 2.2793 64.8656 2.2793 64.3599C2.2793 63.9011 2.37574 63.4992 2.56864 63.1544C2.75861 62.8095 3.04211 62.5421 3.41913 62.3521C3.79615 62.1621 4.26231 62.0671 4.81761 62.0671L9.10075 62.0671L9.10075 63.3779L4.97544 63.3779C4.48736 63.3779 4.10595 63.5051 3.83122 63.7593C3.55357 64.0136 3.41474 64.3629 3.41474 64.8071C3.41475 65.1111 3.4805 65.3814 3.61202 65.6181C3.74354 65.852 3.93644 66.0375 4.19071 66.1749C4.44205 66.3094 4.74601 66.3766 5.10257 66.3766Z" fill="#2FB36B"/>
<path d="M9.10121 72.4254L2.36743 72.4254L2.36743 71.1584L3.43712 71.1584L3.43712 71.0882C3.07471 70.9655 2.78976 70.7492 2.58225 70.4394C2.37182 70.1267 2.2666 69.7731 2.2666 69.3785C2.2666 69.2967 2.26952 69.2002 2.27537 69.0892C2.28121 68.9752 2.28852 68.886 2.29729 68.8217L3.5511 68.8217C3.53649 68.8743 3.52042 68.9679 3.50288 69.1023C3.48242 69.2367 3.47219 69.3712 3.47219 69.5056C3.47219 69.8154 3.53795 70.0916 3.66947 70.3342C3.79807 70.5739 3.97781 70.7638 4.2087 70.9041C4.43667 71.0444 4.69678 71.1145 4.98905 71.1145L9.10121 71.1145L9.10121 72.4254Z" fill="#2FB36B"/>
<path d="M9.23666 77.0275C9.23666 77.6588 9.09199 78.2097 8.80264 78.6803C8.5133 79.1508 8.10852 79.5162 7.58829 79.7763C7.06805 80.0364 6.46014 80.1664 5.76455 80.1664C5.06604 80.1664 4.45521 80.0364 3.93205 79.7763C3.4089 79.5162 3.00265 79.1508 2.71331 78.6803C2.42397 78.2097 2.2793 77.6588 2.2793 77.0275C2.2793 76.3962 2.42397 75.8453 2.71331 75.3748C3.00265 74.9042 3.4089 74.5389 3.93205 74.2788C4.45521 74.0187 5.06604 73.8886 5.76455 73.8886C6.46014 73.8886 7.06805 74.0187 7.58828 74.2788C8.10852 74.5389 8.5133 74.9042 8.80264 75.3748C9.09199 75.8453 9.23666 76.3962 9.23666 77.0275ZM8.13628 77.0231C8.13628 76.614 8.02814 76.2749 7.81187 76.0061C7.59559 75.7372 7.30771 75.5384 6.94823 75.4098C6.58874 75.2783 6.19272 75.2126 5.76017 75.2126C5.33054 75.2126 4.93598 75.2783 4.5765 75.4098C4.21409 75.5384 3.92329 75.7372 3.70409 76.0061C3.48489 76.2749 3.37529 76.614 3.37529 77.0231C3.37529 77.4352 3.48489 77.7772 3.70409 78.049C3.92329 78.3179 4.21409 78.5181 4.5765 78.6496C4.93598 78.7782 5.33054 78.8425 5.76017 78.8425C6.19272 78.8425 6.58874 78.7782 6.94823 78.6496C7.30771 78.5181 7.59559 78.3179 7.81187 78.049C8.02814 77.7772 8.13628 77.4352 8.13628 77.0231Z" fill="#2FB36B"/>
<path d="M9.23666 84.466C9.23666 85.0973 9.09199 85.6482 8.80264 86.1188C8.5133 86.5893 8.10852 86.9546 7.58829 87.2147C7.06805 87.4749 6.46014 87.6049 5.76455 87.6049C5.06604 87.6049 4.45521 87.4749 3.93205 87.2147C3.4089 86.9546 3.00265 86.5893 2.71331 86.1188C2.42397 85.6482 2.2793 85.0973 2.2793 84.466C2.2793 83.8347 2.42397 83.2838 2.71331 82.8132C3.00265 82.3427 3.4089 81.9774 3.93205 81.7172C4.45521 81.4571 5.06604 81.3271 5.76455 81.3271C6.46014 81.3271 7.06805 81.4571 7.58828 81.7172C8.10852 81.9774 8.5133 82.3427 8.80264 82.8132C9.09199 83.2838 9.23666 83.8347 9.23666 84.466ZM8.13628 84.4616C8.13628 84.0524 8.02814 83.7134 7.81187 83.4445C7.59559 83.1756 7.30771 82.9769 6.94823 82.8483C6.58874 82.7168 6.19272 82.651 5.76017 82.651C5.33054 82.651 4.93598 82.7168 4.5765 82.8483C4.21409 82.9769 3.92329 83.1756 3.70409 83.4445C3.48489 83.7134 3.37529 84.0524 3.37529 84.4616C3.37529 84.8737 3.48489 85.2157 3.70409 85.4875C3.92329 85.7563 4.21409 85.9565 4.5765 86.0881C4.93598 86.2167 5.33054 86.281 5.76017 86.281C6.19272 86.281 6.58874 86.2167 6.94823 86.0881C7.30771 85.9565 7.59559 85.7563 7.81187 85.4875C8.02814 85.2157 8.13628 84.8737 8.13628 84.4616Z" fill="#2FB36B"/>
<path d="M11.6259 94.9217L2.36698 94.9217L2.36698 93.6416L3.45858 93.6416L3.45858 93.532C3.3183 93.456 3.15609 93.3464 2.97196 93.2032C2.78784 93.06 2.62709 92.8612 2.48973 92.607C2.34944 92.3527 2.2793 92.0166 2.2793 91.5986C2.2793 91.055 2.41666 90.5699 2.69139 90.1432C2.96612 89.7165 3.36214 89.3818 3.87945 89.1392C4.39675 88.8937 5.01928 88.771 5.74702 88.771C6.47476 88.771 7.09874 88.8923 7.61897 89.1349C8.13628 89.3774 8.53522 89.7106 8.8158 90.1344C9.09345 90.5582 9.23227 91.0419 9.23227 91.5855C9.23227 91.9947 9.16359 92.3293 9.02623 92.5894C8.88886 92.8466 8.72812 93.0483 8.54399 93.1944C8.35986 93.3405 8.1962 93.4531 8.05299 93.532L8.05299 93.6109L11.6259 93.6109L11.6259 94.9217ZM5.73387 93.6372C6.20733 93.6372 6.62235 93.5685 6.97891 93.4311C7.33548 93.2938 7.61459 93.095 7.81625 92.8349C8.01499 92.5748 8.11436 92.2562 8.11436 91.8792C8.11436 91.4876 8.01061 91.1602 7.8031 90.8972C7.59267 90.6342 7.30771 90.4354 6.94823 90.301C6.58874 90.1636 6.18395 90.0949 5.73386 90.0949C5.28962 90.0949 4.89068 90.1622 4.53704 90.2966C4.1834 90.4281 3.90429 90.6269 3.6997 90.8928C3.49512 91.1559 3.39283 91.4847 3.39283 91.8792C3.39283 92.2592 3.49073 92.5806 3.68655 92.8437C3.88237 93.1038 4.15564 93.3011 4.50635 93.4355C4.85707 93.57 5.26624 93.6372 5.73387 93.6372Z" fill="#2FB36B"/>
<path d="M9.10075 105.832L2.36698 105.832L2.36698 104.574L3.46297 104.574L3.46297 104.491C3.09179 104.35 2.80245 104.121 2.59494 103.802C2.38451 103.484 2.2793 103.103 2.2793 102.658C2.2793 102.208 2.38451 101.831 2.59494 101.527C2.80537 101.22 3.09471 100.994 3.46297 100.848L3.46297 100.778C3.10348 100.617 2.81706 100.361 2.60371 100.01C2.38743 99.6596 2.2793 99.2417 2.2793 98.7565C2.2793 98.1457 2.47073 97.6474 2.8536 97.2616C3.23646 96.8729 3.81369 96.6785 4.58526 96.6785L9.10075 96.6785L9.10075 97.9894L4.70802 97.9894C4.25208 97.9894 3.92182 98.1136 3.71724 98.362C3.51265 98.6104 3.41036 98.9071 3.41036 99.2519C3.41036 99.6786 3.54188 100.01 3.80492 100.247C4.06503 100.484 4.39968 100.602 4.80885 100.602L9.10075 100.602L9.10075 101.909L4.62472 101.909C4.25939 101.909 3.96566 102.023 3.74354 102.251C3.52142 102.479 3.41036 102.775 3.41036 103.141C3.41036 103.389 3.47612 103.618 3.60764 103.829C3.73624 104.036 3.91598 104.204 4.14687 104.333C4.37776 104.459 4.64518 104.521 4.94913 104.521L9.10075 104.521L9.10075 105.832Z" fill="#2FB36B"/>
<path d="M6.30838 108.909L2.36719 108.909L2.36719 107.594L9.10097 107.594L9.10097 108.882L7.93483 108.882L7.93483 108.953C8.29432 109.107 8.59389 109.356 8.83354 109.698C9.07028 110.037 9.18865 110.459 9.18865 110.965C9.18865 111.397 9.09366 111.78 8.90369 112.113C8.71079 112.444 8.42583 112.704 8.04881 112.894C7.67179 113.081 7.20563 113.174 6.65033 113.174L2.36719 113.174L2.36719 111.864L6.4925 111.864C6.95136 111.864 7.31669 111.736 7.5885 111.482C7.8603 111.228 7.9962 110.898 7.9962 110.491C7.9962 110.246 7.93483 110.002 7.81208 109.759C7.68933 109.514 7.50374 109.311 7.25531 109.15C7.00689 108.986 6.69124 108.906 6.30838 108.909Z" fill="#2FB36B"/>
<path d="M2.48133 116.117C2.06631 116.164 1.74482 116.357 1.51685 116.696C1.28596 117.035 1.17052 117.462 1.17052 117.976C1.17052 118.344 1.22897 118.663 1.34588 118.932C1.45986 119.201 1.61768 119.41 1.81935 119.559C2.01809 119.705 2.24459 119.778 2.49886 119.778C2.71222 119.778 2.89634 119.728 3.05124 119.629C3.20614 119.526 3.3362 119.393 3.44142 119.23C3.54371 119.063 3.62993 118.885 3.70007 118.695C3.76729 118.505 3.82282 118.322 3.86666 118.147L4.09463 117.27C4.16477 116.984 4.25976 116.69 4.37959 116.389C4.49941 116.088 4.65724 115.809 4.85305 115.552C5.04887 115.294 5.29145 115.087 5.58079 114.929C5.87014 114.768 6.21647 114.688 6.61979 114.688C7.12834 114.688 7.57988 114.819 7.97444 115.083C8.369 115.343 8.68026 115.721 8.90823 116.218C9.13619 116.712 9.25018 117.31 9.25018 118.011C9.25018 118.683 9.1435 119.265 8.93015 119.756C8.71679 120.247 8.4143 120.631 8.02267 120.909C7.62811 121.186 7.16048 121.34 6.6198 121.369L6.6198 120.01C6.94421 119.984 7.21455 119.879 7.43083 119.694C7.64418 119.507 7.80347 119.269 7.90868 118.98C8.01097 118.688 8.06212 118.368 8.06212 118.02C8.06212 117.637 8.00221 117.296 7.88238 116.998C7.75963 116.697 7.59011 116.461 7.37384 116.288C7.15464 116.116 6.89891 116.029 6.60664 116.029C6.34068 116.029 6.12294 116.105 5.95343 116.257C5.78392 116.406 5.64363 116.61 5.53257 116.867C5.42151 117.121 5.3236 117.409 5.23884 117.73L4.9495 118.791C4.75368 119.51 4.4658 120.08 4.08586 120.501C3.70592 120.919 3.20322 121.128 2.57777 121.128C2.06047 121.128 1.60892 120.988 1.22313 120.707C0.837338 120.427 0.537767 120.047 0.324414 119.567C0.108138 119.088 -1.23345e-07 118.547 -1.49663e-07 117.945C-1.76235e-07 117.337 0.106677 116.801 0.32003 116.336C0.533383 115.869 0.827109 115.5 1.20121 115.232C1.57238 114.963 1.99909 114.822 2.48133 114.811L2.48133 116.117Z" fill="#2FB36B"/>
<path d="M9.24981 129.455C9.24981 129.882 9.1709 130.268 9.01307 130.613C8.85233 130.958 8.61998 131.231 8.31602 131.433C8.01207 131.631 7.63943 131.731 7.19811 131.731C6.81817 131.731 6.50544 131.658 6.25994 131.511C6.01444 131.365 5.82008 131.168 5.67687 130.92C5.53366 130.671 5.42553 130.394 5.35246 130.087C5.27939 129.78 5.22386 129.467 5.18587 129.148C5.13911 128.745 5.10111 128.418 5.07189 128.166C5.03974 127.915 4.98859 127.732 4.91845 127.618C4.8483 127.505 4.73432 127.448 4.5765 127.448L4.54581 127.448C4.16294 127.448 3.86629 127.556 3.65586 127.772C3.44543 127.985 3.34022 128.304 3.34022 128.728C3.34022 129.169 3.43813 129.517 3.63394 129.771C3.82684 130.022 4.04165 130.196 4.27839 130.293L3.99781 131.525C3.58864 131.378 3.25838 131.165 3.00704 130.885C2.75277 130.601 2.56864 130.275 2.45466 129.907C2.33775 129.539 2.2793 129.151 2.2793 128.745C2.2793 128.476 2.31145 128.191 2.37574 127.89C2.43712 127.586 2.5511 127.303 2.71769 127.04C2.88428 126.774 3.12248 126.556 3.43228 126.387C3.73916 126.217 4.1381 126.132 4.62911 126.132L9.10075 126.132L9.10075 127.412L8.18012 127.412L8.18012 127.465C8.34963 127.55 8.51622 127.677 8.67989 127.846C8.84356 128.016 8.97946 128.234 9.0876 128.5C9.19574 128.766 9.24981 129.084 9.24981 129.455ZM8.19766 129.17C8.19766 128.808 8.12605 128.498 7.98284 128.241C7.83963 127.981 7.65258 127.784 7.42169 127.649C7.18788 127.512 6.938 127.443 6.67204 127.443L5.80401 127.443C5.85077 127.49 5.89461 127.58 5.93553 127.715C5.97352 127.846 6.00713 127.997 6.03636 128.166C6.06266 128.336 6.08751 128.501 6.11089 128.662C6.13134 128.823 6.14888 128.957 6.16349 129.065C6.19564 129.319 6.24971 129.552 6.3257 129.762C6.40169 129.97 6.51129 130.136 6.6545 130.262C6.79479 130.385 6.98184 130.446 7.21565 130.446C7.54006 130.446 7.78556 130.326 7.95215 130.087C8.11582 129.847 8.19766 129.542 8.19766 129.17Z" fill="#2FB36B"/>
<path d="M2.36721 132.865L3.41936 132.865L3.41936 136.543L2.36721 136.543L2.36721 132.865ZM0.753906 135.557L0.753906 134.246L7.12381 134.246C7.37808 134.246 7.56952 134.208 7.69811 134.132C7.82379 134.056 7.91001 133.958 7.95677 133.838C8.00061 133.715 8.02253 133.582 8.02253 133.439C8.02253 133.334 8.01522 133.242 8.00061 133.163C7.98599 133.084 7.9743 133.023 7.96554 132.979L9.04838 132.742C9.0776 132.818 9.10683 132.926 9.13606 133.067C9.16821 133.207 9.18574 133.382 9.18866 133.593C9.19451 133.938 9.13313 134.259 9.00454 134.557C8.87594 134.855 8.6772 135.096 8.40832 135.281C8.13943 135.465 7.80187 135.557 7.39562 135.557L0.753906 135.557Z" fill="#2FB36B"/>
<path d="M9.24981 141.077C9.24981 141.504 9.1709 141.89 9.01307 142.235C8.85233 142.579 8.61998 142.853 8.31602 143.054C8.01207 143.253 7.63943 143.353 7.19811 143.353C6.81817 143.353 6.50544 143.279 6.25994 143.133C6.01444 142.987 5.82008 142.79 5.67687 142.542C5.53366 142.293 5.42553 142.015 5.35246 141.709C5.27939 141.402 5.22386 141.089 5.18587 140.77C5.13911 140.367 5.10111 140.04 5.07189 139.788C5.03974 139.537 4.98859 139.354 4.91845 139.24C4.8483 139.126 4.73432 139.069 4.5765 139.069L4.54581 139.069C4.16294 139.069 3.86629 139.178 3.65586 139.394C3.44543 139.607 3.34022 139.926 3.34022 140.35C3.34022 140.791 3.43813 141.139 3.63394 141.393C3.82684 141.644 4.04165 141.818 4.27839 141.915L3.99781 143.146C3.58864 143 3.25838 142.787 3.00704 142.506C2.75277 142.223 2.56864 141.897 2.45466 141.529C2.33775 141.161 2.2793 140.773 2.2793 140.367C2.2793 140.098 2.31145 139.813 2.37574 139.512C2.43712 139.208 2.5511 138.925 2.71769 138.662C2.88428 138.396 3.12248 138.178 3.43228 138.008C3.73916 137.839 4.1381 137.754 4.62911 137.754L9.10075 137.754L9.10075 139.034L8.18012 139.034L8.18012 139.087C8.34963 139.172 8.51622 139.299 8.67989 139.468C8.84356 139.638 8.97946 139.856 9.0876 140.122C9.19574 140.388 9.24981 140.706 9.24981 141.077ZM8.19766 140.792C8.19766 140.43 8.12605 140.12 7.98284 139.863C7.83963 139.603 7.65258 139.406 7.42169 139.271C7.18788 139.134 6.938 139.065 6.67204 139.065L5.80401 139.065C5.85077 139.112 5.89461 139.202 5.93553 139.337C5.97352 139.468 6.00713 139.619 6.03636 139.788C6.06266 139.958 6.08751 140.123 6.11089 140.284C6.13134 140.445 6.14888 140.579 6.16349 140.687C6.19564 140.941 6.24971 141.174 6.3257 141.384C6.40169 141.592 6.51129 141.758 6.6545 141.884C6.79479 142.007 6.98184 142.068 7.21565 142.068C7.54006 142.068 7.78556 141.948 7.95215 141.709C8.11582 141.469 8.19766 141.163 8.19766 140.792Z" fill="#2FB36B"/>
<path d="M9.23666 147.205C9.23666 147.857 9.08906 148.418 8.79388 148.888C8.49577 149.356 8.08513 149.716 7.56198 149.967C7.03883 150.218 6.43968 150.344 5.76455 150.344C5.08065 150.344 4.47713 150.215 3.95397 149.958C3.4279 149.701 3.01727 149.339 2.72208 148.871C2.42689 148.403 2.2793 147.852 2.2793 147.218C2.2793 146.707 2.37428 146.251 2.56425 145.85C2.7513 145.45 3.01434 145.127 3.35337 144.882C3.6924 144.633 4.08842 144.485 4.54143 144.439L4.54143 145.714C4.22578 145.785 3.95397 145.945 3.72601 146.197C3.49804 146.445 3.38406 146.778 3.38406 147.196C3.38406 147.562 3.4805 147.882 3.6734 148.156C3.86337 148.428 4.13518 148.64 4.48882 148.792C4.83954 148.944 5.25455 149.02 5.73387 149.02C6.22487 149.02 6.64865 148.945 7.00522 148.796C7.36178 148.647 7.63797 148.437 7.83379 148.165C8.0296 147.89 8.12751 147.567 8.12751 147.196C8.12751 146.948 8.08221 146.723 7.99161 146.521C7.89809 146.317 7.7651 146.146 7.59267 146.008C7.42023 145.868 7.21272 145.77 6.97014 145.714L6.97014 144.439C7.40562 144.485 7.79433 144.627 8.13628 144.864C8.47823 145.101 8.74711 145.418 8.94293 145.815C9.13875 146.21 9.23666 146.673 9.23666 147.205Z" fill="#2FB36B"/>
<path d="M9.23666 154.643C9.23666 155.275 9.09199 155.826 8.80264 156.296C8.5133 156.767 8.10852 157.132 7.58829 157.392C7.06805 157.652 6.46014 157.782 5.76455 157.782C5.06604 157.782 4.45521 157.652 3.93205 157.392C3.4089 157.132 3.00265 156.767 2.71331 156.296C2.42397 155.826 2.2793 155.275 2.2793 154.643C2.2793 154.012 2.42397 153.461 2.71331 152.991C3.00265 152.52 3.4089 152.155 3.93205 151.895C4.45521 151.635 5.06604 151.505 5.76455 151.505C6.46014 151.505 7.06805 151.635 7.58828 151.895C8.10852 152.155 8.5133 152.52 8.80264 152.991C9.09199 153.461 9.23666 154.012 9.23666 154.643ZM8.13628 154.639C8.13628 154.23 8.02814 153.891 7.81187 153.622C7.59559 153.353 7.30771 153.154 6.94823 153.026C6.58874 152.894 6.19272 152.829 5.76017 152.829C5.33054 152.829 4.93598 152.894 4.5765 153.026C4.21409 153.154 3.92329 153.353 3.70409 153.622C3.48489 153.891 3.37529 154.23 3.37529 154.639C3.37529 155.051 3.48489 155.393 3.70409 155.665C3.92329 155.934 4.21409 156.134 4.5765 156.266C4.93598 156.394 5.33054 156.458 5.76017 156.458C6.19272 156.458 6.58874 156.394 6.94823 156.266C7.30771 156.134 7.59559 155.934 7.81187 155.665C8.02814 155.393 8.13628 155.051 8.13628 154.639Z" fill="#2FB36B"/>
<path d="M0.123047 160.697L0.123047 159.346L6.48857 159.346C7.06433 159.346 7.5568 159.46 7.96597 159.688C8.37514 159.913 8.68786 160.23 8.90414 160.64C9.11749 161.049 9.22417 161.528 9.22417 162.078C9.22417 162.583 9.13211 163.038 8.94798 163.441C8.76385 163.841 8.49643 164.159 8.14571 164.392C7.79207 164.623 7.36244 164.739 6.85683 164.739L6.85683 163.393C7.10525 163.393 7.32007 163.336 7.50127 163.222C7.68247 163.105 7.82422 162.946 7.92651 162.744C8.02588 162.539 8.07557 162.306 8.07557 162.043C8.07557 161.756 8.01565 161.514 7.89583 161.315C7.77308 161.113 7.59333 160.96 7.3566 160.854C7.11986 160.749 6.83052 160.697 6.48857 160.697L0.123047 160.697Z" fill="#2FB36B"/>
<path d="M87.5237 235.66V239.659H86.2129V232.925H87.4711V234.021H87.5544C87.7093 233.664 87.9519 233.378 88.2821 233.162C88.6153 232.945 89.0347 232.837 89.5403 232.837C89.9992 232.837 90.401 232.934 90.7459 233.126C91.0908 233.316 91.3582 233.6 91.5482 233.977C91.7382 234.354 91.8331 234.82 91.8331 235.375V239.659H90.5223V235.533C90.5223 235.045 90.3952 234.664 90.1409 234.389C89.8867 234.111 89.5374 233.973 89.0932 233.973C88.7892 233.973 88.5189 234.038 88.2821 234.17C88.0483 234.301 87.8627 234.494 87.7254 234.749C87.5909 235 87.5237 235.304 87.5237 235.66Z" fill="#959595"/>
<path d="M83.1367 236.866V232.925H84.4519V239.659H83.163V238.492H83.0929C82.938 238.852 82.6895 239.151 82.3476 239.391C82.0086 239.628 81.5862 239.746 81.0806 239.746C80.6481 239.746 80.2652 239.651 79.932 239.461C79.6018 239.268 79.3416 238.983 79.1517 238.606C78.9646 238.229 78.8711 237.763 78.8711 237.208V232.925H80.1819V237.05C80.1819 237.509 80.309 237.874 80.5633 238.146C80.8176 238.418 81.1478 238.554 81.5541 238.554C81.7996 238.554 82.0436 238.492 82.2862 238.37C82.5317 238.247 82.7348 238.061 82.8956 237.813C83.0592 237.564 83.1396 237.249 83.1367 236.866Z" fill="#959595"/>
<path d="M75.6543 230.68H77.0046V237.046C77.0046 237.621 76.8906 238.114 76.6626 238.523C76.4376 238.932 76.1205 239.245 75.7113 239.461C75.3021 239.675 74.8228 239.781 74.2734 239.781C73.7678 239.781 73.3133 239.689 72.91 239.505C72.5096 239.321 72.1925 239.054 71.9586 238.703C71.7277 238.349 71.6123 237.92 71.6123 237.414H72.9582C72.9582 237.662 73.0152 237.877 73.1292 238.058C73.2461 238.24 73.4053 238.381 73.607 238.484C73.8116 238.583 74.0454 238.633 74.3084 238.633C74.5949 238.633 74.8374 238.573 75.0362 238.453C75.2378 238.33 75.3913 238.15 75.4965 237.914C75.6017 237.677 75.6543 237.388 75.6543 237.046V230.68Z" fill="#959595"/>
<path d="M51.3307 242.184C51.1349 242.184 50.9566 242.168 50.7959 242.135C50.6351 242.106 50.5153 242.074 50.4364 242.039L50.752 240.965C50.9917 241.029 51.205 241.057 51.3921 241.048C51.5791 241.039 51.7443 240.969 51.8875 240.838C52.0336 240.706 52.1622 240.491 52.2733 240.193L52.4355 239.746L49.9717 232.925H51.3745L53.0799 238.15H53.1501L54.8554 232.925H56.2627L53.4876 240.557C53.359 240.908 53.1954 241.205 52.9966 241.447C52.7979 241.693 52.5611 241.877 52.2864 242C52.0117 242.122 51.6931 242.184 51.3307 242.184Z" fill="#959595"/>
<path d="M45.6737 239.808C45.247 239.808 44.8612 239.729 44.5163 239.571C44.1715 239.41 43.8982 239.178 43.6965 238.874C43.4978 238.57 43.3984 238.197 43.3984 237.756C43.3984 237.376 43.4715 237.063 43.6176 236.818C43.7638 236.572 43.961 236.378 44.2095 236.235C44.4579 236.091 44.7355 235.983 45.0424 235.91C45.3493 235.837 45.662 235.782 45.9806 235.744C46.3839 235.697 46.7113 235.659 46.9626 235.63C47.214 235.598 47.3966 235.546 47.5106 235.476C47.6246 235.406 47.6816 235.292 47.6816 235.134V235.104C47.6816 234.721 47.5734 234.424 47.3572 234.214C47.1438 234.003 46.8252 233.898 46.4015 233.898C45.9601 233.898 45.6123 233.996 45.3581 234.192C45.1067 234.385 44.9328 234.599 44.8364 234.836L43.6045 234.556C43.7506 234.146 43.964 233.816 44.2445 233.565C44.528 233.311 44.8539 233.126 45.2222 233.012C45.5904 232.896 45.9777 232.837 46.3839 232.837C46.6528 232.837 46.9378 232.869 47.2388 232.934C47.5428 232.995 47.8262 233.109 48.0893 233.275C48.3552 233.442 48.573 233.68 48.7425 233.99C48.912 234.297 48.9968 234.696 48.9968 235.187V239.659H47.7166V238.738H47.664C47.5793 238.907 47.4521 239.074 47.2826 239.238C47.1131 239.401 46.8954 239.537 46.6294 239.645C46.3635 239.754 46.0449 239.808 45.6737 239.808ZM45.9587 238.755C46.3211 238.755 46.6309 238.684 46.8881 238.541C47.1482 238.397 47.3455 238.21 47.4799 237.979C47.6173 237.746 47.686 237.496 47.686 237.23V236.362C47.6392 236.409 47.5486 236.452 47.4142 236.493C47.2826 236.531 47.1321 236.565 46.9626 236.594C46.7931 236.62 46.628 236.645 46.4672 236.669C46.3065 236.689 46.172 236.707 46.0639 236.721C45.8096 236.753 45.5773 236.808 45.3668 236.884C45.1593 236.959 44.9927 237.069 44.8671 237.212C44.7443 237.353 44.6829 237.54 44.6829 237.773C44.6829 238.098 44.8028 238.343 45.0424 238.51C45.2821 238.674 45.5875 238.755 45.9587 238.755Z" fill="#959595"/>
<path d="M32.7402 230.68H34.3842L37.2426 237.659H37.3478L40.2061 230.68H41.8501V239.658H40.5612V233.161H40.4779L37.83 239.645H36.7603L34.1124 233.157H34.0291V239.658H32.7402V230.68Z" fill="#959595"/>
<path d="M258.324 232.925V233.977H254.646V232.925H258.324ZM255.632 231.311H256.943V237.681C256.943 237.936 256.981 238.127 257.057 238.256C257.133 238.381 257.231 238.468 257.35 238.514C257.473 238.558 257.606 238.58 257.749 238.58C257.855 238.58 257.947 238.573 258.026 238.558C258.104 238.543 258.166 238.532 258.21 238.523L258.446 239.606C258.37 239.635 258.262 239.664 258.122 239.694C257.982 239.726 257.806 239.743 257.596 239.746C257.251 239.752 256.93 239.691 256.631 239.562C256.333 239.433 256.092 239.235 255.908 238.966C255.724 238.697 255.632 238.359 255.632 237.953V231.311Z" fill="#959595"/>
<path d="M251.013 239.794C250.361 239.794 249.8 239.647 249.33 239.352C248.862 239.054 248.502 238.643 248.251 238.12C248 237.597 247.874 236.997 247.874 236.322C247.874 235.638 248.003 235.035 248.26 234.512C248.517 233.986 248.879 233.575 249.347 233.28C249.815 232.985 250.366 232.837 251 232.837C251.511 232.837 251.967 232.932 252.368 233.122C252.768 233.309 253.091 233.572 253.336 233.911C253.585 234.25 253.732 234.646 253.779 235.099H252.503C252.433 234.784 252.273 234.512 252.021 234.284C251.773 234.056 251.44 233.942 251.022 233.942C250.656 233.942 250.336 234.038 250.062 234.231C249.79 234.421 249.578 234.693 249.426 235.047C249.274 235.397 249.198 235.812 249.198 236.292C249.198 236.783 249.273 237.206 249.422 237.563C249.571 237.92 249.781 238.196 250.053 238.392C250.328 238.587 250.651 238.685 251.022 238.685C251.27 238.685 251.495 238.64 251.697 238.549C251.901 238.456 252.072 238.323 252.21 238.15C252.35 237.978 252.448 237.77 252.503 237.528H253.779C253.732 237.963 253.591 238.352 253.354 238.694C253.117 239.036 252.8 239.305 252.403 239.501C252.008 239.696 251.545 239.794 251.013 239.794Z" fill="#959595"/>
<path d="M246.592 235.169C246.592 236.128 246.417 236.952 246.066 237.642C245.716 238.329 245.235 238.858 244.624 239.229C244.016 239.597 243.325 239.781 242.55 239.781C241.773 239.781 241.079 239.597 240.468 239.229C239.86 238.858 239.381 238.327 239.03 237.637C238.679 236.948 238.504 236.125 238.504 235.169C238.504 234.211 238.679 233.388 239.03 232.701C239.381 232.011 239.86 231.482 240.468 231.114C241.079 230.743 241.773 230.557 242.55 230.557C243.325 230.557 244.016 230.743 244.624 231.114C245.235 231.482 245.716 232.011 246.066 232.701C246.417 233.388 246.592 234.211 246.592 235.169ZM245.251 235.169C245.251 234.439 245.132 233.823 244.896 233.324C244.662 232.821 244.34 232.441 243.931 232.184C243.525 231.924 243.065 231.794 242.55 231.794C242.033 231.794 241.571 231.924 241.165 232.184C240.759 232.441 240.437 232.821 240.201 233.324C239.967 233.823 239.85 234.439 239.85 235.169C239.85 235.9 239.967 236.517 240.201 237.019C240.437 237.519 240.759 237.899 241.165 238.159C241.571 238.416 242.033 238.545 242.55 238.545C243.065 238.545 243.525 238.416 243.931 238.159C244.34 237.899 244.662 237.519 244.896 237.019C245.132 236.517 245.251 235.9 245.251 235.169Z" fill="#959595"/>
<path d="M214.134 242.184V232.925H215.414V234.016H215.524C215.599 233.876 215.709 233.714 215.852 233.53C215.996 233.346 216.194 233.185 216.449 233.047C216.703 232.907 217.039 232.837 217.457 232.837C218 232.837 218.486 232.974 218.912 233.249C219.339 233.524 219.674 233.92 219.916 234.437C220.162 234.954 220.284 235.577 220.284 236.305C220.284 237.032 220.163 237.656 219.921 238.177C219.678 238.694 219.345 239.093 218.921 239.374C218.497 239.651 218.014 239.79 217.47 239.79C217.061 239.79 216.726 239.721 216.466 239.584C216.209 239.447 216.007 239.286 215.861 239.102C215.715 238.918 215.602 238.754 215.524 238.611H215.445V242.184H214.134ZM215.418 236.292C215.418 236.765 215.487 237.18 215.624 237.537C215.762 237.893 215.96 238.172 216.221 238.374C216.481 238.573 216.799 238.672 217.176 238.672C217.568 238.672 217.895 238.568 218.158 238.361C218.421 238.15 218.62 237.865 218.754 237.506C218.892 237.146 218.961 236.742 218.961 236.292C218.961 235.847 218.893 235.448 218.759 235.095C218.627 234.741 218.429 234.462 218.163 234.257C217.9 234.053 217.571 233.951 217.176 233.951C216.796 233.951 216.475 234.048 216.212 234.244C215.952 234.44 215.754 234.713 215.62 235.064C215.486 235.415 215.418 235.824 215.418 236.292Z" fill="#959595"/>
<path d="M209.791 239.794C209.127 239.794 208.556 239.653 208.076 239.369C207.6 239.083 207.232 238.681 206.972 238.164C206.715 237.643 206.586 237.034 206.586 236.335C206.586 235.646 206.715 235.038 206.972 234.512C207.232 233.986 207.594 233.575 208.059 233.28C208.527 232.985 209.073 232.837 209.699 232.837C210.079 232.837 210.447 232.9 210.803 233.026C211.16 233.151 211.48 233.348 211.763 233.617C212.047 233.886 212.27 234.236 212.434 234.665C212.598 235.092 212.68 235.611 212.68 236.221V236.686H207.327V235.704H211.395C211.395 235.359 211.325 235.054 211.185 234.788C211.044 234.519 210.847 234.307 210.593 234.152C210.342 233.997 210.046 233.92 209.707 233.92C209.339 233.92 209.018 234.01 208.743 234.192C208.471 234.37 208.261 234.604 208.112 234.893C207.965 235.18 207.892 235.491 207.892 235.827V236.594C207.892 237.044 207.971 237.427 208.129 237.743C208.29 238.058 208.513 238.299 208.8 238.466C209.086 238.63 209.421 238.712 209.804 238.712C210.052 238.712 210.279 238.676 210.483 238.606C210.688 238.533 210.865 238.425 211.014 238.282C211.163 238.139 211.277 237.962 211.356 237.751L212.596 237.975C212.497 238.34 212.319 238.66 212.062 238.935C211.807 239.207 211.487 239.419 211.101 239.571C210.719 239.72 210.282 239.794 209.791 239.794Z" fill="#959595"/>
<path d="M203.945 233.039C203.899 232.624 203.706 232.302 203.367 232.074C203.028 231.843 202.601 231.728 202.087 231.728C201.718 231.728 201.4 231.786 201.131 231.903C200.862 232.017 200.653 232.175 200.504 232.377C200.358 232.575 200.285 232.802 200.285 233.056C200.285 233.27 200.334 233.454 200.434 233.609C200.536 233.764 200.669 233.894 200.833 233.999C200.999 234.101 201.178 234.187 201.368 234.257C201.558 234.325 201.74 234.38 201.916 234.424L202.792 234.652C203.079 234.722 203.373 234.817 203.674 234.937C203.975 235.057 204.254 235.215 204.511 235.41C204.768 235.606 204.976 235.849 205.133 236.138C205.294 236.428 205.375 236.774 205.375 237.177C205.375 237.686 205.243 238.137 204.98 238.532C204.72 238.926 204.341 239.238 203.845 239.466C203.351 239.694 202.753 239.808 202.051 239.808C201.379 239.808 200.798 239.701 200.307 239.488C199.816 239.274 199.431 238.972 199.154 238.58C198.876 238.185 198.723 237.718 198.693 237.177H200.052C200.079 237.502 200.184 237.772 200.368 237.988C200.555 238.202 200.793 238.361 201.083 238.466C201.375 238.568 201.695 238.619 202.043 238.619C202.426 238.619 202.766 238.56 203.064 238.44C203.365 238.317 203.602 238.147 203.774 237.931C203.947 237.712 204.033 237.456 204.033 237.164C204.033 236.898 203.957 236.68 203.805 236.511C203.656 236.341 203.453 236.201 203.196 236.09C202.941 235.979 202.654 235.881 202.332 235.796L201.271 235.507C200.552 235.311 199.982 235.023 199.561 234.643C199.143 234.263 198.934 233.761 198.934 233.135C198.934 232.618 199.075 232.166 199.355 231.781C199.636 231.395 200.016 231.095 200.495 230.882C200.974 230.666 201.515 230.557 202.117 230.557C202.725 230.557 203.261 230.664 203.726 230.877C204.194 231.091 204.562 231.384 204.831 231.759C205.1 232.13 205.24 232.556 205.252 233.039H203.945Z" fill="#959595"/>
<path d="M173.136 242.324C172.601 242.324 172.14 242.254 171.755 242.114C171.372 241.973 171.059 241.788 170.816 241.557C170.574 241.326 170.393 241.073 170.273 240.798L171.4 240.334C171.478 240.462 171.584 240.598 171.715 240.741C171.85 240.888 172.031 241.012 172.259 241.114C172.49 241.216 172.786 241.267 173.149 241.267C173.646 241.267 174.056 241.146 174.381 240.904C174.705 240.664 174.867 240.281 174.867 239.755V238.431H174.784C174.705 238.574 174.591 238.734 174.442 238.909C174.296 239.084 174.094 239.236 173.837 239.365C173.58 239.493 173.245 239.558 172.833 239.558C172.301 239.558 171.822 239.434 171.395 239.185C170.971 238.934 170.635 238.564 170.387 238.076C170.141 237.585 170.019 236.981 170.019 236.265C170.019 235.549 170.14 234.936 170.382 234.424C170.628 233.913 170.964 233.521 171.391 233.249C171.817 232.974 172.301 232.837 172.842 232.837C173.26 232.837 173.597 232.907 173.855 233.048C174.112 233.185 174.312 233.346 174.455 233.53C174.601 233.714 174.714 233.876 174.793 234.016H174.889V232.925H176.174V239.808C176.174 240.386 176.039 240.861 175.77 241.232C175.501 241.604 175.138 241.878 174.679 242.057C174.223 242.235 173.708 242.324 173.136 242.324ZM173.122 238.47C173.499 238.47 173.818 238.383 174.078 238.207C174.341 238.029 174.54 237.775 174.674 237.445C174.812 237.111 174.88 236.713 174.88 236.248C174.88 235.795 174.813 235.396 174.679 235.051C174.544 234.706 174.347 234.437 174.087 234.244C173.827 234.049 173.505 233.951 173.122 233.951C172.728 233.951 172.399 234.053 172.136 234.258C171.873 234.459 171.674 234.734 171.54 235.082C171.408 235.429 171.343 235.818 171.343 236.248C171.343 236.689 171.41 237.076 171.544 237.41C171.679 237.743 171.877 238.003 172.14 238.19C172.406 238.377 172.734 238.47 173.122 238.47Z" fill="#959595"/>
<path d="M167.235 236.866V232.925H168.551V239.658H167.262V238.492H167.191C167.037 238.852 166.788 239.151 166.446 239.391C166.107 239.628 165.685 239.746 165.179 239.746C164.747 239.746 164.364 239.651 164.031 239.461C163.7 239.268 163.44 238.983 163.25 238.606C163.063 238.229 162.97 237.763 162.97 237.208V232.925H164.281V237.05C164.281 237.509 164.408 237.874 164.662 238.146C164.916 238.418 165.246 238.554 165.653 238.554C165.898 238.554 166.142 238.492 166.385 238.37C166.63 238.247 166.833 238.061 166.994 237.813C167.158 237.564 167.238 237.249 167.235 236.866Z" fill="#959595"/>
<path d="M155.19 239.658H153.752L156.983 230.68H158.548L161.779 239.658H160.341L157.803 232.311H157.733L155.19 239.658ZM155.431 236.143H160.096V237.282H155.431V236.143Z" fill="#959595"/>
<path d="M134.916 230.68V239.659H133.605V230.68H134.916Z" fill="#959595"/>
<path d="M130.529 236.866V232.925H131.844V239.658H130.556V238.492H130.485C130.331 238.852 130.082 239.151 129.74 239.391C129.401 239.628 128.979 239.746 128.473 239.746C128.041 239.746 127.658 239.651 127.325 239.461C126.994 239.268 126.734 238.983 126.544 238.606C126.357 238.229 126.264 237.763 126.264 237.208V232.925H127.574V237.05C127.574 237.509 127.702 237.874 127.956 238.146C128.21 238.418 128.54 238.554 128.947 238.554C129.192 238.554 129.436 238.492 129.679 238.37C129.924 238.247 130.127 238.061 130.288 237.813C130.452 237.564 130.532 237.249 130.529 236.866Z" fill="#959595"/>
<path d="M123.047 230.68H124.397V237.046C124.397 237.621 124.283 238.114 124.055 238.523C123.83 238.932 123.513 239.245 123.104 239.461C122.695 239.675 122.215 239.781 121.666 239.781C121.16 239.781 120.706 239.689 120.303 239.505C119.902 239.321 119.585 239.053 119.351 238.703C119.12 238.349 119.005 237.92 119.005 237.414H120.351C120.351 237.662 120.408 237.877 120.522 238.058C120.639 238.24 120.798 238.381 121 238.484C121.204 238.583 121.438 238.633 121.701 238.633C121.987 238.633 122.23 238.573 122.429 238.453C122.63 238.33 122.784 238.15 122.889 237.914C122.994 237.677 123.047 237.388 123.047 237.046V230.68Z" fill="#959595"/>
<path d="M195.847 259.566L194.659 259.776C194.609 259.624 194.53 259.48 194.422 259.342C194.317 259.205 194.174 259.092 193.993 259.005C193.811 258.917 193.585 258.873 193.313 258.873C192.942 258.873 192.632 258.956 192.384 259.123C192.135 259.287 192.011 259.499 192.011 259.759C192.011 259.984 192.094 260.165 192.261 260.302C192.427 260.44 192.696 260.552 193.068 260.64L194.137 260.885C194.757 261.029 195.219 261.249 195.523 261.547C195.827 261.845 195.979 262.233 195.979 262.709C195.979 263.112 195.862 263.472 195.628 263.788C195.397 264.1 195.074 264.346 194.659 264.524C194.247 264.702 193.769 264.791 193.225 264.791C192.471 264.791 191.856 264.631 191.38 264.309C190.903 263.985 190.611 263.524 190.503 262.928L191.77 262.735C191.849 263.066 192.011 263.316 192.257 263.485C192.502 263.652 192.822 263.735 193.217 263.735C193.646 263.735 193.99 263.646 194.247 263.468C194.504 263.286 194.633 263.066 194.633 262.806C194.633 262.595 194.554 262.418 194.396 262.275C194.241 262.132 194.003 262.024 193.681 261.951L192.541 261.701C191.913 261.558 191.448 261.33 191.147 261.017C190.849 260.704 190.7 260.308 190.7 259.829C190.7 259.431 190.811 259.084 191.033 258.785C191.256 258.487 191.562 258.255 191.954 258.088C192.346 257.919 192.794 257.834 193.3 257.834C194.028 257.834 194.6 257.992 195.018 258.308C195.436 258.62 195.713 259.04 195.847 259.566Z" fill="#959595"/>
<path d="M184.685 260.657V264.656H183.374V255.677H184.667V259.018H184.751C184.908 258.655 185.15 258.367 185.474 258.154C185.798 257.941 186.222 257.834 186.745 257.834C187.207 257.834 187.61 257.929 187.955 258.119C188.303 258.309 188.572 258.593 188.762 258.97C188.955 259.344 189.051 259.811 189.051 260.372V264.656H187.74V260.53C187.74 260.036 187.613 259.653 187.359 259.382C187.105 259.107 186.751 258.97 186.298 258.97C185.988 258.97 185.711 259.035 185.465 259.167C185.223 259.298 185.031 259.491 184.891 259.746C184.754 259.997 184.685 260.301 184.685 260.657Z" fill="#959595"/>
<path d="M181.78 257.922V258.974H178.102V257.922H181.78ZM179.088 256.308H180.399V262.678C180.399 262.933 180.437 263.124 180.513 263.253C180.589 263.378 180.687 263.465 180.806 263.511C180.929 263.555 181.062 263.577 181.205 263.577C181.311 263.577 181.403 263.57 181.482 263.555C181.561 263.541 181.622 263.529 181.666 263.52L181.902 264.603C181.826 264.632 181.718 264.661 181.578 264.691C181.438 264.723 181.262 264.74 181.052 264.743C180.707 264.749 180.386 264.688 180.088 264.559C179.789 264.431 179.548 264.232 179.364 263.963C179.18 263.694 179.088 263.356 179.088 262.95V256.308Z" fill="#959595"/>
<path d="M172.569 260.657V264.656H171.258V257.922H172.516V259.018H172.599C172.754 258.661 172.997 258.375 173.327 258.159C173.66 257.942 174.08 257.834 174.585 257.834C175.044 257.834 175.446 257.931 175.791 258.123C176.136 258.313 176.403 258.597 176.593 258.974C176.783 259.351 176.878 259.817 176.878 260.372V264.656H175.567V260.53C175.567 260.042 175.44 259.661 175.186 259.386C174.932 259.108 174.582 258.97 174.138 258.97C173.834 258.97 173.564 259.035 173.327 259.167C173.093 259.298 172.908 259.491 172.77 259.746C172.636 259.997 172.569 260.301 172.569 260.657Z" fill="#959595"/>
<path d="M166.656 264.791C166.024 264.791 165.473 264.647 165.003 264.357C164.532 264.068 164.167 263.663 163.907 263.143C163.647 262.623 163.517 262.015 163.517 261.319C163.517 260.621 163.647 260.01 163.907 259.487C164.167 258.964 164.532 258.557 165.003 258.268C165.473 257.979 166.024 257.834 166.656 257.834C167.287 257.834 167.838 257.979 168.308 258.268C168.779 258.557 169.144 258.964 169.404 259.487C169.664 260.01 169.794 260.621 169.794 261.319C169.794 262.015 169.664 262.623 169.404 263.143C169.144 263.663 168.779 264.068 168.308 264.357C167.838 264.647 167.287 264.791 166.656 264.791ZM166.66 263.691C167.069 263.691 167.408 263.583 167.677 263.367C167.946 263.15 168.145 262.863 168.273 262.503C168.405 262.144 168.47 261.748 168.47 261.315C168.47 260.885 168.405 260.491 168.273 260.131C168.145 259.769 167.946 259.478 167.677 259.259C167.408 259.04 167.069 258.93 166.66 258.93C166.248 258.93 165.906 259.04 165.634 259.259C165.365 259.478 165.165 259.769 165.033 260.131C164.905 260.491 164.841 260.885 164.841 261.315C164.841 261.748 164.905 262.144 165.033 262.503C165.165 262.863 165.365 263.15 165.634 263.367C165.906 263.583 166.248 263.691 166.66 263.691Z" fill="#959595"/>
<path d="M152.908 264.656V257.922H154.166V259.018H154.25C154.39 258.647 154.619 258.357 154.938 258.15C155.257 257.939 155.638 257.834 156.082 257.834C156.532 257.834 156.909 257.939 157.213 258.15C157.52 258.36 157.747 258.65 157.893 259.018H157.963C158.124 258.658 158.379 258.372 158.73 258.159C159.081 257.942 159.499 257.834 159.984 257.834C160.595 257.834 161.093 258.026 161.479 258.408C161.868 258.791 162.062 259.368 162.062 260.14V264.656H160.751V260.263C160.751 259.807 160.627 259.477 160.378 259.272C160.13 259.067 159.833 258.965 159.489 258.965C159.062 258.965 158.73 259.097 158.493 259.36C158.257 259.62 158.138 259.954 158.138 260.364V264.656H156.832V260.18C156.832 259.814 156.718 259.52 156.49 259.298C156.262 259.076 155.965 258.965 155.6 258.965C155.352 258.965 155.122 259.031 154.912 259.162C154.704 259.291 154.536 259.471 154.408 259.702C154.282 259.933 154.219 260.2 154.219 260.504V264.656H152.908Z" fill="#959595"/>
<path d="M144.911 264.778C144.51 264.772 144.116 264.699 143.727 264.559C143.341 264.419 142.99 264.185 142.675 263.858C142.359 263.53 142.106 263.09 141.916 262.538C141.729 261.986 141.636 261.296 141.636 260.469C141.636 259.686 141.713 258.99 141.868 258.382C142.026 257.774 142.252 257.261 142.548 256.843C142.843 256.422 143.199 256.102 143.617 255.883C144.035 255.664 144.504 255.554 145.025 255.554C145.559 255.554 146.034 255.66 146.449 255.87C146.864 256.081 147.2 256.371 147.458 256.742C147.718 257.114 147.883 257.536 147.953 258.009H146.616C146.525 257.635 146.346 257.33 146.077 257.093C145.808 256.856 145.457 256.738 145.025 256.738C144.367 256.738 143.854 257.025 143.486 257.597C143.12 258.17 142.936 258.967 142.933 259.987H142.999C143.154 259.732 143.344 259.516 143.569 259.338C143.797 259.157 144.051 259.018 144.332 258.921C144.615 258.822 144.913 258.772 145.226 258.772C145.746 258.772 146.217 258.899 146.638 259.154C147.062 259.405 147.399 259.753 147.651 260.197C147.902 260.641 148.028 261.15 148.028 261.723C148.028 262.296 147.898 262.814 147.637 263.279C147.38 263.744 147.018 264.112 146.55 264.384C146.083 264.653 145.536 264.784 144.911 264.778ZM144.906 263.638C145.251 263.638 145.559 263.554 145.831 263.384C146.103 263.215 146.318 262.987 146.476 262.7C146.633 262.414 146.712 262.094 146.712 261.74C146.712 261.395 146.635 261.081 146.48 260.798C146.328 260.514 146.118 260.289 145.849 260.123C145.583 259.956 145.279 259.873 144.937 259.873C144.677 259.873 144.436 259.922 144.214 260.022C143.994 260.121 143.801 260.258 143.635 260.434C143.468 260.609 143.337 260.811 143.24 261.039C143.147 261.264 143.1 261.502 143.1 261.753C143.1 262.089 143.177 262.401 143.332 262.687C143.49 262.974 143.705 263.204 143.977 263.38C144.252 263.552 144.561 263.638 144.906 263.638Z" fill="#959595"/>
<path d="M133.73 267.321C133.195 267.321 132.735 267.251 132.349 267.111C131.966 266.97 131.654 266.785 131.411 266.554C131.169 266.323 130.987 266.07 130.868 265.795L131.994 265.331C132.073 265.459 132.178 265.595 132.31 265.738C132.444 265.885 132.626 266.009 132.853 266.111C133.084 266.213 133.381 266.264 133.743 266.264C134.24 266.264 134.651 266.143 134.975 265.901C135.3 265.661 135.462 265.278 135.462 264.752V263.428H135.379C135.3 263.571 135.186 263.731 135.037 263.906C134.891 264.081 134.689 264.233 134.432 264.362C134.175 264.49 133.84 264.555 133.428 264.555C132.896 264.555 132.417 264.431 131.99 264.182C131.566 263.931 131.23 263.561 130.982 263.073C130.736 262.582 130.613 261.978 130.613 261.262C130.613 260.546 130.735 259.933 130.977 259.421C131.223 258.91 131.559 258.518 131.985 258.246C132.412 257.971 132.896 257.834 133.437 257.834C133.854 257.834 134.192 257.904 134.449 258.045C134.706 258.182 134.907 258.343 135.05 258.527C135.196 258.711 135.309 258.873 135.387 259.013H135.484V257.922H136.768V264.805C136.768 265.383 136.634 265.858 136.365 266.229C136.096 266.601 135.732 266.875 135.273 267.054C134.818 267.232 134.303 267.321 133.73 267.321ZM133.717 263.468C134.094 263.468 134.413 263.38 134.673 263.204C134.936 263.026 135.135 262.772 135.269 262.442C135.406 262.108 135.475 261.71 135.475 261.245C135.475 260.792 135.408 260.393 135.273 260.048C135.139 259.703 134.942 259.434 134.682 259.241C134.421 259.046 134.1 258.948 133.717 258.948C133.323 258.948 132.994 259.05 132.731 259.255C132.468 259.456 132.269 259.731 132.135 260.079C132.003 260.426 131.937 260.815 131.937 261.245C131.937 261.686 132.004 262.073 132.139 262.407C132.273 262.74 132.472 263 132.735 263.187C133.001 263.374 133.328 263.468 133.717 263.468Z" fill="#959595"/>
<path d="M124.839 260.657V264.656H123.528V257.922H124.787V259.018H124.87C125.025 258.661 125.267 258.375 125.598 258.159C125.931 257.942 126.35 257.834 126.856 257.834C127.315 257.834 127.716 257.931 128.061 258.123C128.406 258.313 128.674 258.597 128.864 258.974C129.054 259.351 129.149 259.817 129.149 260.372V264.656H127.838V260.53C127.838 260.042 127.711 259.661 127.456 259.386C127.202 259.108 126.853 258.97 126.409 258.97C126.105 258.97 125.834 259.035 125.598 259.167C125.364 259.298 125.178 259.491 125.041 259.746C124.906 259.997 124.839 260.301 124.839 260.657Z" fill="#959595"/>
<path d="M120.455 264.656V257.922H121.765V264.656H120.455ZM121.117 256.883C120.889 256.883 120.693 256.807 120.529 256.655C120.368 256.5 120.288 256.316 120.288 256.102C120.288 255.886 120.368 255.702 120.529 255.55C120.693 255.395 120.889 255.318 121.117 255.318C121.345 255.318 121.539 255.395 121.7 255.55C121.863 255.702 121.945 255.886 121.945 256.102C121.945 256.316 121.863 256.5 121.7 256.655C121.539 256.807 121.345 256.883 121.117 256.883Z" fill="#959595"/>
<path d="M118.691 255.677V264.656H117.38V255.677H118.691Z" fill="#959595"/>
<path d="M114.306 264.656V257.922H115.617V264.656H114.306ZM114.968 256.883C114.74 256.883 114.544 256.807 114.381 256.655C114.22 256.5 114.14 256.316 114.14 256.102C114.14 255.886 114.22 255.702 114.381 255.55C114.544 255.395 114.74 255.318 114.968 255.318C115.196 255.318 115.391 255.395 115.551 255.55C115.715 255.702 115.797 255.886 115.797 256.102C115.797 256.316 115.715 256.5 115.551 256.655C115.391 256.807 115.196 256.883 114.968 256.883Z" fill="#959595"/>
<path d="M109.236 264.805C108.81 264.805 108.424 264.726 108.079 264.568C107.734 264.407 107.461 264.175 107.259 263.871C107.06 263.567 106.961 263.194 106.961 262.753C106.961 262.373 107.034 262.06 107.18 261.815C107.326 261.569 107.524 261.375 107.772 261.232C108.02 261.088 108.298 260.98 108.605 260.907C108.912 260.834 109.225 260.779 109.543 260.741C109.946 260.694 110.274 260.656 110.525 260.627C110.776 260.595 110.959 260.543 111.073 260.473C111.187 260.403 111.244 260.289 111.244 260.131V260.101C111.244 259.718 111.136 259.421 110.92 259.211C110.706 259 110.388 258.895 109.964 258.895C109.523 258.895 109.175 258.993 108.921 259.189C108.669 259.382 108.495 259.596 108.399 259.833L107.167 259.553C107.313 259.143 107.526 258.813 107.807 258.562C108.091 258.308 108.416 258.123 108.785 258.009C109.153 257.893 109.54 257.834 109.946 257.834C110.215 257.834 110.5 257.866 110.801 257.931C111.105 257.992 111.389 258.106 111.652 258.273C111.918 258.439 112.135 258.677 112.305 258.987C112.475 259.294 112.559 259.693 112.559 260.184V264.656H111.279V263.735H111.227C111.142 263.904 111.015 264.071 110.845 264.235C110.676 264.398 110.458 264.534 110.192 264.642C109.926 264.751 109.607 264.805 109.236 264.805ZM109.521 263.752C109.884 263.752 110.193 263.681 110.451 263.538C110.711 263.394 110.908 263.207 111.042 262.977C111.18 262.743 111.248 262.493 111.248 262.227V261.359C111.202 261.406 111.111 261.449 110.977 261.49C110.845 261.528 110.695 261.562 110.525 261.591C110.356 261.617 110.19 261.642 110.03 261.666C109.869 261.686 109.735 261.704 109.626 261.718C109.372 261.75 109.14 261.805 108.929 261.881C108.722 261.957 108.555 262.066 108.43 262.209C108.307 262.35 108.245 262.537 108.245 262.77C108.245 263.095 108.365 263.34 108.605 263.507C108.845 263.671 109.15 263.752 109.521 263.752Z" fill="#959595"/>
<path d="M102.6 264.656V257.922H103.867V258.992H103.937C104.059 258.629 104.276 258.344 104.586 258.137C104.898 257.926 105.252 257.821 105.646 257.821C105.728 257.821 105.825 257.824 105.936 257.83C106.05 257.836 106.139 257.843 106.203 257.852V259.105C106.151 259.091 106.057 259.075 105.923 259.057C105.788 259.037 105.654 259.027 105.519 259.027C105.21 259.027 104.933 259.092 104.691 259.224C104.451 259.352 104.261 259.532 104.121 259.763C103.981 259.991 103.91 260.251 103.91 260.543V264.656H102.6Z" fill="#959595"/>
<path d="M94.9199 256.843V255.677H101.869V256.843H99.0672V264.656H97.7169V256.843H94.9199Z" fill="#959595"/>
<path d="M83.291 100.876L125.177 95.1447" stroke="#2FB36B" stroke-width="2"/>
<path d="M167.062 102.199L125.177 95.5856" stroke="#2FB36B" stroke-width="2"/>
<path d="M40.5234 93.3811L82.8655 101.758" stroke="#2FB36B" stroke-width="2"/>
<circle cx="82.8632" cy="100.876" r="2.64541" fill="#2FB36B"/>
<circle cx="125.259" cy="95.5856" r="2.14541" fill="#2FB36B" stroke="#2FB36B"/>
<circle cx="41.1122" cy="93.822" r="2.14541" fill="#2FB36B" stroke="#2FB36B"/>
<path d="M208.752 95.5857L250.968 88.9705" stroke="#2FB36B" stroke-width="2"/>
<path d="M167.503 103.081L209.389 95.5857" stroke="#2FB36B" stroke-width="2"/>
<path d="M210.886 95.5857C210.886 96.7725 209.928 97.7311 208.751 97.7311C207.575 97.7311 206.617 96.7725 206.617 95.5857C206.617 94.3988 207.575 93.4402 208.751 93.4402C209.928 93.4402 210.886 94.3988 210.886 95.5857Z" fill="#2FB36B" stroke="#2FB36B"/>
<path d="M253.101 88.0593C253.101 89.2462 252.144 90.2047 250.967 90.2047C249.791 90.2047 248.833 89.2462 248.833 88.0593C248.833 86.8724 249.791 85.9139 250.967 85.9139C252.144 85.9139 253.101 86.8724 253.101 88.0593Z" fill="#2FB36B" stroke="#2FB36B"/>
<path d="M169.309 102.812C169.309 103.999 168.352 104.958 167.175 104.958C165.999 104.958 165.041 103.999 165.041 102.812C165.041 101.625 165.999 100.667 167.175 100.667C168.352 100.667 169.309 101.625 169.309 102.812Z" fill="#2FB36B" stroke="#2FB36B"/>
</svg>
