<svg width="48" height="48" viewBox="0 0 48 48" fill="none" xmlns="http://www.w3.org/2000/svg">
<rect width="48" height="48" fill="white"/>
<path d="M34.4702 32.1012C35.17 32.2941 36.0518 32.4099 36.5037 31.9635C37.0548 31.4124 36.928 30.222 36.8178 29.6875L35.2417 27.9791L35.1976 27.9295L34.7347 27.4335L34.6355 27.3233L34.1891 26.8383L34.0348 26.673L33.627 26.2211L33.4176 25.9952L33.0043 25.5488L32.8169 25.3394L32.387 24.882L32.1556 24.634L31.7147 24.1986L31.4722 23.9451L31.0313 23.4656L30.844 23.2673L30.2929 22.7162L30.1716 22.5894L28.9262 21.2613C28.6591 20.9889 28.3757 20.7331 28.0775 20.4953C25.8125 18.6822 24.4127 19.7237 23.024 21.0464L22.7099 21.3439C20.8913 23.0854 19.2656 23.3609 17.8878 22.1651C16.6258 21.0629 16.736 17.9878 16.7526 17.6406V17.4918L18.7751 14.3782L13.3634 14.1191L10.6465 26.2211C12.3549 27.6209 21.8391 35.3857 23.3822 36.5651C24.2639 37.2374 25.7023 37.0611 26.6887 36.791C25.6527 35.8597 24.4072 34.6804 23.5696 33.8702L23.2279 33.5396L23.1177 33.4349L22.7319 33.0601L23.5034 32.2721C23.5365 32.2996 26.584 35.2866 28.2594 36.7194C28.3411 36.8084 28.4443 36.8749 28.5592 36.9125C28.674 36.9502 28.7966 36.9577 28.9152 36.9343C29.4662 36.8076 30.078 35.9699 30.4362 35.281L24.6828 30.0347L25.4268 29.219L31.2849 34.5481C32.4642 34.9504 33.3294 34.989 33.6601 34.6528C33.9907 34.3166 33.8584 33.3247 33.7262 32.8948L27.4107 26.8328L28.1712 26.0392L34.4702 32.1012Z" fill="#4A4A4A"/>
<path d="M25.9835 13.5791L20.3018 14.0586L17.8329 17.8611C17.7998 18.9633 17.9762 20.8204 18.5989 21.355C19.2217 21.8896 20.153 22.2808 21.9385 20.5724L22.2802 20.2473L22.6715 19.8946C22.953 19.6466 23.2513 19.4182 23.5643 19.2113C23.881 19.0027 24.2214 18.8326 24.5783 18.7043C24.758 18.6424 24.9422 18.5945 25.1294 18.561C25.3223 18.5277 25.5177 18.5111 25.7135 18.5114H25.7466C25.8677 18.505 25.9891 18.505 26.1103 18.5114H26.1654C26.297 18.5282 26.4276 18.5521 26.5567 18.583H26.6338C26.7719 18.6182 26.908 18.6605 27.0416 18.7098C27.1794 18.7594 27.3227 18.8255 27.466 18.8971L27.5597 18.9412C27.7029 19.0129 27.8462 19.0955 27.9895 19.1892L28.0612 19.2333C28.1971 19.3215 28.333 19.417 28.469 19.5199L28.5516 19.5805C28.7004 19.6962 28.8547 19.823 29.009 19.9607L29.1137 20.0599C29.2736 20.2032 29.4334 20.352 29.5932 20.5173L30.2104 21.1511L30.3041 21.2503L30.8552 21.8014L31.0205 21.9722L31.4834 22.4572L31.6818 22.6666L32.1558 23.1626L32.3156 23.3279L33.5666 24.656L33.7705 24.8765L34.1617 25.2953L34.3932 25.5433L34.7459 25.9235L34.9553 26.1495L35.297 26.5132L35.4899 26.7226L35.8426 27.1029L36.1236 27.3233L36.4984 27.7311L36.6031 27.8469L36.8566 28.1224L37.0384 28.3208L37.1652 28.4586L37.3305 28.6404L38.6146 27.4556L33.9193 15.8827L25.9835 13.5791Z" fill="#4A4A4A"/>
<path d="M9.60552 25.8409L12.2783 13.8987L5.37865 11L0 24.9261L9.60552 25.8409Z" fill="#4A4A4A"/>
<path d="M48 25.9789L41.7396 12.4551L35.0879 15.7837L39.6564 27.0039L48 25.9789Z" fill="#4A4A4A"/>
</svg>
