<svg width="8" height="11" viewBox="0 0 8 11" fill="none" xmlns="http://www.w3.org/2000/svg">
<path id="Vector 275" d="M4.5 0.921875L4.5 0.421875L3.5 0.421875L3.5 0.921875L4.5 0.921875ZM3.64645 10.4317C3.84171 10.6269 4.15829 10.6269 4.35355 10.4317L7.53553 7.2497C7.7308 7.05444 7.7308 6.73785 7.53553 6.54259C7.34027 6.34733 7.02369 6.34733 6.82843 6.54259L4 9.37102L1.17157 6.54259C0.97631 6.34733 0.659728 6.34733 0.464466 6.54259C0.269204 6.73785 0.269204 7.05444 0.464466 7.2497L3.64645 10.4317ZM3.5 0.921875L3.5 10.0781L4.5 10.0781L4.5 0.921875L3.5 0.921875Z" fill="#C48585"/>
</svg>
