<svg width="21" height="22" viewBox="0 0 21 22" fill="none" xmlns="http://www.w3.org/2000/svg">
<path fill-rule="evenodd" clip-rule="evenodd" d="M11.4978 0.960593C11.4978 0.430072 11.0298 0 10.4525 0C9.87525 0 9.40727 0.430072 9.40727 0.960593V12.0898L5.96538 8.92669C5.55718 8.55155 4.89537 8.55155 4.48717 8.92669C4.07898 9.30182 4.07898 9.91004 4.48717 10.2852L9.71342 15.0881C10.1216 15.4633 10.7834 15.4633 11.1916 15.0881L16.4179 10.2852C16.8261 9.91004 16.8261 9.30182 16.4179 8.92669C16.0097 8.55155 15.3479 8.55155 14.9397 8.92669L11.4978 12.0898V0.960593ZM2.0905 14.4089C2.0905 13.8784 1.62252 13.4483 1.04525 13.4483C0.467974 13.4483 0 13.8784 0 14.4089V18.2513C0 19.0156 0.330372 19.7485 0.918439 20.289C1.50651 20.8294 2.30409 21.133 3.13575 21.133H17.7692C18.6009 21.133 19.3985 20.8294 19.9865 20.289C20.5746 19.7485 20.905 19.0156 20.905 18.2513V14.4089C20.905 13.8784 20.437 13.4483 19.8597 13.4483C19.2825 13.4483 18.8145 13.8784 18.8145 14.4089V18.2513C18.8145 18.506 18.7044 18.7504 18.5083 18.9305C18.3123 19.1106 18.0464 19.2118 17.7692 19.2118H3.13575C2.85853 19.2118 2.59267 19.1106 2.39664 18.9305C2.20062 18.7504 2.0905 18.506 2.0905 18.2513V14.4089Z" fill="white"/>
</svg>
