<svg width="44" height="38" viewBox="0 0 44 38" fill="none" xmlns="http://www.w3.org/2000/svg">
<path d="M33.304 37.544C30.712 37.544 28.504 36.296 26.68 33.8C24.952 31.304 24.088 28.28 24.088 24.728C24.088 21.176 25.336 17.288 27.832 13.064C30.424 8.84 34.024 4.80799 38.632 0.967992L42.952 3.128L43.384 5C41.176 7.112 39.4 9.46399 38.056 12.056C36.808 14.552 36.184 16.904 36.184 19.112C36.184 21.224 36.856 23.24 38.2 25.16C39.64 26.984 41.464 28.328 43.672 29.192L43.816 31.208C40.264 35.432 36.76 37.544 33.304 37.544ZM9.256 37.544C6.664 37.544 4.456 36.296 2.632 33.8C0.904 31.304 0.04 28.28 0.04 24.728C0.04 21.176 1.288 17.288 3.784 13.064C6.376 8.84 9.976 4.80799 14.584 0.967992L18.904 3.128L19.336 5C17.128 7.112 15.352 9.46399 14.008 12.056C12.76 14.552 12.136 16.904 12.136 19.112C12.136 21.224 12.808 23.24 14.152 25.16C15.592 26.984 17.416 28.328 19.624 29.192L19.768 31.208C16.216 35.432 12.712 37.544 9.256 37.544Z" fill="#8DBFEC"/>
</svg>
