<svg width="21" height="20" viewBox="0 0 21 20" fill="none" xmlns="http://www.w3.org/2000/svg">
<path d="M18.6908 0H2.30916C1.31 0 0.5 0.81 0.5 1.80916V18.1908C0.5 19.19 1.31 20 2.30916 20H18.6908C19.69 20 20.5 19.19 20.5 18.1908V1.80916C20.5 0.81 19.69 0 18.6908 0ZM6.68885 17.2693C6.68885 17.5601 6.45314 17.7958 6.16236 17.7958H3.9212C3.63042 17.7958 3.39471 17.5601 3.39471 17.2693V7.8745C3.39471 7.58372 3.63042 7.34801 3.9212 7.34801H6.16236C6.45314 7.34801 6.68885 7.58372 6.68885 7.8745V17.2693ZM5.04178 6.46241C3.86592 6.46241 2.91267 5.50916 2.91267 4.3333C2.91267 3.15743 3.86592 2.20419 5.04178 2.20419C6.21764 2.20419 7.17089 3.15743 7.17089 4.3333C7.17089 5.50916 6.2177 6.46241 5.04178 6.46241ZM18.401 17.3117C18.401 17.5791 18.1843 17.7958 17.917 17.7958H15.512C15.2447 17.7958 15.028 17.5791 15.028 17.3117V12.905C15.028 12.2476 15.2208 10.0243 13.31 10.0243C11.8279 10.0243 11.5272 11.5461 11.4669 12.2291V17.3117C11.4669 17.5791 11.2502 17.7958 10.9828 17.7958H8.65681C8.38948 17.7958 8.17272 17.5791 8.17272 17.3117V7.83209C8.17272 7.56476 8.38948 7.34801 8.65681 7.34801H10.9828C11.2501 7.34801 11.4669 7.56476 11.4669 7.83209V8.65173C12.0164 7.82696 12.8332 7.19037 14.5722 7.19037C18.4231 7.19037 18.401 10.7881 18.401 12.7648V17.3117Z" fill="#5C5C5C"/>
</svg>
