<svg width="80" height="72" viewBox="0 0 80 72" fill="none" xmlns="http://www.w3.org/2000/svg">
<g id="decisioning-icon.svg">
<g id="Page-1">
<g id="SWARA-Landing-page-final">
<g id="Group-13">
<path id="Shape" d="M70.4749 1.38464H20.528C16.1933 1.38464 12.6667 4.85297 12.6667 9.10228L12.3448 52.7644H2.59741C1.90662 52.7644 1.37891 53.3708 1.37891 54.0566V60.0655C1.37891 65.6906 5.91332 70.291 11.3859 70.5433V70.6154H53.4465V70.5342C53.7592 70.5469 53.9485 70.6154 54.1635 70.6154H54.1934C60.03 70.5815 64.7348 65.8586 64.7043 60.0643V21.8745H77.4018C78.0925 21.8745 78.6203 21.2536 78.6203 20.5684V9.5431C78.6282 5.06216 74.9886 1.41678 70.4749 1.38464ZM11.9331 68.1318H11.9246C7.47508 68.1318 3.88065 64.481 3.88065 60.0643V55.248H43.5958V60.0437C43.5861 62.839 44.6983 65.5227 46.6864 67.5018C46.8977 67.7128 47.1188 67.8214 47.3448 68.1318H11.9331ZM62.2026 60.0631C62.2026 64.481 58.6429 68.1318 54.1916 68.1318H54.166C49.6926 68.0997 46.0872 64.4852 46.0976 60.0443V54.0566C46.1012 53.3611 45.5473 52.7887 44.8467 52.7644H14.8465L15.1684 9.11077C15.1684 6.22272 17.5724 3.86826 20.528 3.86826H64.5693C63.1438 5.42052 62.2026 7.38449 62.2026 9.57645V60.0631ZM76.1186 9.56493V19.3909H64.7043V9.57402C64.7043 6.46587 67.3087 3.86826 70.4383 3.86826H70.4731C73.6107 3.89918 76.1332 6.4404 76.1186 9.55583V9.56493Z" fill="#25505C" stroke="#25505C" stroke-width="0.5"/>
<path id="Shape_2" d="M30.0967 32.6461L36.5522 37.1618C36.9734 37.4589 37.5303 37.4589 37.9516 37.1618L44.3874 32.6473C46.6232 31.0867 48.2745 27.8239 48.2745 25.0572V15.9207C48.288 15.4378 48.0275 14.9899 47.6069 14.7704L37.778 9.82368C37.4331 9.64853 37.0284 9.64853 36.6836 9.82368L26.873 14.7566C26.4524 14.9762 26.1925 15.424 26.2066 15.9069V25.0572C26.2066 27.8239 27.8616 31.0867 30.0967 32.6461ZM28.7108 16.7064L37.2406 12.4002L45.7704 16.7183V25.0572C45.7704 26.9869 44.5342 29.4415 42.9746 30.5293L37.2259 34.5521L31.4998 30.5299C29.9402 29.4409 28.7108 26.9869 28.7108 25.0572V16.7064Z" fill="#25505C" stroke="#25505C" stroke-width="0.5"/>
<path id="Path" d="M35.8862 25.9609C36.1116 26.1812 36.4195 26.306 36.7415 26.3077H36.7445C37.0654 26.3066 37.3727 26.1834 37.5986 25.9654L42.4043 21.3612C42.8767 20.9093 42.8767 20.176 42.4048 19.7241C41.9335 19.2716 41.1679 19.2716 40.696 19.7235L36.7486 23.5034L35.1707 21.9776C34.7006 21.5234 33.9355 21.52 33.4613 21.9702C32.987 22.4205 32.9841 23.1532 33.4536 23.6074L35.8862 25.9609Z" fill="#25505C" stroke="#25505C" stroke-width="0.5"/>
<path id="Path_2" d="M52.5723 38.7693H23.2885C22.6147 38.7693 22.0684 39.3893 22.0684 40.1539C22.0684 40.9186 22.6147 41.5385 23.2885 41.5385H52.5723C53.2462 41.5385 53.7925 40.9186 53.7925 40.1539C53.7925 39.3893 53.2462 38.7693 52.5723 38.7693Z" fill="#25505C" stroke="#25505C" stroke-width="0.5"/>
<path id="Path_3" d="M52.5723 45.6923H23.2885C22.6147 45.6923 22.0684 46.3123 22.0684 47.0769C22.0684 47.8416 22.6147 48.4616 23.2885 48.4616H52.5723C53.2462 48.4616 53.7925 47.8416 53.7925 47.0769C53.7925 46.3123 53.2462 45.6923 52.5723 45.6923Z" fill="#25505C" stroke="#25505C" stroke-width="0.5"/>
</g>
</g>
</g>
</g>
</svg>
