<svg width="80" height="80" viewBox="0 0 80 80" fill="none" xmlns="http://www.w3.org/2000/svg">
<path fill-rule="evenodd" clip-rule="evenodd" d="M0.5 2.10345C0.5 1.2182 1.2182 0.5 2.10345 0.5H20.8621C21.7473 0.5 22.4655 1.2182 22.4655 2.10345C22.4655 2.98869 21.7473 3.7069 20.8621 3.7069H3.7069V20.3103C3.7069 21.1956 2.98869 21.9138 2.10345 21.9138C1.2182 21.9138 0.5 21.1956 0.5 20.3103V2.10345ZM43.5345 2.10345C43.5345 1.2182 44.2527 0.5 45.1379 0.5H63.8966C64.7818 0.5 65.5 1.2182 65.5 2.10345V20.3103C65.5 21.1956 64.7818 21.9138 63.8966 21.9138C63.0113 21.9138 62.2931 21.1956 62.2931 20.3103V3.7069H45.1379C44.2527 3.7069 43.5345 2.9887 43.5345 2.10345ZM0.5 44.5862C0.5 43.701 1.2182 42.9828 2.10345 42.9828C2.9887 42.9828 3.7069 43.701 3.7069 44.5862V62.2931H20.8621C21.7473 62.2931 22.4655 63.0113 22.4655 63.8966C22.4655 64.7818 21.7473 65.5 20.8621 65.5H2.10345C1.2182 65.5 0.5 64.7818 0.5 63.8966V44.5862ZM62.2931 44.5862C62.2931 43.701 63.0113 42.9828 63.8966 42.9828C64.7818 42.9828 65.5 43.701 65.5 44.5862V63.8966C65.5 64.7818 64.7818 65.5 63.8966 65.5H45.1379C44.2527 65.5 43.5345 64.7818 43.5345 63.8966C43.5345 63.0113 44.2527 62.2931 45.1379 62.2931H62.2931V44.5862ZM46.5307 11.5062C46.9756 11.4656 47.4096 11.627 47.7233 11.9152C48.0424 12.2084 48.23 12.6342 48.2174 13.0795L48.2173 13.0822L48.1006 18.606L48.1006 18.6073C48.0865 19.4528 47.3913 20.116 46.5581 20.116H46.5323C45.6721 20.1025 45.0114 19.3889 45.0246 18.5452L45.0246 18.5435L45.0545 16.9775L36.6447 25.5123L36.6428 25.5142C36.2393 25.9307 35.6411 26.0732 35.1017 25.915L35.0986 25.9141L26.0647 23.2004L18.2288 32.9406C17.9268 33.3091 17.4881 33.511 17.0332 33.511C16.685 33.511 16.34 33.3906 16.062 33.1651L16.0604 33.1638C15.4078 32.6299 15.3034 31.6607 15.8335 30.9966L15.8348 30.995L24.3242 20.4493C24.7146 19.9798 25.3605 19.7599 25.9694 19.9485L25.9721 19.9494L35.0889 22.6897L42.7068 14.9609L41.338 15.0873C40.4832 15.1674 39.7402 14.5369 39.661 13.6902C39.5811 12.8362 40.2083 12.0904 41.0557 12.0108L46.5307 11.5062ZM39.8655 28.3628C39.8655 27.5112 40.5557 26.8179 41.4081 26.8179H49.3084C50.1608 26.8179 50.851 27.5112 50.851 28.3628V50.4101H52.9574C53.8098 50.4101 54.5 51.1035 54.5 51.9551C54.5 52.8067 53.8098 53.5 52.9574 53.5H13.0426C12.1902 53.5 11.5 52.8067 11.5 51.9551C11.5 51.1035 12.1902 50.4101 13.0426 50.4101H14.6817V41.0823C14.6817 40.2307 15.3718 39.5374 16.2243 39.5374H24.1245C24.977 39.5374 25.6671 40.2307 25.6671 41.0823V50.4101H27.2736V34.7046C27.2736 33.853 27.9638 33.1596 28.8162 33.1596H36.7165C37.5689 33.1596 38.259 33.853 38.259 34.7046V50.4101H39.8655V28.3628ZM42.9507 29.9078V50.4101H47.7748V29.9078H42.9507ZM30.3588 36.2495V50.4101H35.1829V36.2495H30.3588ZM17.7668 42.6272V50.4101H22.591V42.6272H17.7668Z" fill="#2F4F5B"/>
</svg>
