<svg width="303" height="305" viewBox="0 0 303 305" fill="none" xmlns="http://www.w3.org/2000/svg">
<g clip-path="url(#clip0_3973_44624)">
<mask id="path-1-inside-1_3973_44624" fill="white">
<path d="M55 8H294V70H55V8Z"/>
</mask>
<path d="M55 8H294V70H55V8Z" fill="white"/>
<path d="M55 8.62023H294V7.37977H55V8.62023Z" fill="#DEDEDE" mask="url(#path-1-inside-1_3973_44624)"/>
<g style="mix-blend-mode:darken">
<mask id="path-3-inside-2_3973_44624" fill="white">
<path d="M55 70H294V95H55V70Z"/>
</mask>
<path d="M55 70H294V95H55V70Z" fill="#F7F7F7"/>
<path d="M55 70.6202H294V69.3798H55V70.6202ZM294 94.3798H55V95.6202H294V94.3798Z" fill="#DFDADA" mask="url(#path-3-inside-2_3973_44624)"/>
</g>
<rect x="55" y="95" width="239" height="12" fill="white"/>
<path d="M55 107H294V122H55V107Z" fill="#F7F7F7"/>
<path d="M55 107.31H294V106.69H55V107.31ZM294 121.69H55V122.31H294V121.69Z" fill="#DFDADA"/>
<rect x="55" y="122" width="239" height="5" fill="white"/>
<mask id="path-9-inside-3_3973_44624" fill="white">
<path d="M55 127H294V131H55V127Z"/>
</mask>
<path d="M55 127H294V131H55V127Z" fill="#F7F7F7"/>
<path d="M55 127.62H294V126.38H55V127.62ZM294 130.38H55V131.62H294V130.38Z" fill="#DFDADA" mask="url(#path-9-inside-3_3973_44624)"/>
<rect x="55" y="131" width="239" height="14" fill="white"/>
<mask id="path-12-inside-4_3973_44624" fill="white">
<path d="M55 145H294V194H55V145Z"/>
</mask>
<path d="M55 145H294V194H55V145Z" fill="#F7F7F7"/>
<path d="M55 145.62H294V144.38H55V145.62ZM294 193.38H55V194.62H294V193.38Z" fill="#DFDADA" mask="url(#path-12-inside-4_3973_44624)"/>
<mask id="path-14-inside-5_3973_44624" fill="white">
<path d="M55 194H294V258H55V194Z"/>
</mask>
<path d="M55 194H294V258H55V194Z" fill="white"/>
<path d="M294 257.38H55V258.62H294V257.38Z" fill="#B3B3B3" mask="url(#path-14-inside-5_3973_44624)"/>
</g>
<path d="M102.398 7.86328V257.197" stroke="#C9C9C9" stroke-dasharray="2 2"/>
<path d="M54.6211 7.86328V257.197" stroke="#DFDFDF"/>
<path d="M245.738 7.86328V257.197" stroke="#C9C9C9" stroke-dasharray="2 2"/>
<path d="M197.961 7.86328V257.197" stroke="#C9C9C9" stroke-dasharray="2 2"/>
<path d="M150.18 7.86328V257.197" stroke="#C9C9C9" stroke-dasharray="2 2"/>
<path d="M293.516 7.86328V257.197" stroke="#DFDFDF"/>
<path d="M33.3242 213.948C32.5752 213.948 31.9371 213.744 31.4102 213.336C30.8832 212.925 30.4805 212.33 30.2021 211.551C29.9237 210.769 29.7844 209.825 29.7844 208.718C29.7844 207.617 29.9237 206.678 30.2021 205.899C30.4838 205.117 30.8881 204.52 31.4151 204.109C31.9454 203.695 32.5818 203.488 33.3242 203.488C34.0666 203.488 34.7014 203.695 35.2283 204.109C35.7586 204.52 36.163 205.117 36.4414 205.899C36.7231 206.678 36.864 207.617 36.864 208.718C36.864 209.825 36.7248 210.769 36.4464 211.551C36.168 212.33 35.7653 212.925 35.2383 213.336C34.7113 213.744 34.0733 213.948 33.3242 213.948ZM33.3242 212.854C34.0666 212.854 34.6433 212.496 35.0543 211.78C35.4653 211.064 35.6708 210.043 35.6708 208.718C35.6708 207.836 35.5764 207.085 35.3874 206.466C35.2018 205.846 34.9334 205.373 34.582 205.049C34.234 204.724 33.8147 204.561 33.3242 204.561C32.5884 204.561 32.0134 204.924 31.5991 205.65C31.1848 206.373 30.9776 207.395 30.9776 208.718C30.9776 209.599 31.0704 210.348 31.256 210.965C31.4416 211.581 31.7085 212.05 32.0565 212.372C32.4078 212.693 32.8304 212.854 33.3242 212.854ZM39.2727 213.888C39.0275 213.888 38.817 213.8 38.6413 213.625C38.4657 213.449 38.3778 213.239 38.3778 212.993C38.3778 212.748 38.4657 212.538 38.6413 212.362C38.817 212.186 39.0275 212.098 39.2727 212.098C39.518 212.098 39.7285 212.186 39.9041 212.362C40.0798 212.538 40.1676 212.748 40.1676 212.993C40.1676 213.156 40.1262 213.305 40.0433 213.441C39.9638 213.577 39.8561 213.686 39.7202 213.769C39.5876 213.848 39.4384 213.888 39.2727 213.888ZM42.2532 213.809V212.914L45.614 209.235C46.0084 208.804 46.3332 208.429 46.5884 208.111C46.8436 207.79 47.0326 207.488 47.1552 207.206C47.2811 206.921 47.3441 206.623 47.3441 206.311C47.3441 205.953 47.2579 205.644 47.0856 205.382C46.9165 205.12 46.6845 204.918 46.3896 204.775C46.0946 204.633 45.7631 204.561 45.3952 204.561C45.0041 204.561 44.6628 204.643 44.3711 204.805C44.0827 204.964 43.859 205.188 43.6999 205.476C43.5442 205.765 43.4663 206.103 43.4663 206.49H42.293C42.293 205.894 42.4305 205.37 42.7056 204.919C42.9807 204.469 43.3552 204.117 43.8292 203.865C44.3065 203.614 44.8417 203.488 45.435 203.488C46.0316 203.488 46.5603 203.614 47.021 203.865C47.4817 204.117 47.8429 204.457 48.1048 204.885C48.3666 205.312 48.4975 205.788 48.4975 206.311C48.4975 206.686 48.4296 207.052 48.2937 207.41C48.1611 207.765 47.9291 208.161 47.5977 208.598C47.2695 209.033 46.8138 209.563 46.2305 210.189L43.9435 212.635V212.715H48.6765V213.809H42.2532Z" fill="#2FB36B"/>
<path d="M33.3652 259.6C32.6162 259.6 31.9782 259.396 31.4512 258.989C30.9242 258.578 30.5215 257.983 30.2431 257.204C29.9647 256.422 29.8255 255.477 29.8255 254.37C29.8255 253.27 29.9647 252.33 30.2431 251.551C30.5248 250.769 30.9292 250.172 31.4561 249.761C31.9864 249.347 32.6228 249.14 33.3652 249.14C34.1077 249.14 34.7424 249.347 35.2694 249.761C35.7997 250.172 36.204 250.769 36.4824 251.551C36.7641 252.33 36.905 253.27 36.905 254.37C36.905 255.477 36.7658 256.422 36.4874 257.204C36.209 257.983 35.8063 258.578 35.2793 258.989C34.7523 259.396 34.1143 259.6 33.3652 259.6ZM33.3652 258.506C34.1077 258.506 34.6844 258.148 35.0953 257.433C35.5063 256.717 35.7118 255.696 35.7118 254.37C35.7118 253.488 35.6174 252.738 35.4284 252.118C35.2428 251.498 34.9744 251.026 34.623 250.701C34.275 250.376 33.8558 250.214 33.3652 250.214C32.6294 250.214 32.0544 250.577 31.6401 251.303C31.2258 252.025 31.0186 253.048 31.0186 254.37C31.0186 255.252 31.1114 256.001 31.2971 256.617C31.4827 257.234 31.7495 257.703 32.0975 258.024C32.4488 258.346 32.8714 258.506 33.3652 258.506ZM39.3137 259.54C39.0685 259.54 38.858 259.453 38.6824 259.277C38.5067 259.101 38.4189 258.891 38.4189 258.646C38.4189 258.4 38.5067 258.19 38.6824 258.014C38.858 257.839 39.0685 257.751 39.3137 257.751C39.559 257.751 39.7695 257.839 39.9451 258.014C40.1208 258.19 40.2086 258.4 40.2086 258.646C40.2086 258.808 40.1672 258.957 40.0843 259.093C40.0048 259.229 39.8971 259.338 39.7612 259.421C39.6286 259.501 39.4795 259.54 39.3137 259.54ZM45.2598 259.6C44.5107 259.6 43.8727 259.396 43.3457 258.989C42.8187 258.578 42.416 257.983 42.1376 257.204C41.8592 256.422 41.72 255.477 41.72 254.37C41.72 253.27 41.8592 252.33 42.1376 251.551C42.4193 250.769 42.8237 250.172 43.3507 249.761C43.881 249.347 44.5173 249.14 45.2598 249.14C46.0022 249.14 46.6369 249.347 47.1639 249.761C47.6942 250.172 48.0985 250.769 48.377 251.551C48.6587 252.33 48.7995 253.27 48.7995 254.37C48.7995 255.477 48.6603 256.422 48.3819 257.204C48.1035 257.983 47.7008 258.578 47.1738 258.989C46.6468 259.396 46.0088 259.6 45.2598 259.6ZM45.2598 258.506C46.0022 258.506 46.5789 258.148 46.9899 257.433C47.4009 256.717 47.6064 255.696 47.6064 254.37C47.6064 253.488 47.5119 252.738 47.323 252.118C47.1374 251.498 46.8689 251.026 46.5176 250.701C46.1696 250.376 45.7503 250.214 45.2598 250.214C44.524 250.214 43.9489 250.577 43.5346 251.303C43.1203 252.025 42.9132 253.048 42.9132 254.37C42.9132 255.252 43.006 256.001 43.1916 256.617C43.3772 257.234 43.644 257.703 43.992 258.024C44.3433 258.346 44.7659 258.506 45.2598 258.506Z" fill="#2FB36B"/>
<path d="M32.5713 163.428C31.8222 163.428 31.1842 163.224 30.6572 162.817C30.1302 162.406 29.7275 161.811 29.4491 161.032C29.1707 160.25 29.0315 159.305 29.0315 158.198C29.0315 157.098 29.1707 156.158 29.4491 155.379C29.7309 154.597 30.1352 154 30.6622 153.589C31.1925 153.175 31.8289 152.968 32.5713 152.968C33.3137 152.968 33.9484 153.175 34.4754 153.589C35.0057 154 35.4101 154.597 35.6885 155.379C35.9702 156.158 36.1111 157.098 36.1111 158.198C36.1111 159.305 35.9719 160.25 35.6934 161.032C35.415 161.811 35.0123 162.406 34.4854 162.817C33.9584 163.224 33.3203 163.428 32.5713 163.428ZM32.5713 162.335C33.3137 162.335 33.8904 161.977 34.3014 161.261C34.7124 160.545 34.9179 159.524 34.9179 158.198C34.9179 157.317 34.8234 156.566 34.6345 155.946C34.4489 155.326 34.1804 154.854 33.8291 154.529C33.4811 154.204 33.0618 154.042 32.5713 154.042C31.8355 154.042 31.2604 154.405 30.8461 155.131C30.4318 155.853 30.2247 156.876 30.2247 158.198C30.2247 159.08 30.3175 159.829 30.5031 160.445C30.6887 161.062 30.9555 161.531 31.3035 161.852C31.6549 162.174 32.0774 162.335 32.5713 162.335ZM38.5198 163.369C38.2745 163.369 38.0641 163.281 37.8884 163.105C37.7127 162.929 37.6249 162.719 37.6249 162.474C37.6249 162.228 37.7127 162.018 37.8884 161.842C38.0641 161.667 38.2745 161.579 38.5198 161.579C38.7651 161.579 38.9755 161.667 39.1512 161.842C39.3269 162.018 39.4147 162.228 39.4147 162.474C39.4147 162.636 39.3733 162.785 39.2904 162.921C39.2108 163.057 39.1031 163.166 38.9672 163.249C38.8347 163.329 38.6855 163.369 38.5198 163.369ZM41.2616 161.201V160.187L45.7361 153.107H46.4719V154.678H45.9747L42.594 160.028V160.107H48.6196V161.201H41.2616ZM46.0542 163.289V160.893V160.42V153.107H47.2275V163.289H46.0542Z" fill="#2FB36B"/>
<path d="M33.3721 114.54C32.623 114.54 31.985 114.336 31.458 113.928C30.931 113.517 30.5283 112.922 30.2499 112.143C29.9715 111.361 29.8323 110.416 29.8323 109.309C29.8323 108.209 29.9715 107.269 30.2499 106.491C30.5316 105.708 30.936 105.112 31.463 104.701C31.9933 104.287 32.6296 104.079 33.3721 104.079C34.1145 104.079 34.7492 104.287 35.2762 104.701C35.8065 105.112 36.2108 105.708 36.4893 106.491C36.771 107.269 36.9118 108.209 36.9118 109.309C36.9118 110.416 36.7726 111.361 36.4942 112.143C36.2158 112.922 35.8131 113.517 35.2861 113.928C34.7591 114.336 34.1211 114.54 33.3721 114.54ZM33.3721 113.446C34.1145 113.446 34.6912 113.088 35.1022 112.372C35.5132 111.656 35.7187 110.635 35.7187 109.309C35.7187 108.428 35.6242 107.677 35.4353 107.057C35.2497 106.438 34.9812 105.965 34.6299 105.64C34.2819 105.316 33.8626 105.153 33.3721 105.153C32.6363 105.153 32.0612 105.516 31.6469 106.242C31.2326 106.965 31.0255 107.987 31.0255 109.309C31.0255 110.191 31.1183 110.94 31.3039 111.557C31.4895 112.173 31.7563 112.642 32.1043 112.964C32.4556 113.285 32.8782 113.446 33.3721 113.446ZM39.3206 114.48C39.0753 114.48 38.8648 114.392 38.6892 114.216C38.5135 114.041 38.4257 113.83 38.4257 113.585C38.4257 113.34 38.5135 113.129 38.6892 112.954C38.8648 112.778 39.0753 112.69 39.3206 112.69C39.5658 112.69 39.7763 112.778 39.952 112.954C40.1276 113.129 40.2155 113.34 40.2155 113.585C40.2155 113.747 40.174 113.897 40.0912 114.032C40.0116 114.168 39.9039 114.278 39.768 114.361C39.6354 114.44 39.4863 114.48 39.3206 114.48ZM45.3263 114.54C44.9086 114.533 44.491 114.453 44.0734 114.301C43.6558 114.148 43.2747 113.892 42.93 113.53C42.5853 113.166 42.3085 112.674 42.0997 112.054C41.8909 111.431 41.7865 110.648 41.7865 109.707C41.7865 108.806 41.871 108.007 42.04 107.311C42.2091 106.612 42.4543 106.023 42.7758 105.546C43.0973 105.065 43.4851 104.701 43.9392 104.452C44.3966 104.204 44.912 104.079 45.4854 104.079C46.0554 104.079 46.5625 104.194 47.0067 104.422C47.4541 104.648 47.8187 104.963 48.1004 105.367C48.3821 105.771 48.5644 106.237 48.6473 106.764H47.4342C47.3215 106.307 47.1028 105.927 46.778 105.626C46.4532 105.324 46.0223 105.173 45.4854 105.173C44.6965 105.173 44.0751 105.516 43.621 106.202C43.1702 106.888 42.9432 107.851 42.9399 109.091H43.0194C43.205 108.809 43.4255 108.569 43.6807 108.37C43.9392 108.168 44.2242 108.012 44.5358 107.903C44.8473 107.793 45.1771 107.738 45.5251 107.738C46.1085 107.738 46.6421 107.884 47.126 108.176C47.6099 108.464 47.9977 108.864 48.2893 109.374C48.581 109.881 48.7268 110.463 48.7268 111.119C48.7268 111.749 48.586 112.326 48.3042 112.849C48.0225 113.37 47.6264 113.784 47.116 114.092C46.6089 114.397 46.0123 114.546 45.3263 114.54ZM45.3263 113.446C45.7439 113.446 46.1184 113.341 46.4498 113.133C46.7846 112.924 47.0481 112.644 47.2403 112.292C47.4359 111.941 47.5336 111.55 47.5336 111.119C47.5336 110.698 47.4392 110.315 47.2503 109.971C47.0647 109.623 46.8078 109.346 46.4797 109.14C46.1549 108.935 45.7836 108.832 45.366 108.832C45.0512 108.832 44.7578 108.895 44.4861 109.021C44.2143 109.144 43.9756 109.313 43.7702 109.528C43.568 109.744 43.4089 109.991 43.2929 110.269C43.1769 110.544 43.1189 110.834 43.1189 111.139C43.1189 111.543 43.2133 111.921 43.4023 112.273C43.5945 112.624 43.8563 112.907 44.1878 113.123C44.5225 113.338 44.902 113.446 45.3263 113.446Z" fill="#2FB36B"/>
<path d="M33.4063 64.022C32.6572 64.022 32.0192 63.8182 31.4922 63.4105C30.9652 62.9995 30.5625 62.4046 30.2841 61.6257C30.0057 60.8435 29.8665 59.8989 29.8665 58.7919C29.8665 57.6915 30.0057 56.7519 30.2841 55.973C30.5658 55.1908 30.9702 54.5942 31.4972 54.1832C32.0275 53.7689 32.6638 53.5618 33.4063 53.5618C34.1487 53.5618 34.7834 53.7689 35.3104 54.1832C35.8407 54.5942 36.245 55.1908 36.5234 55.973C36.8052 56.7519 36.946 57.6915 36.946 58.7919C36.946 59.8989 36.8068 60.8435 36.5284 61.6257C36.25 62.4046 35.8473 62.9995 35.3203 63.4105C34.7933 63.8182 34.1553 64.022 33.4063 64.022ZM33.4063 62.9283C34.1487 62.9283 34.7254 62.5703 35.1364 61.8544C35.5473 61.1385 35.7528 60.1177 35.7528 58.7919C35.7528 57.9103 35.6584 57.1596 35.4695 56.5398C35.2839 55.92 35.0154 55.4477 34.6641 55.1229C34.3161 54.7981 33.8968 54.6357 33.4063 54.6357C32.6705 54.6357 32.0954 54.9986 31.6811 55.7244C31.2668 56.447 31.0597 57.4695 31.0597 58.7919C31.0597 59.6735 31.1525 60.4226 31.3381 61.0391C31.5237 61.6555 31.7905 62.1245 32.1385 62.446C32.4898 62.7675 32.9124 62.9283 33.4063 62.9283ZM39.3548 63.9624C39.1095 63.9624 38.899 63.8745 38.7234 63.6989C38.5477 63.5232 38.4599 63.3127 38.4599 63.0675C38.4599 62.8222 38.5477 62.6117 38.7234 62.4361C38.899 62.2604 39.1095 62.1726 39.3548 62.1726C39.6 62.1726 39.8105 62.2604 39.9862 62.4361C40.1618 62.6117 40.2496 62.8222 40.2496 63.0675C40.2496 63.2299 40.2082 63.379 40.1254 63.5149C40.0458 63.6508 39.9381 63.7602 39.8022 63.843C39.6696 63.9226 39.5205 63.9624 39.3548 63.9624ZM45.2821 64.022C44.5994 64.022 43.9962 63.901 43.4725 63.6591C42.9521 63.4138 42.5461 63.0774 42.2544 62.6499C41.9628 62.219 41.8186 61.7285 41.8219 61.1783C41.8186 60.7474 41.9031 60.3497 42.0755 59.9851C42.2478 59.6172 42.4831 59.3106 42.7814 59.0653C43.083 58.8168 43.4194 58.6593 43.7907 58.593V58.5334C43.3034 58.4074 42.9157 58.134 42.6273 57.7131C42.339 57.2888 42.1964 56.8066 42.1998 56.2663C42.1964 55.7493 42.3274 55.2869 42.5925 54.8793C42.8577 54.4716 43.2222 54.1501 43.6863 53.9148C44.1536 53.6795 44.6855 53.5618 45.2821 53.5618C45.8721 53.5618 46.3991 53.6795 46.8631 53.9148C47.3271 54.1501 47.6917 54.4716 47.9569 54.8793C48.2253 55.2869 48.3612 55.7493 48.3645 56.2663C48.3612 56.8066 48.2137 57.2888 47.9221 57.7131C47.6337 58.134 47.2509 58.4074 46.7736 58.5334V58.593C47.1415 58.6593 47.473 58.8168 47.7679 59.0653C48.0629 59.3106 48.2982 59.6172 48.4739 59.9851C48.6496 60.3497 48.7391 60.7474 48.7424 61.1783C48.7391 61.7285 48.5899 62.219 48.2949 62.6499C48.0033 63.0774 47.5972 63.4138 47.0769 63.6591C46.5598 63.901 45.9616 64.022 45.2821 64.022ZM45.2821 62.9283C45.7428 62.9283 46.1406 62.8537 46.4753 62.7045C46.8101 62.5554 47.0686 62.3449 47.2509 62.0732C47.4332 61.8014 47.526 61.4832 47.5293 61.1186C47.526 60.7341 47.4266 60.3944 47.231 60.0994C47.0355 59.8045 46.7686 59.5724 46.4306 59.4034C46.0958 59.2344 45.713 59.1499 45.2821 59.1499C44.848 59.1499 44.4602 59.2344 44.1188 59.4034C43.7807 59.5724 43.5139 59.8045 43.3184 60.0994C43.1261 60.3944 43.0317 60.7341 43.035 61.1186C43.0317 61.4832 43.1195 61.8014 43.2985 62.0732C43.4808 62.3449 43.7409 62.5554 44.079 62.7045C44.4171 62.8537 44.8181 62.9283 45.2821 62.9283ZM45.2821 58.0959C45.6467 58.0959 45.9699 58.023 46.2516 57.8771C46.5366 57.7313 46.7604 57.5275 46.9228 57.2656C47.0852 57.0038 47.168 56.6972 47.1713 56.3459C47.168 56.0012 47.0868 55.7012 46.9277 55.446C46.7686 55.1875 46.5482 54.9886 46.2665 54.8494C45.9848 54.7069 45.6567 54.6357 45.2821 54.6357C44.901 54.6357 44.5679 54.7069 44.2828 54.8494C43.9978 54.9886 43.7774 55.1875 43.6216 55.446C43.4658 55.7012 43.3896 56.0012 43.3929 56.3459C43.3896 56.6972 43.4675 57.0038 43.6266 57.2656C43.789 57.5275 44.0127 57.7313 44.2978 57.8771C44.5828 58.023 44.9109 58.0959 45.2821 58.0959Z" fill="#2FB36B"/>
<path d="M34.8679 4.81818V15H33.6349V6.1108H33.5753L31.0895 7.76136V6.50852L33.6349 4.81818H34.8679ZM38.0696 15.0795C37.8243 15.0795 37.6139 14.9917 37.4382 14.8161C37.2625 14.6404 37.1747 14.4299 37.1747 14.1847C37.1747 13.9394 37.2625 13.7289 37.4382 13.5533C37.6139 13.3776 37.8243 13.2898 38.0696 13.2898C38.3149 13.2898 38.5253 13.3776 38.701 13.5533C38.8767 13.7289 38.9645 13.9394 38.9645 14.1847C38.9645 14.3471 38.9231 14.4962 38.8402 14.6321C38.7607 14.768 38.6529 14.8774 38.517 14.9602C38.3845 15.0398 38.2353 15.0795 38.0696 15.0795ZM44.0156 15.1392C43.2666 15.1392 42.6286 14.9354 42.1016 14.5277C41.5746 14.1167 41.1719 13.5218 40.8935 12.7429C40.6151 11.9607 40.4759 11.0161 40.4759 9.90909C40.4759 8.80871 40.6151 7.86908 40.8935 7.0902C41.1752 6.308 41.5795 5.71141 42.1065 5.30043C42.6368 4.88613 43.2732 4.67898 44.0156 4.67898C44.758 4.67898 45.3928 4.88613 45.9197 5.30043C46.45 5.71141 46.8544 6.308 47.1328 7.0902C47.4145 7.86908 47.5554 8.80871 47.5554 9.90909C47.5554 11.0161 47.4162 11.9607 47.1378 12.7429C46.8594 13.5218 46.4567 14.1167 45.9297 14.5277C45.4027 14.9354 44.7647 15.1392 44.0156 15.1392ZM44.0156 14.0455C44.758 14.0455 45.3348 13.6875 45.7457 12.9716C46.1567 12.2557 46.3622 11.2348 46.3622 9.90909C46.3622 9.02746 46.2678 8.27675 46.0788 7.65696C45.8932 7.03717 45.6248 6.56487 45.2734 6.24006C44.9254 5.91525 44.5062 5.75284 44.0156 5.75284C43.2798 5.75284 42.7048 6.11577 42.2905 6.84162C41.8762 7.56416 41.669 8.58665 41.669 9.90909C41.669 10.7907 41.7618 11.5398 41.9474 12.1563C42.133 12.7727 42.3999 13.2417 42.7479 13.5632C43.0992 13.8847 43.5218 14.0455 44.0156 14.0455Z" fill="#2FB36B"/>
<path d="M0.318182 186.915L0.318182 185.384L7.53693 185.384C8.18987 185.384 8.74834 185.513 9.21236 185.772C9.67637 186.027 10.031 186.387 10.2763 186.851C10.5182 187.315 10.6392 187.858 10.6392 188.481C10.6392 189.055 10.5348 189.57 10.326 190.027C10.1172 190.482 9.81392 190.841 9.41619 191.106C9.01515 191.368 8.52794 191.499 7.95455 191.499L7.95455 189.973C8.23627 189.973 8.47988 189.908 8.68537 189.779C8.89086 189.646 9.05161 189.466 9.16761 189.237C9.2803 189.005 9.33665 188.74 9.33665 188.441C9.33665 188.117 9.2687 187.842 9.13281 187.616C8.99361 187.388 8.78977 187.214 8.52131 187.094C8.25284 186.975 7.92472 186.915 7.53693 186.915L0.318182 186.915ZM10.6541 180.051C10.6541 180.767 10.4901 181.391 10.1619 181.925C9.83381 182.459 9.37476 182.873 8.7848 183.168C8.19484 183.463 7.50544 183.61 6.71662 183.61C5.92448 183.61 5.23177 183.463 4.63849 183.168C4.04522 182.873 3.58452 182.459 3.25639 181.925C2.92827 181.391 2.7642 180.767 2.7642 180.051C2.7642 179.335 2.92827 178.71 3.25639 178.176C3.58452 177.643 4.04522 177.228 4.63849 176.934C5.23177 176.639 5.92448 176.491 6.71662 176.491C7.50544 176.491 8.19484 176.639 8.7848 176.934C9.37476 177.228 9.83381 177.643 10.1619 178.176C10.4901 178.71 10.6541 179.335 10.6541 180.051ZM9.40625 180.046C9.40625 179.582 9.28362 179.197 9.03835 178.892C8.79309 178.587 8.46662 178.362 8.05895 178.216C7.65128 178.067 7.20218 177.992 6.71165 177.992C6.22443 177.992 5.77699 178.067 5.36932 178.216C4.95833 178.362 4.62855 178.587 4.37997 178.892C4.13139 179.197 4.0071 179.582 4.0071 180.046C4.0071 180.513 4.13139 180.901 4.37997 181.209C4.62855 181.514 4.95833 181.741 5.36932 181.89C5.77699 182.036 6.22443 182.109 6.71165 182.109C7.20218 182.109 7.65128 182.036 8.05895 181.89C8.46662 181.741 8.79309 181.514 9.03835 181.209C9.28362 180.901 9.40625 180.513 9.40625 180.046ZM10.6541 171.615C10.6541 172.354 10.4867 172.991 10.152 173.524C9.81392 174.055 9.34825 174.462 8.75497 174.747C8.16169 175.032 7.48224 175.175 6.71662 175.175C5.94105 175.175 5.25663 175.029 4.66335 174.737C4.06676 174.446 3.60109 174.035 3.26633 173.504C2.93158 172.974 2.7642 172.349 2.7642 171.63C2.7642 171.05 2.87192 170.533 3.08736 170.079C3.29948 169.625 3.59777 169.259 3.98224 168.98C4.36671 168.698 4.81581 168.531 5.32954 168.478L5.32954 169.925C4.97159 170.004 4.66335 170.187 4.40483 170.472C4.14631 170.753 4.01704 171.131 4.01704 171.605C4.01704 172.019 4.12642 172.382 4.34517 172.694C4.56061 173.002 4.86884 173.243 5.26989 173.415C5.66761 173.587 6.13826 173.673 6.68182 173.673C7.23864 173.673 7.71922 173.589 8.12358 173.42C8.52793 173.251 8.84115 173.012 9.06321 172.704C9.28527 172.392 9.39631 172.026 9.39631 171.605C9.39631 171.323 9.34493 171.068 9.24219 170.84C9.13613 170.608 8.98532 170.414 8.78977 170.258C8.59422 170.099 8.3589 169.988 8.08381 169.925L8.08381 168.478C8.57765 168.531 9.01846 168.692 9.40625 168.96C9.79403 169.229 10.099 169.588 10.321 170.039C10.5431 170.487 10.6541 171.012 10.6541 171.615ZM10.669 164.666C10.669 165.15 10.5795 165.588 10.4006 165.979C10.2183 166.37 9.95478 166.68 9.61008 166.908C9.26539 167.134 8.8428 167.246 8.34233 167.246C7.91146 167.246 7.55682 167.163 7.27841 166.998C7 166.832 6.77959 166.608 6.61719 166.327C6.45478 166.045 6.33215 165.73 6.24929 165.382C6.16643 165.034 6.10346 164.679 6.06037 164.318C6.00734 163.861 5.96425 163.489 5.93111 163.204C5.89465 162.919 5.83665 162.712 5.7571 162.583C5.67756 162.454 5.54829 162.389 5.36932 162.389L5.33452 162.389C4.90033 162.389 4.56392 162.512 4.32528 162.757C4.08665 162.999 3.96733 163.36 3.96733 163.841C3.96733 164.341 4.07836 164.736 4.30043 165.024C4.51918 165.309 4.76278 165.506 5.03125 165.616L4.71307 167.013C4.24905 166.847 3.87453 166.605 3.58949 166.287C3.30114 165.965 3.09233 165.596 2.96307 165.178C2.83049 164.761 2.7642 164.321 2.7642 163.861C2.7642 163.556 2.80066 163.233 2.87358 162.891C2.94318 162.547 3.07244 162.225 3.26136 161.927C3.45028 161.625 3.72041 161.378 4.07173 161.186C4.41974 160.994 4.87216 160.898 5.42898 160.898L10.5 160.898L10.5 162.349L9.45596 162.349L9.45596 162.409C9.6482 162.505 9.83712 162.649 10.0227 162.842C10.2083 163.034 10.3625 163.281 10.4851 163.582C10.6077 163.884 10.669 164.245 10.669 164.666ZM9.47585 164.343C9.47585 163.932 9.39465 163.581 9.23224 163.289C9.06984 162.994 8.85772 162.77 8.59588 162.618C8.33073 162.462 8.04735 162.384 7.74574 162.384L6.76136 162.384C6.81439 162.437 6.86411 162.54 6.91051 162.692C6.9536 162.842 6.99171 163.012 7.02486 163.204C7.05469 163.397 7.08286 163.584 7.10937 163.766C7.13257 163.949 7.15246 164.101 7.16903 164.224C7.20549 164.512 7.26681 164.775 7.35298 165.014C7.43916 165.249 7.56345 165.438 7.72585 165.581C7.88494 165.72 8.09706 165.79 8.36221 165.79C8.73011 165.79 9.00852 165.654 9.19744 165.382C9.38305 165.11 9.47585 164.764 9.47585 164.343ZM2.86364 155.353L4.05682 155.353L4.05682 159.524L2.86364 159.524L2.86364 155.353ZM1.03409 158.406L1.03409 156.919L8.25781 156.919C8.54616 156.919 8.76326 156.876 8.90909 156.79C9.05161 156.704 9.14938 156.593 9.20241 156.457C9.25213 156.318 9.27699 156.167 9.27699 156.004C9.27699 155.885 9.2687 155.781 9.25213 155.691C9.23556 155.602 9.2223 155.532 9.21236 155.482L10.4403 155.214C10.4735 155.3 10.5066 155.423 10.5398 155.582C10.5762 155.741 10.5961 155.94 10.5994 156.178C10.6061 156.569 10.5365 156.934 10.3906 157.272C10.2448 157.61 10.0194 157.884 9.71449 158.092C9.40956 158.301 9.02675 158.406 8.56605 158.406L1.03409 158.406ZM10.669 151.486C10.669 151.97 10.5795 152.408 10.4006 152.799C10.2183 153.19 9.95478 153.5 9.61008 153.729C9.26539 153.954 8.8428 154.067 8.34233 154.067C7.91146 154.067 7.55682 153.984 7.27841 153.818C7 153.652 6.77959 153.429 6.61719 153.147C6.45478 152.865 6.33215 152.55 6.24929 152.202C6.16643 151.854 6.10345 151.5 6.06037 151.138C6.00734 150.681 5.96425 150.31 5.93111 150.025C5.89465 149.74 5.83665 149.533 5.7571 149.403C5.67756 149.274 5.54829 149.209 5.36932 149.209L5.33452 149.209C4.90033 149.209 4.56392 149.332 4.32528 149.577C4.08665 149.819 3.96733 150.181 3.96733 150.661C3.96733 151.162 4.07836 151.556 4.30042 151.844C4.51917 152.129 4.76278 152.327 5.03125 152.436L4.71307 153.833C4.24905 153.667 3.87453 153.425 3.58949 153.107C3.30113 152.786 3.09233 152.416 2.96307 151.998C2.83049 151.581 2.7642 151.142 2.7642 150.681C2.7642 150.376 2.80066 150.053 2.87358 149.712C2.94318 149.367 3.07244 149.045 3.26136 148.747C3.45028 148.445 3.72041 148.199 4.07173 148.006C4.41974 147.814 4.87216 147.718 5.42898 147.718L10.5 147.718L10.5 149.17L9.45596 149.17L9.45596 149.229C9.6482 149.325 9.83712 149.47 10.0227 149.662C10.2083 149.854 10.3625 150.101 10.4851 150.403C10.6077 150.704 10.669 151.065 10.669 151.486ZM9.47585 151.163C9.47585 150.752 9.39465 150.401 9.23224 150.109C9.06984 149.814 8.85772 149.591 8.59588 149.438C8.33073 149.282 8.04735 149.204 7.74574 149.204L6.76136 149.204C6.81439 149.257 6.86411 149.36 6.91051 149.513C6.9536 149.662 6.99171 149.833 7.02486 150.025C7.05469 150.217 7.08286 150.404 7.10937 150.587C7.13257 150.769 7.15246 150.921 7.16903 151.044C7.20549 151.332 7.26681 151.596 7.35298 151.834C7.43916 152.07 7.56345 152.259 7.72585 152.401C7.88494 152.54 8.09706 152.61 8.36221 152.61C8.73011 152.61 9.00852 152.474 9.19744 152.202C9.38305 151.931 9.47585 151.584 9.47585 151.163ZM2.9929 136.36C2.52225 136.413 2.15767 136.632 1.89915 137.017C1.63731 137.401 1.50639 137.885 1.50639 138.468C1.50639 138.886 1.57268 139.247 1.70525 139.552C1.83451 139.857 2.01349 140.094 2.24219 140.263C2.46756 140.429 2.72443 140.512 3.01278 140.512C3.25473 140.512 3.46354 140.455 3.6392 140.343C3.81487 140.227 3.96236 140.076 4.08167 139.89C4.19768 139.701 4.29545 139.499 4.375 139.284C4.45123 139.068 4.5142 138.861 4.56392 138.662L4.82244 137.668C4.90199 137.343 5.0097 137.01 5.14559 136.669C5.28148 136.327 5.46046 136.011 5.68253 135.719C5.90459 135.427 6.17969 135.192 6.50781 135.013C6.83594 134.831 7.22869 134.74 7.68608 134.74C8.26278 134.74 8.77486 134.889 9.2223 135.187C9.66974 135.482 10.0227 135.911 10.2812 136.475C10.5398 137.035 10.669 137.713 10.669 138.508C10.669 139.27 10.5481 139.93 10.3061 140.487C10.0642 141.044 9.72112 141.479 9.27699 141.794C8.82954 142.109 8.29924 142.283 7.68608 142.316L7.68608 140.775C8.05398 140.745 8.36056 140.626 8.60582 140.417C8.84777 140.205 9.02841 139.935 9.14773 139.607C9.26373 139.275 9.32173 138.912 9.32173 138.518C9.32173 138.084 9.25379 137.698 9.1179 137.36C8.97869 137.018 8.78646 136.75 8.54119 136.554C8.29261 136.359 8.0026 136.261 7.67116 136.261C7.36955 136.261 7.12263 136.347 6.9304 136.519C6.73816 136.688 6.57907 136.919 6.45312 137.21C6.32718 137.499 6.21614 137.825 6.12003 138.19L5.7919 139.393C5.56984 140.208 5.24337 140.855 4.8125 141.332C4.38163 141.806 3.81155 142.043 3.10227 142.043C2.51562 142.043 2.00355 141.884 1.56605 141.566C1.12855 141.247 0.788824 140.817 0.546873 140.273C0.301608 139.729 0.178975 139.116 0.178975 138.434C0.178975 137.744 0.299951 137.136 0.541902 136.609C0.783852 136.079 1.11695 135.661 1.54119 135.356C1.96212 135.051 2.44602 134.892 2.9929 134.879L2.9929 136.36ZM7.33309 128.186L2.86363 128.186L2.86363 126.694L10.5 126.694L10.5 128.156L9.17755 128.156L9.17755 128.236C9.58522 128.411 9.92495 128.693 10.1967 129.081C10.4652 129.465 10.5994 129.944 10.5994 130.517C10.5994 131.008 10.4917 131.442 10.2763 131.82C10.0575 132.195 9.73437 132.49 9.30682 132.705C8.87926 132.917 8.35061 133.023 7.72088 133.023L2.86363 133.023L2.86363 131.537L7.5419 131.537C8.06226 131.537 8.47656 131.392 8.7848 131.104C9.09304 130.816 9.24716 130.441 9.24716 129.981C9.24716 129.702 9.17755 129.425 9.03835 129.15C8.89915 128.872 8.68868 128.642 8.40696 128.459C8.12523 128.274 7.76728 128.182 7.33309 128.186ZM10.5 124.697L2.86363 124.697L2.86363 123.27L4.10653 123.27L4.10653 123.176C3.6856 123.017 3.35748 122.756 3.12216 122.395C2.88352 122.034 2.7642 121.601 2.7642 121.098C2.7642 120.587 2.88352 120.16 3.12216 119.815C3.36079 119.467 3.68892 119.21 4.10653 119.044L4.10653 118.965C3.69886 118.782 3.37405 118.492 3.1321 118.095C2.88683 117.697 2.7642 117.223 2.7642 116.673C2.7642 115.98 2.98129 115.415 3.41548 114.978C3.84967 114.537 4.50426 114.316 5.37926 114.316L10.5 114.316L10.5 115.803L5.51846 115.803C5.00142 115.803 4.62689 115.944 4.39488 116.225C4.16288 116.507 4.04687 116.844 4.04687 117.235C4.04687 117.719 4.19602 118.095 4.49432 118.363C4.7893 118.632 5.16879 118.766 5.63281 118.766L10.5 118.766L10.5 120.247L5.424 120.247C5.0097 120.247 4.67661 120.377 4.42471 120.635C4.17282 120.894 4.04687 121.23 4.04687 121.644C4.04687 121.926 4.12145 122.186 4.27059 122.425C4.41643 122.66 4.62026 122.851 4.8821 122.997C5.14394 123.139 5.4472 123.21 5.7919 123.21L10.5 123.21L10.5 124.697ZM13.3636 112.324L2.86363 112.324L2.86363 110.872L4.10156 110.872L4.10156 110.748C3.94247 110.662 3.75852 110.537 3.54971 110.375C3.34091 110.213 3.15861 109.987 3.00284 109.699C2.84375 109.411 2.7642 109.029 2.7642 108.555C2.7642 107.939 2.91998 107.389 3.23153 106.905C3.54308 106.421 3.99218 106.042 4.57883 105.766C5.16548 105.488 5.87145 105.349 6.69673 105.349C7.52201 105.349 8.22964 105.486 8.8196 105.761C9.40625 106.037 9.85866 106.414 10.1768 106.895C10.4917 107.376 10.6491 107.924 10.6491 108.541C10.6491 109.005 10.5713 109.384 10.4155 109.679C10.2597 109.971 10.0774 110.199 9.8686 110.365C9.6598 110.531 9.47419 110.658 9.31179 110.748L9.31179 110.837L13.3636 110.837L13.3636 112.324ZM6.68181 110.867C7.21875 110.867 7.68939 110.789 8.09375 110.634C8.4981 110.478 8.81463 110.252 9.04332 109.957C9.2687 109.662 9.38139 109.301 9.38139 108.874C9.38139 108.43 9.26373 108.058 9.02841 107.76C8.78977 107.462 8.46662 107.236 8.05895 107.084C7.65127 106.928 7.19223 106.85 6.68181 106.85C6.17803 106.85 5.72561 106.926 5.32457 107.079C4.92353 107.228 4.607 107.453 4.375 107.755C4.14299 108.053 4.02699 108.426 4.02699 108.874C4.02699 109.305 4.13802 109.669 4.36008 109.967C4.58215 110.262 4.89204 110.486 5.28977 110.639C5.6875 110.791 6.15151 110.867 6.68181 110.867ZM10.6541 100.467C10.6541 101.183 10.4901 101.807 10.1619 102.341C9.8338 102.875 9.37476 103.289 8.7848 103.584C8.19484 103.879 7.50544 104.026 6.71662 104.026C5.92448 104.026 5.23177 103.879 4.63849 103.584C4.04521 103.289 3.58451 102.875 3.25639 102.341C2.92826 101.807 2.7642 101.183 2.7642 100.467C2.7642 99.7508 2.92826 99.126 3.25639 98.5924C3.58451 98.0588 4.04521 97.6445 4.63849 97.3495C5.23177 97.0545 5.92448 96.907 6.71662 96.907C7.50544 96.907 8.19483 97.0545 8.7848 97.3495C9.37476 97.6445 9.8338 98.0588 10.1619 98.5924C10.4901 99.126 10.6541 99.7508 10.6541 100.467ZM9.40625 100.462C9.40625 99.9977 9.28361 99.6133 9.03835 99.3083C8.79308 99.0034 8.46662 98.778 8.05894 98.6322C7.65127 98.483 7.20217 98.4085 6.71164 98.4085C6.22443 98.4085 5.77698 98.483 5.36931 98.6322C4.95833 98.778 4.62855 99.0034 4.37997 99.3083C4.13139 99.6133 4.0071 99.9977 4.0071 100.462C4.0071 100.929 4.13139 101.317 4.37997 101.625C4.62855 101.93 4.95833 102.157 5.36931 102.306C5.77698 102.452 6.22443 102.525 6.71164 102.525C7.20217 102.525 7.65127 102.452 8.05895 102.306C8.46662 102.157 8.79308 101.93 9.03835 101.625C9.28361 101.317 9.40625 100.929 9.40625 100.462ZM10.6541 92.0312C10.6541 92.7471 10.4901 93.3718 10.1619 93.9055C9.8338 94.4391 9.37476 94.8534 8.7848 95.1483C8.19483 95.4433 7.50544 95.5908 6.71662 95.5908C5.92447 95.5908 5.23177 95.4433 4.63849 95.1483C4.04521 94.8534 3.58451 94.4391 3.25639 93.9055C2.92826 93.3718 2.7642 92.7471 2.7642 92.0312C2.7642 91.3153 2.92826 90.6905 3.25639 90.1569C3.58451 89.6233 4.04521 89.209 4.63849 88.914C5.23177 88.619 5.92447 88.4715 6.71661 88.4715C7.50544 88.4715 8.19483 88.619 8.7848 88.914C9.37476 89.209 9.8338 89.6233 10.1619 90.1569C10.4901 90.6905 10.6541 91.3153 10.6541 92.0312ZM9.40625 92.0262C9.40625 91.5622 9.28361 91.1777 9.03835 90.8728C8.79308 90.5679 8.46661 90.3425 8.05894 90.1966C7.65127 90.0475 7.20217 89.9729 6.71164 89.9729C6.22443 89.9729 5.77698 90.0475 5.36931 90.1966C4.95833 90.3425 4.62855 90.5679 4.37997 90.8728C4.13139 91.1777 4.0071 91.5622 4.0071 92.0262C4.0071 92.4935 4.13139 92.8813 4.37997 93.1895C4.62855 93.4945 4.95833 93.7215 5.36931 93.8706C5.77698 94.0165 6.22443 94.0894 6.71164 94.0894C7.20217 94.0894 7.65127 94.0165 8.05894 93.8706C8.46662 93.7215 8.79308 93.4945 9.03835 93.1895C9.28361 92.8813 9.40625 92.4935 9.40625 92.0262ZM10.5 86.8122L2.86363 86.8122L2.86363 85.3754L4.0767 85.3754L4.0767 85.2959C3.66572 85.1567 3.34256 84.9114 3.10724 84.5601C2.8686 84.2055 2.74929 83.8044 2.74929 83.357C2.74929 83.2642 2.7526 83.1548 2.75923 83.0289C2.76586 82.8996 2.77414 82.7985 2.78409 82.7256L4.20596 82.7256C4.18939 82.7852 4.17116 82.8913 4.15127 83.0438C4.12807 83.1962 4.11647 83.3487 4.11647 83.5012C4.11647 83.8525 4.19105 84.1657 4.34019 84.4408C4.48603 84.7126 4.68986 84.928 4.9517 85.0871C5.21022 85.2462 5.5052 85.3257 5.83664 85.3257L10.5 85.3257L10.5 86.8122ZM5.9659 79.9527L10.5 79.9527L10.5 81.4392L2.86363 81.4392L2.86363 80.0123L4.10653 80.0123L4.10653 79.9179C3.70217 79.7422 3.37736 79.4671 3.1321 79.0926C2.88683 78.7148 2.7642 78.2391 2.7642 77.6657C2.7642 77.1454 2.87358 76.6897 3.09233 76.2986C3.30776 75.9075 3.62926 75.6042 4.05681 75.3888C4.48437 75.1733 5.01302 75.0656 5.64275 75.0656L10.5 75.0656L10.5 76.5521L5.82173 76.5521C5.26822 76.5521 4.8357 76.6963 4.52414 76.9846C4.20928 77.273 4.05184 77.6691 4.05184 78.1729C4.05184 78.5175 4.12642 78.8241 4.27556 79.0926C4.42471 79.3577 4.64346 79.5682 4.93181 79.724C5.21685 79.8764 5.56155 79.9527 5.9659 79.9527Z" fill="#2FB36B"/>
<path d="M91.017 276.461V266.279H97.331V267.602H92.5533V270.704H96.8786V272.021H92.5533V276.461H91.017ZM101.831 276.615C101.079 276.615 100.431 276.454 99.8876 276.133C99.3474 275.808 98.9297 275.352 98.6348 274.766C98.3431 274.176 98.1973 273.485 98.1973 272.692C98.1973 271.91 98.3431 271.221 98.6348 270.624C98.9297 270.028 99.3407 269.562 99.8677 269.227C100.398 268.893 101.018 268.725 101.727 268.725C102.158 268.725 102.576 268.796 102.98 268.939C103.384 269.081 103.747 269.305 104.069 269.61C104.39 269.915 104.644 270.311 104.829 270.798C105.015 271.282 105.108 271.871 105.108 272.563V273.09H99.0375V271.977H103.651C103.651 271.585 103.572 271.239 103.412 270.938C103.253 270.633 103.03 270.392 102.741 270.217C102.456 270.041 102.122 269.953 101.737 269.953C101.319 269.953 100.955 270.056 100.643 270.261C100.335 270.464 100.096 270.729 99.9274 271.057C99.7617 271.382 99.6788 271.735 99.6788 272.116V272.986C99.6788 273.496 99.7683 273.93 99.9473 274.288C100.13 274.646 100.383 274.92 100.708 275.109C101.033 275.294 101.412 275.387 101.846 275.387C102.128 275.387 102.385 275.347 102.617 275.268C102.849 275.185 103.05 275.062 103.219 274.9C103.388 274.737 103.517 274.537 103.606 274.298L105.013 274.552C104.901 274.966 104.698 275.329 104.407 275.641C104.118 275.949 103.756 276.189 103.318 276.362C102.884 276.531 102.388 276.615 101.831 276.615ZM106.876 276.461V266.279H108.363V270.063H108.452C108.539 269.903 108.663 269.719 108.825 269.511C108.988 269.302 109.213 269.12 109.501 268.964C109.79 268.805 110.171 268.725 110.645 268.725C111.261 268.725 111.812 268.881 112.295 269.192C112.779 269.504 113.159 269.953 113.434 270.54C113.712 271.126 113.852 271.832 113.852 272.658C113.852 273.483 113.714 274.191 113.439 274.781C113.164 275.367 112.786 275.82 112.305 276.138C111.825 276.453 111.276 276.61 110.66 276.61C110.196 276.61 109.816 276.532 109.521 276.376C109.23 276.221 109.001 276.038 108.835 275.83C108.67 275.621 108.542 275.435 108.452 275.273H108.328V276.461H106.876ZM108.333 272.643C108.333 273.18 108.411 273.65 108.567 274.055C108.723 274.459 108.948 274.776 109.243 275.004C109.538 275.23 109.899 275.342 110.327 275.342C110.771 275.342 111.142 275.225 111.44 274.989C111.739 274.751 111.964 274.428 112.116 274.02C112.272 273.612 112.35 273.153 112.35 272.643C112.35 272.139 112.274 271.687 112.121 271.286C111.972 270.884 111.747 270.568 111.445 270.336C111.147 270.104 110.774 269.988 110.327 269.988C109.896 269.988 109.531 270.099 109.233 270.321C108.938 270.543 108.714 270.853 108.562 271.251C108.409 271.648 108.333 272.112 108.333 272.643Z" fill="#959595"/>
<path d="M52.3299 266.279H53.8612V273.498C53.8612 274.151 53.7319 274.709 53.4734 275.173C53.2182 275.637 52.8585 275.992 52.3945 276.237C51.9305 276.479 51.387 276.6 50.7639 276.6C50.1905 276.6 49.6751 276.496 49.2177 276.287C48.7636 276.078 48.404 275.775 48.1389 275.377C47.877 274.976 47.7461 274.489 47.7461 273.915H49.2724C49.2724 274.197 49.337 274.441 49.4663 274.646C49.5988 274.852 49.7795 275.013 50.0082 275.129C50.2402 275.241 50.5053 275.298 50.8036 275.298C51.1284 275.298 51.4035 275.23 51.6289 275.094C51.8576 274.955 52.0316 274.751 52.1509 274.482C52.2702 274.214 52.3299 273.886 52.3299 273.498V266.279ZM58.2001 276.63C57.7162 276.63 57.2787 276.54 56.8876 276.362C56.4965 276.179 56.1866 275.916 55.9579 275.571C55.7325 275.226 55.6199 274.804 55.6199 274.303C55.6199 273.872 55.7027 273.518 55.8684 273.239C56.0342 272.961 56.2579 272.741 56.5396 272.578C56.8213 272.416 57.1362 272.293 57.4842 272.21C57.8322 272.127 58.1868 272.064 58.5481 272.021C59.0055 271.968 59.3767 271.925 59.6618 271.892C59.9468 271.856 60.1539 271.798 60.2832 271.718C60.4125 271.638 60.4771 271.509 60.4771 271.33V271.295C60.4771 270.861 60.3545 270.525 60.1092 270.286C59.8672 270.048 59.506 269.928 59.0254 269.928C58.5249 269.928 58.1305 270.039 57.8422 270.261C57.5571 270.48 57.3599 270.724 57.2505 270.992L55.8535 270.674C56.0192 270.21 56.2612 269.835 56.5794 269.55C56.9009 269.262 57.2704 269.053 57.688 268.924C58.1056 268.791 58.5448 268.725 59.0055 268.725C59.3104 268.725 59.6336 268.762 59.975 268.835C60.3197 268.904 60.6412 269.033 60.9395 269.222C61.2411 269.411 61.488 269.681 61.6802 270.033C61.8725 270.381 61.9686 270.833 61.9686 271.39V276.461H60.5169V275.417H60.4572C60.3611 275.609 60.2169 275.798 60.0247 275.984C59.8324 276.169 59.5855 276.323 59.2839 276.446C58.9823 276.569 58.621 276.63 58.2001 276.63ZM58.5233 275.437C58.9342 275.437 59.2856 275.356 59.5772 275.193C59.8722 275.031 60.0959 274.819 60.2484 274.557C60.4042 274.292 60.4821 274.008 60.4821 273.707V272.722C60.429 272.775 60.3263 272.825 60.1738 272.871C60.0247 272.915 59.854 272.953 59.6618 272.986C59.4695 273.016 59.2823 273.044 59.1 273.07C58.9177 273.094 58.7652 273.113 58.6426 273.13C58.3542 273.166 58.0907 273.228 57.8521 273.314C57.6168 273.4 57.4279 273.524 57.2853 273.687C57.1461 273.846 57.0765 274.058 57.0765 274.323C57.0765 274.691 57.2124 274.969 57.4842 275.158C57.756 275.344 58.1023 275.437 58.5233 275.437ZM65.435 271.927V276.461H63.9485V268.825H65.3754V270.067H65.4698C65.6455 269.663 65.9206 269.338 66.2951 269.093C66.6729 268.848 67.1486 268.725 67.7219 268.725C68.2423 268.725 68.698 268.835 69.0891 269.053C69.4802 269.269 69.7835 269.59 69.9989 270.018C70.2144 270.445 70.3221 270.974 70.3221 271.604V276.461H68.8356V271.783C68.8356 271.229 68.6914 270.797 68.4031 270.485C68.1147 270.17 67.7186 270.013 67.2148 270.013C66.8701 270.013 66.5636 270.087 66.2951 270.237C66.0299 270.386 65.8195 270.604 65.6637 270.893C65.5112 271.178 65.435 271.522 65.435 271.927Z" fill="#959595"/>
<path d="M283.431 266.279H284.963V273.498C284.963 274.151 284.833 274.709 284.575 275.173C284.32 275.637 283.96 275.992 283.496 276.237C283.032 276.479 282.489 276.6 281.865 276.6C281.292 276.6 280.777 276.496 280.319 276.287C279.865 276.078 279.506 275.775 279.24 275.377C278.979 274.976 278.848 274.489 278.848 273.915H280.374C280.374 274.197 280.439 274.441 280.568 274.646C280.7 274.852 280.881 275.013 281.11 275.129C281.342 275.241 281.607 275.298 281.905 275.298C282.23 275.298 282.505 275.23 282.73 275.094C282.959 274.955 283.133 274.751 283.252 274.482C283.372 274.214 283.431 273.886 283.431 273.498V266.279ZM291.917 273.294V268.825H293.408V276.461H291.947V275.138H291.867C291.691 275.546 291.41 275.886 291.022 276.158C290.637 276.426 290.158 276.56 289.585 276.56C289.095 276.56 288.66 276.453 288.282 276.237C287.908 276.018 287.613 275.695 287.398 275.268C287.185 274.84 287.079 274.312 287.079 273.682V268.825H288.566V273.503C288.566 274.023 288.71 274.438 288.998 274.746C289.287 275.054 289.661 275.208 290.122 275.208C290.4 275.208 290.677 275.138 290.952 274.999C291.231 274.86 291.461 274.65 291.643 274.368C291.829 274.086 291.92 273.728 291.917 273.294ZM296.892 271.927V276.461H295.406V268.825H296.832V270.067H296.927C297.103 269.663 297.378 269.338 297.752 269.093C298.13 268.848 298.606 268.725 299.179 268.725C299.699 268.725 300.155 268.835 300.546 269.053C300.937 269.269 301.241 269.59 301.456 270.018C301.671 270.445 301.779 270.974 301.779 271.604V276.461H300.293V271.783C300.293 271.229 300.148 270.797 299.86 270.485C299.572 270.17 299.176 270.013 298.672 270.013C298.327 270.013 298.021 270.087 297.752 270.237C297.487 270.386 297.277 270.604 297.121 270.893C296.968 271.178 296.892 271.522 296.892 271.927Z" fill="#959595"/>
<path d="M232.583 266.279H234.448L237.689 274.194H237.809L241.05 266.279H242.914V276.461H241.453V269.093H241.358L238.355 276.446H237.142L234.14 269.088H234.045V276.461H232.583V266.279ZM247.251 276.63C246.767 276.63 246.329 276.54 245.938 276.362C245.547 276.179 245.237 275.916 245.009 275.571C244.783 275.226 244.671 274.804 244.671 274.303C244.671 273.872 244.753 273.518 244.919 273.239C245.085 272.961 245.309 272.741 245.59 272.578C245.872 272.416 246.187 272.293 246.535 272.21C246.883 272.127 247.238 272.064 247.599 272.021C248.056 271.968 248.427 271.925 248.713 271.892C248.998 271.856 249.205 271.798 249.334 271.718C249.463 271.638 249.528 271.509 249.528 271.33V271.295C249.528 270.861 249.405 270.525 249.16 270.286C248.918 270.048 248.557 269.928 248.076 269.928C247.576 269.928 247.181 270.039 246.893 270.261C246.608 270.48 246.411 270.724 246.301 270.992L244.904 270.674C245.07 270.21 245.312 269.835 245.63 269.55C245.952 269.262 246.321 269.053 246.739 268.924C247.156 268.791 247.596 268.725 248.056 268.725C248.361 268.725 248.684 268.762 249.026 268.835C249.37 268.904 249.692 269.033 249.99 269.222C250.292 269.411 250.539 269.681 250.731 270.033C250.923 270.381 251.019 270.833 251.019 271.39V276.461H249.568V275.417H249.508C249.412 275.609 249.268 275.798 249.075 275.984C248.883 276.169 248.636 276.323 248.335 276.446C248.033 276.569 247.672 276.63 247.251 276.63ZM247.574 275.437C247.985 275.437 248.336 275.356 248.628 275.193C248.923 275.031 249.147 274.819 249.299 274.557C249.455 274.292 249.533 274.008 249.533 273.707V272.722C249.48 272.775 249.377 272.825 249.225 272.871C249.075 272.915 248.905 272.953 248.713 272.986C248.52 273.016 248.333 273.044 248.151 273.07C247.968 273.094 247.816 273.113 247.693 273.13C247.405 273.166 247.142 273.228 246.903 273.314C246.668 273.4 246.479 273.524 246.336 273.687C246.197 273.846 246.127 274.058 246.127 274.323C246.127 274.691 246.263 274.969 246.535 275.158C246.807 275.344 247.153 275.437 247.574 275.437ZM253.665 279.325C253.443 279.325 253.241 279.306 253.059 279.27C252.877 279.237 252.741 279.2 252.651 279.161L253.009 277.942C253.281 278.015 253.523 278.047 253.735 278.037C253.947 278.027 254.134 277.947 254.297 277.798C254.463 277.649 254.608 277.406 254.734 277.067L254.918 276.56L252.124 268.825H253.715L255.649 274.751H255.729L257.663 268.825H259.259L256.112 277.48C255.966 277.878 255.78 278.214 255.555 278.489C255.329 278.768 255.061 278.977 254.749 279.116C254.438 279.255 254.076 279.325 253.665 279.325Z" fill="#959595"/>
<path d="M188.123 276.461H186.493L190.157 266.279H191.931L195.596 276.461H193.965L191.086 268.129H191.007L188.123 276.461ZM188.397 272.474H193.686V273.766H188.397V272.474ZM196.947 279.325V268.825H198.398V270.063H198.523C198.609 269.903 198.733 269.719 198.895 269.511C199.058 269.302 199.283 269.12 199.572 268.964C199.86 268.805 200.241 268.725 200.715 268.725C201.331 268.725 201.882 268.881 202.366 269.192C202.849 269.504 203.229 269.953 203.504 270.54C203.782 271.126 203.922 271.832 203.922 272.658C203.922 273.483 203.784 274.191 203.509 274.781C203.234 275.367 202.856 275.82 202.376 276.138C201.895 276.453 201.346 276.61 200.73 276.61C200.266 276.61 199.886 276.532 199.591 276.376C199.3 276.221 199.071 276.038 198.905 275.83C198.74 275.621 198.612 275.435 198.523 275.273H198.433V279.325H196.947ZM198.403 272.643C198.403 273.18 198.481 273.65 198.637 274.055C198.793 274.459 199.018 274.776 199.313 275.004C199.608 275.23 199.969 275.342 200.397 275.342C200.841 275.342 201.212 275.225 201.51 274.989C201.809 274.751 202.034 274.428 202.187 274.02C202.342 273.612 202.42 273.153 202.42 272.643C202.42 272.139 202.344 271.687 202.192 271.286C202.042 270.884 201.817 270.568 201.515 270.336C201.217 270.104 200.844 269.988 200.397 269.988C199.966 269.988 199.601 270.099 199.303 270.321C199.008 270.543 198.784 270.853 198.632 271.251C198.479 271.648 198.403 272.112 198.403 272.643ZM205.587 276.461V268.825H207.024V270.038H207.104C207.243 269.627 207.488 269.304 207.839 269.068C208.194 268.83 208.595 268.71 209.042 268.71C209.135 268.71 209.245 268.714 209.371 268.72C209.5 268.727 209.601 268.735 209.674 268.745V270.167C209.614 270.15 209.508 270.132 209.356 270.112C209.203 270.089 209.051 270.077 208.898 270.077C208.547 270.077 208.234 270.152 207.959 270.301C207.687 270.447 207.471 270.651 207.312 270.913C207.153 271.171 207.074 271.466 207.074 271.798V276.461H205.587Z" fill="#959595"/>
<path d="M138.39 266.279H140.254L143.496 274.194H143.615L146.857 266.279H148.721V276.461H147.259V269.093H147.165L144.162 276.446H142.949L139.946 269.088H139.852V276.461H138.39V266.279ZM153.058 276.63C152.574 276.63 152.136 276.54 151.745 276.362C151.354 276.179 151.044 275.916 150.815 275.571C150.59 275.226 150.477 274.804 150.477 274.303C150.477 273.872 150.56 273.518 150.726 273.239C150.892 272.961 151.115 272.741 151.397 272.578C151.679 272.416 151.994 272.293 152.342 272.21C152.69 272.127 153.044 272.064 153.406 272.021C153.863 271.968 154.234 271.925 154.519 271.892C154.804 271.856 155.011 271.798 155.141 271.718C155.27 271.638 155.335 271.509 155.335 271.33V271.295C155.335 270.861 155.212 270.525 154.967 270.286C154.725 270.048 154.363 269.928 153.883 269.928C153.382 269.928 152.988 270.039 152.7 270.261C152.415 270.48 152.217 270.724 152.108 270.992L150.711 270.674C150.877 270.21 151.119 269.835 151.437 269.55C151.758 269.262 152.128 269.053 152.545 268.924C152.963 268.791 153.402 268.725 153.863 268.725C154.168 268.725 154.491 268.762 154.832 268.835C155.177 268.904 155.499 269.033 155.797 269.222C156.098 269.411 156.345 269.681 156.538 270.033C156.73 270.381 156.826 270.833 156.826 271.39V276.461H155.374V275.417H155.315C155.219 275.609 155.074 275.798 154.882 275.984C154.69 276.169 154.443 276.323 154.141 276.446C153.84 276.569 153.478 276.63 153.058 276.63ZM153.381 275.437C153.792 275.437 154.143 275.356 154.435 275.193C154.73 275.031 154.953 274.819 155.106 274.557C155.262 274.292 155.339 274.008 155.339 273.707V272.722C155.286 272.775 155.184 272.825 155.031 272.871C154.882 272.915 154.711 272.953 154.519 272.986C154.327 273.016 154.14 273.044 153.957 273.07C153.775 273.094 153.623 273.113 153.5 273.13C153.212 273.166 152.948 273.228 152.71 273.314C152.474 273.4 152.285 273.524 152.143 273.687C152.004 273.846 151.934 274.058 151.934 274.323C151.934 274.691 152.07 274.969 152.342 275.158C152.613 275.344 152.96 275.437 153.381 275.437ZM158.806 276.461V268.825H160.243V270.038H160.322C160.461 269.627 160.707 269.304 161.058 269.068C161.413 268.83 161.814 268.71 162.261 268.71C162.354 268.71 162.463 268.714 162.589 268.72C162.719 268.727 162.82 268.735 162.893 268.745V270.167C162.833 270.15 162.727 270.132 162.574 270.112C162.422 270.089 162.269 270.077 162.117 270.077C161.766 270.077 161.452 270.152 161.177 270.301C160.906 270.447 160.69 270.651 160.531 270.913C160.372 271.171 160.292 271.466 160.292 271.798V276.461H158.806Z" fill="#959595"/>
<path d="M157.496 304.809V303.695L160.941 300.125C161.309 299.738 161.612 299.398 161.851 299.106C162.093 298.811 162.274 298.531 162.393 298.266C162.512 298.001 162.572 297.719 162.572 297.421C162.572 297.083 162.492 296.791 162.333 296.546C162.174 296.297 161.957 296.107 161.682 295.974C161.407 295.838 161.097 295.77 160.752 295.77C160.388 295.77 160.07 295.845 159.798 295.994C159.526 296.143 159.317 296.354 159.171 296.625C159.026 296.897 158.953 297.215 158.953 297.58H157.486C157.486 296.96 157.629 296.418 157.914 295.954C158.199 295.49 158.59 295.131 159.087 294.875C159.584 294.617 160.149 294.488 160.782 294.488C161.422 294.488 161.985 294.615 162.473 294.87C162.963 295.122 163.346 295.467 163.621 295.904C163.896 296.339 164.034 296.829 164.034 297.376C164.034 297.754 163.962 298.123 163.82 298.485C163.681 298.846 163.437 299.249 163.089 299.693C162.741 300.134 162.257 300.669 161.637 301.299L159.614 303.417V303.491H164.198V304.809H157.496ZM169.627 304.978C168.841 304.974 168.17 304.767 167.613 304.356C167.056 303.945 166.63 303.347 166.335 302.561C166.041 301.776 165.893 300.83 165.893 299.723C165.893 298.619 166.041 297.676 166.335 296.894C166.634 296.112 167.061 295.515 167.618 295.104C168.178 294.693 168.848 294.488 169.627 294.488C170.406 294.488 171.073 294.695 171.63 295.109C172.187 295.52 172.613 296.117 172.908 296.899C173.206 297.678 173.355 298.619 173.355 299.723C173.355 300.833 173.208 301.781 172.913 302.566C172.618 303.349 172.192 303.947 171.635 304.361C171.078 304.772 170.409 304.978 169.627 304.978ZM169.627 303.65C170.316 303.65 170.855 303.314 171.242 302.641C171.634 301.968 171.829 300.995 171.829 299.723C171.829 298.877 171.74 298.163 171.561 297.58C171.385 296.993 171.131 296.549 170.8 296.248C170.472 295.943 170.081 295.79 169.627 295.79C168.941 295.79 168.402 296.128 168.011 296.804C167.62 297.48 167.423 298.453 167.419 299.723C167.419 300.571 167.507 301.289 167.683 301.875C167.862 302.459 168.115 302.901 168.443 303.203C168.772 303.501 169.166 303.65 169.627 303.65ZM175.119 304.809V303.695L178.564 300.125C178.932 299.738 179.236 299.398 179.474 299.106C179.716 298.811 179.897 298.531 180.016 298.266C180.135 298.001 180.195 297.719 180.195 297.421C180.195 297.083 180.116 296.791 179.956 296.546C179.797 296.297 179.58 296.107 179.305 295.974C179.03 295.838 178.72 295.77 178.375 295.77C178.011 295.77 177.693 295.845 177.421 295.994C177.149 296.143 176.94 296.354 176.794 296.625C176.649 296.897 176.576 297.215 176.576 297.58H175.109C175.109 296.96 175.252 296.418 175.537 295.954C175.822 295.49 176.213 295.131 176.71 294.875C177.207 294.617 177.772 294.488 178.405 294.488C179.045 294.488 179.608 294.615 180.096 294.87C180.586 295.122 180.969 295.467 181.244 295.904C181.519 296.339 181.657 296.829 181.657 297.376C181.657 297.754 181.585 298.123 181.443 298.485C181.304 298.846 181.06 299.249 180.712 299.693C180.364 300.134 179.88 300.669 179.26 301.299L177.237 303.417V303.491H181.821V304.809H175.119ZM187.25 304.948C186.567 304.948 185.957 304.83 185.42 304.595C184.887 304.359 184.464 304.033 184.152 303.615C183.844 303.194 183.678 302.707 183.655 302.154H185.216C185.236 302.455 185.337 302.717 185.52 302.939C185.705 303.158 185.947 303.327 186.245 303.446C186.544 303.566 186.875 303.625 187.24 303.625C187.641 303.625 187.995 303.556 188.304 303.417C188.615 303.277 188.859 303.083 189.035 302.835C189.21 302.583 189.298 302.293 189.298 301.965C189.298 301.623 189.21 301.324 189.035 301.065C188.862 300.803 188.609 300.598 188.274 300.449C187.942 300.299 187.541 300.225 187.071 300.225H186.211V298.972H187.071C187.449 298.972 187.78 298.904 188.065 298.768C188.353 298.632 188.579 298.443 188.741 298.201C188.904 297.956 188.985 297.669 188.985 297.341C188.985 297.026 188.914 296.753 188.771 296.521C188.632 296.286 188.433 296.102 188.174 295.969C187.919 295.837 187.618 295.77 187.27 295.77C186.938 295.77 186.628 295.832 186.34 295.954C186.055 296.074 185.823 296.246 185.644 296.471C185.465 296.693 185.369 296.96 185.356 297.272H183.869C183.886 296.721 184.048 296.238 184.356 295.82C184.668 295.402 185.079 295.076 185.589 294.841C186.1 294.605 186.666 294.488 187.29 294.488C187.942 294.488 188.506 294.615 188.98 294.87C189.457 295.122 189.825 295.459 190.084 295.88C190.345 296.301 190.475 296.761 190.471 297.262C190.475 297.832 190.316 298.316 189.994 298.713C189.676 299.111 189.252 299.378 188.721 299.514V299.593C189.397 299.696 189.921 299.965 190.292 300.399C190.667 300.833 190.852 301.372 190.849 302.015C190.852 302.575 190.697 303.077 190.382 303.521C190.07 303.965 189.644 304.315 189.104 304.57C188.564 304.822 187.946 304.948 187.25 304.948Z" fill="#959595"/>
<path d="M102.5 106.809L150 66.3086" stroke="#2FB36B" stroke-width="2"/>
<path d="M197.5 118.309L150 66.8086" stroke="#2FB36B" stroke-width="2"/>
<path d="M54 97.3086L102.018 106.809" stroke="#2FB36B" stroke-width="2"/>
<circle cx="102.016" cy="106.809" r="3" fill="#2FB36B"/>
<circle cx="150.094" cy="66.8086" r="2.5" fill="#2FB36B" stroke="#2FB36B"/>
<circle cx="54.668" cy="97.8086" r="2.5" fill="#2FB36B" stroke="#2FB36B"/>
<path d="M244.777 103.809L292.652 113.307" stroke="#2FB36B" stroke-width="2"/>
<path d="M198 119.309L245.5 103.809" stroke="#2FB36B" stroke-width="2"/>
<path d="M247.264 103.809C247.264 105.191 246.148 106.309 244.776 106.309C243.405 106.309 242.289 105.191 242.289 103.809C242.289 102.426 243.405 101.309 244.776 101.309C246.148 101.309 247.264 102.426 247.264 103.809Z" fill="#2FB36B" stroke="#2FB36B"/>
<path d="M295.139 113.273C295.139 114.656 294.023 115.773 292.651 115.773C291.28 115.773 290.164 114.656 290.164 113.273C290.164 111.891 291.28 110.773 292.651 110.773C294.023 110.773 295.139 111.891 295.139 113.273Z" fill="#2FB36B" stroke="#2FB36B"/>
<path d="M200.115 119.004C200.115 120.387 199 121.504 197.628 121.504C196.256 121.504 195.141 120.387 195.141 119.004C195.141 117.621 196.256 116.504 197.628 116.504C199 116.504 200.115 117.621 200.115 119.004Z" fill="#2FB36B" stroke="#2FB36B"/>
<defs>
<clipPath id="clip0_3973_44624">
<rect width="239" height="250" fill="white" transform="translate(55 8)"/>
</clipPath>
</defs>
</svg>
