<svg width="16" height="16" viewBox="0 0 16 16" fill="none" xmlns="http://www.w3.org/2000/svg">
<path fill-rule="evenodd" clip-rule="evenodd" d="M0 8C0 3.58737 3.58737 0 8 0C12.4126 0 16 3.58737 16 8C16 12.4126 12.4126 16 8 16C3.58737 16 0 12.4126 0 8ZM11.4526 10.8463L12.0253 13.3558C13.6421 12.1263 14.7032 10.1895 14.7032 8C14.7032 4.29474 11.6884 1.29684 8 1.29684C4.29474 1.29684 1.29684 4.31158 1.29684 8C1.29684 10.1895 2.35789 12.1263 3.99158 13.3558L4.56421 10.8463C4.8 9.80211 5.72632 9.06105 6.80421 9.06105H9.21263C10.2737 9.06105 11.2168 9.80211 11.4526 10.8463ZM10.6261 5.65862C10.6261 7.10967 9.44975 8.28599 7.99869 8.28599C6.54764 8.28599 5.37132 7.10967 5.37132 5.65862C5.37132 4.20756 6.54764 3.03125 7.99869 3.03125C9.44975 3.03125 10.6261 4.20756 10.6261 5.65862Z" fill="#000000cc"/>
</svg>
