<svg width="80" height="80" viewBox="0 0 80 80" fill="none" xmlns="http://www.w3.org/2000/svg">
<g id="continous-monitoring-icon.svg" clip-path="url(#clip0_51_3878)">
<g id="Page-1">
<g id="SWARA-Landing-page-final">
<g id="Group-14">
<path id="Path" d="M5.92412 31.3725C5.8207 31.3725 5.71544 31.3592 5.61019 31.3314C4.96102 31.1598 4.57408 30.4972 4.74748 29.8522C8.01763 17.6398 17.6322 8.0202 29.8386 4.74737C30.4865 4.57508 31.1552 4.95472 31.3304 5.59913C31.5056 6.24354 31.1211 6.9079 30.4725 7.0814C19.1027 10.1306 10.1464 19.0937 7.09956 30.4742C6.95476 31.0147 6.46256 31.3725 5.92412 31.3725Z" fill="#25505C" stroke="#25505C"/>
<path id="Path_2" d="M75.6451 31.3725C75.1072 31.3725 74.615 31.0146 74.4702 30.4742C71.4226 19.0938 62.4661 10.1304 51.0965 7.08161C50.4479 6.9081 50.0634 6.24368 50.2386 5.59921C50.4139 4.95474 51.0856 4.57507 51.7305 4.74737C63.9372 8.0199 73.5515 17.6398 76.8217 29.8521C76.9945 30.4971 76.6082 31.1597 75.959 31.3314C75.8537 31.3592 75.7485 31.3725 75.6451 31.3725Z" fill="#25505C" stroke="#25505C"/>
<path id="Path_3" d="M51.4127 76.8627C50.8768 76.8627 50.3852 76.5074 50.2386 75.969C50.0634 75.3249 50.4479 74.6608 51.0964 74.4874C62.4696 71.439 71.426 62.4756 74.47 51.0946C74.6428 50.4493 75.3101 50.065 75.9586 50.2372C76.6077 50.4082 76.9946 51.0704 76.8218 51.7152C73.5551 63.9282 63.9405 73.5478 51.7302 76.8204C51.625 76.8488 51.5179 76.8627 51.4127 76.8627Z" fill="#25505C" stroke="#25505C"/>
<path id="Path_4" d="M30.1533 76.8627C30.0479 76.8627 29.9412 76.8493 29.8351 76.8201C17.6844 73.5464 8.07222 63.9336 4.74912 51.7338C4.57236 51.0849 4.95575 50.416 5.6055 50.2394C6.25768 50.0617 6.92511 50.4464 7.10187 51.0941C10.1988 62.463 19.1533 71.4202 30.4709 74.4693C31.1206 74.644 31.5058 75.3123 31.3303 75.9618C31.1828 76.5048 30.6909 76.8627 30.1533 76.8627Z" fill="#25505C" stroke="#25505C"/>
<path id="Path_5" d="M28.3228 14.1176C28.122 14.1176 27.917 14.0773 27.7215 13.9919C26.9768 13.6673 26.6425 12.8145 26.975 12.0873L29.5123 6.53848L24.4075 4.32829C23.6621 4.00538 23.3255 3.15428 23.6568 2.426C23.9876 1.69831 24.8594 1.36963 25.6053 1.69312L32.0632 4.48916C32.4218 4.64428 32.7023 4.93259 32.8429 5.29009C32.9834 5.6476 32.9728 6.04547 32.8127 6.3949L29.6718 13.2631C29.4267 13.7993 28.8874 14.1176 28.3228 14.1176Z" fill="#25505C" stroke="#25505C"/>
<path id="Path_6" d="M75.3074 33.4118C75.1033 33.4118 74.8992 33.3683 74.7096 33.2807L67.852 30.1331C67.1226 29.7987 66.7991 28.9276 67.1296 28.1882C67.4595 27.4487 68.3175 27.1208 69.0481 27.4558L74.5682 29.9897L76.7713 24.8813C77.0919 24.1378 77.9454 23.798 78.68 24.1237C79.4134 24.4493 79.7479 25.3151 79.4273 26.0592L76.6356 32.5319C76.4803 32.8916 76.1892 33.1737 75.8274 33.3148C75.6593 33.3788 75.4836 33.4118 75.3074 33.4118Z" fill="#25505C" stroke="#25505C"/>
<path id="Path_7" d="M56.4418 78.4313C56.2591 78.4313 56.0738 78.4011 55.893 78.3388L48.1067 75.6388C47.7081 75.5003 47.3842 75.2177 47.206 74.8528C47.0277 74.4873 47.0105 74.071 47.158 73.6935L49.8208 66.8704C50.1268 66.0874 51.0448 65.6875 51.8721 65.9761C52.6994 66.2659 53.1223 67.1355 52.8163 67.9197L50.7088 73.3195L56.9905 75.4979C57.8185 75.7853 58.2446 76.6536 57.9411 77.4384C57.7048 78.0507 57.0928 78.4313 56.4418 78.4313Z" fill="#25505C" stroke="#25505C"/>
<path id="Path_8" d="M3.17879 58.0392C2.93707 58.0392 2.69277 57.9884 2.462 57.8821C1.66529 57.5148 1.34106 56.6183 1.73748 55.8794L5.18863 49.4551C5.38071 49.0973 5.71913 48.8262 6.12909 48.7013C6.53969 48.5777 6.98575 48.6099 7.36864 48.7927L14.8117 52.3423C15.6033 52.7198 15.914 53.6199 15.5073 54.3534C15.1005 55.0868 14.1285 55.3741 13.3369 54.9973L7.34608 52.1405L4.62203 57.2096C4.34099 57.7352 3.77117 58.0392 3.17879 58.0392Z" fill="#25505C" stroke="#25505C"/>
</g>
</g>
</g>
</g>
<defs>
<clipPath id="clip0_51_3878">
<rect width="80" height="80" fill="white"/>
</clipPath>
</defs>
</svg>
