<svg width="38" height="32" viewBox="0 0 38 32" fill="none" xmlns="http://www.w3.org/2000/svg">
<path fill-rule="evenodd" clip-rule="evenodd" d="M15.0709 2.182C16.944 -0.727333 21.056 -0.727333 22.9291 2.182L37.1955 24.3404C39.2761 27.572 37.0923 32 33.2665 32H4.73353C0.907674 32 -1.2761 27.572 0.804464 24.3404L15.0709 2.182ZM20.4092 3.90044C19.7316 2.848 18.2684 2.848 17.5908 3.90044L3.32438 26.0589C2.52659 27.298 3.40591 28.8889 4.73353 28.8889H33.2665C34.5941 28.8889 35.4734 27.298 34.6756 26.0589L20.4092 3.90044Z" fill="#FF9D59"/>
<path fill-rule="evenodd" clip-rule="evenodd" d="M18.7778 9.55469C17.7572 9.55469 16.9462 10.3995 17.0028 11.4037L17.4555 19.4331C17.4944 20.1247 18.0749 20.6658 18.7778 20.6658C19.4807 20.6658 20.0611 20.1247 20.1001 19.4331L20.5527 11.4037C20.6094 10.3995 19.7983 9.55469 18.7778 9.55469ZM17 24.4442C17 23.5851 17.6964 22.8887 18.5556 22.8887C19.4147 22.8887 20.1111 23.5851 20.1111 24.4442C20.1111 25.3033 19.4147 25.9998 18.5556 25.9998C17.6964 25.9998 17 25.3033 17 24.4442Z" fill="#FF9D59"/>
</svg>
