<svg width="259" height="268" viewBox="0 0 259 268" fill="none" xmlns="http://www.w3.org/2000/svg">
<g clip-path="url(#clip0_815_1477)">
<mask id="path-1-inside-1_815_1477" fill="white">
<path d="M40.5811 3.60742H279.581V65.6074H40.5811V3.60742Z"/>
</mask>
<path d="M40.5811 3.60742H279.581V65.6074H40.5811V3.60742Z" fill="white"/>
<path d="M40.5811 4.22766H279.581V2.98719H40.5811V4.22766Z" fill="#DEDEDE" mask="url(#path-1-inside-1_815_1477)"/>
<path d="M40.5811 65.6074H279.581V80.6074H40.5811V65.6074Z" fill="#F7F7F7"/>
<path d="M40.5811 65.9175H279.581V65.2973H40.5811V65.9175ZM279.581 80.2973H40.5811V80.9175H279.581V80.2973Z" fill="#DFDADA"/>
<g style="mix-blend-mode:darken">
<mask id="path-5-inside-2_815_1477" fill="white">
<path d="M40.5811 80.6074H279.581V105.607H40.5811V80.6074Z"/>
</mask>
<path d="M40.5811 80.6074H279.581V105.607H40.5811V80.6074Z" fill="#F7F7F7"/>
<path d="M40.5811 81.2277H279.581V79.9872H40.5811V81.2277ZM279.581 104.987H40.5811V106.228H279.581V104.987Z" fill="#DFDADA" mask="url(#path-5-inside-2_815_1477)"/>
</g>
<mask id="path-7-inside-3_815_1477" fill="white">
<path d="M40.5811 105.607H279.581V109.607H40.5811V105.607Z"/>
</mask>
<path d="M40.5811 105.607H279.581V109.607H40.5811V105.607Z" fill="#F7F7F7"/>
<path d="M40.5811 106.228H279.581V104.987H40.5811V106.228ZM279.581 108.987H40.5811V110.228H279.581V108.987Z" fill="#DFDADA" mask="url(#path-7-inside-3_815_1477)"/>
<rect x="40.5811" y="109.607" width="239" height="12" fill="white"/>
<mask id="path-10-inside-4_815_1477" fill="white">
<path d="M40.5811 121.607H279.581V170.607H40.5811V121.607Z"/>
</mask>
<path d="M40.5811 121.607H279.581V170.607H40.5811V121.607Z" fill="#F7F7F7"/>
<path d="M40.5811 122.228H279.581V120.987H40.5811V122.228ZM279.581 169.987H40.5811V171.228H279.581V169.987Z" fill="#DFDADA" mask="url(#path-10-inside-4_815_1477)"/>
<rect x="40.5811" y="170.607" width="239" height="5" fill="white"/>
<rect x="40.5811" y="175.607" width="239" height="14" fill="white"/>
<mask id="path-14-inside-5_815_1477" fill="white">
<path d="M40.5811 189.607H279.581V253.607H40.5811V189.607Z"/>
</mask>
<path d="M40.5811 189.607H279.581V253.607H40.5811V189.607Z" fill="white"/>
<path d="M279.581 252.987H40.5811V254.228H279.581V252.987Z" fill="#B3B3B3" mask="url(#path-14-inside-5_815_1477)"/>
</g>
<path d="M82.377 3.48694V223.351" stroke="#C9C9C9" stroke-dasharray="2 2"/>
<path d="M40.2471 3.48694V223.351" stroke="#DFDFDF"/>
<path d="M251 224H40" stroke="#DFDFDF"/>
<path d="M208.775 3.48694V223.351" stroke="#C9C9C9" stroke-dasharray="2 2"/>
<path d="M166.645 3.48694V223.351" stroke="#C9C9C9" stroke-dasharray="2 2"/>
<path d="M124.511 3.48694V223.351" stroke="#C9C9C9" stroke-dasharray="2 2"/>
<path d="M250.905 3.48694V223.351" stroke="#DFDFDF"/>
<path d="M29.5059 185.09V184.301L32.4694 181.057C32.8172 180.677 33.1036 180.347 33.3287 180.066C33.5537 179.783 33.7203 179.517 33.8285 179.268C33.9395 179.017 33.995 178.754 33.995 178.479C33.995 178.164 33.9191 177.89 33.7671 177.66C33.618 177.429 33.4134 177.25 33.1533 177.125C32.8932 176.999 32.6009 176.936 32.2765 176.936C31.9317 176.936 31.6306 177.008 31.3734 177.151C31.1192 177.291 30.9219 177.489 30.7816 177.743C30.6442 177.997 30.5755 178.295 30.5755 178.637H29.5409C29.5409 178.111 29.6622 177.649 29.9048 177.252C30.1474 176.854 30.4776 176.545 30.8956 176.322C31.3164 176.1 31.7884 175.989 32.3116 175.989C32.8377 175.989 33.3038 176.1 33.7101 176.322C34.1163 176.545 34.4349 176.844 34.6658 177.221C34.8967 177.598 35.0121 178.018 35.0121 178.479C35.0121 178.81 34.9522 179.133 34.8324 179.448C34.7155 179.761 34.5109 180.11 34.2186 180.496C33.9293 180.879 33.5274 181.346 33.013 181.899L30.9964 184.056V184.126H35.1699V185.09H29.5059Z" fill="#2FB36B"/>
<path d="M26.878 185.161C26.6617 185.161 26.4761 185.083 26.3212 184.928C26.1663 184.773 26.0889 184.588 26.0889 184.371C26.0889 184.155 26.1663 183.97 26.3212 183.815C26.4761 183.66 26.6617 183.582 26.878 183.582C27.0943 183.582 27.2798 183.66 27.4347 183.815C27.5896 183.97 27.6671 184.155 27.6671 184.371C27.6671 184.515 27.6306 184.646 27.5575 184.766C27.4874 184.886 27.3924 184.982 27.2725 185.055C27.1556 185.125 27.0241 185.161 26.878 185.161Z" fill="#2FB36B"/>
<path d="M21.6321 185.213C20.9716 185.213 20.409 185.033 19.9443 184.674C19.4796 184.311 19.1245 183.787 18.879 183.1C18.6335 182.41 18.5107 181.577 18.5107 180.601C18.5107 179.631 18.6335 178.802 18.879 178.115C19.1274 177.426 19.484 176.9 19.9487 176.537C20.4163 176.172 20.9775 175.989 21.6321 175.989C22.2868 175.989 22.8465 176.172 23.3112 176.537C23.7788 176.9 24.1354 177.426 24.3809 178.115C24.6293 178.802 24.7535 179.631 24.7535 180.601C24.7535 181.577 24.6308 182.41 24.3853 183.1C24.1398 183.787 23.7847 184.311 23.32 184.674C22.8553 185.033 22.2926 185.213 21.6321 185.213ZM21.6321 184.249C22.2868 184.249 22.7953 183.933 23.1578 183.302C23.5202 182.67 23.7014 181.77 23.7014 180.601C23.7014 179.824 23.6181 179.162 23.4515 178.615C23.2878 178.069 23.0511 177.652 22.7413 177.366C22.4344 177.079 22.0647 176.936 21.6321 176.936C20.9833 176.936 20.4762 177.256 20.1109 177.896C19.7456 178.533 19.5629 179.435 19.5629 180.601C19.5629 181.379 19.6447 182.039 19.8084 182.583C19.9721 183.126 20.2073 183.54 20.5142 183.823C20.824 184.107 21.1967 184.249 21.6321 184.249Z" fill="#2FB36B"/>
<path d="M32.1565 225.469C31.496 225.469 30.9334 225.29 30.4687 224.93C30.004 224.568 29.6489 224.043 29.4034 223.356C29.1579 222.667 29.0352 221.834 29.0352 220.858C29.0352 219.887 29.1579 219.059 29.4034 218.372C29.6518 217.682 30.0084 217.156 30.4731 216.794C30.9407 216.428 31.5019 216.246 32.1565 216.246C32.8112 216.246 33.3709 216.428 33.8356 216.794C34.3032 217.156 34.6598 217.682 34.9053 218.372C35.1537 219.059 35.2779 219.887 35.2779 220.858C35.2779 221.834 35.1552 222.667 34.9097 223.356C34.6642 224.043 34.3091 224.568 33.8444 224.93C33.3797 225.29 32.8171 225.469 32.1565 225.469ZM32.1565 224.505C32.8112 224.505 33.3198 224.189 33.6822 223.558C34.0446 222.927 34.2258 222.027 34.2258 220.858C34.2258 220.08 34.1425 219.418 33.9759 218.872C33.8122 218.325 33.5755 217.909 33.2657 217.622C32.9588 217.336 32.5891 217.193 32.1565 217.193C31.5077 217.193 31.0006 217.513 30.6353 218.153C30.27 218.79 30.0873 219.691 30.0873 220.858C30.0873 221.635 30.1691 222.295 30.3328 222.839C30.4965 223.383 30.7318 223.796 31.0386 224.08C31.3484 224.363 31.7211 224.505 32.1565 224.505Z" fill="#2FB36B"/>
<path d="M26.9141 225.417C26.6978 225.417 26.5123 225.34 26.3574 225.185C26.2025 225.03 26.125 224.844 26.125 224.628C26.125 224.412 26.2025 224.226 26.3574 224.071C26.5123 223.916 26.6978 223.839 26.9141 223.839C27.1304 223.839 27.316 223.916 27.4709 224.071C27.6258 224.226 27.7032 224.412 27.7032 224.628C27.7032 224.771 27.6667 224.903 27.5936 225.022C27.5235 225.142 27.4285 225.239 27.3087 225.312C27.1918 225.382 27.0602 225.417 26.9141 225.417Z" fill="#2FB36B"/>
<path d="M21.6683 225.469C21.0077 225.469 20.4451 225.29 19.9804 224.93C19.5157 224.568 19.1606 224.043 18.9151 223.356C18.6696 222.667 18.5469 221.834 18.5469 220.858C18.5469 219.887 18.6696 219.059 18.9151 218.372C19.1636 217.682 19.5201 217.156 19.9848 216.794C20.4524 216.428 21.0136 216.246 21.6683 216.246C22.3229 216.246 22.8826 216.428 23.3473 216.794C23.8149 217.156 24.1715 217.682 24.417 218.372C24.6654 219.059 24.7896 219.887 24.7896 220.858C24.7896 221.834 24.6669 222.667 24.4214 223.356C24.1759 224.043 23.8208 224.568 23.3561 224.93C22.8914 225.29 22.3288 225.469 21.6683 225.469ZM21.6683 224.505C22.3229 224.505 22.8315 224.189 23.1939 223.558C23.5563 222.927 23.7375 222.027 23.7375 220.858C23.7375 220.08 23.6542 219.418 23.4876 218.872C23.3239 218.325 23.0872 217.909 22.7774 217.622C22.4705 217.336 22.1008 217.193 21.6683 217.193C21.0194 217.193 20.5124 217.513 20.147 218.153C19.7817 218.79 19.599 219.691 19.599 220.858C19.599 221.635 19.6809 222.295 19.8445 222.839C20.0082 223.383 20.2435 223.796 20.5503 224.08C20.8601 224.363 21.2328 224.505 21.6683 224.505Z" fill="#2FB36B"/>
<path d="M28.6318 138.701V137.806L32.5774 131.564H33.2262V132.949H32.7878L29.8067 137.666V137.736H35.1201V138.701H28.6318ZM32.858 140.542V138.429V138.012V131.564H33.8926V140.542H32.858Z" fill="#2FB36B"/>
<path d="M26.2139 140.612C25.9976 140.612 25.8121 140.535 25.6572 140.38C25.5023 140.225 25.4248 140.039 25.4248 139.823C25.4248 139.607 25.5023 139.421 25.6572 139.266C25.8121 139.111 25.9976 139.034 26.2139 139.034C26.4302 139.034 26.6158 139.111 26.7707 139.266C26.9256 139.421 27.003 139.607 27.003 139.823C27.003 139.966 26.9665 140.098 26.8934 140.218C26.8233 140.337 26.7283 140.434 26.6085 140.507C26.4916 140.577 26.3601 140.612 26.2139 140.612Z" fill="#2FB36B"/>
<path d="M20.9681 140.665C20.3075 140.665 19.7449 140.485 19.2802 140.126C18.8155 139.763 18.4604 139.239 18.2149 138.552C17.9694 137.862 17.8467 137.029 17.8467 136.053C17.8467 135.083 17.9694 134.254 18.2149 133.567C18.4634 132.877 18.8199 132.351 19.2846 131.989C19.7522 131.624 20.3134 131.441 20.9681 131.441C21.6227 131.441 22.1824 131.624 22.6471 131.989C23.1148 132.351 23.4713 132.877 23.7168 133.567C23.9652 134.254 24.0895 135.083 24.0895 136.053C24.0895 137.029 23.9667 137.862 23.7212 138.552C23.4757 139.239 23.1206 139.763 22.6559 140.126C22.1912 140.485 21.6286 140.665 20.9681 140.665ZM20.9681 139.7C21.6227 139.7 22.1313 139.385 22.4937 138.753C22.8561 138.122 23.0373 137.222 23.0373 136.053C23.0373 135.275 22.954 134.613 22.7874 134.067C22.6237 133.52 22.387 133.104 22.0772 132.817C21.7703 132.531 21.4006 132.388 20.9681 132.388C20.3192 132.388 19.8122 132.708 19.4468 133.348C19.0815 133.985 18.8988 134.887 18.8988 136.053C18.8988 136.83 18.9807 137.491 19.1443 138.034C19.308 138.578 19.5433 138.992 19.8502 139.275C20.16 139.559 20.5326 139.7 20.9681 139.7Z" fill="#2FB36B"/>
<path d="M32.2151 97.5546C31.8469 97.5487 31.4786 97.4786 31.1104 97.3441C30.7421 97.2097 30.406 96.9832 30.1021 96.6646C29.7981 96.3431 29.5541 95.9091 29.3699 95.3626C29.1858 94.8131 29.0938 94.1234 29.0938 93.2933C29.0938 92.4984 29.1683 91.794 29.3173 91.1803C29.4664 90.5636 29.6827 90.0448 29.9662 89.624C30.2497 89.2002 30.5916 88.8787 30.992 88.6595C31.3953 88.4403 31.8498 88.3307 32.3554 88.3307C32.8581 88.3307 33.3053 88.4315 33.6969 88.6332C34.0915 88.8319 34.413 89.1096 34.6614 89.4661C34.9098 89.8227 35.0706 90.2333 35.1436 90.698H34.0739C33.9746 90.2947 33.7817 89.9601 33.4953 89.6941C33.2088 89.4281 32.8289 89.2952 32.3554 89.2952C31.6598 89.2952 31.1118 89.5977 30.7114 90.2026C30.314 90.8076 30.1138 91.6567 30.1108 92.7497H30.181C30.3446 92.5013 30.539 92.2894 30.764 92.1141C30.992 91.9358 31.2434 91.7984 31.5181 91.702C31.7928 91.6055 32.0836 91.5573 32.3905 91.5573C32.9049 91.5573 33.3754 91.6859 33.8021 91.9431C34.2288 92.1974 34.5708 92.5495 34.828 92.9996C35.0852 93.4468 35.2138 93.9597 35.2138 94.5384C35.2138 95.0937 35.0896 95.6022 34.8411 96.064C34.5927 96.5229 34.2435 96.8882 33.7934 97.16C33.3462 97.4289 32.8201 97.5604 32.2151 97.5546ZM32.2151 96.5901C32.5834 96.5901 32.9136 96.498 33.2059 96.3139C33.5011 96.1298 33.7335 95.8828 33.903 95.573C34.0754 95.2632 34.1616 94.9183 34.1616 94.5384C34.1616 94.1672 34.0783 93.8296 33.9117 93.5257C33.7481 93.2188 33.5216 92.9748 33.2322 92.7936C32.9458 92.6124 32.6185 92.5218 32.2502 92.5218C31.9726 92.5218 31.7139 92.5773 31.4742 92.6884C31.2346 92.7965 31.0242 92.9455 30.843 93.1355C30.6647 93.3255 30.5244 93.5432 30.4221 93.7887C30.3198 94.0313 30.2687 94.287 30.2687 94.5559C30.2687 94.9125 30.3519 95.2457 30.5185 95.5555C30.6881 95.8653 30.9189 96.1152 31.2112 96.3051C31.5064 96.4951 31.841 96.5901 32.2151 96.5901Z" fill="#2FB36B"/>
<path d="M26.92 97.5019C26.7037 97.5019 26.5181 97.4245 26.3632 97.2696C26.2083 97.1147 26.1309 96.9291 26.1309 96.7128C26.1309 96.4965 26.2083 96.311 26.3632 96.1561C26.5181 96.0012 26.7037 95.9237 26.92 95.9237C27.1362 95.9237 27.3218 96.0012 27.4767 96.1561C27.6316 96.311 27.7091 96.4965 27.7091 96.7128C27.7091 96.856 27.6726 96.9875 27.5995 97.1074C27.5293 97.2272 27.4344 97.3237 27.3145 97.3967C27.1976 97.4669 27.0661 97.5019 26.92 97.5019Z" fill="#2FB36B"/>
<path d="M21.6741 97.5546C21.0136 97.5546 20.451 97.3748 19.9863 97.0153C19.5216 96.6529 19.1665 96.1283 18.921 95.4415C18.6755 94.7517 18.5527 93.9188 18.5527 92.9426C18.5527 91.9723 18.6755 91.1437 18.921 90.4569C19.1694 89.7672 19.526 89.2411 19.9907 88.8787C20.4583 88.5134 21.0194 88.3307 21.6741 88.3307C22.3288 88.3307 22.8885 88.5134 23.3532 88.8787C23.8208 89.2411 24.1774 89.7672 24.4229 90.4569C24.6713 91.1437 24.7955 91.9723 24.7955 92.9426C24.7955 93.9188 24.6728 94.7517 24.4273 95.4415C24.1818 96.1283 23.8266 96.6529 23.3619 97.0153C22.8972 97.3748 22.3346 97.5546 21.6741 97.5546ZM21.6741 96.5901C22.3288 96.5901 22.8373 96.2744 23.1997 95.6432C23.5622 95.0119 23.7434 94.1117 23.7434 92.9426C23.7434 92.1652 23.6601 91.5032 23.4935 90.9567C23.3298 90.4102 23.0931 89.9937 22.7833 89.7073C22.4764 89.4208 22.1067 89.2776 21.6741 89.2776C21.0253 89.2776 20.5182 89.5977 20.1529 90.2377C19.7876 90.8749 19.6049 91.7765 19.6049 92.9426C19.6049 93.72 19.6867 94.3806 19.8504 94.9242C20.0141 95.4678 20.2493 95.8813 20.5562 96.1648C20.866 96.4483 21.2386 96.5901 21.6741 96.5901Z" fill="#2FB36B"/>
<path d="M32.1773 53.0079C31.5752 53.0079 31.0433 52.9013 30.5815 52.6879C30.1227 52.4716 29.7647 52.175 29.5075 51.798C29.2503 51.418 29.1231 50.9855 29.1261 50.5003C29.1231 50.1204 29.1977 49.7696 29.3496 49.4481C29.5016 49.1237 29.7091 48.8534 29.9722 48.6371C30.2381 48.4179 30.5348 48.2791 30.8621 48.2206V48.168C30.4325 48.057 30.0905 47.8158 29.8363 47.4447C29.582 47.0706 29.4563 46.6453 29.4592 46.1689C29.4563 45.713 29.5718 45.3053 29.8056 44.9458C30.0394 44.5863 30.3609 44.3028 30.77 44.0953C31.1821 43.8878 31.6512 43.7841 32.1773 43.7841C32.6975 43.7841 33.1622 43.8878 33.5714 44.0953C33.9806 44.3028 34.3021 44.5863 34.5359 44.9458C34.7726 45.3053 34.8924 45.713 34.8954 46.1689C34.8924 46.6453 34.7624 47.0706 34.5052 47.4447C34.2509 47.8158 33.9134 48.057 33.4925 48.168V48.2206C33.8169 48.2791 34.1092 48.4179 34.3693 48.6371C34.6294 48.8534 34.8369 49.1237 34.9918 49.4481C35.1467 49.7696 35.2256 50.1204 35.2285 50.5003C35.2256 50.9855 35.0941 51.418 34.834 51.798C34.5768 52.175 34.2188 52.4716 33.7599 52.6879C33.304 52.9013 32.7764 53.0079 32.1773 53.0079ZM32.1773 52.0435C32.5835 52.0435 32.9343 51.9777 33.2295 51.8462C33.5246 51.7147 33.7526 51.5291 33.9134 51.2894C34.0741 51.0498 34.1559 50.7692 34.1589 50.4477C34.1559 50.1087 34.0683 49.8091 33.8958 49.549C33.7234 49.2889 33.4881 49.0843 33.19 48.9352C32.8948 48.7862 32.5572 48.7116 32.1773 48.7116C31.7944 48.7116 31.4525 48.7862 31.1515 48.9352C30.8533 49.0843 30.6181 49.2889 30.4456 49.549C30.2761 49.8091 30.1928 50.1087 30.1957 50.4477C30.1928 50.7692 30.2703 51.0498 30.4281 51.2894C30.5888 51.5291 30.8183 51.7147 31.1164 51.8462C31.4145 51.9777 31.7681 52.0435 32.1773 52.0435ZM32.1773 47.7822C32.4988 47.7822 32.7838 47.7179 33.0322 47.5893C33.2835 47.4607 33.4808 47.281 33.624 47.0501C33.7672 46.8192 33.8403 46.5489 33.8432 46.2391C33.8403 45.9351 33.7687 45.6706 33.6284 45.4456C33.4881 45.2176 33.2938 45.0423 33.0453 44.9195C32.7969 44.7938 32.5076 44.731 32.1773 44.731C31.8412 44.731 31.5475 44.7938 31.2961 44.9195C31.0448 45.0423 30.8504 45.2176 30.7131 45.4456C30.5757 45.6706 30.5085 45.9351 30.5114 46.2391C30.5085 46.5489 30.5772 46.8192 30.7174 47.0501C30.8606 47.281 31.0579 47.4607 31.3093 47.5893C31.5606 47.7179 31.85 47.7822 32.1773 47.7822Z" fill="#2FB36B"/>
<path d="M26.9502 52.9553C26.734 52.9553 26.5484 52.8779 26.3935 52.723C26.2386 52.5681 26.1611 52.3825 26.1611 52.1662C26.1611 51.9499 26.2386 51.7643 26.3935 51.6094C26.5484 51.4545 26.734 51.3771 26.9502 51.3771C27.1665 51.3771 27.3521 51.4545 27.507 51.6094C27.6619 51.7643 27.7394 51.9499 27.7394 52.1662C27.7394 52.3094 27.7028 52.4409 27.6298 52.5607C27.5596 52.6806 27.4646 52.777 27.3448 52.8501C27.2279 52.9202 27.0964 52.9553 26.9502 52.9553Z" fill="#2FB36B"/>
<path d="M21.7044 53.0079C21.0439 53.0079 20.4813 52.8282 20.0166 52.4687C19.5519 52.1063 19.1968 51.5817 18.9513 50.8949C18.7058 50.2051 18.583 49.3722 18.583 48.396C18.583 47.4257 18.7058 46.5971 18.9513 45.9103C19.1997 45.2205 19.5562 44.6945 20.0209 44.3321C20.4886 43.9667 21.0497 43.7841 21.7044 43.7841C22.3591 43.7841 22.9188 43.9667 23.3835 44.3321C23.8511 44.6945 24.2076 45.2205 24.4531 45.9103C24.7016 46.5971 24.8258 47.4257 24.8258 48.396C24.8258 49.3722 24.703 50.2051 24.4575 50.8949C24.212 51.5817 23.8569 52.1063 23.3922 52.4687C22.9275 52.8282 22.3649 53.0079 21.7044 53.0079ZM21.7044 52.0435C22.3591 52.0435 22.8676 51.7278 23.23 51.0965C23.5924 50.4652 23.7736 49.5651 23.7736 48.396C23.7736 47.6186 23.6903 46.9566 23.5237 46.4101C23.3601 45.8635 23.1233 45.447 22.8135 45.1606C22.5067 44.8742 22.1369 44.731 21.7044 44.731C21.0556 44.731 20.5485 45.051 20.1832 45.6911C19.8178 46.3282 19.6352 47.2299 19.6352 48.396C19.6352 49.1734 19.717 49.8339 19.8807 50.3775C20.0443 50.9212 20.2796 51.3347 20.5865 51.6182C20.8963 51.9017 21.2689 52.0435 21.7044 52.0435Z" fill="#2FB36B"/>
<path d="M31.9417 9.90283C31.2812 9.90283 30.7186 9.72308 30.2539 9.3636C29.7892 9.00119 29.4341 8.47658 29.1886 7.78976C28.9431 7.10001 28.8203 6.26706 28.8203 5.29089C28.8203 4.32057 28.9431 3.492 29.1886 2.80518C29.437 2.11544 29.7936 1.58936 30.2583 1.22695C30.7259 0.86162 31.287 0.678955 31.9417 0.678955C32.5964 0.678955 33.1561 0.86162 33.6208 1.22695C34.0884 1.58936 34.4449 2.11544 34.6904 2.80518C34.9389 3.492 35.0631 4.32057 35.0631 5.29089C35.0631 6.26706 34.9403 7.10001 34.6948 7.78976C34.4493 8.47658 34.0942 9.00119 33.6295 9.3636C33.1648 9.72308 32.6022 9.90283 31.9417 9.90283ZM31.9417 8.93836C32.5964 8.93836 33.1049 8.62271 33.4673 7.99142C33.8297 7.36013 34.0109 6.45995 34.0109 5.29089C34.0109 4.51347 33.9276 3.85149 33.761 3.30495C33.5974 2.75842 33.3606 2.34194 33.0508 2.05552C32.744 1.7691 32.3743 1.62589 31.9417 1.62589C31.2929 1.62589 30.7858 1.94592 30.4205 2.58598C30.0551 3.22312 29.8725 4.12476 29.8725 5.29089C29.8725 6.06832 29.9543 6.72883 30.118 7.27245C30.2816 7.81606 30.5169 8.22961 30.8238 8.51311C31.1336 8.79661 31.5062 8.93836 31.9417 8.93836Z" fill="#2FB36B"/>
<path d="M26.6983 9.8502C26.482 9.8502 26.2964 9.77275 26.1415 9.61785C25.9866 9.46295 25.9092 9.27736 25.9092 9.06109C25.9092 8.84481 25.9866 8.65922 26.1415 8.50432C26.2964 8.34942 26.482 8.27197 26.6983 8.27197C26.9146 8.27197 27.1002 8.34942 27.2551 8.50432C27.41 8.65922 27.4874 8.84481 27.4874 9.06109C27.4874 9.2043 27.4509 9.33582 27.3778 9.45564C27.3077 9.57547 27.2127 9.67192 27.0929 9.74499C26.9759 9.81513 26.8444 9.8502 26.6983 9.8502Z" fill="#2FB36B"/>
<path d="M23.8758 0.801758V9.78013H22.7885V1.94159H22.7359L20.5439 3.39707V2.29231L22.7885 0.801758H23.8758Z" fill="#2FB36B"/>
<path d="M5.27835 67.0555L9.27654 67.0555L9.27654 68.3663L2.54276 68.3663L2.54276 67.1081L3.63875 67.1081L3.63875 67.0248C3.28219 66.8699 2.99577 66.6274 2.77949 66.2971C2.56322 65.9639 2.45508 65.5445 2.45508 65.0389C2.45508 64.58 2.55153 64.1782 2.74442 63.8333C2.93439 63.4884 3.21789 63.221 3.59491 63.031C3.97193 62.8411 4.43809 62.7461 4.9934 62.7461L9.27654 62.7461L9.27654 64.0569L5.15122 64.0569C4.66314 64.0569 4.28173 64.184 4.007 64.4383C3.72935 64.6926 3.59053 65.0418 3.59053 65.4861C3.59053 65.79 3.65629 66.0604 3.7878 66.2971C3.91932 66.5309 4.11222 66.7165 4.36649 66.8539C4.61784 66.9883 4.92179 67.0555 5.27835 67.0555Z" fill="#2FB36B"/>
<path d="M9.27699 73.1044L2.54321 73.1044L2.54321 71.8374L3.6129 71.8374L3.6129 71.7673C3.25049 71.6445 2.96554 71.4282 2.75803 71.1184C2.5476 70.8057 2.44238 70.4521 2.44238 70.0575C2.44238 69.9757 2.44531 69.8792 2.45115 69.7682C2.457 69.6542 2.4643 69.565 2.47307 69.5007L3.72689 69.5007C3.71227 69.5534 3.6962 69.6469 3.67866 69.7813C3.6582 69.9158 3.64797 70.0502 3.64797 70.1846C3.64797 70.4944 3.71373 70.7706 3.84525 71.0132C3.97385 71.2529 4.15359 71.4428 4.38448 71.5831C4.61245 71.7234 4.87256 71.7936 5.16483 71.7936L9.27699 71.7936L9.27699 73.1044Z" fill="#2FB36B"/>
<path d="M9.41244 77.7065C9.41244 78.3378 9.26777 78.8887 8.97843 79.3593C8.68908 79.8298 8.2843 80.1952 7.76407 80.4553C7.24384 80.7154 6.63592 80.8455 5.94033 80.8455C5.24182 80.8455 4.63099 80.7154 4.10783 80.4553C3.58468 80.1952 3.17843 79.8298 2.88909 79.3593C2.59975 78.8887 2.45508 78.3378 2.45508 77.7065C2.45508 77.0752 2.59975 76.5243 2.88909 76.0538C3.17843 75.5832 3.58468 75.2179 4.10783 74.9578C4.63099 74.6977 5.24182 74.5676 5.94033 74.5676C6.63592 74.5676 7.24383 74.6977 7.76407 74.9578C8.2843 75.2179 8.68908 75.5832 8.97843 76.0538C9.26777 76.5243 9.41244 77.0752 9.41244 77.7065ZM8.31206 77.7022C8.31206 77.293 8.20392 76.954 7.98765 76.6851C7.77137 76.4162 7.48349 76.2175 7.12401 76.0889C6.76452 75.9573 6.3685 75.8916 5.93595 75.8916C5.50632 75.8916 5.11176 75.9573 4.75228 76.0889C4.38987 76.2175 4.09907 76.4162 3.87987 76.6851C3.66067 76.954 3.55107 77.293 3.55107 77.7022C3.55107 78.1142 3.66067 78.4562 3.87987 78.728C4.09907 78.9969 4.38987 79.1971 4.75228 79.3286C5.11176 79.4572 5.50632 79.5215 5.93595 79.5215C6.3685 79.5215 6.76452 79.4572 7.12401 79.3286C7.48349 79.1971 7.77137 78.9969 7.98765 78.728C8.20392 78.4562 8.31206 78.1142 8.31206 77.7022Z" fill="#2FB36B"/>
<path d="M9.41244 85.145C9.41244 85.7763 9.26777 86.3272 8.97843 86.7978C8.68908 87.2683 8.2843 87.6336 7.76407 87.8938C7.24384 88.1539 6.63592 88.2839 5.94033 88.2839C5.24182 88.2839 4.63099 88.1539 4.10783 87.8938C3.58468 87.6336 3.17843 87.2683 2.88909 86.7978C2.59975 86.3272 2.45508 85.7763 2.45508 85.145C2.45508 84.5137 2.59975 83.9628 2.88909 83.4923C3.17843 83.0217 3.58468 82.6564 4.10783 82.3963C4.63099 82.1361 5.24182 82.0061 5.94033 82.0061C6.63592 82.0061 7.24383 82.1361 7.76407 82.3963C8.2843 82.6564 8.68908 83.0217 8.97843 83.4923C9.26777 83.9628 9.41244 84.5137 9.41244 85.145ZM8.31206 85.1406C8.31206 84.7315 8.20392 84.3924 7.98765 84.1235C7.77137 83.8547 7.48349 83.6559 7.12401 83.5273C6.76452 83.3958 6.3685 83.33 5.93595 83.33C5.50632 83.33 5.11176 83.3958 4.75228 83.5273C4.38987 83.6559 4.09907 83.8547 3.87987 84.1235C3.66067 84.3924 3.55107 84.7315 3.55107 85.1406C3.55107 85.5527 3.66067 85.8947 3.87987 86.1665C4.09907 86.4354 4.38987 86.6356 4.75228 86.7671C5.11176 86.8957 5.50632 86.96 5.93595 86.96C6.3685 86.96 6.76452 86.8957 7.12401 86.7671C7.48349 86.6356 7.77137 86.4354 7.98765 86.1665C8.20392 85.8947 8.31206 85.5527 8.31206 85.1406Z" fill="#2FB36B"/>
<path d="M11.8017 95.6007L2.54276 95.6007L2.54276 94.3206L3.63437 94.3206L3.63437 94.211C3.49408 94.135 3.33187 94.0254 3.14775 93.8822C2.96362 93.739 2.80287 93.5402 2.66551 93.286C2.52522 93.0317 2.45508 92.6956 2.45508 92.2777C2.45508 91.734 2.59244 91.2489 2.86717 90.8222C3.1419 90.3955 3.53792 90.0608 4.05523 89.8183C4.57254 89.5728 5.19506 89.45 5.9228 89.45C6.65054 89.45 7.27452 89.5713 7.79475 89.8139C8.31206 90.0564 8.711 90.3896 8.99158 90.8134C9.26923 91.2372 9.40805 91.7209 9.40806 92.2645C9.40806 92.6737 9.33937 93.0083 9.20201 93.2684C9.06464 93.5256 8.9039 93.7273 8.71977 93.8734C8.53564 94.0196 8.37198 94.1321 8.22877 94.211L8.22877 94.2899L11.8017 94.2899L11.8017 95.6007ZM5.90965 94.3162C6.38312 94.3162 6.79813 94.2475 7.15469 94.1102C7.51126 93.9728 7.79037 93.7741 7.99203 93.5139C8.19077 93.2538 8.29014 92.9353 8.29014 92.5582C8.29014 92.1666 8.18639 91.8393 7.97888 91.5762C7.76845 91.3132 7.48349 91.1144 7.12401 90.98C6.76452 90.8426 6.35973 90.774 5.90965 90.774C5.4654 90.774 5.06646 90.8412 4.71282 90.9756C4.35918 91.1071 4.08007 91.3059 3.87548 91.5718C3.6709 91.8349 3.56861 92.1637 3.56861 92.5582C3.56861 92.9382 3.66651 93.2597 3.86233 93.5227C4.05815 93.7828 4.33142 93.9801 4.68213 94.1145C5.03285 94.249 5.44202 94.3162 5.90965 94.3162Z" fill="#2FB36B"/>
<path d="M9.27654 106.511L2.54276 106.511L2.54276 105.253L3.63875 105.253L3.63875 105.17C3.26757 105.03 2.97823 104.8 2.77072 104.482C2.56029 104.163 2.45508 103.782 2.45508 103.337C2.45508 102.887 2.56029 102.51 2.77072 102.206C2.98115 101.899 3.2705 101.673 3.63875 101.527L3.63875 101.457C3.27926 101.296 2.99284 101.04 2.77949 100.689C2.56322 100.339 2.45508 99.9208 2.45508 99.4356C2.45508 98.8248 2.64651 98.3265 3.02938 97.9407C3.41224 97.552 3.98947 97.3576 4.76105 97.3576L9.27653 97.3576L9.27653 98.6684L4.8838 98.6684C4.42786 98.6684 4.09761 98.7926 3.89302 99.0411C3.68843 99.2895 3.58614 99.5861 3.58614 99.931C3.58614 100.358 3.71766 100.689 3.9807 100.926C4.24082 101.163 4.57546 101.281 4.98463 101.281L9.27654 101.281L9.27654 102.588L4.8005 102.588C4.43517 102.588 4.14144 102.702 3.91932 102.93C3.6972 103.158 3.58614 103.454 3.58614 103.82C3.58614 104.068 3.6519 104.297 3.78342 104.508C3.91202 104.715 4.09176 104.883 4.32265 105.012C4.55354 105.138 4.82096 105.201 5.12492 105.201L9.27654 105.201L9.27654 106.511Z" fill="#2FB36B"/>
<path d="M6.48416 109.588L2.54297 109.588L2.54297 108.273L9.27675 108.273L9.27675 109.561L8.11061 109.561L8.11061 109.632C8.4701 109.787 8.76967 110.035 9.00932 110.377C9.24606 110.716 9.36443 111.138 9.36443 111.644C9.36443 112.076 9.26944 112.459 9.07947 112.792C8.88657 113.123 8.60162 113.383 8.22459 113.573C7.84757 113.76 7.38141 113.853 6.82611 113.853L2.54297 113.853L2.54297 112.543L6.66828 112.543C7.12714 112.543 7.49247 112.415 7.76428 112.161C8.03608 111.907 8.17199 111.577 8.17199 111.17C8.17199 110.925 8.11061 110.681 7.98786 110.438C7.86511 110.193 7.67952 109.99 7.4311 109.829C7.18267 109.665 6.86702 109.585 6.48416 109.588Z" fill="#2FB36B"/>
<path d="M2.65711 116.796C2.24209 116.843 1.9206 117.036 1.69263 117.375C1.46175 117.714 1.3463 118.141 1.3463 118.655C1.3463 119.023 1.40475 119.342 1.52166 119.611C1.63564 119.879 1.79347 120.088 1.99513 120.238C2.19387 120.384 2.42037 120.457 2.67464 120.457C2.888 120.457 3.07212 120.407 3.22702 120.308C3.38192 120.205 3.51198 120.072 3.6172 119.909C3.71949 119.742 3.80571 119.564 3.87585 119.374C3.94307 119.184 3.9986 119.001 4.04244 118.826L4.27041 117.949C4.34055 117.663 4.43554 117.369 4.55537 117.068C4.6752 116.767 4.83302 116.488 5.02884 116.231C5.22465 115.973 5.46723 115.766 5.75657 115.608C6.04592 115.447 6.39225 115.367 6.79558 115.367C7.30412 115.367 7.75567 115.498 8.15022 115.761C8.54478 116.022 8.85604 116.4 9.08401 116.897C9.31197 117.391 9.42596 117.989 9.42596 118.69C9.42596 119.362 9.31928 119.944 9.10593 120.435C8.89258 120.926 8.59008 121.31 8.19845 121.588C7.80389 121.865 7.33627 122.019 6.79558 122.048L6.79558 120.689C7.11999 120.663 7.39033 120.558 7.60661 120.373C7.81996 120.186 7.97925 119.948 8.08446 119.659C8.18676 119.367 8.2379 119.047 8.2379 118.699C8.2379 118.316 8.17799 117.975 8.05816 117.677C7.93541 117.376 7.76589 117.14 7.54962 116.967C7.33042 116.795 7.07469 116.708 6.78242 116.708C6.51646 116.708 6.29873 116.784 6.12921 116.936C5.9597 117.085 5.81941 117.289 5.70835 117.546C5.59729 117.8 5.49938 118.088 5.41463 118.409L5.12528 119.47C4.92947 120.189 4.64159 120.759 4.26164 121.18C3.8817 121.598 3.379 121.807 2.75356 121.807C2.23625 121.807 1.7847 121.667 1.39891 121.386C1.01312 121.106 0.713548 120.726 0.500195 120.246C0.283919 119.767 0.175781 119.226 0.175781 118.624C0.175781 118.016 0.282458 117.48 0.495811 117.015C0.709164 116.548 1.00289 116.179 1.37699 115.911C1.74817 115.642 2.17487 115.501 2.65711 115.49L2.65711 116.796Z" fill="#2FB36B"/>
<path d="M9.42559 130.134C9.42559 130.561 9.34668 130.947 9.18886 131.292C9.02811 131.637 8.79576 131.91 8.49181 132.112C8.18785 132.31 7.81521 132.41 7.37389 132.41C6.99395 132.41 6.68123 132.337 6.43572 132.19C6.19022 132.044 5.99586 131.847 5.85265 131.599C5.70945 131.35 5.60131 131.073 5.52824 130.766C5.45518 130.459 5.39964 130.146 5.36165 129.828C5.31489 129.424 5.27689 129.097 5.24767 128.845C5.21552 128.594 5.16437 128.411 5.09423 128.298C5.02408 128.184 4.9101 128.127 4.75228 128.127L4.72159 128.127C4.33872 128.127 4.04208 128.235 3.83164 128.451C3.62121 128.664 3.516 128.983 3.516 129.407C3.516 129.848 3.61391 130.196 3.80972 130.45C4.00262 130.701 4.21743 130.875 4.45417 130.972L4.17359 132.204C3.76442 132.057 3.43416 131.844 3.18282 131.564C2.92855 131.28 2.74442 130.954 2.63044 130.586C2.51353 130.218 2.45508 129.83 2.45508 129.424C2.45508 129.155 2.48723 128.87 2.55153 128.569C2.6129 128.265 2.72688 127.982 2.89347 127.719C3.06007 127.453 3.29826 127.235 3.60806 127.066C3.91494 126.896 4.31388 126.811 4.80489 126.811L9.27654 126.811L9.27654 128.091L8.3559 128.091L8.3559 128.144C8.52542 128.229 8.69201 128.356 8.85567 128.525C9.01934 128.695 9.15525 128.913 9.26338 129.179C9.37152 129.445 9.42559 129.763 9.42559 130.134ZM8.37344 129.849C8.37344 129.487 8.30183 129.177 8.15862 128.92C8.01541 128.66 7.82836 128.463 7.59747 128.328C7.36366 128.191 7.11378 128.122 6.84782 128.122L5.97979 128.122C6.02655 128.169 6.07039 128.26 6.11131 128.394C6.1493 128.525 6.18291 128.676 6.21214 128.845C6.23844 129.015 6.26329 129.18 6.28667 129.341C6.30713 129.502 6.32466 129.636 6.33928 129.744C6.37142 129.998 6.42549 130.231 6.50148 130.441C6.57747 130.649 6.68707 130.815 6.83028 130.941C6.97057 131.064 7.15762 131.125 7.39143 131.125C7.71584 131.125 7.96134 131.005 8.12794 130.766C8.2916 130.526 8.37344 130.221 8.37344 129.849Z" fill="#2FB36B"/>
<path d="M2.54299 133.544L3.59514 133.544L3.59514 137.222L2.54299 137.222L2.54299 133.544ZM0.929687 136.236L0.929687 134.925L7.2996 134.925C7.55387 134.925 7.7453 134.887 7.8739 134.811C7.99957 134.735 8.08579 134.637 8.13255 134.517C8.17639 134.395 8.19831 134.262 8.19831 134.118C8.19831 134.013 8.191 133.921 8.17639 133.842C8.16178 133.763 8.15009 133.702 8.14132 133.658L9.22416 133.421C9.25339 133.497 9.28261 133.605 9.31184 133.746C9.34399 133.886 9.36152 134.061 9.36445 134.272C9.37029 134.617 9.30891 134.938 9.18032 135.236C9.05172 135.534 8.85298 135.775 8.5841 135.96C8.31522 136.144 7.97765 136.236 7.5714 136.236L0.929687 136.236Z" fill="#2FB36B"/>
<path d="M9.42559 141.756C9.42559 142.183 9.34668 142.569 9.18886 142.914C9.02811 143.259 8.79576 143.532 8.49181 143.734C8.18785 143.932 7.81521 144.032 7.37389 144.032C6.99395 144.032 6.68123 143.959 6.43572 143.812C6.19022 143.666 5.99586 143.469 5.85265 143.221C5.70945 142.972 5.60131 142.695 5.52824 142.388C5.45518 142.081 5.39964 141.768 5.36165 141.449C5.31489 141.046 5.27689 140.719 5.24767 140.467C5.21552 140.216 5.16437 140.033 5.09423 139.919C5.02408 139.805 4.9101 139.748 4.75228 139.748L4.72159 139.748C4.33872 139.748 4.04208 139.857 3.83164 140.073C3.62121 140.286 3.516 140.605 3.516 141.029C3.516 141.47 3.61391 141.818 3.80972 142.072C4.00262 142.323 4.21743 142.497 4.45417 142.594L4.17359 143.826C3.76442 143.679 3.43416 143.466 3.18282 143.186C2.92855 142.902 2.74442 142.576 2.63044 142.208C2.51353 141.84 2.45508 141.452 2.45508 141.046C2.45508 140.777 2.48723 140.492 2.55153 140.191C2.6129 139.887 2.72688 139.604 2.89347 139.341C3.06007 139.075 3.29826 138.857 3.60806 138.688C3.91494 138.518 4.31388 138.433 4.80489 138.433L9.27654 138.433L9.27654 139.713L8.3559 139.713L8.3559 139.766C8.52542 139.851 8.69201 139.978 8.85567 140.147C9.01934 140.317 9.15525 140.535 9.26338 140.801C9.37152 141.067 9.42559 141.385 9.42559 141.756ZM8.37344 141.471C8.37344 141.109 8.30183 140.799 8.15862 140.542C8.01541 140.282 7.82836 140.085 7.59747 139.95C7.36366 139.813 7.11378 139.744 6.84782 139.744L5.97979 139.744C6.02655 139.791 6.07039 139.881 6.11131 140.016C6.1493 140.147 6.18291 140.298 6.21214 140.467C6.23844 140.637 6.26329 140.802 6.28667 140.963C6.30713 141.124 6.32466 141.258 6.33928 141.366C6.37142 141.62 6.42549 141.853 6.50148 142.063C6.57747 142.271 6.68707 142.437 6.83028 142.563C6.97057 142.686 7.15762 142.747 7.39143 142.747C7.71584 142.747 7.96134 142.627 8.12794 142.388C8.2916 142.148 8.37344 141.843 8.37344 141.471Z" fill="#2FB36B"/>
<path d="M9.41244 147.884C9.41244 148.536 9.26485 149.097 8.96966 149.567C8.67155 150.035 8.26092 150.395 7.73776 150.646C7.21461 150.897 6.61547 151.023 5.94033 151.023C5.25644 151.023 4.65291 150.894 4.12975 150.637C3.60368 150.38 3.19305 150.018 2.89786 149.55C2.60267 149.082 2.45508 148.531 2.45508 147.897C2.45508 147.386 2.55006 146.93 2.74004 146.529C2.92709 146.129 3.19012 145.806 3.52915 145.561C3.86818 145.312 4.2642 145.165 4.71721 145.118L4.71721 146.393C4.40156 146.464 4.12975 146.624 3.90179 146.876C3.67382 147.124 3.55984 147.457 3.55984 147.875C3.55984 148.241 3.65629 148.561 3.84918 148.835C4.03915 149.107 4.31096 149.319 4.6646 149.471C5.01532 149.623 5.43033 149.699 5.90965 149.699C6.40065 149.699 6.82444 149.624 7.181 149.475C7.53756 149.326 7.81375 149.116 8.00957 148.844C8.20539 148.569 8.30329 148.246 8.30329 147.875C8.30329 147.627 8.25799 147.402 8.16739 147.2C8.07387 146.996 7.94089 146.825 7.76845 146.687C7.59601 146.547 7.38851 146.449 7.14593 146.393L7.14593 145.118C7.5814 145.165 7.97011 145.306 8.31206 145.543C8.65401 145.78 8.9229 146.097 9.11871 146.494C9.31453 146.889 9.41244 147.352 9.41244 147.884Z" fill="#2FB36B"/>
<path d="M9.41244 155.323C9.41244 155.954 9.26777 156.505 8.97843 156.975C8.68908 157.446 8.2843 157.811 7.76407 158.071C7.24384 158.331 6.63592 158.461 5.94033 158.461C5.24182 158.461 4.63099 158.331 4.10783 158.071C3.58468 157.811 3.17843 157.446 2.88909 156.975C2.59975 156.505 2.45508 155.954 2.45508 155.323C2.45508 154.691 2.59975 154.14 2.88909 153.67C3.17843 153.199 3.58468 152.834 4.10783 152.574C4.63099 152.314 5.24182 152.184 5.94033 152.184C6.63592 152.184 7.24383 152.314 7.76407 152.574C8.2843 152.834 8.68908 153.199 8.97843 153.67C9.26777 154.14 9.41244 154.691 9.41244 155.323ZM8.31206 155.318C8.31206 154.909 8.20392 154.57 7.98765 154.301C7.77137 154.032 7.48349 153.833 7.12401 153.705C6.76452 153.573 6.3685 153.508 5.93595 153.508C5.50632 153.508 5.11176 153.573 4.75228 153.705C4.38987 153.833 4.09907 154.032 3.87987 154.301C3.66067 154.57 3.55107 154.909 3.55107 155.318C3.55107 155.73 3.66067 156.072 3.87987 156.344C4.09907 156.613 4.38987 156.813 4.75228 156.945C5.11176 157.073 5.50632 157.137 5.93595 157.137C6.3685 157.137 6.76452 157.073 7.12401 156.945C7.48349 156.813 7.77137 156.613 7.98765 156.344C8.20392 156.072 8.31206 155.73 8.31206 155.318Z" fill="#2FB36B"/>
<path d="M0.298828 161.376L0.298828 160.025L6.66435 160.025C7.24011 160.025 7.73258 160.139 8.14175 160.367C8.55092 160.592 8.86364 160.91 9.07992 161.319C9.29327 161.728 9.39995 162.207 9.39995 162.757C9.39995 163.262 9.30789 163.717 9.12376 164.12C8.93963 164.52 8.67221 164.838 8.32149 165.071C7.96785 165.302 7.53823 165.418 7.03261 165.418L7.03261 164.072C7.28103 164.072 7.49585 164.015 7.67705 163.901C7.85825 163.784 8 163.625 8.1023 163.423C8.20167 163.218 8.25135 162.985 8.25135 162.722C8.25135 162.435 8.19144 162.193 8.07161 161.994C7.94886 161.792 7.76911 161.639 7.53238 161.534C7.29564 161.428 7.0063 161.376 6.66435 161.376L0.298828 161.376Z" fill="#2FB36B"/>
<path d="M87.6995 236.339V240.338H86.3887V233.604H87.6469V234.7H87.7302C87.8851 234.343 88.1276 234.057 88.4579 233.841C88.7911 233.624 89.2105 233.516 89.7161 233.516C90.175 233.516 90.5768 233.613 90.9217 233.805C91.2666 233.995 91.534 234.279 91.724 234.656C91.9139 235.033 92.0089 235.499 92.0089 236.054V240.338H90.6981V236.212C90.6981 235.724 90.571 235.343 90.3167 235.068C90.0624 234.79 89.7132 234.652 89.2689 234.652C88.965 234.652 88.6946 234.717 88.4579 234.849C88.2241 234.98 88.0385 235.173 87.9011 235.428C87.7667 235.679 87.6995 235.983 87.6995 236.339Z" fill="#959595"/>
<path d="M83.3125 237.545V233.604H84.6277V240.337H83.3388V239.171H83.2686C83.1137 239.531 82.8653 239.83 82.5234 240.07C82.1843 240.307 81.762 240.425 81.2564 240.425C80.8238 240.425 80.441 240.33 80.1078 240.14C79.7775 239.947 79.5174 239.662 79.3274 239.285C79.1404 238.908 79.0469 238.442 79.0469 237.887V233.604H80.3577V237.729C80.3577 238.188 80.4848 238.553 80.7391 238.825C80.9934 239.097 81.3236 239.233 81.7299 239.233C81.9754 239.233 82.2194 239.171 82.462 239.049C82.7075 238.926 82.9106 238.74 83.0714 238.492C83.235 238.243 83.3154 237.928 83.3125 237.545Z" fill="#959595"/>
<path d="M75.8301 231.359H77.1804V237.725C77.1804 238.3 77.0664 238.793 76.8384 239.202C76.6134 239.611 76.2963 239.924 75.8871 240.14C75.4779 240.354 74.9986 240.46 74.4492 240.46C73.9435 240.46 73.4891 240.368 73.0857 240.184C72.6853 240 72.3682 239.733 72.1344 239.382C71.9035 239.028 71.7881 238.599 71.7881 238.093H73.134C73.134 238.341 73.191 238.556 73.3049 238.737C73.4218 238.919 73.5811 239.06 73.7828 239.163C73.9874 239.262 74.2212 239.312 74.4842 239.312C74.7706 239.312 75.0132 239.252 75.212 239.132C75.4136 239.009 75.5671 238.829 75.6723 238.593C75.7775 238.356 75.8301 238.067 75.8301 237.725V231.359Z" fill="#959595"/>
<path d="M51.5065 242.863C51.3107 242.863 51.1324 242.847 50.9716 242.814C50.8109 242.785 50.6911 242.753 50.6122 242.718L50.9278 241.644C51.1675 241.708 51.3808 241.736 51.5679 241.727C51.7549 241.718 51.92 241.648 52.0633 241.517C52.2094 241.385 52.338 241.17 52.449 240.872L52.6113 240.425L50.1475 233.604H51.5503L53.2557 238.829H53.3258L55.0312 233.604H56.4385L53.6634 241.236C53.5348 241.587 53.3711 241.883 53.1724 242.126C52.9737 242.372 52.7369 242.556 52.4622 242.678C52.1875 242.801 51.8689 242.863 51.5065 242.863Z" fill="#959595"/>
<path d="M45.8495 240.487C45.4228 240.487 45.037 240.408 44.6921 240.25C44.3473 240.089 44.074 239.857 43.8723 239.553C43.6736 239.249 43.5742 238.876 43.5742 238.435C43.5742 238.055 43.6473 237.742 43.7934 237.497C43.9395 237.251 44.1368 237.057 44.3853 236.914C44.6337 236.77 44.9113 236.662 45.2182 236.589C45.5251 236.516 45.8378 236.461 46.1564 236.423C46.5597 236.376 46.887 236.338 47.1384 236.309C47.3897 236.276 47.5724 236.225 47.6864 236.155C47.8004 236.085 47.8574 235.971 47.8574 235.813V235.783C47.8574 235.4 47.7492 235.103 47.5329 234.893C47.3196 234.682 47.001 234.577 46.5772 234.577C46.1359 234.577 45.7881 234.675 45.5339 234.871C45.2825 235.064 45.1086 235.278 45.0122 235.515L43.7803 235.235C43.9264 234.825 44.1398 234.495 44.4203 234.244C44.7038 233.989 45.0297 233.805 45.3979 233.691C45.7662 233.574 46.1535 233.516 46.5597 233.516C46.8286 233.516 47.1135 233.548 47.4146 233.612C47.7185 233.674 48.002 233.788 48.2651 233.954C48.531 234.121 48.7488 234.359 48.9183 234.669C49.0878 234.976 49.1725 235.375 49.1725 235.866V240.337H47.8924V239.417H47.8398C47.7551 239.586 47.6279 239.753 47.4584 239.917C47.2889 240.08 47.0712 240.216 46.8052 240.324C46.5392 240.432 46.2207 240.487 45.8495 240.487ZM46.1345 239.434C46.4969 239.434 46.8067 239.363 47.0639 239.22C47.324 239.076 47.5213 238.889 47.6557 238.658C47.7931 238.425 47.8617 238.175 47.8617 237.909V237.041C47.815 237.087 47.7244 237.131 47.5899 237.172C47.4584 237.21 47.3079 237.244 47.1384 237.273C46.9689 237.299 46.8037 237.324 46.643 237.348C46.4823 237.368 46.3478 237.386 46.2397 237.4C45.9854 237.432 45.7531 237.486 45.5426 237.562C45.3351 237.638 45.1685 237.748 45.0428 237.891C44.9201 238.031 44.8587 238.219 44.8587 238.452C44.8587 238.777 44.9786 239.022 45.2182 239.189C45.4579 239.353 45.7633 239.434 46.1345 239.434Z" fill="#959595"/>
<path d="M32.916 231.359H34.56L37.4184 238.338H37.5236L40.3819 231.359H42.0259V240.337H40.737V233.84H40.6537L38.0058 240.324H36.9361L34.2882 233.836H34.2049V240.337H32.916V231.359Z" fill="#959595"/>
<path d="M258.499 233.604V234.656H254.821V233.604H258.499ZM255.808 231.99H257.118V238.36C257.118 238.615 257.156 238.806 257.232 238.935C257.308 239.06 257.406 239.146 257.526 239.193C257.649 239.237 257.782 239.259 257.925 239.259C258.03 239.259 258.122 239.252 258.201 239.237C258.28 239.222 258.342 239.211 258.385 239.202L258.622 240.285C258.546 240.314 258.438 240.343 258.298 240.373C258.157 240.405 257.982 240.422 257.772 240.425C257.427 240.431 257.105 240.37 256.807 240.241C256.509 240.112 256.268 239.914 256.084 239.645C255.9 239.376 255.808 239.038 255.808 238.632V231.99Z" fill="#959595"/>
<path d="M251.189 240.473C250.537 240.473 249.976 240.326 249.505 240.031C249.038 239.732 248.678 239.322 248.427 238.799C248.175 238.276 248.05 237.676 248.05 237.001C248.05 236.317 248.178 235.714 248.436 235.191C248.693 234.665 249.055 234.254 249.523 233.959C249.99 233.664 250.541 233.516 251.176 233.516C251.687 233.516 252.143 233.611 252.543 233.801C252.944 233.988 253.267 234.251 253.512 234.59C253.761 234.929 253.908 235.325 253.955 235.778H252.679C252.609 235.462 252.448 235.191 252.197 234.963C251.949 234.735 251.615 234.621 251.197 234.621C250.832 234.621 250.512 234.717 250.237 234.91C249.966 235.1 249.754 235.372 249.602 235.726C249.45 236.076 249.374 236.491 249.374 236.971C249.374 237.462 249.448 237.885 249.597 238.242C249.746 238.598 249.957 238.875 250.229 239.07C250.503 239.266 250.826 239.364 251.197 239.364C251.446 239.364 251.671 239.319 251.873 239.228C252.077 239.135 252.248 239.002 252.386 238.829C252.526 238.657 252.624 238.449 252.679 238.207H253.955C253.908 238.642 253.767 239.031 253.53 239.373C253.293 239.715 252.976 239.984 252.578 240.18C252.184 240.375 251.721 240.473 251.189 240.473Z" fill="#959595"/>
<path d="M246.768 235.848C246.768 236.807 246.593 237.631 246.242 238.321C245.891 239.008 245.411 239.537 244.8 239.908C244.192 240.276 243.501 240.46 242.726 240.46C241.949 240.46 241.255 240.276 240.644 239.908C240.036 239.537 239.556 239.006 239.206 238.316C238.855 237.627 238.68 236.804 238.68 235.848C238.68 234.89 238.855 234.067 239.206 233.38C239.556 232.69 240.036 232.161 240.644 231.793C241.255 231.422 241.949 231.236 242.726 231.236C243.501 231.236 244.192 231.422 244.8 231.793C245.411 232.161 245.891 232.69 246.242 233.38C246.593 234.067 246.768 234.89 246.768 235.848ZM245.427 235.848C245.427 235.118 245.308 234.502 245.072 234.003C244.838 233.5 244.516 233.12 244.107 232.863C243.701 232.603 243.24 232.473 242.726 232.473C242.209 232.473 241.747 232.603 241.341 232.863C240.935 233.12 240.613 233.5 240.376 234.003C240.142 234.502 240.026 235.118 240.026 235.848C240.026 236.579 240.142 237.196 240.376 237.698C240.613 238.198 240.935 238.578 241.341 238.838C241.747 239.095 242.209 239.224 242.726 239.224C243.24 239.224 243.701 239.095 244.107 238.838C244.516 238.578 244.838 238.198 245.072 237.698C245.308 237.196 245.427 236.579 245.427 235.848Z" fill="#959595"/>
<path d="M214.31 242.863V233.604H215.59V234.695H215.699C215.775 234.555 215.885 234.393 216.028 234.209C216.171 234.025 216.37 233.864 216.624 233.726C216.879 233.586 217.215 233.516 217.633 233.516C218.176 233.516 218.661 233.653 219.088 233.928C219.515 234.203 219.849 234.599 220.092 235.116C220.338 235.633 220.46 236.256 220.46 236.984C220.46 237.711 220.339 238.335 220.096 238.856C219.854 239.373 219.521 239.772 219.097 240.052C218.673 240.33 218.189 240.469 217.646 240.469C217.237 240.469 216.902 240.4 216.642 240.263C216.385 240.126 216.183 239.965 216.037 239.781C215.891 239.597 215.778 239.433 215.699 239.29H215.62V242.863H214.31ZM215.594 236.971C215.594 237.444 215.663 237.859 215.8 238.216C215.937 238.572 216.136 238.851 216.396 239.053C216.656 239.252 216.975 239.351 217.352 239.351C217.744 239.351 218.071 239.247 218.334 239.04C218.597 238.829 218.796 238.544 218.93 238.185C219.068 237.825 219.136 237.421 219.136 236.971C219.136 236.526 219.069 236.127 218.935 235.774C218.803 235.42 218.604 235.141 218.338 234.936C218.075 234.732 217.747 234.63 217.352 234.63C216.972 234.63 216.651 234.727 216.388 234.923C216.127 235.119 215.93 235.392 215.796 235.743C215.661 236.094 215.594 236.503 215.594 236.971Z" fill="#959595"/>
<path d="M209.966 240.473C209.303 240.473 208.732 240.332 208.252 240.048C207.776 239.762 207.408 239.36 207.148 238.843C206.89 238.322 206.762 237.713 206.762 237.014C206.762 236.325 206.89 235.717 207.148 235.191C207.408 234.665 207.77 234.254 208.235 233.959C208.702 233.664 209.249 233.516 209.874 233.516C210.254 233.516 210.623 233.579 210.979 233.705C211.336 233.83 211.656 234.027 211.939 234.296C212.223 234.565 212.446 234.914 212.61 235.344C212.774 235.771 212.855 236.29 212.855 236.9V237.365H207.503V236.383H211.571C211.571 236.038 211.501 235.733 211.361 235.467C211.22 235.198 211.023 234.986 210.769 234.831C210.517 234.676 210.222 234.599 209.883 234.599C209.515 234.599 209.193 234.689 208.919 234.871C208.647 235.049 208.436 235.283 208.287 235.572C208.141 235.858 208.068 236.17 208.068 236.506V237.273C208.068 237.723 208.147 238.106 208.305 238.422C208.466 238.737 208.689 238.978 208.976 239.145C209.262 239.309 209.597 239.391 209.98 239.391C210.228 239.391 210.454 239.355 210.659 239.285C210.864 239.212 211.04 239.104 211.19 238.961C211.339 238.818 211.453 238.641 211.531 238.43L212.772 238.654C212.673 239.019 212.494 239.339 212.237 239.614C211.983 239.886 211.663 240.098 211.277 240.25C210.894 240.399 210.457 240.473 209.966 240.473Z" fill="#959595"/>
<path d="M204.121 233.718C204.074 233.303 203.881 232.981 203.542 232.753C203.203 232.522 202.777 232.407 202.262 232.407C201.894 232.407 201.576 232.465 201.307 232.582C201.038 232.696 200.829 232.854 200.68 233.056C200.534 233.254 200.461 233.481 200.461 233.735C200.461 233.949 200.51 234.133 200.61 234.288C200.712 234.442 200.845 234.573 201.009 234.678C201.175 234.78 201.353 234.866 201.543 234.936C201.733 235.004 201.916 235.059 202.091 235.103L202.968 235.331C203.255 235.401 203.548 235.496 203.849 235.616C204.15 235.736 204.429 235.894 204.687 236.089C204.944 236.285 205.151 236.528 205.309 236.817C205.47 237.106 205.55 237.453 205.55 237.856C205.55 238.365 205.419 238.816 205.156 239.211C204.896 239.605 204.517 239.917 204.02 240.145C203.526 240.373 202.929 240.487 202.227 240.487C201.555 240.487 200.973 240.38 200.482 240.166C199.991 239.953 199.607 239.651 199.329 239.259C199.052 238.864 198.898 238.397 198.869 237.856H200.228C200.254 238.181 200.36 238.451 200.544 238.667C200.731 238.881 200.969 239.04 201.258 239.145C201.551 239.247 201.871 239.298 202.218 239.298C202.601 239.298 202.942 239.239 203.24 239.119C203.541 238.996 203.778 238.826 203.95 238.61C204.123 238.391 204.209 238.135 204.209 237.843C204.209 237.577 204.133 237.359 203.981 237.19C203.832 237.02 203.629 236.88 203.371 236.769C203.117 236.658 202.829 236.56 202.508 236.475L201.447 236.186C200.728 235.99 200.158 235.702 199.737 235.322C199.319 234.942 199.11 234.44 199.11 233.814C199.11 233.297 199.251 232.845 199.531 232.459C199.812 232.074 200.192 231.774 200.671 231.561C201.15 231.344 201.691 231.236 202.293 231.236C202.901 231.236 203.437 231.343 203.902 231.556C204.37 231.77 204.738 232.063 205.007 232.438C205.276 232.809 205.416 233.235 205.428 233.718H204.121Z" fill="#959595"/>
<path d="M173.311 243.003C172.776 243.003 172.316 242.933 171.93 242.792C171.548 242.652 171.235 242.467 170.992 242.236C170.75 242.005 170.568 241.752 170.449 241.477L171.575 241.013C171.654 241.141 171.759 241.277 171.891 241.42C172.025 241.566 172.207 241.691 172.435 241.793C172.665 241.895 172.962 241.946 173.324 241.946C173.821 241.946 174.232 241.825 174.556 241.582C174.881 241.343 175.043 240.96 175.043 240.434V239.11H174.96C174.881 239.253 174.767 239.412 174.618 239.588C174.472 239.763 174.27 239.915 174.013 240.044C173.756 240.172 173.421 240.237 173.009 240.237C172.477 240.237 171.998 240.112 171.571 239.864C171.147 239.613 170.811 239.243 170.563 238.755C170.317 238.264 170.194 237.66 170.194 236.944C170.194 236.228 170.316 235.614 170.558 235.103C170.804 234.592 171.14 234.2 171.567 233.928C171.993 233.653 172.477 233.516 173.018 233.516C173.436 233.516 173.773 233.586 174.03 233.726C174.288 233.864 174.488 234.025 174.631 234.209C174.777 234.393 174.89 234.555 174.968 234.695H175.065V233.604H176.349V240.487C176.349 241.065 176.215 241.54 175.946 241.911C175.677 242.282 175.313 242.557 174.854 242.735C174.399 242.914 173.884 243.003 173.311 243.003ZM173.298 239.149C173.675 239.149 173.994 239.062 174.254 238.886C174.517 238.708 174.716 238.454 174.85 238.124C174.987 237.79 175.056 237.391 175.056 236.927C175.056 236.474 174.989 236.075 174.854 235.73C174.72 235.385 174.523 235.116 174.263 234.923C174.003 234.727 173.681 234.63 173.298 234.63C172.904 234.63 172.575 234.732 172.312 234.936C172.049 235.138 171.85 235.413 171.716 235.761C171.584 236.108 171.518 236.497 171.518 236.927C171.518 237.368 171.586 237.755 171.72 238.088C171.854 238.422 172.053 238.682 172.316 238.869C172.582 239.056 172.909 239.149 173.298 239.149Z" fill="#959595"/>
<path d="M167.411 237.545V233.604H168.726V240.337H167.437V239.171H167.367C167.212 239.531 166.964 239.83 166.622 240.07C166.283 240.307 165.861 240.425 165.355 240.425C164.922 240.425 164.54 240.33 164.206 240.14C163.876 239.947 163.616 239.662 163.426 239.285C163.239 238.908 163.146 238.442 163.146 237.887V233.604H164.456V237.729C164.456 238.188 164.583 238.553 164.838 238.825C165.092 239.097 165.422 239.233 165.828 239.233C166.074 239.233 166.318 239.171 166.561 239.049C166.806 238.926 167.009 238.74 167.17 238.492C167.334 238.243 167.414 237.928 167.411 237.545Z" fill="#959595"/>
<path d="M155.366 240.337H153.928L157.159 231.359H158.724L161.955 240.337H160.517L157.979 232.99H157.908L155.366 240.337ZM155.607 236.821H160.271V237.961H155.607V236.821Z" fill="#959595"/>
<path d="M135.092 231.359V240.337H133.781V231.359H135.092Z" fill="#959595"/>
<path d="M130.705 237.545V233.604H132.02V240.337H130.731V239.171H130.661C130.506 239.531 130.258 239.83 129.916 240.07C129.577 240.307 129.155 240.425 128.649 240.425C128.216 240.425 127.834 240.33 127.5 240.14C127.17 239.947 126.91 239.662 126.72 239.285C126.533 238.908 126.439 238.442 126.439 237.887V233.604H127.75V237.729C127.75 238.188 127.877 238.553 128.132 238.825C128.386 239.097 128.716 239.233 129.122 239.233C129.368 239.233 129.612 239.171 129.855 239.049C130.1 238.926 130.303 238.74 130.464 238.492C130.628 238.243 130.708 237.928 130.705 237.545Z" fill="#959595"/>
<path d="M123.223 231.359H124.573V237.725C124.573 238.3 124.459 238.793 124.231 239.202C124.006 239.611 123.689 239.924 123.28 240.14C122.871 240.353 122.391 240.46 121.842 240.46C121.336 240.46 120.882 240.368 120.478 240.184C120.078 240 119.761 239.732 119.527 239.382C119.296 239.028 119.181 238.598 119.181 238.093H120.527C120.527 238.341 120.584 238.556 120.698 238.737C120.814 238.918 120.974 239.06 121.175 239.162C121.38 239.262 121.614 239.312 121.877 239.312C122.163 239.312 122.406 239.252 122.605 239.132C122.806 239.009 122.96 238.829 123.065 238.593C123.17 238.356 123.223 238.066 123.223 237.725V231.359Z" fill="#959595"/>
<path d="M196.023 260.245L194.835 260.455C194.785 260.303 194.706 260.159 194.598 260.021C194.493 259.884 194.35 259.771 194.168 259.684C193.987 259.596 193.761 259.552 193.489 259.552C193.118 259.552 192.808 259.635 192.559 259.802C192.311 259.966 192.187 260.178 192.187 260.438C192.187 260.663 192.27 260.844 192.437 260.981C192.603 261.119 192.872 261.231 193.243 261.319L194.313 261.564C194.933 261.708 195.394 261.928 195.698 262.226C196.002 262.524 196.154 262.912 196.154 263.388C196.154 263.791 196.037 264.151 195.804 264.466C195.573 264.779 195.25 265.025 194.835 265.203C194.423 265.381 193.945 265.47 193.401 265.47C192.647 265.47 192.032 265.31 191.556 264.988C191.079 264.664 190.787 264.203 190.679 263.607L191.946 263.414C192.025 263.745 192.187 263.994 192.432 264.164C192.678 264.331 192.998 264.414 193.392 264.414C193.822 264.414 194.165 264.325 194.423 264.146C194.68 263.965 194.808 263.745 194.808 263.484C194.808 263.274 194.729 263.097 194.572 262.954C194.417 262.811 194.179 262.703 193.857 262.63L192.717 262.38C192.089 262.237 191.624 262.009 191.323 261.696C191.025 261.383 190.876 260.987 190.876 260.508C190.876 260.11 190.987 259.762 191.209 259.464C191.431 259.166 191.738 258.934 192.13 258.767C192.521 258.598 192.97 258.513 193.476 258.513C194.203 258.513 194.776 258.671 195.194 258.987C195.612 259.299 195.888 259.719 196.023 260.245Z" fill="#959595"/>
<path d="M184.861 261.336V265.334H183.55V256.356H184.843V259.697H184.926C185.084 259.334 185.325 259.046 185.65 258.833C185.974 258.62 186.398 258.513 186.921 258.513C187.383 258.513 187.786 258.608 188.131 258.798C188.479 258.988 188.748 259.271 188.938 259.648C189.131 260.023 189.227 260.49 189.227 261.051V265.334H187.916V261.209C187.916 260.715 187.789 260.332 187.535 260.061C187.281 259.786 186.927 259.648 186.474 259.648C186.164 259.648 185.886 259.714 185.641 259.846C185.398 259.977 185.207 260.17 185.067 260.424C184.929 260.676 184.861 260.98 184.861 261.336Z" fill="#959595"/>
<path d="M181.955 258.601V259.653H178.277V258.601H181.955ZM179.264 256.987H180.575V263.357C180.575 263.612 180.613 263.803 180.689 263.932C180.765 264.057 180.862 264.144 180.982 264.19C181.105 264.234 181.238 264.256 181.381 264.256C181.486 264.256 181.578 264.249 181.657 264.234C181.736 264.22 181.798 264.208 181.842 264.199L182.078 265.282C182.002 265.311 181.894 265.34 181.754 265.37C181.614 265.402 181.438 265.419 181.228 265.422C180.883 265.428 180.561 265.367 180.263 265.238C179.965 265.109 179.724 264.911 179.54 264.642C179.356 264.373 179.264 264.035 179.264 263.629V256.987Z" fill="#959595"/>
<path d="M172.744 261.336V265.335H171.434V258.601H172.692V259.697H172.775C172.93 259.34 173.173 259.054 173.503 258.837C173.836 258.621 174.255 258.513 174.761 258.513C175.22 258.513 175.622 258.61 175.967 258.802C176.311 258.992 176.579 259.276 176.769 259.653C176.959 260.03 177.054 260.496 177.054 261.051V265.335H175.743V261.209C175.743 260.721 175.616 260.34 175.362 260.065C175.107 259.787 174.758 259.649 174.314 259.649C174.01 259.649 173.74 259.714 173.503 259.846C173.269 259.977 173.083 260.17 172.946 260.424C172.812 260.676 172.744 260.98 172.744 261.336Z" fill="#959595"/>
<path d="M166.831 265.47C166.2 265.47 165.649 265.326 165.179 265.036C164.708 264.747 164.343 264.342 164.083 263.822C163.822 263.302 163.692 262.694 163.692 261.998C163.692 261.3 163.822 260.689 164.083 260.166C164.343 259.643 164.708 259.236 165.179 258.947C165.649 258.658 166.2 258.513 166.831 258.513C167.463 258.513 168.014 258.658 168.484 258.947C168.955 259.236 169.32 259.643 169.58 260.166C169.84 260.689 169.97 261.3 169.97 261.998C169.97 262.694 169.84 263.302 169.58 263.822C169.32 264.342 168.955 264.747 168.484 265.036C168.014 265.326 167.463 265.47 166.831 265.47ZM166.836 264.37C167.245 264.37 167.584 264.262 167.853 264.046C168.122 263.829 168.32 263.541 168.449 263.182C168.581 262.823 168.646 262.426 168.646 261.994C168.646 261.564 168.581 261.17 168.449 260.81C168.32 260.448 168.122 260.157 167.853 259.938C167.584 259.719 167.245 259.609 166.836 259.609C166.424 259.609 166.082 259.719 165.81 259.938C165.541 260.157 165.341 260.448 165.209 260.81C165.081 261.17 165.016 261.564 165.016 261.994C165.016 262.426 165.081 262.823 165.209 263.182C165.341 263.541 165.541 263.829 165.81 264.046C166.082 264.262 166.424 264.37 166.836 264.37Z" fill="#959595"/>
<path d="M153.084 265.335V258.601H154.342V259.697H154.425C154.566 259.326 154.795 259.036 155.114 258.829C155.432 258.618 155.814 258.513 156.258 258.513C156.708 258.513 157.085 258.618 157.389 258.829C157.696 259.039 157.922 259.328 158.069 259.697H158.139C158.299 259.337 158.555 259.051 158.906 258.837C159.257 258.621 159.675 258.513 160.16 258.513C160.771 258.513 161.269 258.704 161.655 259.087C162.043 259.47 162.238 260.047 162.238 260.819V265.335H160.927V260.942C160.927 260.486 160.803 260.156 160.554 259.951C160.306 259.746 160.009 259.644 159.664 259.644C159.238 259.644 158.906 259.776 158.669 260.039C158.432 260.299 158.314 260.633 158.314 261.043V265.335H157.008V260.858C157.008 260.493 156.894 260.199 156.666 259.977C156.438 259.755 156.141 259.644 155.776 259.644C155.527 259.644 155.298 259.71 155.087 259.841C154.88 259.97 154.712 260.15 154.583 260.381C154.458 260.612 154.395 260.879 154.395 261.183V265.335H153.084Z" fill="#959595"/>
<path d="M145.086 265.457C144.686 265.451 144.291 265.378 143.903 265.238C143.517 265.098 143.166 264.864 142.851 264.537C142.535 264.209 142.282 263.769 142.092 263.217C141.905 262.665 141.812 261.975 141.812 261.148C141.812 260.365 141.889 259.669 142.044 259.061C142.202 258.453 142.428 257.94 142.723 257.522C143.019 257.101 143.375 256.781 143.793 256.562C144.211 256.343 144.68 256.233 145.2 256.233C145.735 256.233 146.21 256.339 146.625 256.549C147.04 256.759 147.376 257.05 147.633 257.421C147.894 257.793 148.059 258.215 148.129 258.688H146.792C146.701 258.314 146.521 258.009 146.252 257.772C145.984 257.535 145.633 257.417 145.2 257.417C144.543 257.417 144.03 257.703 143.662 258.276C143.296 258.849 143.112 259.646 143.109 260.666H143.175C143.33 260.411 143.52 260.195 143.745 260.017C143.973 259.836 144.227 259.697 144.508 259.6C144.791 259.501 145.089 259.451 145.402 259.451C145.922 259.451 146.393 259.578 146.814 259.833C147.237 260.084 147.575 260.432 147.826 260.876C148.078 261.32 148.203 261.829 148.203 262.402C148.203 262.974 148.073 263.493 147.813 263.958C147.556 264.423 147.194 264.791 146.726 265.063C146.258 265.332 145.712 265.463 145.086 265.457ZM145.082 264.317C145.427 264.317 145.735 264.233 146.007 264.063C146.279 263.894 146.494 263.666 146.651 263.379C146.809 263.093 146.888 262.773 146.888 262.419C146.888 262.074 146.811 261.76 146.656 261.477C146.504 261.193 146.293 260.968 146.025 260.801C145.759 260.635 145.455 260.552 145.113 260.552C144.853 260.552 144.611 260.601 144.389 260.701C144.17 260.8 143.977 260.937 143.811 261.113C143.644 261.288 143.513 261.49 143.416 261.718C143.323 261.943 143.276 262.181 143.276 262.432C143.276 262.768 143.353 263.08 143.508 263.366C143.666 263.653 143.881 263.883 144.153 264.059C144.427 264.231 144.737 264.317 145.082 264.317Z" fill="#959595"/>
<path d="M133.906 268C133.371 268 132.911 267.93 132.525 267.79C132.142 267.649 131.83 267.464 131.587 267.233C131.344 267.002 131.163 266.749 131.043 266.474L132.17 266.01C132.249 266.138 132.354 266.274 132.486 266.417C132.62 266.563 132.801 266.688 133.029 266.79C133.26 266.892 133.557 266.943 133.919 266.943C134.416 266.943 134.827 266.822 135.151 266.58C135.476 266.34 135.638 265.957 135.638 265.431V264.107H135.554C135.476 264.25 135.362 264.41 135.212 264.585C135.066 264.76 134.865 264.912 134.607 265.041C134.35 265.169 134.016 265.234 133.604 265.234C133.072 265.234 132.592 265.109 132.166 264.861C131.742 264.61 131.406 264.24 131.157 263.752C130.912 263.261 130.789 262.657 130.789 261.941C130.789 261.225 130.91 260.612 131.153 260.1C131.398 259.589 131.735 259.197 132.161 258.925C132.588 258.65 133.072 258.513 133.612 258.513C134.03 258.513 134.368 258.583 134.625 258.723C134.882 258.861 135.082 259.022 135.226 259.206C135.372 259.39 135.484 259.552 135.563 259.692H135.66V258.601H136.944V265.484C136.944 266.062 136.81 266.537 136.541 266.908C136.272 267.28 135.908 267.554 135.449 267.733C134.993 267.911 134.479 268 133.906 268ZM133.893 264.146C134.27 264.146 134.589 264.059 134.849 263.883C135.112 263.705 135.31 263.451 135.445 263.121C135.582 262.787 135.651 262.388 135.651 261.924C135.651 261.471 135.584 261.072 135.449 260.727C135.315 260.382 135.118 260.113 134.857 259.92C134.597 259.724 134.276 259.627 133.893 259.627C133.498 259.627 133.17 259.729 132.907 259.933C132.643 260.135 132.445 260.41 132.31 260.758C132.179 261.105 132.113 261.494 132.113 261.924C132.113 262.365 132.18 262.752 132.315 263.086C132.449 263.419 132.648 263.679 132.911 263.866C133.177 264.053 133.504 264.146 133.893 264.146Z" fill="#959595"/>
<path d="M125.015 261.336V265.335H123.704V258.601H124.962V259.697H125.046C125.2 259.34 125.443 259.054 125.773 258.837C126.107 258.621 126.526 258.513 127.032 258.513C127.49 258.513 127.892 258.61 128.237 258.802C128.582 258.992 128.849 259.276 129.039 259.653C129.229 260.03 129.324 260.496 129.324 261.051V265.335H128.014V261.209C128.014 260.721 127.886 260.34 127.632 260.065C127.378 259.787 127.029 259.649 126.584 259.649C126.28 259.649 126.01 259.714 125.773 259.846C125.54 259.977 125.354 260.17 125.217 260.424C125.082 260.676 125.015 260.98 125.015 261.336Z" fill="#959595"/>
<path d="M120.63 265.335V258.601H121.941V265.335H120.63ZM121.292 257.562C121.064 257.562 120.869 257.486 120.705 257.334C120.544 257.179 120.464 256.995 120.464 256.781C120.464 256.565 120.544 256.381 120.705 256.229C120.869 256.074 121.064 255.997 121.292 255.997C121.52 255.997 121.715 256.074 121.876 256.229C122.039 256.381 122.121 256.565 122.121 256.781C122.121 256.995 122.039 257.179 121.876 257.334C121.715 257.486 121.52 257.562 121.292 257.562Z" fill="#959595"/>
<path d="M118.866 256.356V265.334H117.556V256.356H118.866Z" fill="#959595"/>
<path d="M114.482 265.335V258.601H115.793V265.335H114.482ZM115.144 257.562C114.916 257.562 114.72 257.486 114.557 257.334C114.396 257.179 114.315 256.995 114.315 256.781C114.315 256.565 114.396 256.381 114.557 256.229C114.72 256.074 114.916 255.997 115.144 255.997C115.372 255.997 115.566 256.074 115.727 256.229C115.891 256.381 115.973 256.565 115.973 256.781C115.973 256.995 115.891 257.179 115.727 257.334C115.566 257.486 115.372 257.562 115.144 257.562Z" fill="#959595"/>
<path d="M109.412 265.484C108.985 265.484 108.6 265.405 108.255 265.247C107.91 265.086 107.636 264.854 107.435 264.55C107.236 264.246 107.137 263.873 107.137 263.432C107.137 263.052 107.21 262.739 107.356 262.494C107.502 262.248 107.699 262.054 107.948 261.911C108.196 261.767 108.474 261.659 108.781 261.586C109.088 261.513 109.4 261.458 109.719 261.42C110.122 261.373 110.45 261.335 110.701 261.306C110.952 261.274 111.135 261.222 111.249 261.152C111.363 261.082 111.42 260.968 111.42 260.81V260.78C111.42 260.397 111.312 260.1 111.095 259.89C110.882 259.679 110.564 259.574 110.14 259.574C109.698 259.574 109.351 259.672 109.096 259.868C108.845 260.061 108.671 260.275 108.575 260.512L107.343 260.232C107.489 259.822 107.702 259.492 107.983 259.241C108.266 258.987 108.592 258.802 108.96 258.688C109.329 258.572 109.716 258.513 110.122 258.513C110.391 258.513 110.676 258.545 110.977 258.61C111.281 258.671 111.565 258.785 111.828 258.951C112.094 259.118 112.311 259.356 112.481 259.666C112.65 259.973 112.735 260.372 112.735 260.863V265.335H111.455V264.414H111.402C111.318 264.583 111.19 264.75 111.021 264.914C110.851 265.077 110.634 265.213 110.368 265.321C110.102 265.43 109.783 265.484 109.412 265.484ZM109.697 264.431C110.059 264.431 110.369 264.36 110.626 264.217C110.886 264.073 111.084 263.886 111.218 263.655C111.356 263.422 111.424 263.172 111.424 262.906V262.038C111.377 262.085 111.287 262.128 111.152 262.169C111.021 262.207 110.87 262.241 110.701 262.27C110.531 262.296 110.366 262.321 110.205 262.345C110.045 262.365 109.91 262.383 109.802 262.397C109.548 262.429 109.316 262.483 109.105 262.559C108.898 262.635 108.731 262.745 108.605 262.888C108.483 263.029 108.421 263.216 108.421 263.449C108.421 263.774 108.541 264.019 108.781 264.186C109.02 264.35 109.326 264.431 109.697 264.431Z" fill="#959595"/>
<path d="M102.775 265.334V258.601H104.042V259.67H104.113C104.235 259.308 104.452 259.023 104.761 258.816C105.074 258.605 105.428 258.5 105.822 258.5C105.904 258.5 106.001 258.503 106.112 258.509C106.226 258.514 106.315 258.522 106.379 258.531V259.784C106.326 259.77 106.233 259.754 106.098 259.736C105.964 259.716 105.83 259.705 105.695 259.705C105.385 259.705 105.109 259.771 104.867 259.903C104.627 260.031 104.437 260.211 104.297 260.442C104.156 260.67 104.086 260.93 104.086 261.222V265.334H102.775Z" fill="#959595"/>
<path d="M95.0957 257.522V256.356H102.044V257.522H99.2429V265.334H97.8927V257.522H95.0957Z" fill="#959595"/>
<path d="M82.4668 99.5555L124.353 93.8237" stroke="#2FB36B" stroke-width="2"/>
<path d="M166.238 100.878L124.353 94.2646" stroke="#2FB36B" stroke-width="2"/>
<path d="M39.6992 92.0601L82.0413 100.437" stroke="#2FB36B" stroke-width="2"/>
<circle cx="82.039" cy="99.5555" r="2.64541" fill="#2FB36B"/>
<circle cx="124.434" cy="94.2646" r="2.14541" fill="#2FB36B" stroke="#2FB36B"/>
<circle cx="40.288" cy="92.501" r="2.14541" fill="#2FB36B" stroke="#2FB36B"/>
<path d="M207.928 94.2645L250.144 87.6494" stroke="#2FB36B" stroke-width="2"/>
<path d="M166.679 101.76L208.564 94.2646" stroke="#2FB36B" stroke-width="2"/>
<path d="M210.061 94.2646C210.061 95.4514 209.104 96.41 207.927 96.41C206.75 96.41 205.793 95.4514 205.793 94.2646C205.793 93.0777 206.75 92.1191 207.927 92.1191C209.104 92.1191 210.061 93.0777 210.061 94.2646Z" fill="#2FB36B" stroke="#2FB36B"/>
<path d="M252.277 86.7382C252.277 87.9251 251.32 88.8836 250.143 88.8836C248.966 88.8836 248.009 87.9251 248.009 86.7382C248.009 85.5513 248.966 84.5928 250.143 84.5928C251.32 84.5928 252.277 85.5513 252.277 86.7382Z" fill="#2FB36B" stroke="#2FB36B"/>
<path d="M168.485 101.491C168.485 102.678 167.528 103.637 166.351 103.637C165.174 103.637 164.217 102.678 164.217 101.491C164.217 100.304 165.174 99.3458 166.351 99.3458C167.528 99.3458 168.485 100.304 168.485 101.491Z" fill="#2FB36B" stroke="#2FB36B"/>
<defs>
<clipPath id="clip0_815_1477">
<rect width="210.751" height="220.451" fill="white" transform="translate(40.5811 3.60742)"/>
</clipPath>
</defs>
</svg>
