<svg width="49" height="50" viewBox="0 0 49 50" fill="none" xmlns="http://www.w3.org/2000/svg">
    <circle cx="24.5" cy="25" r="24.5" fill="#4A4A4A" />
    <path
      d="M27.6677 40.5L16.954 29.028V26.6397H22.0217C23.676 26.6397 25.1535 26.0946 26.454 25.0044C27.7546 23.9141 28.4589 22.3487 28.5669 20.3082H15V18.3728H28.4398C28.1136 16.9424 27.3532 15.762 26.1585 14.8314C24.9639 13.9008 23.585 13.4355 22.0217 13.4355H15V11.5H34V13.4355H27.3372C28.1083 13.9713 28.7617 14.7018 29.2976 15.6269C29.8336 16.552 30.1926 17.4673 30.3747 18.3728H34V20.3082H30.4256C30.3112 22.8518 29.4375 24.8655 27.8044 26.3494C26.1712 27.8333 24.2437 28.5752 22.0217 28.5752H19.159L30.254 40.5H27.6677Z"
      fill="#FFF" />
  </svg>