<svg width="65" height="64" viewBox="0 0 65 64" fill="none" xmlns="http://www.w3.org/2000/svg">
<path d="M51.6567 42.1819C51.1885 42.0533 50.7049 42.3287 50.5765 42.7969C48.97 48.6525 43.6023 52.7422 37.5234 52.7422C30.3461 52.7422 24.4567 47.1265 24.0158 40.0583C31.7281 39.6052 37.9219 33.4112 38.3747 25.6988C44.0844 26.0596 49.0281 30.0238 50.5683 35.5868C50.6979 36.0547 51.1822 36.3287 51.6499 36.1993C52.1178 36.0698 52.392 35.5856 52.2624 35.1177C51.3874 31.9575 49.4683 29.1078 46.8588 27.0936C44.39 25.188 41.4736 24.1062 38.3781 23.938C37.9328 15.9016 31.2549 9.5 23.1094 9.5C14.6768 9.5 7.81641 16.3604 7.81641 24.793C7.81641 32.9388 14.2183 39.6167 22.2548 40.0616C22.6996 48.0981 29.3776 54.5 37.5234 54.5C44.3917 54.5 50.4563 49.8788 52.2717 43.262C52.4002 42.7939 52.1248 42.3103 51.6567 42.1819ZM24.0196 38.2968C24.4693 31.5573 29.8737 26.1529 36.6132 25.7032C36.1634 32.4427 30.759 37.8471 24.0196 38.2968ZM9.57422 24.793C9.57422 17.3296 15.6461 11.2578 23.1094 11.2578C30.2867 11.2578 36.1761 16.8735 36.617 23.9417C28.9049 24.3947 22.7112 30.5885 22.2582 38.3005C15.1899 37.8597 9.57422 31.9703 9.57422 24.793Z" fill="#63CB8D"/>
<path d="M36.6288 43.5924C37.1142 43.5924 37.5077 43.1989 37.5077 42.7135V40.7196L42.2333 45.4452C42.572 45.7838 43.1376 45.7838 43.4764 45.4452C43.8196 45.102 43.8196 44.5455 43.4764 44.2022L38.7508 39.4766H40.7345C41.22 39.4766 41.6134 39.0831 41.6134 38.5977C41.6134 38.1122 41.22 37.7188 40.7345 37.7188H36.6289C36.1503 37.7188 35.7499 38.1191 35.75 38.5977V42.7134C35.7499 43.1989 36.1434 43.5924 36.6288 43.5924Z" fill="#63CB8D"/>
<path d="M23.6245 26.4722C24.103 26.4722 24.5034 26.0718 24.5034 25.5932V21.4774C24.5034 20.992 24.11 20.5985 23.6245 20.5985C23.1391 20.5985 22.7456 20.992 22.7456 21.4774V23.4713L18.02 18.7457C17.6768 18.4025 17.1203 18.4025 16.777 18.7457C16.4337 19.0889 16.4338 19.6454 16.777 19.9887L21.5026 24.7143H19.5188C19.0334 24.7143 18.6399 25.1078 18.6399 25.5932C18.6399 26.0787 19.0334 26.4722 19.5188 26.4722H23.6245Z" fill="#63CB8D"/>
<path d="M52.7979 39.0344C52.7096 38.5638 52.2309 38.2518 51.7652 38.3444C51.2961 38.4378 50.9811 38.9078 51.0752 39.3771C51.1693 39.8462 51.6381 40.1612 52.108 40.0671C52.576 39.9733 52.8932 39.504 52.7979 39.0344Z" fill="#63CB8D"/>
</svg>
