<svg xmlns="http://www.w3.org/2000/svg" width="52" height="54" viewBox="0 0 52 54" fill="none">
    <g clip-path="url(#clip0_4580_5496)">
        <path fill-rule="evenodd" clip-rule="evenodd"
            d="M13.4415 0.130683C13.1388 0.256686 12.7938 0.32272 12.6748 0.277496C12.5558 0.232273 12.4585 0.290932 12.4585 0.407596C12.4585 0.548345 12.2976 0.596518 11.9808 0.550476C11.586 0.493127 11.4504 0.569318 11.2002 0.988454C11.0337 1.2675 10.797 1.49591 10.6743 1.49591C10.5223 1.49591 10.4677 1.66566 10.5031 2.02843C10.5492 2.50147 10.6058 2.55571 11.0101 2.51376C11.3329 2.48034 11.4653 2.54113 11.4653 2.72267C11.4653 2.8767 11.6651 3.01827 11.9662 3.07791C12.3527 3.15443 12.4456 3.24406 12.3731 3.47034C12.3087 3.67106 12.3857 3.7969 12.6171 3.86965C12.9415 3.97156 13.1042 4.44526 12.8149 4.44526C12.5899 4.44526 11.9968 5.00892 11.9465 5.27059C11.921 5.40249 11.9636 5.84211 12.0407 6.24765C12.118 6.65318 12.1703 7.16932 12.1571 7.39462C12.1251 7.94008 12.2373 8.06871 13.162 8.54536C13.5945 8.7682 13.9482 9.03806 13.9482 9.14489C13.9482 9.25173 14.1473 9.36249 14.3906 9.391C14.851 9.44491 15.1499 9.85241 14.7291 9.85241C14.5974 9.85241 14.3026 9.99791 14.0742 10.1757C13.7279 10.4454 13.6625 10.6279 13.6801 11.2756C13.6981 11.9389 13.6228 12.1369 13.1635 12.6319C12.8677 12.9505 12.6252 13.3423 12.6248 13.5022C12.6243 13.6622 12.4365 13.8635 12.2072 13.9499C11.978 14.0361 11.7158 14.3109 11.6244 14.5602C11.2952 15.4601 11.0426 15.8042 10.4316 16.1862C10.0898 16.3997 9.8101 16.6521 9.8101 16.7472C9.8101 17.1739 8.94888 18.0136 8.43807 18.0849C8.14575 18.1257 7.78607 18.2112 7.63859 18.2751C7.45005 18.3569 7.34428 18.2915 7.28172 18.0544C7.15939 17.5915 6.74078 17.6317 6.38325 18.1406C6.21971 18.3733 5.88105 18.807 5.63061 19.1044C5.38017 19.4016 5.17542 19.7745 5.17542 19.933C5.17542 20.2774 5.63442 20.6543 6.0628 20.6615C6.31903 20.6659 6.35478 20.7563 6.27533 21.1992C6.1636 21.8212 6.51054 22.399 6.90548 22.249C7.06703 22.1876 7.16171 22.243 7.16171 22.3988C7.16171 22.5348 7.30588 22.9258 7.48217 23.2677C7.91617 24.1101 7.7869 24.881 7.28105 24.4655C7.11967 24.3328 6.94736 24.3436 6.63054 24.5064C6.33558 24.6578 5.85457 24.7003 5.10805 24.641C4.23541 24.5717 4.01675 24.6008 4.01675 24.7866C4.01675 24.9144 3.79329 25.1024 3.52018 25.2045C3.01003 25.395 2.79535 26.0739 3.24524 26.0739C3.36723 26.0739 3.55395 26.2625 3.66005 26.4932C3.77641 26.746 4.16076 27.047 4.62869 27.252C5.27887 27.5367 5.48826 27.5616 5.92243 27.4063C6.55457 27.1799 6.66514 27.1759 6.66514 27.379C6.66514 27.5656 6.2212 27.82 5.75476 27.9008C5.57268 27.9323 5.37736 28.0211 5.32059 28.0979C5.26398 28.1749 5.0579 28.1533 4.86291 28.0499C4.57457 27.8972 4.48965 27.9105 4.40789 28.1212C4.34052 28.2951 4.65452 28.7419 5.36213 29.4795C7.21402 31.4094 7.35571 31.4699 8.66285 30.8893C9.70516 30.4263 10.2204 29.8562 10.0571 29.3468C10.0011 29.1725 10.0258 28.9054 10.1118 28.7532C10.2411 28.5245 10.2909 28.5734 10.3999 29.0367C10.4724 29.3447 10.5121 29.7686 10.4883 29.9786C10.4644 30.1885 10.5763 30.5041 10.7369 30.6798C11.0058 30.9739 11.0095 31.0601 10.7821 31.7725C10.6232 32.2711 10.5786 32.7499 10.6571 33.1195C10.724 33.435 10.8238 34.0579 10.8787 34.5039C10.9337 34.9499 11.0868 35.6873 11.219 36.1425C11.3511 36.5977 11.5008 37.265 11.5516 37.6255C11.7275 38.8749 11.8138 39.1334 12.4583 40.3427C13.589 42.4636 13.903 43.178 14.0278 43.9119C14.1844 44.8336 14.705 45.9933 15.288 46.7193C15.7931 47.3484 16.1626 48.2438 16.5387 49.7506C16.8131 50.8501 17.3501 51.8522 17.9742 52.4291C18.6698 53.0723 19.7301 52.6444 19.9892 51.6163C20.115 51.1175 21.1121 50.7041 21.7249 50.8966C21.9811 50.9772 22.0643 50.9571 21.987 50.8332C21.9248 50.7334 21.7293 50.6518 21.5525 50.6518C21.1445 50.6518 21.1488 50.4908 21.5785 49.6746C21.877 49.1078 21.9831 49.0294 22.3333 49.1164L22.7408 49.2176L22.7018 47.7636C22.668 46.5054 22.7127 46.2283 23.0338 45.7043C23.4751 44.9845 23.5332 44.0721 23.2584 42.1793C23.0962 41.0623 23.103 40.7397 23.2993 40.2748C23.5119 39.7715 24.2107 39.3222 24.2107 39.6891C24.2107 40.0707 24.7078 39.7777 24.8854 39.2912C25.0454 38.8533 25.1583 38.7587 25.4543 38.8147C26.238 38.963 26.968 38.3333 26.8728 37.5908C26.8589 37.4816 27.1666 37.2334 27.5568 37.0392C27.9469 36.8449 28.4895 36.4748 28.7626 36.2164C29.8958 35.1444 30.9105 34.1526 31.3825 33.6553C31.6588 33.3643 32.2252 33.0117 32.6412 32.8718C33.9624 32.4274 34.6839 31.5562 34.5265 30.5952C34.4345 30.0342 34.4593 29.996 35.0724 29.757C35.4256 29.6191 35.8396 29.4373 35.9925 29.3527C36.1692 29.2549 36.2902 29.2577 36.3248 29.3604C36.4107 29.6157 37.2866 29.7216 37.2896 29.4771C37.2916 29.3241 37.3308 29.3295 37.4384 29.4977C37.5251 29.6331 37.7019 29.6819 37.8722 29.6172C38.1247 29.5213 38.1439 29.3732 38.0293 28.4053C37.9575 27.7989 37.8916 27.1369 37.8827 26.9341C37.8737 26.7312 37.769 26.5654 37.6498 26.5654C37.5306 26.5654 37.4811 26.4884 37.5399 26.3944C37.5986 26.3003 37.5566 26.116 37.4467 25.9847C37.3171 25.8302 37.3017 25.6741 37.4031 25.5413C37.6761 25.1841 37.6238 24.5997 37.3182 24.5939C37.0089 24.5882 36.4595 24.2251 36.4595 24.0264C36.4595 23.7802 37.3081 23.1245 37.6268 23.1245C37.804 23.1245 37.948 23.0691 37.9467 23.0016C37.9424 22.7994 37.6402 22.3872 37.496 22.3872C37.4222 22.3872 37.1568 22.2276 36.9064 22.0326L36.4509 21.678L36.8639 21.2133C37.0908 20.9577 37.279 20.8409 37.2818 20.9535C37.2848 21.0662 37.467 21.1583 37.6872 21.1583C37.9072 21.1583 38.1172 21.2474 38.1538 21.3564C38.1905 21.4653 38.4388 21.5643 38.7057 21.5763C39.1517 21.5963 39.1893 21.6454 39.1743 22.1899C39.1599 22.7065 39.2211 22.8038 39.6541 22.9533C39.9271 23.0475 40.8345 23.1245 41.6707 23.1245C42.5068 23.1245 43.2337 23.1669 43.286 23.2187C43.4271 23.3583 43.1399 24.2361 42.8636 24.5096C42.7317 24.64 42.4381 24.793 42.2108 24.8496C41.6192 24.9965 41.3769 25.6154 41.5957 26.4201C41.6925 26.7758 41.8364 27.0273 41.9153 26.979C41.9945 26.9307 42.0905 26.9837 42.129 27.097C42.1843 27.2598 42.2545 27.2575 42.4644 27.086C42.6104 26.9667 42.6991 26.7824 42.6615 26.6763C42.6239 26.5703 42.7057 26.3364 42.8434 26.1566C43.0579 25.8761 43.1157 25.8645 43.25 26.0747C43.336 26.2094 43.4075 26.5549 43.409 26.8425C43.4103 27.1301 43.486 27.4109 43.577 27.4666C43.6681 27.5223 43.7426 27.8541 43.7426 28.204C43.7426 28.5538 43.817 28.8856 43.9081 28.9413C43.9991 28.997 44.0748 28.946 44.0761 28.8281C44.0781 28.6686 44.118 28.675 44.2315 28.8528C44.3626 29.0581 44.432 29.0496 44.7178 28.7935C44.9628 28.5739 45.0259 28.3701 44.9558 28.0237C44.8943 27.7189 44.961 27.4007 45.1445 27.1235C45.3354 26.8351 45.4094 26.4588 45.3705 25.9746C45.3092 25.2123 45.4253 25.127 46.1427 25.4067C46.429 25.5184 46.5474 25.3894 47.0183 24.453C47.3343 23.8248 47.5274 23.229 47.4786 23.0337C47.4256 22.8229 47.5158 22.5941 47.7201 22.4209C47.8995 22.269 48.0462 22.0332 48.0462 21.8972C48.0462 21.7611 48.116 21.6498 48.2013 21.6498C48.2867 21.6498 48.3142 21.3918 48.2624 21.0763C48.196 20.6716 48.2306 20.5029 48.3799 20.5029C48.4962 20.5029 48.8975 20.2546 49.2716 19.9512C50.084 19.2923 50.9341 19.0472 51.0822 19.4293C51.1857 19.6962 51.6877 19.7878 51.6877 19.5397C51.6877 19.4608 51.576 19.3043 51.4394 19.192C51.0698 18.8884 51.138 18.5535 51.6131 18.3393C52.1949 18.0769 52.107 17.4254 51.4408 17.0615C51.1685 16.9127 50.796 16.5017 50.6131 16.1481C50.4304 15.7945 50.169 15.4323 50.0325 15.343C49.7206 15.1391 49.2049 15.0965 49.2049 15.2745C49.2049 15.5135 48.0127 15.6454 47.685 15.4427C47.3521 15.2369 46.722 15.4485 46.722 15.7659C46.722 15.8578 46.31 16.1134 45.8063 16.3339C45.3026 16.5543 44.8489 16.8424 44.7979 16.974C44.7468 17.1057 44.5669 17.2568 44.3979 17.3099C44.2289 17.3629 44.0466 17.5435 43.9928 17.7113C43.9223 17.9313 43.6667 18.0472 43.074 18.1278C42.4008 18.2196 42.2528 18.2987 42.2528 18.5673C42.2528 18.7572 42.392 18.931 42.5839 18.9807C42.9533 19.0764 43.0581 19.8298 42.708 19.8732C42.5281 19.8955 40.3061 20.0025 39.3562 20.0346C38.3407 20.0688 37.4684 19.6502 37.7802 19.2781C37.8716 19.1691 37.8933 19.0275 37.8285 18.9633C37.7638 18.8992 37.732 18.6023 37.758 18.3036C37.813 17.6728 37.4978 17.4655 36.8963 17.7369C36.4042 17.9587 36.0214 19.3544 36.3218 19.8307C36.629 20.3175 36.3845 20.6238 35.6319 20.6947C35.2541 20.7305 34.9052 20.6959 34.8566 20.618C34.8079 20.5401 34.5829 20.5224 34.3565 20.5786C34.1302 20.6348 33.8455 20.5992 33.724 20.4993C33.6024 20.3995 33.2781 20.3115 33.003 20.3036C32.7281 20.2959 32.4682 20.1992 32.4253 20.0888C32.3795 19.9705 32.1726 19.921 31.922 19.9685C31.602 20.029 31.3835 19.9294 31.0401 19.5658C30.35 18.8357 29.9928 18.7074 28.8828 18.7906C28.1302 18.8471 27.815 18.804 27.6284 18.6194C27.4914 18.4837 27.2789 18.3728 27.156 18.3728C27.0332 18.3728 26.7671 18.2579 26.5646 18.1175C26.362 17.9771 26.1405 17.8964 26.0724 17.9382C26.004 17.9799 25.4684 17.6569 24.8821 17.2202C24.2956 16.7836 23.7524 16.465 23.6749 16.5124C23.5974 16.5599 23.4298 16.5129 23.3023 16.4082C23.0615 16.2104 23.0732 16.1581 23.6579 14.8183C23.7835 14.5306 24.0831 14.1419 24.3236 13.9546C24.748 13.6241 24.7515 13.6069 24.4444 13.373C24.2703 13.2404 23.9604 13.0864 23.7555 13.031C23.5506 12.9755 23.3831 12.8393 23.3831 12.7284C23.3831 12.5073 22.5881 12.0703 22.2799 12.1219C22.1739 12.1398 21.9291 11.9347 21.736 11.6661C21.4981 11.3354 21.2975 11.2112 21.1137 11.281C20.9149 11.3566 20.8694 11.3151 20.9428 11.1257C20.9979 10.9838 20.9931 10.8183 20.9323 10.758C20.8714 10.6979 20.8176 10.5616 20.8127 10.4552C20.8079 10.3491 20.7016 10.059 20.5768 9.81079C20.3308 9.32169 20.4538 9.01725 20.7706 9.33087C21.0431 9.60057 21.4157 9.56714 21.8434 9.23436C22.1743 8.97678 22.1895 8.89666 22.0127 8.34611C21.9058 8.01333 21.6964 7.70954 21.5474 7.67104C21.3524 7.62057 21.2765 7.41362 21.2765 6.93304C21.2765 6.33531 21.3218 6.25993 21.7076 6.21537C21.9791 6.18407 22.1613 6.04791 22.1997 5.84784C22.2333 5.67301 22.5133 5.28714 22.822 4.99056C23.1313 4.69301 23.3955 4.26601 23.4107 4.03858C23.4258 3.81164 23.4445 3.50311 23.4521 3.35285C23.4609 3.17737 23.3238 3.06939 23.0688 3.05071C22.8504 3.03481 22.5277 2.8259 22.3515 2.58651C21.9384 2.02499 21.5881 2.03826 20.2092 2.66746C19.2019 3.12706 19.046 3.15754 18.789 2.94502C18.6301 2.81361 18.2952 2.61977 18.0449 2.51425C17.7947 2.40857 17.5897 2.21194 17.5897 2.07709C17.5897 1.94224 17.3623 1.71563 17.0844 1.57325C16.8065 1.43102 16.4514 1.1895 16.2953 1.03663C15.3775 0.136746 14.2708 -0.214555 13.4415 0.130683ZM44.4293 43.5667C44.3174 43.7702 43.9063 44.4771 43.8253 45.0396C43.7444 45.602 43.4943 46.1745 43.8937 46.2278C43.826 46.6682 43.9051 47.2109 44.037 47.2109C44.2153 47.2109 44.7845 44.964 44.6577 44.7608C44.6011 44.6702 44.6212 44.4655 44.7021 44.306C44.783 44.1464 44.8006 43.8314 44.741 43.6061L44.6326 43.1965L44.4293 43.5667ZM44.6735 45.9884C44.5137 46.4003 44.5607 46.5067 44.7559 46.1745C44.8526 46.01 44.8968 45.8409 44.854 45.7988C44.8115 45.7565 44.7301 45.8419 44.6735 45.9884ZM43.246 46.8832C43.246 46.9733 43.3249 47.0471 43.4213 47.0471C43.5176 47.0471 43.5505 46.9733 43.4943 46.8832C43.438 46.7931 43.3592 46.7193 43.319 46.7193C43.2788 46.7193 43.246 46.7931 43.246 46.8832ZM43.6828 47.98C43.4782 48.1826 43.5798 48.6856 43.8253 48.6856C43.9619 48.6856 44.2391 48.5928 44.2391 48.4178C44.2391 48.0758 43.8554 47.8091 43.6828 47.98ZM44.0736 50.9795C44.0736 51.0696 44.1481 51.1434 44.2391 51.1434C44.3302 51.1434 44.7259 51.1643 44.7259 51.0742C44.7259 50.9841 44.3835 50.0695 44.032 50.4426C44.032 50.4426 44.0736 50.8894 44.0736 50.9795ZM44.6529 52.4542C44.7092 52.5443 44.788 52.6181 44.8282 52.6181C44.8685 52.6181 44.9012 52.5443 44.9012 52.4542C44.9012 52.3641 44.8223 52.2904 44.7259 52.2904C44.6296 52.2904 44.5967 52.3641 44.6529 52.4542ZM45.2644 52.6518C44.9736 52.9397 45.023 53.1096 45.3978 53.1096C45.7509 53.1096 45.8035 52.9882 45.5929 52.66C45.4916 52.5019 45.4177 52.5001 45.2644 52.6518ZM45.7079 53.7743C45.1493 54.3296 45.8447 55.1255 46.0773 54.9833C46.1587 54.9335 46.2231 54.768 46.2201 54.6156C46.2135 54.2626 45.8254 53.5862 45.7079 53.7743Z"
            fill="#CACACA" />
    </g>
    <defs>
        <clipPath id="clip0_4580_5496">
            <rect width="52" height="54" fill="white" />
        </clipPath>
    </defs>
</svg>