<?xml version="1.0" encoding="UTF-8"?>
<svg xmlns="http://www.w3.org/2000/svg" xmlns:xlink="http://www.w3.org/1999/xlink" width="48px" height="48px" viewBox="0 0 48 48" version="1.1">
<g id="surface1">
<path style=" stroke:none;fill-rule:evenodd;fill:rgb(29.019608%,29.019608%,29.019608%);fill-opacity:1;" d="M 12.40625 0.117188 C 12.128906 0.226562 11.808594 0.285156 11.699219 0.246094 C 11.589844 0.207031 11.5 0.257812 11.5 0.363281 C 11.5 0.488281 11.351562 0.53125 11.058594 0.488281 C 10.695312 0.4375 10.570312 0.507812 10.339844 0.878906 C 10.183594 1.125 9.964844 1.328125 9.851562 1.328125 C 9.714844 1.328125 9.664062 1.480469 9.695312 1.804688 C 9.738281 2.222656 9.789062 2.273438 10.164062 2.234375 C 10.460938 2.203125 10.582031 2.257812 10.582031 2.421875 C 10.582031 2.558594 10.769531 2.683594 11.046875 2.734375 C 11.402344 2.804688 11.488281 2.882812 11.421875 3.085938 C 11.363281 3.261719 11.433594 3.375 11.648438 3.441406 C 11.945312 3.53125 12.097656 3.953125 11.828125 3.953125 C 11.621094 3.953125 11.074219 4.453125 11.027344 4.683594 C 11.003906 4.800781 11.042969 5.191406 11.113281 5.554688 C 11.1875 5.914062 11.234375 6.371094 11.222656 6.574219 C 11.191406 7.058594 11.296875 7.171875 12.148438 7.597656 C 12.546875 7.792969 12.875 8.035156 12.875 8.128906 C 12.875 8.222656 13.058594 8.320312 13.285156 8.347656 C 13.707031 8.394531 13.984375 8.757812 13.597656 8.757812 C 13.472656 8.757812 13.203125 8.886719 12.992188 9.046875 C 12.671875 9.285156 12.613281 9.445312 12.628906 10.023438 C 12.644531 10.613281 12.574219 10.789062 12.152344 11.226562 C 11.878906 11.511719 11.652344 11.859375 11.652344 12.003906 C 11.652344 12.144531 11.480469 12.324219 11.269531 12.398438 C 11.054688 12.476562 10.816406 12.722656 10.730469 12.941406 C 10.425781 13.742188 10.191406 14.046875 9.628906 14.386719 C 9.3125 14.578125 9.054688 14.800781 9.054688 14.886719 C 9.054688 15.265625 8.261719 16.011719 7.789062 16.074219 C 7.519531 16.113281 7.1875 16.1875 7.050781 16.246094 C 6.878906 16.316406 6.78125 16.257812 6.722656 16.046875 C 6.609375 15.636719 6.222656 15.671875 5.890625 16.125 C 5.742188 16.332031 5.429688 16.71875 5.199219 16.980469 C 4.964844 17.246094 4.777344 17.578125 4.777344 17.71875 C 4.777344 18.023438 5.199219 18.359375 5.597656 18.367188 C 5.832031 18.371094 5.867188 18.449219 5.792969 18.84375 C 5.691406 19.398438 6.007812 19.910156 6.375 19.777344 C 6.523438 19.722656 6.609375 19.773438 6.609375 19.910156 C 6.609375 20.03125 6.742188 20.378906 6.90625 20.683594 C 7.308594 21.429688 7.1875 22.117188 6.722656 21.746094 C 6.570312 21.628906 6.414062 21.640625 6.121094 21.785156 C 5.847656 21.917969 5.402344 21.957031 4.714844 21.902344 C 3.910156 21.839844 3.707031 21.867188 3.707031 22.03125 C 3.707031 22.144531 3.5 22.3125 3.25 22.402344 C 2.777344 22.574219 2.582031 23.175781 2.996094 23.175781 C 3.109375 23.175781 3.28125 23.34375 3.378906 23.550781 C 3.484375 23.773438 3.839844 24.042969 4.273438 24.222656 C 4.871094 24.476562 5.066406 24.5 5.46875 24.359375 C 6.050781 24.160156 6.152344 24.15625 6.152344 24.335938 C 6.152344 24.503906 5.742188 24.730469 5.3125 24.800781 C 5.144531 24.828125 4.964844 24.90625 4.910156 24.976562 C 4.859375 25.042969 4.667969 25.023438 4.488281 24.933594 C 4.222656 24.796875 4.144531 24.808594 4.070312 24.996094 C 4.007812 25.152344 4.296875 25.546875 4.949219 26.203125 C 6.660156 27.917969 6.789062 27.972656 7.996094 27.457031 C 8.957031 27.046875 9.433594 26.539062 9.285156 26.085938 C 9.230469 25.929688 9.253906 25.695312 9.332031 25.558594 C 9.453125 25.355469 9.5 25.398438 9.601562 25.808594 C 9.667969 26.085938 9.703125 26.460938 9.679688 26.648438 C 9.660156 26.835938 9.761719 27.113281 9.910156 27.269531 C 10.160156 27.53125 10.164062 27.609375 9.953125 28.242188 C 9.804688 28.683594 9.765625 29.109375 9.835938 29.441406 C 9.898438 29.71875 9.992188 30.273438 10.042969 30.671875 C 10.09375 31.066406 10.234375 31.722656 10.355469 32.125 C 10.476562 32.53125 10.617188 33.125 10.664062 33.445312 C 10.824219 34.554688 10.90625 34.785156 11.5 35.859375 C 12.542969 37.746094 12.832031 38.378906 12.949219 39.03125 C 13.09375 39.851562 13.574219 40.882812 14.113281 41.527344 C 14.578125 42.085938 14.917969 42.882812 15.265625 44.222656 C 15.519531 45.199219 16.015625 46.089844 16.589844 46.605469 C 17.234375 47.175781 18.210938 46.796875 18.453125 45.882812 C 18.566406 45.4375 19.488281 45.070312 20.054688 45.242188 C 20.289062 45.3125 20.367188 45.296875 20.296875 45.183594 C 20.238281 45.097656 20.058594 45.023438 19.894531 45.023438 C 19.519531 45.023438 19.523438 44.878906 19.917969 44.15625 C 20.195312 43.652344 20.292969 43.582031 20.617188 43.660156 L 20.992188 43.75 L 20.957031 42.457031 C 20.925781 41.339844 20.964844 41.09375 21.261719 40.625 C 21.667969 39.984375 21.722656 39.175781 21.46875 37.492188 C 21.320312 36.5 21.324219 36.214844 21.507812 35.800781 C 21.703125 35.351562 22.347656 34.953125 22.347656 35.277344 C 22.347656 35.617188 22.808594 35.359375 22.972656 34.925781 C 23.117188 34.535156 23.222656 34.453125 23.496094 34.503906 C 24.21875 34.632812 24.894531 34.074219 24.804688 33.414062 C 24.792969 33.316406 25.078125 33.097656 25.4375 32.921875 C 25.796875 32.75 26.296875 32.421875 26.550781 32.191406 C 27.597656 31.238281 28.53125 30.359375 28.96875 29.914062 C 29.222656 29.65625 29.746094 29.34375 30.128906 29.21875 C 31.351562 28.824219 32.015625 28.050781 31.871094 27.195312 C 31.785156 26.695312 31.808594 26.664062 32.375 26.449219 C 32.699219 26.328125 33.082031 26.167969 33.222656 26.089844 C 33.386719 26.003906 33.5 26.007812 33.53125 26.097656 C 33.609375 26.324219 34.417969 26.417969 34.421875 26.203125 C 34.421875 26.066406 34.460938 26.070312 34.558594 26.21875 C 34.636719 26.339844 34.800781 26.382812 34.957031 26.328125 C 35.191406 26.242188 35.210938 26.109375 35.105469 25.25 C 35.039062 24.710938 34.976562 24.121094 34.96875 23.941406 C 34.960938 23.761719 34.863281 23.613281 34.753906 23.613281 C 34.644531 23.613281 34.597656 23.546875 34.652344 23.460938 C 34.707031 23.378906 34.667969 23.214844 34.566406 23.097656 C 34.445312 22.960938 34.433594 22.820312 34.527344 22.703125 C 34.777344 22.386719 34.730469 21.867188 34.449219 21.859375 C 34.160156 21.855469 33.65625 21.535156 33.65625 21.355469 C 33.65625 21.136719 34.4375 20.554688 34.734375 20.554688 C 34.894531 20.554688 35.027344 20.507812 35.027344 20.445312 C 35.023438 20.265625 34.746094 19.898438 34.613281 19.898438 C 34.542969 19.898438 34.296875 19.757812 34.066406 19.585938 L 33.648438 19.269531 L 34.027344 18.855469 C 34.238281 18.628906 34.410156 18.523438 34.414062 18.625 C 34.417969 18.726562 34.585938 18.808594 34.789062 18.808594 C 34.992188 18.808594 35.183594 18.886719 35.21875 18.984375 C 35.253906 19.082031 35.480469 19.167969 35.726562 19.179688 C 36.140625 19.195312 36.175781 19.242188 36.160156 19.722656 C 36.148438 20.183594 36.203125 20.269531 36.605469 20.402344 C 36.855469 20.488281 37.695312 20.554688 38.464844 20.554688 C 39.238281 20.554688 39.90625 20.59375 39.957031 20.640625 C 40.085938 20.761719 39.820312 21.542969 39.566406 21.785156 C 39.445312 21.902344 39.171875 22.039062 38.964844 22.089844 C 38.417969 22.21875 38.195312 22.769531 38.394531 23.484375 C 38.484375 23.800781 38.617188 24.023438 38.691406 23.980469 C 38.765625 23.9375 38.851562 23.984375 38.886719 24.085938 C 38.9375 24.230469 39.003906 24.230469 39.199219 24.078125 C 39.332031 23.96875 39.414062 23.804688 39.378906 23.710938 C 39.34375 23.617188 39.421875 23.410156 39.546875 23.25 C 39.746094 23 39.800781 22.992188 39.921875 23.175781 C 40.003906 23.296875 40.070312 23.605469 40.070312 23.859375 C 40.070312 24.117188 40.140625 24.367188 40.226562 24.414062 C 40.308594 24.464844 40.378906 24.757812 40.378906 25.070312 C 40.378906 25.382812 40.445312 25.675781 40.53125 25.726562 C 40.613281 25.773438 40.683594 25.730469 40.6875 25.625 C 40.6875 25.484375 40.722656 25.488281 40.828125 25.648438 C 40.949219 25.828125 41.015625 25.820312 41.277344 25.59375 C 41.503906 25.398438 41.5625 25.21875 41.496094 24.910156 C 41.441406 24.640625 41.503906 24.355469 41.671875 24.109375 C 41.847656 23.851562 41.917969 23.519531 41.878906 23.089844 C 41.824219 22.410156 41.929688 22.335938 42.59375 22.582031 C 42.859375 22.683594 42.96875 22.566406 43.402344 21.734375 C 43.691406 21.175781 43.871094 20.648438 43.828125 20.472656 C 43.777344 20.285156 43.859375 20.082031 44.050781 19.929688 C 44.214844 19.792969 44.351562 19.585938 44.351562 19.464844 C 44.351562 19.34375 44.414062 19.246094 44.492188 19.246094 C 44.574219 19.246094 44.597656 19.015625 44.550781 18.734375 C 44.488281 18.375 44.519531 18.226562 44.660156 18.226562 C 44.765625 18.226562 45.136719 18.003906 45.480469 17.734375 C 46.230469 17.148438 47.015625 16.929688 47.152344 17.269531 C 47.25 17.507812 47.710938 17.589844 47.710938 17.367188 C 47.710938 17.296875 47.609375 17.160156 47.484375 17.058594 C 47.140625 16.789062 47.203125 16.492188 47.644531 16.300781 C 48.179688 16.066406 48.097656 15.488281 47.484375 15.164062 C 47.234375 15.035156 46.886719 14.667969 46.71875 14.355469 C 46.550781 14.039062 46.308594 13.71875 46.183594 13.636719 C 45.894531 13.457031 45.417969 13.417969 45.417969 13.578125 C 45.417969 13.789062 44.320312 13.90625 44.015625 13.726562 C 43.710938 13.542969 43.128906 13.730469 43.128906 14.015625 C 43.128906 14.097656 42.746094 14.324219 42.28125 14.519531 C 41.816406 14.714844 41.398438 14.972656 41.351562 15.089844 C 41.304688 15.203125 41.140625 15.339844 40.984375 15.386719 C 40.828125 15.433594 40.660156 15.59375 40.609375 15.742188 C 40.542969 15.9375 40.308594 16.042969 39.761719 16.113281 C 39.140625 16.195312 39.003906 16.265625 39.003906 16.503906 C 39.003906 16.671875 39.132812 16.828125 39.308594 16.871094 C 39.648438 16.957031 39.746094 17.625 39.421875 17.664062 C 39.257812 17.683594 37.207031 17.78125 36.328125 17.808594 C 35.390625 17.839844 34.585938 17.46875 34.875 17.136719 C 34.957031 17.039062 34.976562 16.914062 34.917969 16.855469 C 34.859375 16.800781 34.828125 16.535156 34.855469 16.269531 C 34.90625 15.710938 34.613281 15.523438 34.058594 15.765625 C 33.605469 15.964844 33.25 17.203125 33.527344 17.628906 C 33.8125 18.058594 33.585938 18.332031 32.890625 18.394531 C 32.542969 18.425781 32.21875 18.394531 32.175781 18.328125 C 32.128906 18.257812 31.921875 18.242188 31.714844 18.292969 C 31.503906 18.34375 31.242188 18.308594 31.128906 18.222656 C 31.019531 18.132812 30.71875 18.054688 30.464844 18.046875 C 30.210938 18.039062 29.96875 17.953125 29.929688 17.855469 C 29.890625 17.75 29.699219 17.707031 29.464844 17.75 C 29.171875 17.804688 28.96875 17.714844 28.652344 17.390625 C 28.015625 16.742188 27.6875 16.628906 26.660156 16.703125 C 25.964844 16.753906 25.675781 16.714844 25.503906 16.550781 C 25.375 16.429688 25.179688 16.332031 25.066406 16.332031 C 24.953125 16.332031 24.707031 16.230469 24.519531 16.105469 C 24.335938 15.980469 24.128906 15.90625 24.066406 15.945312 C 24.003906 15.980469 23.507812 15.695312 22.96875 15.308594 C 22.425781 14.917969 21.925781 14.636719 21.855469 14.675781 C 21.78125 14.71875 21.628906 14.679688 21.511719 14.585938 C 21.289062 14.410156 21.296875 14.363281 21.839844 13.171875 C 21.953125 12.917969 22.230469 12.570312 22.453125 12.402344 C 22.84375 12.109375 22.847656 12.09375 22.5625 11.886719 C 22.402344 11.769531 22.117188 11.632812 21.929688 11.582031 C 21.738281 11.535156 21.585938 11.414062 21.585938 11.3125 C 21.585938 11.117188 20.851562 10.730469 20.566406 10.773438 C 20.46875 10.789062 20.242188 10.609375 20.0625 10.371094 C 19.84375 10.074219 19.660156 9.964844 19.488281 10.027344 C 19.304688 10.09375 19.265625 10.058594 19.332031 9.890625 C 19.382812 9.761719 19.378906 9.617188 19.320312 9.5625 C 19.265625 9.507812 19.214844 9.386719 19.210938 9.292969 C 19.207031 9.199219 19.109375 8.941406 18.992188 8.71875 C 18.765625 8.285156 18.878906 8.015625 19.171875 8.292969 C 19.425781 8.535156 19.769531 8.503906 20.164062 8.207031 C 20.46875 7.980469 20.484375 7.90625 20.320312 7.417969 C 20.222656 7.121094 20.027344 6.851562 19.890625 6.820312 C 19.710938 6.773438 19.640625 6.589844 19.640625 6.164062 C 19.640625 5.632812 19.683594 5.5625 20.039062 5.523438 C 20.289062 5.496094 20.457031 5.375 20.492188 5.199219 C 20.523438 5.042969 20.78125 4.699219 21.066406 4.4375 C 21.351562 4.171875 21.597656 3.792969 21.609375 3.589844 C 21.625 3.386719 21.640625 3.113281 21.648438 2.980469 C 21.65625 2.824219 21.53125 2.726562 21.292969 2.710938 C 21.09375 2.699219 20.792969 2.511719 20.632812 2.300781 C 20.25 1.800781 19.925781 1.8125 18.65625 2.371094 C 17.726562 2.78125 17.582031 2.808594 17.34375 2.617188 C 17.195312 2.5 16.886719 2.328125 16.65625 2.234375 C 16.425781 2.140625 16.238281 1.964844 16.238281 1.847656 C 16.238281 1.726562 16.027344 1.523438 15.769531 1.398438 C 15.515625 1.273438 15.1875 1.058594 15.042969 0.921875 C 14.195312 0.121094 13.171875 -0.191406 12.40625 0.117188 Z M 41.011719 38.726562 C 40.910156 38.90625 40.527344 39.535156 40.453125 40.035156 C 40.378906 40.535156 40.148438 41.042969 40.515625 41.089844 C 40.453125 41.484375 40.527344 41.964844 40.648438 41.964844 C 40.8125 41.964844 41.339844 39.96875 41.222656 39.789062 C 41.171875 39.707031 41.1875 39.523438 41.261719 39.382812 C 41.339844 39.242188 41.355469 38.960938 41.300781 38.761719 L 41.199219 38.398438 Z M 41.238281 40.878906 C 41.089844 41.246094 41.132812 41.339844 41.3125 41.042969 C 41.402344 40.898438 41.441406 40.746094 41.402344 40.710938 C 41.363281 40.671875 41.289062 40.75 41.238281 40.878906 Z M 39.917969 41.675781 C 39.917969 41.753906 39.992188 41.820312 40.082031 41.820312 C 40.171875 41.820312 40.199219 41.753906 40.148438 41.675781 C 40.097656 41.59375 40.023438 41.527344 39.988281 41.527344 C 39.949219 41.527344 39.917969 41.59375 39.917969 41.675781 Z M 40.324219 42.648438 C 40.132812 42.828125 40.226562 43.277344 40.453125 43.277344 C 40.582031 43.277344 40.835938 43.195312 40.835938 43.039062 C 40.835938 42.734375 40.480469 42.496094 40.324219 42.648438 Z M 40.683594 45.316406 C 40.683594 45.394531 40.753906 45.460938 40.835938 45.460938 C 40.921875 45.460938 41.285156 45.480469 41.285156 45.398438 C 41.285156 45.320312 40.96875 44.507812 40.644531 44.835938 C 40.644531 44.835938 40.683594 45.234375 40.683594 45.316406 Z M 41.21875 46.625 C 41.269531 46.707031 41.34375 46.773438 41.378906 46.773438 C 41.417969 46.773438 41.445312 46.707031 41.445312 46.625 C 41.445312 46.546875 41.375 46.480469 41.285156 46.480469 C 41.195312 46.480469 41.167969 46.546875 41.21875 46.625 Z M 41.78125 46.800781 C 41.515625 47.058594 41.558594 47.207031 41.90625 47.207031 C 42.230469 47.207031 42.28125 47.101562 42.085938 46.808594 C 41.992188 46.667969 41.925781 46.667969 41.78125 46.800781 Z M 42.191406 47.800781 C 41.675781 48.292969 42.316406 49 42.53125 48.875 C 42.609375 48.828125 42.667969 48.683594 42.664062 48.546875 C 42.660156 48.234375 42.300781 47.632812 42.191406 47.800781 Z M 42.191406 47.800781 "/>
</g>
</svg>
